<?xml version="1.0" encoding="UTF-8" standalone="no"?>
<!-- Created with Inkscape (http://www.inkscape.org/) -->
<svg
   xmlns:dc="http://purl.org/dc/elements/1.1/"
   xmlns:cc="http://web.resource.org/cc/"
   xmlns:rdf="http://www.w3.org/1999/02/22-rdf-syntax-ns#"
   xmlns:svg="http://www.w3.org/2000/svg"
   xmlns="http://www.w3.org/2000/svg"
   xmlns:xlink="http://www.w3.org/1999/xlink"
   xmlns:sodipodi="http://inkscape.sourceforge.net/DTD/sodipodi-0.dtd"
   xmlns:inkscape="http://www.inkscape.org/namespaces/inkscape"
   height="102.40000pt"
   id="svg1"
   inkscape:version="0.42"
   sodipodi:docbase="/home/Joel/other/ICON-DroplineNeu.tar.bz2_FILES/dlg-neu/scalable/Complexcity/apps"
   sodipodi:docname="emule.svg"
   sodipodi:version="0.32"
   version="1.0"
   width="102.40000pt"
   x="0.0000000"
   y="0.0000000">
  <metadata
     id="metadata3">
    <rdf:RDF>
      <cc:Work
         rdf:about="">
        <dc:title>eMule</dc:title>
        <dc:description />
        <dc:subject>
          <rdf:Bag>
            <rdf:li>logo</rdf:li>
            <rdf:li>icon</rdf:li>
            <rdf:li />
            <rdf:li>logos</rdf:li>
            <rdf:li>computer</rdf:li>
            <rdf:li>appicon</rdf:li>
          </rdf:Bag>
        </dc:subject>
        <dc:publisher>
          <cc:Agent
             rdf:about="http://www.openclipart.org">
            <dc:title>The Structorr</dc:title>
          </cc:Agent>
        </dc:publisher>
        <dc:creator>
          <cc:Agent>
            <dc:title>The Structorr</dc:title>
          </cc:Agent>
        </dc:creator>
        <dc:rights>
          <cc:Agent>
            <dc:title>The Structorr</dc:title>
          </cc:Agent>
        </dc:rights>
        <dc:date />
        <dc:format>image/svg+xml</dc:format>
        <dc:type
           rdf:resource="http://purl.org/dc/dcmitype/StillImage" />
        <cc:license
           rdf:resource="http://web.resource.org/cc/PublicDomain" />
        <dc:language>en</dc:language>
      </cc:Work>
      <cc:License
         rdf:about="http://web.resource.org/cc/PublicDomain">
        <cc:permits
           rdf:resource="http://web.resource.org/cc/Reproduction" />
        <cc:permits
           rdf:resource="http://web.resource.org/cc/Distribution" />
        <cc:permits
           rdf:resource="http://web.resource.org/cc/DerivativeWorks" />
      </cc:License>
    </rdf:RDF>
  </metadata>
  <sodipodi:namedview
     bordercolor="#666666"
     borderopacity="1.0"
     id="base"
     inkscape:current-layer="g1389"
     inkscape:cx="61.942638"
     inkscape:cy="54.993241"
     inkscape:pageopacity="0.0"
     inkscape:pageshadow="2"
     inkscape:window-height="695"
     inkscape:window-width="1020"
     inkscape:window-x="2"
     inkscape:window-y="26"
     inkscape:zoom="3.8452659"
     pagecolor="#ffffff" />
  <defs
     id="defs3">
    <linearGradient
       id="linearGradient1595">
      <stop
         id="stop1596"
         offset="0.0000000"
         style="stop-color:#000000;stop-opacity:1.0000000;" />
      <stop
         id="stop1597"
         offset="1.0000000"
         style="stop-color:#000000;stop-opacity:0.0000000;" />
    </linearGradient>
    <linearGradient
       id="linearGradient2993">
      <stop
         id="stop2994"
         offset="0.0000000"
         style="stop-color:#c83333;stop-opacity:1.0000000;" />
      <stop
         id="stop2995"
         offset="1.0000000"
         style="stop-color:#ed7c7c;stop-opacity:1.0000000;" />
    </linearGradient>
    <linearGradient
       id="linearGradient1615">
      <stop
         id="stop1616"
         offset="0.0000000"
         style="stop-color:#c8c8c8;stop-opacity:1.0000000;" />
      <stop
         id="stop1617"
         offset="1.0000000"
         style="stop-color:#ffffff;stop-opacity:1.0000000;" />
    </linearGradient>
    <linearGradient
       id="linearGradient1609">
      <stop
         id="stop1610"
         offset="0.0000000"
         style="stop-color:#c08d67;stop-opacity:1.0000000;" />
      <stop
         id="stop1611"
         offset="1.0000000"
         style="stop-color:#9b6339;stop-opacity:1.0000000;" />
    </linearGradient>
    <linearGradient
       id="linearGradient1543">
      <stop
         id="stop1544"
         offset="0.0000000"
         style="stop-color:#ffffff;stop-opacity:1.0000000;" />
      <stop
         id="stop1545"
         offset="1.0000000"
         style="stop-color:#ffffff;stop-opacity:0.0000000;" />
    </linearGradient>
    <linearGradient
       id="linearGradient1531">
      <stop
         id="stop1532"
         offset="0.0000000"
         style="stop-color:#373737;stop-opacity:1.0000000;" />
      <stop
         id="stop1533"
         offset="1.0000000"
         style="stop-color:#d8d8d8;stop-opacity:1.0000000;" />
    </linearGradient>
    <linearGradient
       collect="always"
       id="linearGradient1539"
       x1="348.92947"
       x2="347.82141"
       xlink:href="#linearGradient1531"
       y1="257.06176"
       y2="142.27375"
       gradientTransform="scale(0.999690,1.000310)"
       gradientUnits="userSpaceOnUse" />
    <radialGradient
       collect="always"
       cx="0.47752810"
       cy="0.82031250"
       fx="0.48314607"
       fy="0.80468750"
       id="radialGradient1573"
       r="1.0291580"
       xlink:href="#linearGradient1615" />
    <radialGradient
       collect="always"
       cx="0.50000000"
       cy="0.50000000"
       fx="0.50000000"
       fy="0.50000000"
       id="radialGradient1608"
       r="0.73962462"
       xlink:href="#linearGradient1609" />
    <radialGradient
       collect="always"
       cx="0.12718460"
       cy="0.79258007"
       fx="0.11952138"
       fy="0.80676192"
       id="radialGradient1614"
       r="0.71011627"
       xlink:href="#linearGradient2993" />
    <linearGradient
       collect="always"
       id="linearGradient1620"
       x1="0.73863637"
       x2="0.39772728"
       xlink:href="#linearGradient1615"
       y1="1.8515625"
       y2="0.14843750" />
    <linearGradient
       collect="always"
       id="linearGradient1624"
       x1="398.51953"
       x2="398.86758"
       xlink:href="#linearGradient1615"
       y1="83.746469"
       y2="136.31325"
       gradientTransform="scale(0.833838,1.199274)"
       gradientUnits="userSpaceOnUse" />
    <linearGradient
       collect="always"
       id="linearGradient1659"
       x1="0.52830189"
       x2="0.53773582"
       xlink:href="#linearGradient1543"
       y1="-0.015625000"
       y2="1.0000000" />
    <linearGradient
       collect="always"
       id="linearGradient2328"
       x1="0.50769234"
       x2="0.50769234"
       xlink:href="#linearGradient1543"
       y1="0.054687500"
       y2="1.0078125" />
    <radialGradient
       collect="always"
       cx="1.6979166"
       cy="1.6640625"
       fx="1.6770833"
       fy="1.6796875"
       id="radialGradient2330"
       r="1.5210140"
       xlink:href="#linearGradient1595" />
    <linearGradient
       collect="always"
       id="linearGradient3075"
       x1="0.59375000"
       x2="0.58333331"
       xlink:href="#linearGradient1543"
       y1="0.031250000"
       y2="1.0390625" />
    <radialGradient
       inkscape:collect="always"
       xlink:href="#linearGradient2993"
       id="radialGradient1424"
       gradientUnits="userSpaceOnUse"
       gradientTransform="scale(0.827170,1.208941)"
       cx="246.74232"
       cy="194.39719"
       fx="246.39068"
       fy="195.04796"
       r="32.585034" />
    <linearGradient
       inkscape:collect="always"
       xlink:href="#linearGradient1543"
       id="linearGradient1426"
       gradientUnits="userSpaceOnUse"
       gradientTransform="scale(0.827170,1.208941)"
       x1="217.17513"
       y1="190.67175"
       x2="263.48667"
       y2="167.38504" />
    <linearGradient
       inkscape:collect="always"
       xlink:href="#linearGradient1609"
       id="linearGradient1428"
       gradientUnits="userSpaceOnUse"
       gradientTransform="scale(0.799271,1.251141)"
       spreadMethod="reflect"
       x1="389.60099"
       y1="34.215816"
       x2="400.14702"
       y2="22.830893" />
    <linearGradient
       inkscape:collect="always"
       xlink:href="#linearGradient1609"
       id="linearGradient1430"
       gradientUnits="userSpaceOnUse"
       gradientTransform="scale(0.600599,1.665003)"
       spreadMethod="reflect"
       x1="628.58764"
       y1="24.041253"
       x2="646.70040"
       y2="35.535888" />
    <linearGradient
       inkscape:collect="always"
       xlink:href="#linearGradient1595"
       id="linearGradient1432"
       gradientUnits="userSpaceOnUse"
       gradientTransform="scale(0.804592,1.242866)"
       spreadMethod="pad"
       x1="441.07854"
       y1="24.587982"
       x2="407.14679"
       y2="53.536003" />
    <linearGradient
       inkscape:collect="always"
       xlink:href="#linearGradient1543"
       id="linearGradient1434"
       gradientUnits="userSpaceOnUse"
       gradientTransform="scale(0.688620,1.452179)"
       spreadMethod="pad"
       x1="494.39941"
       y1="71.254974"
       x2="464.58016"
       y2="38.034469" />
    <linearGradient
       inkscape:collect="always"
       xlink:href="#linearGradient1543"
       id="linearGradient1436"
       gradientUnits="userSpaceOnUse"
       gradientTransform="scale(0.549535,1.819720)"
       spreadMethod="pad"
       x1="670.35234"
       y1="62.260667"
       x2="688.16634"
       y2="24.838886" />
    <linearGradient
       inkscape:collect="always"
       xlink:href="#linearGradient1595"
       id="linearGradient1438"
       gradientUnits="userSpaceOnUse"
       gradientTransform="scale(0.770457,1.297932)"
       spreadMethod="pad"
       x1="367.36124"
       y1="61.522077"
       x2="400.63497"
       y2="31.338881" />
    <linearGradient
       inkscape:collect="always"
       xlink:href="#linearGradient1595"
       id="linearGradient1440"
       gradientUnits="userSpaceOnUse"
       gradientTransform="scale(0.601379,1.662845)"
       spreadMethod="pad"
       x1="530.85667"
       y1="-20.045357"
       x2="628.36691"
       y2="25.154707" />
    <linearGradient
       inkscape:collect="always"
       xlink:href="#linearGradient1595"
       id="linearGradient1442"
       gradientUnits="userSpaceOnUse"
       gradientTransform="scale(0.530594,1.884681)"
       spreadMethod="pad"
       x1="808.37059"
       y1="65.967754"
       x2="724.57679"
       y2="20.361232" />
    <radialGradient
       inkscape:collect="always"
       xlink:href="#linearGradient1609"
       id="radialGradient1444"
       gradientUnits="userSpaceOnUse"
       gradientTransform="scale(0.857489,1.166195)"
       cx="412.76362"
       cy="110.58074"
       fx="412.76362"
       fy="110.58074"
       r="75.212044" />
    <linearGradient
       inkscape:collect="always"
       xlink:href="#linearGradient1595"
       id="linearGradient1446"
       gradientUnits="userSpaceOnUse"
       gradientTransform="scale(0.827170,1.208941)"
       x1="356.44178"
       y1="186.25275"
       x2="263.54326"
       y2="174.32235" />
    <radialGradient
       inkscape:collect="always"
       xlink:href="#linearGradient1615"
       id="radialGradient1448"
       gradientUnits="userSpaceOnUse"
       gradientTransform="scale(1.175574,0.850648)"
       cx="337.46080"
       cy="986.53773"
       fx="339.38092"
       fy="981.19739"
       r="351.74734" />
    <radialGradient
       inkscape:collect="always"
       xlink:href="#linearGradient1595"
       id="radialGradient1450"
       gradientUnits="userSpaceOnUse"
       gradientTransform="scale(0.858889,1.164295)"
       cx="870.25411"
       cy="921.01164"
       fx="865.35966"
       fy="924.68247"
       r="357.33626" />
    <radialGradient
       inkscape:collect="always"
       xlink:href="#linearGradient1595"
       id="radialGradient1452"
       gradientUnits="userSpaceOnUse"
       gradientTransform="scale(0.858889,1.164295)"
       cx="81.877275"
       cy="926.51788"
       fx="81.877275"
       fy="926.51788"
       r="357.36925" />
    <linearGradient
       inkscape:collect="always"
       xlink:href="#linearGradient1531"
       id="linearGradient1454"
       gradientUnits="userSpaceOnUse"
       gradientTransform="scale(0.999690,1.000310)"
       x1="348.92947"
       y1="257.06176"
       x2="347.82141"
       y2="142.27375" />
    <linearGradient
       inkscape:collect="always"
       xlink:href="#linearGradient1615"
       id="linearGradient1456"
       gradientUnits="userSpaceOnUse"
       gradientTransform="scale(0.833838,1.199274)"
       x1="407.32359"
       y1="151.81540"
       x2="394.74637"
       y2="88.981671" />
    <linearGradient
       inkscape:collect="always"
       xlink:href="#linearGradient1543"
       id="linearGradient1460"
       gradientUnits="userSpaceOnUse"
       gradientTransform="scale(0.989529,1.010582)"
       x1="267.14107"
       y1="52.383136"
       x2="267.41858"
       y2="82.258744" />
    <linearGradient
       inkscape:collect="always"
       xlink:href="#linearGradient1615"
       id="linearGradient1462"
       gradientUnits="userSpaceOnUse"
       gradientTransform="scale(0.833838,1.199274)"
       x1="407.32359"
       y1="151.81540"
       x2="394.74637"
       y2="88.981671" />
    <linearGradient
       inkscape:collect="always"
       xlink:href="#linearGradient1543"
       id="linearGradient1466"
       gradientUnits="userSpaceOnUse"
       gradientTransform="scale(0.989529,1.010582)"
       x1="267.14107"
       y1="52.383136"
       x2="267.41858"
       y2="82.258744" />
    <linearGradient
       inkscape:collect="always"
       xlink:href="#linearGradient1543"
       id="linearGradient1468"
       gradientUnits="userSpaceOnUse"
       gradientTransform="scale(1.125830,0.888233)"
       x1="314.63709"
       y1="168.01307"
       x2="314.63709"
       y2="217.55059" />
    <linearGradient
       inkscape:collect="always"
       xlink:href="#linearGradient1595"
       id="linearGradient1470"
       gradientUnits="userSpaceOnUse"
       gradientTransform="scale(1.132895,0.882694)"
       x1="393.06440"
       y1="368.98973"
       x2="393.48518"
       y2="526.15239" />
    <linearGradient
       inkscape:collect="always"
       xlink:href="#linearGradient1543"
       id="linearGradient1472"
       gradientUnits="userSpaceOnUse"
       gradientTransform="scale(1.222263,0.818155)"
       x1="293.62169"
       y1="91.880604"
       x2="292.97873"
       y2="154.08624" />
    <radialGradient
       inkscape:collect="always"
       xlink:href="#linearGradient2993"
       id="radialGradient2964"
       gradientUnits="userSpaceOnUse"
       gradientTransform="scale(0.827170,1.208941)"
       cx="246.74232"
       cy="194.39719"
       fx="246.39068"
       fy="195.04796"
       r="32.585034" />
    <linearGradient
       inkscape:collect="always"
       xlink:href="#linearGradient1543"
       id="linearGradient2966"
       gradientUnits="userSpaceOnUse"
       gradientTransform="scale(0.827170,1.208941)"
       x1="217.17513"
       y1="190.67175"
       x2="263.48667"
       y2="167.38504" />
    <linearGradient
       inkscape:collect="always"
       xlink:href="#linearGradient1609"
       id="linearGradient2968"
       gradientUnits="userSpaceOnUse"
       gradientTransform="scale(0.799271,1.251141)"
       spreadMethod="reflect"
       x1="389.60099"
       y1="34.215816"
       x2="400.14702"
       y2="22.830893" />
    <linearGradient
       inkscape:collect="always"
       xlink:href="#linearGradient1609"
       id="linearGradient2970"
       gradientUnits="userSpaceOnUse"
       gradientTransform="scale(0.600599,1.665003)"
       spreadMethod="reflect"
       x1="628.58764"
       y1="24.041253"
       x2="646.70040"
       y2="35.535888" />
    <linearGradient
       inkscape:collect="always"
       xlink:href="#linearGradient1595"
       id="linearGradient2972"
       gradientUnits="userSpaceOnUse"
       gradientTransform="scale(0.804592,1.242866)"
       spreadMethod="pad"
       x1="441.07854"
       y1="24.587982"
       x2="407.14679"
       y2="53.536003" />
    <linearGradient
       inkscape:collect="always"
       xlink:href="#linearGradient1543"
       id="linearGradient2974"
       gradientUnits="userSpaceOnUse"
       gradientTransform="scale(0.688620,1.452179)"
       spreadMethod="pad"
       x1="494.39941"
       y1="71.254974"
       x2="464.58016"
       y2="38.034469" />
    <linearGradient
       inkscape:collect="always"
       xlink:href="#linearGradient1543"
       id="linearGradient2976"
       gradientUnits="userSpaceOnUse"
       gradientTransform="scale(0.549535,1.819720)"
       spreadMethod="pad"
       x1="670.35234"
       y1="62.260667"
       x2="688.16634"
       y2="24.838886" />
    <linearGradient
       inkscape:collect="always"
       xlink:href="#linearGradient1595"
       id="linearGradient2978"
       gradientUnits="userSpaceOnUse"
       gradientTransform="scale(0.770457,1.297932)"
       spreadMethod="pad"
       x1="367.36124"
       y1="61.522077"
       x2="400.63497"
       y2="31.338881" />
    <linearGradient
       inkscape:collect="always"
       xlink:href="#linearGradient1595"
       id="linearGradient2980"
       gradientUnits="userSpaceOnUse"
       gradientTransform="scale(0.601379,1.662845)"
       spreadMethod="pad"
       x1="530.85667"
       y1="-20.045357"
       x2="628.36691"
       y2="25.154707" />
    <linearGradient
       inkscape:collect="always"
       xlink:href="#linearGradient1595"
       id="linearGradient2982"
       gradientUnits="userSpaceOnUse"
       gradientTransform="scale(0.530594,1.884681)"
       spreadMethod="pad"
       x1="808.37059"
       y1="65.967754"
       x2="724.57679"
       y2="20.361232" />
    <radialGradient
       inkscape:collect="always"
       xlink:href="#linearGradient1609"
       id="radialGradient2984"
       gradientUnits="userSpaceOnUse"
       gradientTransform="scale(0.857489,1.166195)"
       cx="412.76362"
       cy="110.58074"
       fx="412.76362"
       fy="110.58074"
       r="75.212044" />
    <linearGradient
       inkscape:collect="always"
       xlink:href="#linearGradient1595"
       id="linearGradient2986"
       gradientUnits="userSpaceOnUse"
       gradientTransform="scale(0.827170,1.208941)"
       x1="356.44178"
       y1="186.25275"
       x2="263.54326"
       y2="174.32235" />
    <radialGradient
       inkscape:collect="always"
       xlink:href="#linearGradient1615"
       id="radialGradient2988"
       gradientUnits="userSpaceOnUse"
       gradientTransform="scale(1.175574,0.850648)"
       cx="337.46080"
       cy="986.53773"
       fx="339.38092"
       fy="981.19739"
       r="351.74734" />
    <radialGradient
       inkscape:collect="always"
       xlink:href="#linearGradient1595"
       id="radialGradient2990"
       gradientUnits="userSpaceOnUse"
       gradientTransform="scale(0.858889,1.164295)"
       cx="870.25411"
       cy="921.01164"
       fx="865.35966"
       fy="924.68247"
       r="357.33626" />
    <radialGradient
       inkscape:collect="always"
       xlink:href="#linearGradient1595"
       id="radialGradient2992"
       gradientUnits="userSpaceOnUse"
       gradientTransform="scale(0.858889,1.164295)"
       cx="81.877275"
       cy="926.51788"
       fx="81.877275"
       fy="926.51788"
       r="357.36925" />
    <linearGradient
       inkscape:collect="always"
       xlink:href="#linearGradient1531"
       id="linearGradient2994"
       gradientUnits="userSpaceOnUse"
       gradientTransform="scale(0.999690,1.000310)"
       x1="348.92947"
       y1="257.06176"
       x2="347.82141"
       y2="142.27375" />
    <linearGradient
       inkscape:collect="always"
       xlink:href="#linearGradient1615"
       id="linearGradient2996"
       gradientUnits="userSpaceOnUse"
       gradientTransform="scale(0.833838,1.199274)"
       x1="407.32359"
       y1="151.81540"
       x2="394.74637"
       y2="88.981671" />
    <linearGradient
       inkscape:collect="always"
       xlink:href="#linearGradient1543"
       id="linearGradient2998"
       gradientUnits="userSpaceOnUse"
       gradientTransform="scale(0.989529,1.010582)"
       x1="267.14107"
       y1="52.383136"
       x2="267.41858"
       y2="82.258744" />
    <linearGradient
       inkscape:collect="always"
       xlink:href="#linearGradient1615"
       id="linearGradient3000"
       gradientUnits="userSpaceOnUse"
       gradientTransform="scale(0.833838,1.199274)"
       x1="407.32359"
       y1="151.81540"
       x2="394.74637"
       y2="88.981671" />
    <linearGradient
       inkscape:collect="always"
       xlink:href="#linearGradient1543"
       id="linearGradient3002"
       gradientUnits="userSpaceOnUse"
       gradientTransform="scale(0.989529,1.010582)"
       x1="267.14107"
       y1="52.383136"
       x2="267.41858"
       y2="82.258744" />
    <linearGradient
       inkscape:collect="always"
       xlink:href="#linearGradient1543"
       id="linearGradient3004"
       gradientUnits="userSpaceOnUse"
       gradientTransform="scale(1.125830,0.888233)"
       x1="314.63709"
       y1="168.01307"
       x2="314.63709"
       y2="217.55059" />
    <linearGradient
       inkscape:collect="always"
       xlink:href="#linearGradient1595"
       id="linearGradient3006"
       gradientUnits="userSpaceOnUse"
       gradientTransform="scale(1.132895,0.882694)"
       x1="393.06440"
       y1="368.98973"
       x2="393.48518"
       y2="526.15239" />
    <linearGradient
       inkscape:collect="always"
       xlink:href="#linearGradient1543"
       id="linearGradient3008"
       gradientUnits="userSpaceOnUse"
       gradientTransform="scale(1.222263,0.818155)"
       x1="293.62169"
       y1="91.880604"
       x2="292.97873"
       y2="154.08624" />
  </defs>
  <g
     id="g1840"
     transform="matrix(0.142040,0.000000,0.000000,0.127181,-11.45281,-2.511281)">
    <g
       id="g1389"
       transform="matrix(0.925155,0.000000,0.000000,1.048811,168.8354,-2.158287)">
      <g
         id="g2929"
         transform="matrix(1.027669,0.000000,0.000000,1.016537,8.334611,-22.17725)">
        <path
           d="M 399.03125,-19.562500 C 386.17327,-15.896300 381.49481,-1.5664309 374.78023,8.5701140 C 367.00283,22.537474 359.04578,36.690846 354.18904,51.899537 C 351.19442,58.206539 346.38037,51.320888 342.12641,50.284184 C 330.33357,46.929457 324.44803,35.511398 315.96848,27.647971 C 303.48641,14.227157 291.00722,0.80361553 278.50000,-12.593750 C 277.52272,5.3195105 274.80203,24.787335 284.65726,40.920823 C 291.77262,57.284833 299.39777,73.633638 310.43750,87.781250 C 299.52425,106.23246 307.76353,128.42333 302.66764,148.05129 C 295.67832,163.15848 288.16753,181.70125 296.99724,197.61918 C 307.93650,214.96219 329.93430,219.23498 348.94655,219.95953 C 352.90654,221.10927 359.53716,217.11244 360.10611,223.26568 C 363.83800,234.33775 377.52778,245.24683 388.92500,237.83750 C 397.10296,232.58146 397.00146,221.02612 393.59375,212.93750 C 410.04251,206.65121 419.81072,186.63615 413.29442,169.96641 C 410.44734,156.64912 401.37095,144.68776 403.60505,130.46884 C 403.79041,113.90342 404.81010,95.321381 393.71875,81.718750 C 390.61529,75.918080 395.96766,69.489131 395.95041,63.280729 C 401.31882,37.691315 405.93825,11.638354 405.96875,-14.531250 C 405.11285,-17.616557 401.98694,-19.124556 399.03125,-19.562500 z "
           id="path1730"
           style="fill:#000000;fill-opacity:0.15686275;fill-rule:evenodd;stroke:none;stroke-width:1.0000000pt;stroke-linecap:butt;stroke-linejoin:miter;stroke-opacity:1.0000000"
           transform="matrix(3.629946,0.000000,0.000000,3.629946,-879.0452,115.2279)" />
        <path
           d="M 398.62500,-17.531250 C 388.09399,-13.937506 383.85787,-1.6675146 377.96875,6.9062500 C 370.62293,20.586029 362.24728,34.039869 357.40625,48.781250 C 357.83553,52.460386 351.56821,59.785637 348.68750,56.000000 C 341.87090,50.946841 332.31721,50.571843 327.43783,42.936664 C 311.27986,26.419447 296.40909,8.6857930 280.21875,-7.8125000 C 279.34840,7.6392128 277.29038,24.273184 285.61013,38.224122 C 293.19804,55.393864 300.85128,72.893163 312.75000,87.593750 C 301.62055,105.51080 309.10926,127.40534 305.37589,146.83363 C 298.72471,161.73396 290.21745,179.47613 298.03278,195.61514 C 308.02302,212.78565 329.84939,217.38610 348.30958,217.76449 C 352.83518,219.53377 361.19235,214.54153 361.55768,221.56781 C 364.70674,231.39542 376.18468,242.48027 386.95124,236.83826 C 395.78303,231.98227 394.78795,219.78674 391.12500,211.87500 C 406.80551,206.58442 417.54710,188.55455 411.85408,172.40707 C 410.29712,161.28486 403.04680,151.64131 401.56833,140.71886 C 400.79771,121.33928 405.42235,99.056343 392.04052,82.799991 C 387.71212,78.316832 393.42157,71.372176 393.37488,65.839051 C 398.67182,41.495555 403.11107,16.687331 404.00193,-8.2033058 C 404.48299,-13.177804 405.06164,-16.381074 399.15625,-17.562500 L 398.62500,-17.531250 z "
           id="path1728"
           style="fill:#000000;fill-opacity:0.15686275;fill-rule:evenodd;stroke:none;stroke-width:1.0000000pt;stroke-linecap:butt;stroke-linejoin:miter;stroke-opacity:1.0000000"
           transform="matrix(3.629946,0.000000,0.000000,3.629946,-879.0452,115.2279)" />
        <path
           d="M 397.62500,-15.406250 C 389.06943,-10.377187 385.00208,-0.19576070 379.70555,7.8760080 C 372.48878,21.155913 364.50854,34.301761 359.40625,48.531250 C 361.17066,54.773671 353.39514,55.581390 351.90625,61.031250 C 346.49523,55.984069 338.80692,52.638226 331.84769,50.301352 C 314.34849,33.366487 299.11685,14.203766 281.96875,-3.0625000 C 281.43850,9.2389683 279.49850,22.344103 285.80718,33.709894 C 294.04000,52.336900 301.89240,71.658776 315.12500,87.375000 C 304.72184,102.94826 309.49620,122.45091 308.40625,139.96875 C 309.19346,148.81011 302.05703,155.84791 300.37594,164.32690 C 295.55462,176.51947 294.43814,192.46164 305.24373,201.87352 C 318.99778,214.62057 339.22357,215.97363 357.09051,216.04812 C 363.87712,213.31814 362.29482,220.84834 364.96875,224.71875 C 369.00025,232.14387 379.13493,240.60606 387.41915,234.35348 C 394.27070,228.46073 392.03288,217.92654 388.53125,210.78125 C 402.66806,206.41950 414.27757,192.00875 410.77150,176.75161 C 409.17151,165.25139 403.61433,154.69694 399.59375,144.09375 C 398.80592,128.89352 401.39839,113.24842 397.79200,98.355520 C 396.14858,91.801189 392.51077,85.894661 387.90625,81.000000 C 394.47198,53.303872 400.13978,25.170891 401.93750,-3.2812500 C 403.17241,-6.6303807 401.20576,-17.135188 397.62500,-15.406250 z "
           id="path1676"
           sodipodi:nodetypes="ccccccccccccccccccccc"
           style="fill:#000000;fill-opacity:1.0000000;fill-rule:evenodd;stroke:none;stroke-width:1.0000000pt;stroke-linecap:butt;stroke-linejoin:miter;stroke-opacity:1.0000000"
           transform="matrix(3.629946,0.000000,0.000000,3.629946,-879.0452,115.2279)" />
        <path
           d="M 237.22672 218.78400 A 18.978138 27.737278 0 1 1  199.27044,218.78400 A 18.978138 27.737278 0 1 1  237.22672 218.78400 z"
           id="path2991"
           sodipodi:cx="218.24858"
           sodipodi:cy="218.78400"
           sodipodi:rx="18.978138"
           sodipodi:ry="27.737278"
           sodipodi:type="arc"
           style="fill:url(#radialGradient2964);fill-opacity:1.0000000;fill-rule:evenodd;stroke:none;stroke-width:1.0000000pt;stroke-linecap:butt;stroke-linejoin:miter;stroke-opacity:1.0000000"
           transform="matrix(1.909373,-1.162454,1.133044,2.066768,-176.4612,705.6277)" />
        <path
           d="M 237.22672 218.78400 A 18.978138 27.737278 0 1 1  199.27044,218.78400 A 18.978138 27.737278 0 1 1  237.22672 218.78400 z"
           id="path1589"
           sodipodi:cx="218.24858"
           sodipodi:cy="218.78400"
           sodipodi:rx="18.978138"
           sodipodi:ry="27.737278"
           sodipodi:type="arc"
           style="fill:url(#linearGradient2966);fill-opacity:1.0000000;fill-rule:evenodd;stroke:none;stroke-width:1.0000000pt;stroke-linecap:butt;stroke-linejoin:miter;stroke-opacity:1.0000000"
           transform="matrix(1.538222,-0.936493,0.912801,1.665024,-47.27211,744.2072)" />
        <path
           d="M 331.47089,91.207592 C 324.03907,96.781449 310.58217,88.510993 285.60143,27.952066 C 281.64990,18.372677 283.29567,5.8360183 283.91499,1.5007913 C 292.58544,8.9326092 310.14420,32.535549 328.62146,49.512820 C 347.40421,66.770790 342.61862,83.156456 331.47089,91.207592 z "
           id="path2989"
           sodipodi:nodetypes="csczc"
           style="fill:url(#linearGradient2968);fill-opacity:1.0000000;fill-rule:evenodd;stroke:none;stroke-width:1.0000000pt;stroke-linecap:butt;stroke-linejoin:miter;stroke-opacity:1.0000000"
           transform="matrix(3.629946,0.000000,0.000000,3.629946,-879.0452,115.2279)" />
        <path
           d="M 359.95639,88.283065 C 362.43367,44.930795 359.95639,51.123975 362.43367,44.930795 C 364.91094,38.737615 390.92230,-13.285112 398.35412,-13.904430 C 405.78594,-14.523749 387.82571,85.186475 381.01321,94.476245 C 374.20071,103.76603 359.95639,88.283065 359.95639,88.283065 z "
           id="path1738"
           style="fill:url(#linearGradient2970);fill-opacity:1.0000000;fill-rule:evenodd;stroke:none;stroke-width:1.0000000pt;stroke-linecap:butt;stroke-linejoin:miter;stroke-opacity:1.0000000"
           transform="matrix(3.629946,0.000000,0.000000,3.629946,-879.0452,115.2279)" />
        <path
           d="M 283.90625,1.5000000 C 283.90212,1.5289106 283.91047,1.5953632 283.90625,1.6250000 C 284.47812,2.1632112 285.05309,2.6857232 285.62500,3.2500000 C 285.11505,2.7669570 284.36717,1.8950710 283.90625,1.5000000 z M 287.65625,5.3437500 C 301.38223,19.630917 314.90752,41.122177 325.06250,66.781250 C 328.18244,74.664560 330.61662,82.436826 332.75000,90.062500 C 342.88840,81.691406 346.61882,66.033083 328.62500,49.500000 C 312.29813,34.498551 297.05033,14.963763 287.65625,5.3437500 z "
           id="path1601"
           style="fill:url(#linearGradient2972);fill-opacity:1.0000000;fill-rule:evenodd;stroke:none;stroke-width:1.0000000pt;stroke-linecap:butt;stroke-linejoin:miter;stroke-opacity:1.0000000"
           transform="matrix(3.629946,0.000000,0.000000,3.629946,-879.0452,115.2279)" />
        <path
           d="M 315.81250,51.750000 C 316.40680,63.374770 318.05197,75.604650 322.73949,86.105897 C 328.84261,92.067970 335.04912,83.244484 336.53125,77.656250 C 339.53768,64.335897 328.35603,54.526124 319.73844,46.378684 C 314.18632,38.698368 316.88626,47.533269 315.81250,51.750000 z "
           id="path1654"
           style="fill:url(#linearGradient2974);fill-opacity:1.0000000;fill-rule:evenodd;stroke:none;stroke-width:1.0000000pt;stroke-linecap:butt;stroke-linejoin:miter;stroke-opacity:1.0000000"
           transform="matrix(3.629946,0.000000,0.000000,3.629946,-879.0452,115.2279)" />
        <path
           d="M 371.78125,34.781250 C 366.71159,42.943598 364.24857,52.227673 365.00740,61.810771 C 364.82554,70.077286 364.44465,78.336109 364.03125,86.593750 C 367.59070,89.367194 374.04067,96.401972 378.01190,91.127881 C 384.12900,75.482138 387.57205,58.480717 384.83317,41.723738 C 384.20954,34.560944 382.36839,27.429792 379.12500,21.000000 C 376.67708,25.593750 374.22917,30.187500 371.78125,34.781250 z "
           id="path1669"
           style="fill:url(#linearGradient2976);fill-opacity:1.0000000;fill-rule:evenodd;stroke:none;stroke-width:1.0000000pt;stroke-linecap:butt;stroke-linejoin:miter;stroke-opacity:1.0000000"
           transform="matrix(3.629946,0.000000,0.000000,3.629946,-879.0452,115.2279)" />
        <path
           d="M 325.23420,59.738087 C 335.83102,59.738087 345.25839,67.236022 344.08103,66.525041 C 343.56479,63.291190 339.96263,56.501234 334.74407,53.159965 C 340.79581,54.764740 352.02523,61.402984 352.20764,65.689722 C 354.10961,58.336453 357.22193,55.469145 363.44658,53.368794 C 361.38312,57.768010 357.56775,61.355317 358.60519,64.123503 C 358.60519,65.247469 369.59387,58.067453 376.93329,58.067453 C 369.37092,60.364575 361.02588,70.415951 361.02588,73.311992 C 361.02588,74.442491 341.83324,74.381981 341.83324,73.938482 C 341.83324,73.590433 337.56841,65.063234 325.23420,59.738087 z "
           id="path967"
           sodipodi:nodetypes="cccccccccc"
           style="fill:#000000;fill-opacity:1.0000000;fill-rule:evenodd;stroke:none;stroke-width:1.0000000pt;stroke-linecap:butt;stroke-linejoin:miter;stroke-opacity:1.0000000"
           transform="matrix(3.629946,0.000000,0.000000,3.629946,-879.0452,115.2279)" />
        <path
           d="M 283.90625,1.5000000 C 283.28693,5.8352270 281.64221,18.358111 285.59375,27.937500 C 310.57449,88.496427 324.03693,96.792611 331.46875,91.218750 C 333.70204,89.605816 335.57198,87.565691 337.15625,85.343750 C 333.39818,81.212151 329.63116,76.999531 325.93750,72.468750 C 305.46511,47.356566 291.25572,22.140245 285.31250,2.9375000 C 284.90152,2.5540618 284.28413,1.8238944 283.90625,1.5000000 z "
           id="path1605"
           style="fill:url(#linearGradient2978);fill-opacity:1.0000000;fill-rule:evenodd;stroke:none;stroke-width:1.0000000pt;stroke-linecap:butt;stroke-linejoin:miter;stroke-opacity:1.0000000"
           transform="matrix(3.629946,0.000000,0.000000,3.629946,-879.0452,115.2279)" />
        <path
           d="M 398.34375,-13.906250 C 390.91193,-13.286932 364.91479,38.744321 362.43750,44.937500 C 359.96022,51.130680 362.44603,44.928979 359.96875,88.281250 C 359.96875,88.281250 363.11269,91.553385 367.03125,94.187500 C 367.10567,82.088578 368.40647,68.276349 371.28125,53.625000 C 377.38834,22.500064 388.40017,-3.0441408 399.06250,-13.562500 C 398.85712,-13.797944 398.61501,-13.928855 398.34375,-13.906250 z "
           id="path1660"
           style="fill:url(#linearGradient2980);fill-opacity:1.0000000;fill-rule:evenodd;stroke:none;stroke-width:1.0000000pt;stroke-linecap:butt;stroke-linejoin:miter;stroke-opacity:1.0000000"
           transform="matrix(3.629946,0.000000,0.000000,3.629946,-879.0452,115.2279)" />
        <path
           d="M 398.84375,-13.718750 C 396.31981,5.1345974 391.37480,28.013451 383.93750,52.562500 C 379.24524,68.050704 374.07591,82.424450 368.81250,95.312500 C 373.03404,97.689653 377.81209,98.815898 381.00000,94.468750 C 387.64086,85.413035 404.86367,-9.5122926 398.84375,-13.718750 z "
           id="path1665"
           style="fill:url(#linearGradient2982);fill-opacity:1.0000000;fill-rule:evenodd;stroke:none;stroke-width:1.0000000pt;stroke-linecap:butt;stroke-linejoin:miter;stroke-opacity:1.0000000"
           transform="matrix(3.629946,0.000000,0.000000,3.629946,-879.0452,115.2279)" />
        <path
           d="M 350.28755,69.663857 C 328.15745,69.663857 310.34152,87.479782 310.34152,109.60988 L 310.34152,148.30765 C 310.34152,170.43774 328.15745,188.25367 350.28755,188.25367 L 357.59312,188.25367 C 379.72322,188.25367 397.53915,170.43774 397.53915,148.30765 L 397.53915,109.60988 C 397.53915,87.479782 379.72322,69.663857 357.59312,69.663857 L 350.28755,69.663857 z "
           id="rect956"
           style="fill:url(#radialGradient2984);fill-opacity:1.0000000;fill-rule:evenodd;stroke:none;stroke-width:1.1537654pt;stroke-linecap:butt;stroke-linejoin:miter;stroke-opacity:1.0000000"
           transform="matrix(3.629946,0.000000,0.000000,3.629946,-879.0452,115.2279)" />
        <path
           d="M 237.22672 218.78400 A 18.978138 27.737278 0 1 1  199.27044,218.78400 A 18.978138 27.737278 0 1 1  237.22672 218.78400 z"
           id="path1599"
           sodipodi:cx="218.24858"
           sodipodi:cy="218.78400"
           sodipodi:rx="18.978138"
           sodipodi:ry="27.737278"
           sodipodi:type="arc"
           style="fill:url(#linearGradient2986);fill-opacity:1.0000000;fill-rule:evenodd;stroke:none;stroke-width:1.0000000pt;stroke-linecap:butt;stroke-linejoin:miter;stroke-opacity:1.0000000"
           transform="matrix(1.538222,-0.936493,0.912801,1.665024,-47.27211,744.2072)" />
        <path
           d="M 405.73913,600.70225 C 345.30285,600.70225 289.89249,617.03109 246.58868,644.14817 C 220.53743,695.34808 204.84430,747.21366 204.84430,774.37248 C 204.84430,838.94054 262.83389,891.43827 405.73913,891.43824 C 550.87475,891.43824 606.63395,838.94058 606.63395,774.37248 C 606.63395,747.21366 590.94082,695.34808 564.88957,644.14817 C 521.58577,617.03109 466.17541,600.70225 405.73913,600.70225 z "
           id="path953"
           style="fill:url(#radialGradient2988);fill-opacity:1.0000000;fill-rule:evenodd;stroke:none;stroke-width:1.0289893pt;stroke-linecap:butt;stroke-linejoin:miter;stroke-opacity:1.0000000" />
        <path
           d="M 507.21875,617.15625 C 446.29125,650.06961 404.84376,714.49805 404.84375,788.56250 C 404.84375,826.05612 415.64389,860.96604 434.03125,890.68750 C 558.11238,884.20711 606.62500,834.55214 606.62500,774.37500 C 606.62497,747.21616 590.92625,695.35617 564.87500,644.15625 C 547.47579,633.26076 528.06759,624.20906 507.21875,617.15625 z "
           id="path1649"
           style="fill:url(#radialGradient2990);fill-opacity:1.0000000;fill-rule:evenodd;stroke:none;stroke-width:1.0289893pt;stroke-linecap:butt;stroke-linejoin:miter;stroke-opacity:1.0000000" />
        <path
           d="M 304.25056,617.15625 C 365.17806,650.06961 406.62555,714.49805 406.62556,788.56250 C 406.62556,826.05612 395.82542,860.96604 377.43806,890.68750 C 253.35692,884.20711 204.84431,834.55214 204.84431,774.37500 C 204.84434,747.21616 220.54305,695.35617 246.59430,644.15625 C 263.99351,633.26076 283.40171,624.20906 304.25056,617.15625 z "
           id="path1671"
           style="fill:url(#radialGradient2992);fill-opacity:1.0000000;fill-rule:evenodd;stroke:none;stroke-width:1.0289893pt;stroke-linecap:butt;stroke-linejoin:miter;stroke-opacity:1.0000000" />
        <g
           id="g1646"
           transform="matrix(3.629946,0.000000,0.000000,3.629946,-878.4460,115.2279)">
          <path
             d="M 332.77611,185.30477 C 329.11606,171.65291 325.53644,159.43719 320.23102,153.52625 C 313.59773,147.05215 307.79574,159.97844 314.75670,168.30487 C 321.48123,176.34850 324.44648,178.18946 332.77611,185.30477 z "
             id="path1016"
             sodipodi:nodetypes="cczc"
             style="fill:#000000;fill-opacity:1.0000000;fill-rule:evenodd;stroke:none;stroke-width:1.0000000pt;stroke-linecap:butt;stroke-linejoin:miter;stroke-opacity:1.0000000" />
          <path
             d="M 374.77441,185.30477 C 378.43446,171.65291 382.01408,159.43719 387.31950,153.52625 C 393.95279,147.05215 399.75478,159.97844 392.79382,168.30487 C 386.06929,176.34850 383.10404,178.18946 374.77441,185.30477 z "
             id="path1642"
             sodipodi:nodetypes="cczc"
             style="fill:#000000;fill-opacity:1.0000000;fill-rule:evenodd;stroke:none;stroke-width:1.0000000pt;stroke-linecap:butt;stroke-linejoin:miter;stroke-opacity:1.0000000" />
          <path
             d="M 318.04127,152.95033 C 322.82182,167.09589 337.05914,185.59270 336.77942,212.60712 C 346.61339,214.21689 358.55693,214.08898 370.29127,212.87867 C 367.02588,191.75779 385.19072,167.79777 389.63502,152.98005 C 394.02367,138.34786 312.88482,137.69248 318.04127,152.95033 z "
             id="path959"
             sodipodi:nodetypes="ccczz"
             style="fill:url(#linearGradient2994);fill-opacity:1.0000000;fill-rule:evenodd;stroke:none;stroke-width:1.0035231pt;stroke-linecap:butt;stroke-linejoin:miter;stroke-opacity:1.0000000" />
        </g>
        <g
           style="stroke:#9c9c9c;stroke-width:4.1862812;stroke-miterlimit:4.0000000;stroke-dasharray:none;stroke-opacity:1.0000000"
           id="g1833">
          <path
             d="M 345.80439,126.23820 C 347.48629,136.71457 338.86916,140.68451 330.50472,142.46777 C 321.45185,144.39780 319.27144,135.21701 318.66848,123.60238 C 318.06553,111.98776 320.61689,102.26016 329.74123,101.82079 C 338.86557,101.38143 344.23188,116.44310 345.80439,126.23820 z "
             id="path1643"
             sodipodi:nodetypes="czzzz"
             style="fill:url(#linearGradient2996);fill-opacity:1.0000000;fill-rule:evenodd;stroke:#9c9c9c;stroke-width:1.1532627;stroke-linecap:butt;stroke-linejoin:miter;stroke-miterlimit:4.0000000;stroke-dasharray:none;stroke-opacity:1.0000000"
             transform="matrix(3.629946,0.000000,0.000000,3.629946,-879.0452,115.2279)" />
          <path
             d="M 278.07387 68.265594 A 14.553977 14.863636 0 1 1  248.96592,68.265594 A 14.553977 14.863636 0 1 1  278.07387 68.265594 z"
             id="path1650"
             sodipodi:cx="263.51990"
             sodipodi:cy="68.265594"
             sodipodi:rx="14.553977"
             sodipodi:ry="14.863636"
             sodipodi:type="arc"
             style="fill:#000000;fill-opacity:1.0000000;fill-rule:evenodd;stroke:#9c9c9c;stroke-width:3.1884327;stroke-linecap:butt;stroke-linejoin:miter;stroke-miterlimit:4.0000000;stroke-dasharray:none;stroke-opacity:1.0000000"
             transform="matrix(1.312959,0.000000,0.000000,1.312959,1.298016,490.7458)" />
          <path
             d="M 278.07387 68.265594 A 14.553977 14.863636 0 1 1  248.96592,68.265594 A 14.553977 14.863636 0 1 1  278.07387 68.265594 z"
             id="path1651"
             sodipodi:cx="263.51990"
             sodipodi:cy="68.265594"
             sodipodi:rx="14.553977"
             sodipodi:ry="14.863636"
             sodipodi:type="arc"
             style="fill:url(#linearGradient2998);fill-opacity:1.0000000;fill-rule:evenodd;stroke:#9c9c9c;stroke-width:5.1343665;stroke-linecap:butt;stroke-linejoin:miter;stroke-miterlimit:4.0000000;stroke-dasharray:none;stroke-opacity:1.0000000"
             transform="matrix(0.838059,0.000000,0.000000,0.793247,126.4436,520.9389)" />
          <path
             d="M 345.80439,126.23820 C 347.48629,136.71457 338.86916,140.68451 330.50472,142.46777 C 321.45185,144.39780 319.27144,135.21701 318.66848,123.60238 C 318.06553,111.98776 320.61689,102.26016 329.74123,101.82079 C 338.86557,101.38143 344.23188,116.44310 345.80439,126.23820 z "
             id="path1661"
             sodipodi:nodetypes="czzzz"
             style="fill:url(#linearGradient3000);fill-opacity:1.0000000;fill-rule:evenodd;stroke:#9c9c9c;stroke-width:1.1532627;stroke-linecap:butt;stroke-linejoin:miter;stroke-miterlimit:4.0000000;stroke-dasharray:none;stroke-opacity:1.0000000"
             transform="matrix(-3.629946,0.000000,0.000000,3.629946,1679.548,115.2279)" />
          <path
             d="M 278.07387 68.265594 A 14.553977 14.863636 0 1 1  248.96592,68.265594 A 14.553977 14.863636 0 1 1  278.07387 68.265594 z"
             id="path1663"
             sodipodi:cx="263.51990"
             sodipodi:cy="68.265594"
             sodipodi:rx="14.553977"
             sodipodi:ry="14.863636"
             sodipodi:type="arc"
             style="fill:#000000;fill-opacity:1.0000000;fill-rule:evenodd;stroke:#9c9c9c;stroke-width:3.1884327;stroke-linecap:butt;stroke-linejoin:miter;stroke-miterlimit:4.0000000;stroke-dasharray:none;stroke-opacity:1.0000000"
             transform="matrix(-1.312959,0.000000,0.000000,1.312959,799.2048,490.7458)" />
          <path
             d="M 278.07387 68.265594 A 14.553977 14.863636 0 1 1  248.96592,68.265594 A 14.553977 14.863636 0 1 1  278.07387 68.265594 z"
             id="path1664"
             sodipodi:cx="263.51990"
             sodipodi:cy="68.265594"
             sodipodi:rx="14.553977"
             sodipodi:ry="14.863636"
             sodipodi:type="arc"
             style="fill:url(#linearGradient3002);fill-opacity:1.0000000;fill-rule:evenodd;stroke:#9c9c9c;stroke-width:5.1343665;stroke-linecap:butt;stroke-linejoin:miter;stroke-miterlimit:4.0000000;stroke-dasharray:none;stroke-opacity:1.0000000"
             transform="matrix(-0.838059,0.000000,0.000000,0.793247,674.0592,520.9389)" />
        </g>
        <path
           d="M 338.87500,192.87500 C 351.92294,189.68237 364.34511,183.27699 373.82308,173.66634 C 377.03561,167.20876 377.76535,159.54719 382.51739,153.87550 C 384.35190,151.38111 380.87309,149.81330 378.85097,149.59446 C 376.72888,149.17493 374.61857,148.69018 372.54374,148.11357 C 360.77692,146.02024 348.72715,146.58395 336.89669,147.76567 C 333.17946,148.40573 329.16388,148.36673 325.81895,150.31036 C 323.51018,151.60522 324.69041,154.50183 326.20467,155.90328 C 329.81427,160.52034 331.20591,166.33241 333.26857,171.70753 C 335.47858,178.66919 337.01806,185.81681 338.87500,192.87500 z "
           id="path1675"
           style="fill:url(#linearGradient3004);fill-opacity:1.0000000;fill-rule:evenodd;stroke:none;stroke-width:1.0035231pt;stroke-linecap:butt;stroke-linejoin:miter;stroke-opacity:1.0000000"
           transform="matrix(3.629946,0.000000,0.000000,3.629946,-879.0452,115.2279)" />
        <path
           d="M 392.46875,368.09375 C 312.13767,368.09375 247.46875,432.76269 247.46875,513.09375 L 247.46875,549.25000 C 288.02755,589.69788 343.98796,614.71875 405.75000,614.71875 C 467.51204,614.71875 523.44121,589.69788 564.00000,549.25000 L 564.00000,513.09375 C 564.00002,432.76270 499.33107,368.09375 419.00000,368.09375 L 392.46875,368.09375 z "
           id="path1645"
           style="fill:url(#linearGradient3006);fill-opacity:1.0000000;fill-rule:evenodd;stroke:none;stroke-width:1.1537654pt;stroke-linecap:butt;stroke-linejoin:miter;stroke-opacity:1.0000000" />
        <path
           d="M 314.34375,123.40625 C 314.98319,123.54956 315.60398,123.74852 316.25000,123.87500 C 336.86694,125.73278 376.61407,115.71095 388.68750,95.593750 C 388.98795,95.168739 389.24079,94.713100 389.53125,94.281250 C 386.34220,87.014148 381.11896,80.899616 373.25000,77.843750 C 365.60206,73.944896 356.72147,73.015480 348.25000,73.906250 C 327.52428,74.712068 311.88514,95.846293 314.34375,115.87500 C 314.46861,118.31820 314.36765,120.88674 314.34375,123.40625 z "
           id="rect1728"
           sodipodi:nodetypes="cccccccc"
           style="fill:url(#linearGradient3008);fill-opacity:1.0000000;fill-rule:evenodd;stroke:none;stroke-width:1.1537654pt;stroke-linecap:butt;stroke-linejoin:miter;stroke-opacity:1.0000000"
           transform="matrix(3.629946,0.000000,0.000000,3.629946,-879.0452,115.2279)" />
      </g>
    </g>
  </g>
</svg>
