<?xml version="1.0" encoding="UTF-8" standalone="no"?>
<!-- Created with Inkscape (http://www.inkscape.org/) -->
<svg
   xmlns:dc="http://purl.org/dc/elements/1.1/"
   xmlns:cc="http://web.resource.org/cc/"
   xmlns:rdf="http://www.w3.org/1999/02/22-rdf-syntax-ns#"
   xmlns:svg="http://www.w3.org/2000/svg"
   xmlns="http://www.w3.org/2000/svg"
   xmlns:sodipodi="http://inkscape.sourceforge.net/DTD/sodipodi-0.dtd"
   xmlns:inkscape="http://www.inkscape.org/namespaces/inkscape"
   height="102.40000pt"
   id="svg2"
   inkscape:version="0.42"
   sodipodi:docbase="/home/Joel/other/ICON-DroplineNeu.tar.bz2_FILES/dlg-neu/scalable/Complexcity/apps"
   sodipodi:docname="vim.svg"
   sodipodi:version="0.32"
   width="102.40000pt">
  <metadata
     id="metadata3">
    <rdf:RDF>
      <cc:Work
         rdf:about="">
        <dc:title>Vim-Editor Logo Icon</dc:title>
        <dc:description>http://vim.sf.net</dc:description>
        <dc:subject>
          <rdf:Bag>
            <rdf:li />
            <rdf:li>hash(0x8a0cda0)</rdf:li>
            <rdf:li>logos</rdf:li>
            <rdf:li>hash(0x8a0cd1c)</rdf:li>
            <rdf:li>hash(0x8a0cdd0)</rdf:li>
            <rdf:li>hash(0x8a0cd70)</rdf:li>
          </rdf:Bag>
        </dc:subject>
        <dc:publisher>
          <cc:Agent
             rdf:about="http://www.openclipart.org">
            <dc:title>Wolfram Esser, http://www.derwok.de</dc:title>
          </cc:Agent>
        </dc:publisher>
        <dc:creator>
          <cc:Agent>
            <dc:title>Wolfram Esser, http://www.derwok.de</dc:title>
          </cc:Agent>
        </dc:creator>
        <dc:rights>
          <cc:Agent>
            <dc:title>Wolfram Esser, http://www.derwok.de</dc:title>
          </cc:Agent>
        </dc:rights>
        <dc:date />
        <dc:format>image/svg+xml</dc:format>
        <dc:type
           rdf:resource="http://purl.org/dc/dcmitype/StillImage" />
        <cc:license
           rdf:resource="http://web.resource.org/cc/PublicDomain" />
        <dc:language>en</dc:language>
        <dc:contributor>
          <cc:Agent>
            <dc:title>Joel Montes de Oca</dc:title>
          </cc:Agent>
        </dc:contributor>
      </cc:Work>
      <cc:License
         rdf:about="http://web.resource.org/cc/PublicDomain">
        <cc:permits
           rdf:resource="http://web.resource.org/cc/Reproduction" />
        <cc:permits
           rdf:resource="http://web.resource.org/cc/Distribution" />
        <cc:permits
           rdf:resource="http://web.resource.org/cc/DerivativeWorks" />
      </cc:License>
    </rdf:RDF>
  </metadata>
  <defs
     id="defs3" />
  <sodipodi:namedview
     bordercolor="#666666"
     borderopacity="1.0"
     id="base"
     inkscape:current-layer="layer1"
     inkscape:cx="64.000000"
     inkscape:cy="45.313869"
     inkscape:document-units="mm"
     inkscape:guide-bbox="true"
     inkscape:guide-points="true"
     inkscape:pageopacity="0.0"
     inkscape:pageshadow="2"
     inkscape:window-height="964"
     inkscape:window-width="1280"
     inkscape:window-x="-4"
     inkscape:window-y="25"
     inkscape:zoom="1.6054688"
     pagecolor="#ffffff"
     showguides="false">
    <sodipodi:guide
       id="guide1336"
       orientation="horizontal"
       position="687.59781" />
    <sodipodi:guide
       id="guide1338"
       orientation="vertical"
       position="366.55911" />
  </sodipodi:namedview>
  <g
     id="layer1"
     inkscape:groupmode="layer"
     inkscape:label="Layer 1"
     style="display:inline">
    <g
       id="g2137"
       transform="translate(-1.245742,-3.737226)">
      <rect
         y="54.532887"
         x="-38.436287"
         width="78.287872"
         transform="matrix(0.679600,-0.733583,0.679600,0.733583,0.000000,0.000000)"
         style="fill:#019833;fill-opacity:1.0000000;fill-rule:nonzero;stroke:#010101;stroke-width:0.0000000;stroke-miterlimit:4.0000000;stroke-dasharray:none;stroke-opacity:1.0000000"
         id="rect5141"
         height="78.287872" />
      <rect
         y="55.038284"
         x="-39.629070"
         width="78.287888"
         transform="matrix(0.679600,-0.733583,0.679600,0.733583,0.000000,0.000000)"
         style="fill:none;fill-opacity:1.0000000;fill-rule:nonzero;stroke:#010101;stroke-width:6.3717175;stroke-miterlimit:4.0000000;stroke-dasharray:none;stroke-opacity:1.0000000;display:inline"
         id="rect10463"
         height="78.287888" />
      <path
         style="fill:#fefefe;fill-opacity:1.0000000;fill-rule:evenodd;stroke:#c8c8c8;stroke-width:0.99999774px;stroke-linecap:butt;stroke-linejoin:miter;stroke-opacity:1.0000000"
         id="path4386"
         d="M 22.432565,19.620019 L 21.326940,17.370823 L 55.601314,17.370823 L 54.623262,19.620019 L 22.432565,19.620019 z " />
      <path
         style="fill:#fefefe;fill-opacity:1.0000000;fill-rule:evenodd;stroke:#c8c8c8;stroke-width:0.99999774px;stroke-linecap:butt;stroke-linejoin:miter;stroke-opacity:1.0000000"
         id="path4388"
         d="M 55.686362,20.675765 L 57.472372,19.482313 L 55.601314,17.324921 L 54.665785,19.711823 L 55.686362,20.675765 z " />
      <path
         style="fill:#fefefe;fill-opacity:1.0000000;fill-rule:evenodd;stroke:#c8c8c8;stroke-width:0.99999774px;stroke-linecap:butt;stroke-linejoin:miter;stroke-opacity:1.0000000"
         sodipodi:nodetypes="ccccc"
         id="path4390"
         d="M 22.446039,19.593432 L 21.314625,17.390138 L 19.450304,19.772270 L 21.307888,20.730189 L 22.446039,19.593432 z " />
      <path
         style="fill:#fefefe;fill-opacity:1.0000000;fill-rule:evenodd;stroke:#c8c8c8;stroke-width:0.99999774px;stroke-linecap:butt;stroke-linejoin:miter;stroke-opacity:1.0000000"
         sodipodi:nodetypes="ccccc"
         id="path4392"
         d="M 21.370819,20.746810 L 19.455883,19.803627 L 19.455883,26.505315 L 21.369464,25.265961 L 21.370819,20.746810 z " />
      <path
         style="fill:#fefefe;fill-opacity:1.0000000;fill-rule:evenodd;stroke:#c8c8c8;stroke-width:0.99999774px;stroke-linecap:butt;stroke-linejoin:miter;stroke-opacity:1.0000000"
         sodipodi:nodetypes="ccccc"
         id="path4394"
         d="M 22.403584,26.679859 L 21.338097,25.255785 L 19.461461,26.504063 L 21.272101,28.763034 L 22.403584,26.679859 z " />
      <path
         style="fill:#808080;fill-opacity:1.0000000;fill-rule:evenodd;stroke:#000000;stroke-width:0.99999774px;stroke-linecap:butt;stroke-linejoin:miter;stroke-opacity:1.0000000"
         id="path4398"
         d="M 55.688706,20.737989 L 57.504854,19.586635 L 57.504854,26.556995 L 55.688706,25.530111 L 55.688706,20.737989 z " />
      <path
         style="fill:#808080;fill-opacity:1.0000000;fill-rule:evenodd;stroke:#000000;stroke-width:0.99999774px;stroke-linecap:butt;stroke-linejoin:miter;stroke-opacity:1.0000000"
         id="path4400"
         d="M 54.650908,26.619230 L 55.515741,28.704114 L 57.504854,26.556995 L 55.573396,25.530111 L 54.650908,26.619230 z " />
      <path
         style="fill:#808080;fill-opacity:1.0000000;fill-rule:evenodd;stroke:#000000;stroke-width:0.99999774px;stroke-linecap:butt;stroke-linejoin:miter;stroke-opacity:1.0000000"
         id="path4402"
         d="M 52.056413,28.735232 L 48.366465,26.650347 L 54.622082,26.650347 L 55.429257,28.735232 L 52.056413,28.735232 z " />
      <path
         style="fill:#808080;fill-opacity:1.0000000;fill-rule:evenodd;stroke:#000000;stroke-width:0.99999774px;stroke-linecap:butt;stroke-linejoin:miter;stroke-opacity:1.0000000"
         id="path4404"
         d="M 48.337637,26.619230 L 48.337637,71.428681 L 52.142897,62.404556 L 52.142897,28.735232 L 48.337637,26.619230 z " />
      <path
         style="fill:#fefefe;fill-opacity:1.0000000;fill-rule:evenodd;stroke:#c8c8c8;stroke-width:0.99999774px;stroke-linecap:butt;stroke-linejoin:miter;stroke-opacity:1.0000000"
         sodipodi:nodetypes="ccccc"
         id="path4406"
         d="M 48.279981,71.428681 L 52.258207,62.404556 L 83.165792,28.759776 L 84.891192,31.286881 L 48.279981,71.428681 z " />
      <path
         style="fill:#fefefe;fill-opacity:1.0000000;fill-rule:evenodd;stroke:#c8c8c8;stroke-width:0.99999774px;stroke-linecap:butt;stroke-linejoin:miter;stroke-opacity:1.0000000"
         sodipodi:nodetypes="ccccc"
         id="path4412"
         d="M 79.464271,26.673576 L 78.376126,25.498994 L 76.453803,26.527850 L 78.549092,28.735232 L 79.464271,26.673576 z " />
      <path
         style="fill:#fefefe;fill-opacity:1.0000000;fill-rule:evenodd;stroke:#c8c8c8;stroke-width:0.99999774px;stroke-linecap:butt;stroke-linejoin:miter;stroke-opacity:1.0000000"
         id="path4414"
         d="M 78.376126,20.831343 L 76.415841,19.586636 L 76.415841,26.494760 L 78.318470,25.436759 L 78.376126,20.831343 z " />
      <path
         style="fill:#fefefe;fill-opacity:1.0000000;fill-rule:evenodd;stroke:#c8c8c8;stroke-width:0.99999774px;stroke-linecap:butt;stroke-linejoin:miter;stroke-opacity:1.0000000"
         sodipodi:nodetypes="ccccc"
         id="path4416"
         d="M 79.759857,19.590580 L 78.433781,20.769107 L 76.392495,19.586636 L 78.725713,17.437544 L 79.759857,19.590580 z " />
      <path
         style="fill:#fefefe;fill-opacity:1.0000000;fill-rule:evenodd;stroke:#c8c8c8;stroke-width:0.99999774px;stroke-linecap:butt;stroke-linejoin:miter;stroke-opacity:1.0000000"
         sodipodi:nodetypes="ccccc"
         id="path4418"
         d="M 79.817512,19.586636 L 111.12442,19.664181 L 111.93160,17.408398 L 78.722059,17.408398 L 79.817512,19.586636 z " />
      <path
         style="fill:#fefefe;fill-opacity:1.0000000;fill-rule:evenodd;stroke:#c8c8c8;stroke-width:0.99999774px;stroke-linecap:butt;stroke-linejoin:miter;stroke-opacity:1.0000000"
         sodipodi:nodetypes="ccccc"
         id="path4420"
         d="M 112.27753,20.975200 L 111.12442,19.586636 L 111.95333,17.404322 L 114.03933,19.500937 L 112.27753,20.975200 z " />
      <path
         style="fill:#808080;fill-opacity:1.0000000;fill-rule:evenodd;stroke:#000000;stroke-width:0.99999774px;stroke-linecap:butt;stroke-linejoin:miter;stroke-opacity:1.0000000"
         sodipodi:nodetypes="ccccc"
         id="path4422"
         d="M 112.31723,20.959890 L 114.02515,19.531557 L 114.06485,26.556995 L 112.27753,24.316521 L 112.31723,20.959890 z " />
      <path
         style="fill:#808080;fill-opacity:1.0000000;fill-rule:evenodd;stroke:#000000;stroke-width:0.99999774px;stroke-linecap:butt;stroke-linejoin:miter;stroke-opacity:1.0000000"
         sodipodi:nodetypes="ccccc"
         id="path4424"
         d="M 35.669674,110.05448 L 37.094825,112.00613 L 114.07903,26.599844 L 112.32385,24.378758 L 35.669674,110.05448 z " />
      <path
         style="fill:#fefefe;fill-opacity:1.0000000;fill-rule:evenodd;stroke:#c8c8c8;stroke-width:0.99999774px;stroke-linecap:butt;stroke-linejoin:miter;stroke-opacity:1.0000000"
         sodipodi:nodetypes="ccccc"
         id="path4428"
         d="M 27.865756,108.93877 L 25.621391,109.92124 L 28.030327,112.01519 L 29.109546,110.07683 L 27.865756,108.93877 z " />
      <path
         style="fill:#fefefe;fill-opacity:1.0000000;fill-rule:evenodd;stroke:#c8c8c8;stroke-width:0.99999774px;stroke-linecap:butt;stroke-linejoin:miter;stroke-opacity:1.0000000"
         sodipodi:nodetypes="ccccc"
         id="path4430"
         d="M 27.911373,108.94634 L 25.633152,109.87684 L 25.448424,28.735232 L 27.869954,26.743700 L 27.911373,108.94634 z " />
      <path
         style="fill:#808080;fill-opacity:1.0000000;fill-rule:evenodd;stroke:#000000;stroke-width:0.99999774px;stroke-linecap:butt;stroke-linejoin:miter;stroke-opacity:1.0000000"
         sodipodi:nodetypes="ccccc"
         id="path4396"
         d="M 27.898358,26.719584 L 22.430128,26.666410 L 21.267353,28.750417 L 25.383107,28.790298 L 27.898358,26.719584 z " />
      <path
         style="fill:#808080;fill-opacity:1.0000000;fill-rule:evenodd;stroke:#000000;stroke-width:0.99999774px;stroke-linecap:butt;stroke-linejoin:miter;stroke-opacity:1.0000000"
         sodipodi:nodetypes="ccccc"
         id="path4426"
         d="M 29.138374,110.04572 L 28.042919,112.03725 L 37.082510,111.97078 L 35.632454,110.02789 L 29.138374,110.04572 z " />
      <path
         style="fill:none;fill-opacity:0.75000000;fill-rule:evenodd;stroke:#000000;stroke-width:7.7846456;stroke-linecap:butt;stroke-linejoin:miter;stroke-miterlimit:4.0000000;stroke-dasharray:none;stroke-opacity:1.0000000"
         sodipodi:nodetypes="ccccccccccccccccccccccc"
         id="path2866"
         d="M 55.954652,16.010835 L 20.639473,16.010835 L 18.089640,18.848577 L 18.089640,27.105718 L 20.639473,30.090655 L 24.209238,30.090655 L 24.209238,110.36522 L 27.524021,113.39284 L 37.213384,113.39284 L 115.62073,27.105718 L 115.62073,18.986196 L 112.94341,16.096197 L 77.755720,16.096197 L 75.078397,18.848577 L 75.078397,27.234693 L 77.618299,30.199390 L 80.036000,30.199390 L 53.277329,59.033329 L 53.277329,30.356317 L 56.464620,30.356317 L 58.935372,27.105718 L 58.935372,18.848577 L 55.954652,16.010835 z " />
      <path
         style="fill:#fefefe;fill-opacity:1.0000000;fill-rule:evenodd;stroke:#c8c8c8;stroke-width:0.99999774px;stroke-linecap:butt;stroke-linejoin:miter;stroke-opacity:1.0000000"
         sodipodi:nodetypes="cccc"
         id="path4408"
         d="M 84.948847,26.681465 L 84.948847,31.224646 L 83.146099,28.759776 L 84.948847,26.681465 z " />
      <path
         style="fill:#808080;fill-opacity:1.0000000;fill-rule:evenodd;stroke:#000000;stroke-width:0.99999774px;stroke-linecap:butt;stroke-linejoin:miter;stroke-opacity:1.0000000"
         id="path4410"
         d="M 79.413924,26.743700 L 78.606747,28.672997 L 83.219183,28.672997 L 85.035331,26.712584 L 79.413924,26.743700 z " />
      <path
         style="fill:#cccccc;fill-opacity:1.0000000;fill-rule:evenodd;stroke:#000000;stroke-width:1.9999955;stroke-linecap:butt;stroke-linejoin:miter;stroke-miterlimit:4.0000000;stroke-opacity:1.0000000"
         sodipodi:nodetypes="cccccccccccccccccccccccc"
         id="path3626"
         d="M 54.627504,19.611908 L 22.437096,19.611908 L 21.381673,20.561293 L 21.381673,25.308216 L 22.414376,26.683875 L 27.890116,26.683875 L 27.890116,109.00750 L 29.151353,110.07004 L 35.629886,110.07004 L 112.31272,24.358831 L 112.31272,20.985479 L 111.12256,19.632047 L 79.781757,19.632047 L 78.374527,20.860173 L 78.374527,25.562664 L 79.501022,26.657492 L 84.976549,26.657492 L 84.976549,31.226687 L 48.377291,71.448307 L 48.377291,26.625207 L 54.627504,26.625207 L 55.682927,25.530378 L 55.682927,20.705699 L 54.627504,19.611908 z " />
      <path
         style="fill:#cccccc;fill-opacity:1.0000000;fill-rule:evenodd;stroke:#000000;stroke-width:2.1259842;stroke-linecap:butt;stroke-linejoin:miter;stroke-miterlimit:4.0000000;stroke-dasharray:none;stroke-opacity:1.0000000"
         id="path1344"
         d="M 76.059924,70.139424 L 71.026553,70.139424 L 69.042245,72.020147 L 67.396719,77.401107 L 69.284232,79.386315 L 74.269207,79.386315 L 76.205118,77.610075 L 77.899041,71.967906 L 76.059924,70.139424 z " />
      <path
         style="fill:#cccccc;fill-opacity:1.0000000;fill-rule:evenodd;stroke:#000000;stroke-width:2.1259842;stroke-linecap:butt;stroke-linejoin:miter;stroke-miterlimit:4.0000000;stroke-dasharray:none;stroke-opacity:1.0000000"
         sodipodi:nodetypes="cccccccccccccccccccccccccccccc"
         id="path2107"
         d="M 77.777538,83.015438 L 76.337205,87.431088 L 78.926169,87.431088 L 72.369323,108.29644 L 82.582175,108.29644 L 83.954371,104.20292 L 82.030408,104.20292 L 85.716182,91.787705 L 91.656968,91.787705 L 86.803393,108.29644 L 97.084381,108.29644 L 98.456577,104.27647 L 96.302315,104.27647 L 100.08211,91.787705 L 105.79261,91.787705 L 100.93902,108.36998 L 111.74874,108.36998 L 113.12095,104.20292 L 110.73637,104.20292 L 115.83657,86.233697 L 113.67272,82.941896 L 106.72340,82.941896 L 104.40696,85.515882 L 101.68174,85.515882 L 99.433443,82.941896 L 93.677847,82.941896 L 91.429550,85.515882 L 88.772449,85.515882 L 86.387888,82.941896 L 77.777538,83.015438 z " />
      <path
         style="fill:#cccccc;fill-opacity:1.0000000;fill-rule:evenodd;stroke:#000000;stroke-width:2.1259842;stroke-linecap:butt;stroke-linejoin:miter;stroke-miterlimit:4.0000000;stroke-dasharray:none;stroke-opacity:1.0000000"
         sodipodi:nodetypes="ccccccccc"
         id="path2105"
         d="M 74.578900,82.990471 L 62.529466,83.058686 L 60.944084,87.477609 L 64.316507,87.477609 L 57.508881,108.62460 L 69.242334,108.62460 L 70.643193,104.27389 L 67.771274,104.27389 L 74.578900,82.990471 z " />
    </g>
  </g>
</svg>
