<?xml version="1.0" encoding="UTF-8" standalone="no"?>
<!-- Created with Inkscape (http://www.inkscape.org/) -->
<svg
   xmlns:dc="http://purl.org/dc/elements/1.1/"
   xmlns:cc="http://web.resource.org/cc/"
   xmlns:rdf="http://www.w3.org/1999/02/22-rdf-syntax-ns#"
   xmlns:svg="http://www.w3.org/2000/svg"
   xmlns="http://www.w3.org/2000/svg"
   xmlns:xlink="http://www.w3.org/1999/xlink"
   xmlns:sodipodi="http://inkscape.sourceforge.net/DTD/sodipodi-0.dtd"
   xmlns:inkscape="http://www.inkscape.org/namespaces/inkscape"
   height="102.40000pt"
   id="svg1858"
   inkscape:version="0.42"
   sodipodi:docbase="/home/joel/.icons/Complexity-0.6/scalable/apps"
   sodipodi:docname="wine.svg"
   sodipodi:version="0.32"
   width="102.40000pt">
  <metadata
     id="metadata3">
    <rdf:RDF>
      <cc:Work
         rdf:about="">
        <dc:title>Etiquette Icons</dc:title>
        <dc:description />
        <dc:subject>
          <rdf:Bag>
            <rdf:li>hash</rdf:li>
            <rdf:li />
            <rdf:li>application</rdf:li>
            <rdf:li>beverage</rdf:li>
            <rdf:li>computer</rdf:li>
            <rdf:li>icons</rdf:li>
            <rdf:li>alcohol</rdf:li>
          </rdf:Bag>
        </dc:subject>
        <dc:publisher>
          <cc:Agent
             rdf:about="http://www.openclipart.org">
            <dc:title>Andy Fitzsimon</dc:title>
          </cc:Agent>
        </dc:publisher>
        <dc:creator>
          <cc:Agent>
            <dc:title>Andy Fitzsimon</dc:title>
          </cc:Agent>
        </dc:creator>
        <dc:rights>
          <cc:Agent>
            <dc:title>Andy Fitzsimon</dc:title>
          </cc:Agent>
        </dc:rights>
        <dc:date />
        <dc:format>image/svg+xml</dc:format>
        <dc:type
           rdf:resource="http://purl.org/dc/dcmitype/StillImage" />
        <cc:license
           rdf:resource="http://web.resource.org/cc/PublicDomain" />
        <dc:language>en</dc:language>
        <dc:contributor>
          <cc:Agent>
            <dc:title>Joel Montes de Oca</dc:title>
          </cc:Agent>
        </dc:contributor>
      </cc:Work>
      <cc:License
         rdf:about="http://web.resource.org/cc/PublicDomain">
        <cc:permits
           rdf:resource="http://web.resource.org/cc/Reproduction" />
        <cc:permits
           rdf:resource="http://web.resource.org/cc/Distribution" />
        <cc:permits
           rdf:resource="http://web.resource.org/cc/DerivativeWorks" />
      </cc:License>
    </rdf:RDF>
  </metadata>
  <defs
     id="defs1860">
    <linearGradient
       id="linearGradient1990">
      <stop
         id="stop1991"
         offset="0.0000000"
         style="stop-color:#000000;stop-opacity:0.0000000;" />
      <stop
         id="stop1992"
         offset="0.50000000"
         style="stop-color:#000000;stop-opacity:0.11299435;" />
      <stop
         id="stop1993"
         offset="1.0000000"
         style="stop-color:#000000;stop-opacity:0.0000000;" />
    </linearGradient>
    <linearGradient
       id="linearGradient1982">
      <stop
         id="stop1983"
         offset="0.0000000"
         style="stop-color:#ffffff;stop-opacity:1.0000000;" />
      <stop
         id="stop1984"
         offset="0.60111111"
         style="stop-color:#ffffff;stop-opacity:0.078431375;" />
      <stop
         id="stop1985"
         offset="1.0000000"
         style="stop-color:#ffffff;stop-opacity:0.0000000;" />
    </linearGradient>
    <linearGradient
       id="linearGradient1954">
      <stop
         id="stop1955"
         offset="0.0000000"
         style="stop-color:#ffffff;stop-opacity:0.78431374;" />
      <stop
         id="stop3697"
         offset="0.81000000"
         style="stop-color:#990000;stop-opacity:0.0000000;" />
      <stop
         id="stop1957"
         offset="1.0000000"
         style="stop-color:#ffffff;stop-opacity:0.0000000;" />
    </linearGradient>
    <linearGradient
       id="linearGradient1806">
      <stop
         id="stop1807"
         offset="0.0000000"
         style="stop-color:#000000;stop-opacity:0.40677965;" />
      <stop
         id="stop3276"
         offset="0.64777780"
         style="stop-color:#000000;stop-opacity:0.073446326;" />
      <stop
         id="stop1808"
         offset="1.0000000"
         style="stop-color:#000000;stop-opacity:0.0000000;" />
    </linearGradient>
    <linearGradient
       id="linearGradient1918">
      <stop
         id="stop1919"
         offset="0.0000000"
         style="stop-color:#000000;stop-opacity:0.31638417;" />
      <stop
         id="stop1920"
         offset="0.50000000"
         style="stop-color:#000000;stop-opacity:0.079096042;" />
      <stop
         id="stop1921"
         offset="1.0000000"
         style="stop-color:#000000;stop-opacity:0.0000000;" />
    </linearGradient>
    <linearGradient
       id="linearGradient1908">
      <stop
         id="stop1909"
         offset="0.0000000"
         style="stop-color:#884631;stop-opacity:1.0000000;" />
      <stop
         id="stop3698"
         offset="0.62500000"
         style="stop-color:#df421e;stop-opacity:1.0000000;" />
      <stop
         id="stop3699"
         offset="0.81250000"
         style="stop-color:#efa08e;stop-opacity:1.0000000;" />
      <stop
         id="stop1910"
         offset="1"
         style="stop-color:#fff;stop-opacity:1;" />
    </linearGradient>
    <pattern
       height="48.000000"
       id="pattern1864"
       width="48.000000">
      <image
         height="48.000000"
         id="image1865"
         sodipodi:absref="/usr/share/icons/hicolor/48x48/apps/gnome-starthere.png"
         width="48.000000"
         xlink:href="/usr/share/icons/hicolor/48x48/apps/gnome-starthere.png" />
    </pattern>
    <pattern
       height="48.000000"
       id="pattern1873"
       width="48.000000">
      <image
         height="48.000000"
         id="image1874"
         sodipodi:absref="/usr/share/icons/hicolor/48x48/apps/im-jabber.png"
         width="48.000000"
         xlink:href="/usr/share/icons/hicolor/48x48/apps/im-jabber.png" />
    </pattern>
    <pattern
       height="48.000000"
       id="pattern1882"
       width="48.000000">
      <image
         height="48.000000"
         id="image1883"
         sodipodi:absref="/usr/share/icons/hicolor/48x48/apps/ooo_web.xpm"
         width="48.000000"
         xlink:href="/usr/share/icons/hicolor/48x48/apps/ooo_web.xpm" />
    </pattern>
    <pattern
       height="48.000000"
       id="pattern1891"
       width="48.000000">
      <image
         height="48.000000"
         id="image1892"
         sodipodi:absref="/usr/share/icons/hicolor/48x48/apps/wallpaper.png"
         width="48.000000"
         xlink:href="/usr/share/icons/hicolor/48x48/apps/wallpaper.png" />
    </pattern>
    <pattern
       height="48.000000"
       id="pattern1900"
       width="48.000000">
      <image
         height="48.000000"
         id="image1901"
         sodipodi:absref="/usr/share/icons/hicolor/48x48/apps/wine.png"
         width="48.000000"
         xlink:href="/usr/share/icons/hicolor/48x48/apps/wine.png" />
    </pattern>
    <linearGradient
       id="linearGradient1911"
       x1="78.753585"
       x2="26.172458"
       xlink:href="#linearGradient1908"
       y1="397.89075"
       y2="351.19707"
       gradientTransform="scale(1.184518,0.844225)"
       gradientUnits="userSpaceOnUse" />
    <linearGradient
       id="linearGradient1912"
       x1="17.133599"
       x2="26.262699"
       xlink:href="#linearGradient1918"
       y1="12.402272"
       y2="12.402272"
       gradientTransform="scale(1.598611,0.625543)"
       gradientUnits="userSpaceOnUse" />
    <linearGradient
       id="linearGradient1915"
       x1="68.265486"
       x2="28.057237"
       xlink:href="#linearGradient1908"
       y1="370.90508"
       y2="332.33321"
       gradientTransform="scale(1.133936,0.881884)"
       gradientUnits="userSpaceOnUse" />
    <linearGradient
       id="linearGradient1922"
       x1="104.84399"
       x2="28.429239"
       xlink:href="#linearGradient1918"
       y1="321.39782"
       y2="277.92343"
       gradientTransform="scale(0.946639,1.056369)"
       gradientUnits="userSpaceOnUse" />
    <linearGradient
       id="linearGradient1925"
       x1="41.803414"
       x2="34.710554"
       xlink:href="#linearGradient1982"
       y1="372.34343"
       y2="376.63461"
       gradientTransform="scale(0.967013,1.034112)"
       gradientUnits="userSpaceOnUse" />
    <linearGradient
       id="linearGradient1927"
       x1="23.770393"
       x2="53.662830"
       xlink:href="#linearGradient1990"
       y1="95.243884"
       y2="128.85731"
       gradientTransform="scale(0.988302,1.011837)"
       gradientUnits="userSpaceOnUse" />
    <radialGradient
       cx="41.875938"
       cy="37.865574"
       fx="34.828524"
       fy="31.584183"
       id="radialGradient1502"
       r="12.562782"
       xlink:href="#linearGradient1918"
       gradientUnits="userSpaceOnUse" />
    <radialGradient
       cx="0.50000000"
       cy="0.50000000"
       fx="0.67944252"
       fy="0.46875000"
       id="radialGradient1937"
       r="0.50000000"
       xlink:href="#linearGradient1918" />
    <radialGradient
       cx="0.84898806"
       cy="0.41226101"
       fx="0.56333953"
       fy="0.18582444"
       id="radialGradient1941"
       r="0.42322907"
       xlink:href="#linearGradient1918" />
    <radialGradient
       cx="58.375500"
       cy="22.775043"
       fx="53.432021"
       fy="22.164028"
       id="radialGradient1953"
       r="10.998282"
       xlink:href="#linearGradient1954"
       gradientUnits="userSpaceOnUse" />
    <pattern
       height="48.000000"
       id="pattern1961"
       width="48.000000">
      <image
         height="48.000000"
         id="image1962"
         sodipodi:absref="/usr/share/icons/hicolor/48x48/apps/wine.png"
         width="48.000000"
         xlink:href="/usr/share/icons/hicolor/48x48/apps/wine.png" />
    </pattern>
    <radialGradient
       cx="42.007257"
       cy="39.007645"
       fx="37.805072"
       fy="39.239628"
       id="radialGradient1977"
       r="9.8527928"
       xlink:href="#linearGradient1806"
       gradientUnits="userSpaceOnUse" />
    <linearGradient
       id="linearGradient1979"
       x1="49.627894"
       x2="68.691985"
       xlink:href="#linearGradient1954"
       y1="396.80029"
       y2="424.20239"
       gradientTransform="scale(1.233739,0.810545)"
       gradientUnits="userSpaceOnUse" />
    <linearGradient
       id="linearGradient1981"
       x1="76.440939"
       x2="99.764216"
       xlink:href="#linearGradient1982"
       y1="246.53215"
       y2="262.38469"
       gradientTransform="scale(0.789568,1.266516)"
       gradientUnits="userSpaceOnUse" />
    <linearGradient
       id="linearGradient1987"
       x1="101.15012"
       x2="83.709572"
       xlink:href="#linearGradient1982"
       y1="378.20698"
       y2="352.44402"
       gradientTransform="scale(1.168503,0.855796)"
       gradientUnits="userSpaceOnUse" />
    <linearGradient
       id="linearGradient1989"
       x1="23.057706"
       x2="21.619641"
       xlink:href="#linearGradient1982"
       y1="411.51218"
       y2="422.44497"
       gradientTransform="scale(1.088969,0.918300)"
       gradientUnits="userSpaceOnUse" />
    <linearGradient
       id="linearGradient1996"
       x1="48.353673"
       x2="51.658587"
       xlink:href="#linearGradient1982"
       y1="99.757841"
       y2="103.12432"
       gradientTransform="scale(0.917519,1.089896)"
       gradientUnits="userSpaceOnUse" />
    <linearGradient
       id="linearGradient1998"
       x1="27.254147"
       x2="21.609067"
       xlink:href="#linearGradient1990"
       y1="436.18505"
       y2="441.86894"
       gradientTransform="scale(1.121334,0.891795)"
       gradientUnits="userSpaceOnUse" />
    <linearGradient
       id="linearGradient3050"
       x1="45.023643"
       x2="181.64224"
       xlink:href="#linearGradient1982"
       y1="20.534979"
       y2="116.28294"
       gradientTransform="scale(0.961706,1.039819)"
       gradientUnits="userSpaceOnUse" />
    <linearGradient
       id="linearGradient1644"
       x1="81.211522"
       x2="5.4840095"
       xlink:href="#linearGradient1982"
       y1="116.07082"
       y2="70.989283"
       gradientTransform="scale(0.988302,1.011837)"
       gradientUnits="userSpaceOnUse" />
    <radialGradient
       inkscape:collect="always"
       xlink:href="#linearGradient1918"
       id="radialGradient1386"
       cx="41.875938"
       cy="37.865574"
       fx="46.384533"
       fy="37.080400"
       r="12.562782"
       gradientUnits="userSpaceOnUse" />
  </defs>
  <sodipodi:namedview
     bordercolor="#000000"
     borderopacity="1.0000000"
     id="base"
     inkscape:cx="100.46342"
     inkscape:cy="32.280860"
     inkscape:pageopacity="0.0000000"
     inkscape:pageshadow="2"
     inkscape:window-height="950"
     inkscape:window-width="1280"
     inkscape:window-x="0"
     inkscape:window-y="25"
     inkscape:zoom="0.79625521"
     pagecolor="#ffffff"
     showborder="true"
     inkscape:current-layer="svg1858" />
  <g
     id="wineglass"
     transform="translate(-11.10050,-17.31679)">
    <path
       d="M 75.948894,20.745164 L 61.319553,44.962300 C 57.420484,51.416738 57.488810,80.214220 58.647141,81.385494 L 61.408043,84.177249 C 62.635979,85.418912 83.283520,79.365875 92.224442,72.438593 L 117.14977,53.126849 C 121.33451,49.884582 110.58066,35.576021 103.67860,30.284828 C 96.776533,24.993625 78.951243,15.775135 75.948894,20.745164 z "
       id="path1056"
       sodipodi:nodetypes="czzzzzzz"
       style="fill:url(#linearGradient3050);fill-opacity:1.0000000;fill-rule:evenodd;stroke-width:0.75000000" />
    <path
       d="M 54.438721 37.865574 A 12.562782 12.562782 0 1 1  29.313156,37.865574 A 12.562782 12.562782 0 1 1  54.438721 37.865574 z"
       id="path1976"
       sodipodi:cx="41.875938"
       sodipodi:cy="37.865574"
       sodipodi:rx="12.562782"
       sodipodi:ry="12.562782"
       sodipodi:type="arc"
       style="fill:url(#radialGradient1977);fill-opacity:1.0000000;fill-rule:evenodd;stroke-width:1.0000000pt"
       transform="matrix(6.929434,0.000000,0.000000,3.084932,-205.8924,0.927250)" />
    <path
       d="M 54.438721 37.865574 A 12.562782 12.562782 0 1 1  29.313156,37.865574 A 12.562782 12.562782 0 1 1  54.438721 37.865574 z"
       id="path1934"
       sodipodi:cx="41.875938"
       sodipodi:cy="37.865574"
       sodipodi:rx="12.562782"
       sodipodi:ry="12.562782"
       sodipodi:type="arc"
       style="fill:url(#radialGradient1502);fill-opacity:1.0000000;fill-rule:evenodd;stroke-width:1.0000000pt"
       transform="matrix(4.074372,0.000000,0.000000,1.541655,-73.11689,66.55027)" />
    <path
       d="M 54.438721 37.865574 A 12.562782 12.562782 0 1 1  29.313156,37.865574 A 12.562782 12.562782 0 1 1  54.438721 37.865574 z"
       id="path1936"
       sodipodi:cx="41.875938"
       sodipodi:cy="37.865574"
       sodipodi:rx="12.562782"
       sodipodi:ry="12.562782"
       sodipodi:type="arc"
       style="fill:url(#radialGradient1386);fill-opacity:1.0000000;fill-rule:evenodd;stroke-width:1.0000000pt"
       transform="matrix(4.331314,0.000000,0.000000,1.248007,-125.8529,73.05806)" />
    <path
       d="M 69.373782 22.775043 A 10.998282 10.998282 0 1 1  47.377217,22.775043 A 10.998282 10.998282 0 1 1  69.373782 22.775043 z"
       id="path1952"
       sodipodi:cx="58.375500"
       sodipodi:cy="22.775043"
       sodipodi:rx="10.998282"
       sodipodi:ry="10.998282"
       sodipodi:type="arc"
       style="fill:url(#radialGradient1953);fill-opacity:1.0000000;fill-rule:evenodd;stroke-width:1.0000000pt"
       transform="matrix(3.856546,0.000000,0.000000,1.602573,-116.3511,82.22937)" />
    <path
       d="M 62.488746,94.742202 L 40.352416,123.49980 L 41.249573,127.14432 L 49.620842,140.53053 C 53.965664,147.47817 32.387125,136.57050 26.518719,132.12709 C 20.650307,127.68368 7.5270076,111.43188 14.410389,113.87005 L 34.672623,121.04718 L 59.350329,91.569670 L 62.488746,94.742202 z "
       id="path3076"
       sodipodi:nodetypes="ccczzzccc"
       style="fill:url(#linearGradient1927);fill-opacity:1.0000000;fill-rule:evenodd;stroke-width:1.0000000pt"
       transform="translate(-1.089322,-10.89322)" />
    <path
       d="M 61.354125,84.205155 L 39.217795,112.96275 L 40.114952,116.60727 L 48.486221,129.99348 C 52.831043,136.94112 31.252504,126.03345 25.384098,121.59004 C 19.515686,117.14663 6.3923869,100.89483 13.275768,103.33300 L 33.538002,110.51013 L 58.215708,81.032623 L 61.354125,84.205155 z "
       id="path1643"
       sodipodi:nodetypes="ccczzzccc"
       style="fill:url(#linearGradient1644);fill-opacity:1.0000000;fill-rule:evenodd;stroke-width:1.0000000pt" />
    <g
       id="g3112"
       transform="matrix(0.679574,0.733608,-0.733608,0.679574,280.8556,-185.2491)">
      <path
         d="M 59.566561,346.69634 L 58.914426,330.71898 C 58.721774,325.99899 58.672546,316.75399 63.765894,316.75399 C 69.299455,316.75399 75.923114,314.33926 83.748758,314.33926 C 91.574399,314.33926 102.59120,320.24524 102.59120,320.24524 L 84.347762,338.21856 C 84.347762,338.21856 66.413998,348.97882 63.153314,348.32668 C 59.892631,347.67454 59.566561,346.69634 59.566561,346.69634 z "
         id="path3075"
         sodipodi:nodetypes="czzccccc"
         style="fill:url(#linearGradient1915);fill-rule:evenodd;stroke-width:1.0000000pt"
         transform="matrix(0.738614,-0.674128,0.674128,0.738614,-236.0049,123.8602)" />
      <path
         d="M 71.267562,290.12096 L 58.224828,315.22823 C 54.748627,321.91991 56.667547,350.65348 57.898759,351.74789 L 60.833373,354.35644 C 62.138569,355.51662 82.441808,348.24692 90.831667,340.66156 L 114.63466,319.14105 C 118.56148,315.59078 107.18943,302.45722 99.961582,297.62054 C 92.733733,292.78385 73.944295,284.96825 71.267562,290.12096 z "
         id="path3077"
         sodipodi:nodetypes="czzzzzzz"
         style="fill:url(#linearGradient1922);fill-opacity:1.0000000;fill-rule:evenodd;stroke-width:0.75000000"
         transform="matrix(0.738614,-0.674128,0.674128,0.738614,-236.0049,123.8602)" />
      <path
         d="M 59.855168,348.81328 L 59.203033,332.83592 C 59.010382,328.11592 59.152198,315.60273 64.054501,318.87093 C 68.896368,322.09884 71.600418,323.60372 79.426062,323.60372 C 87.251704,323.60372 107.49111,315.67579 103.80207,321.90105 L 84.636369,340.33550 C 84.636369,340.33550 66.702605,351.09576 63.441921,350.44362 C 60.181238,349.79148 59.855168,348.81328 59.855168,348.81328 z "
         id="path3078"
         sodipodi:nodetypes="czzccccc"
         style="fill:url(#linearGradient1911);fill-rule:evenodd;stroke-width:1.0000000pt"
         transform="matrix(0.738614,-0.674128,0.674128,0.738614,-236.0049,123.8602)" />
      <path
         d="M 41.983827 7.7581573 A 7.2969375 2.8553233 0 1 1  27.389952,7.7581573 A 7.2969375 2.8553233 0 1 1  41.983827 7.7581573 z"
         id="path3079"
         sodipodi:cx="34.686890"
         sodipodi:cy="7.7581573"
         sodipodi:rx="7.2969375"
         sodipodi:ry="2.8553233"
         sodipodi:type="arc"
         style="fill:url(#linearGradient1912);fill-opacity:1.0000000;fill-rule:evenodd;stroke-width:1.4922816"
         transform="matrix(2.942502,-0.555238,0.212587,2.236651,-65.28913,288.6336)" />
      <path
         d="M 61.360727,339.43340 L 61.360727,325.59949 C 61.360727,325.59949 61.821857,321.44932 66.433163,323.29384 C 71.044466,325.13836 77.039161,330.67193 83.494986,326.98288 C 89.950811,323.29384 87.645158,336.20549 80.267072,338.51114 C 72.888989,340.81680 61.360727,339.43340 61.360727,339.43340 z "
         id="path3080"
         style="fill:url(#linearGradient1979);fill-opacity:1.0000000;fill-rule:evenodd;stroke-width:1.0000000pt"
         transform="matrix(0.738614,-0.674128,0.674128,0.738614,-236.0049,123.8602)" />
      <path
         d="M 70.583336,301.15958 C 70.583336,301.15958 64.127510,308.99880 62.282988,316.83801 C 60.438466,324.67723 59.516208,344.04471 61.360727,345.42810 C 63.205249,346.81149 91.334203,312.22671 87.645158,312.22671 C 83.956117,312.22671 70.583336,301.15958 70.583336,301.15958 z "
         id="path3081"
         style="fill:url(#linearGradient1981);fill-opacity:1.0000000;fill-rule:evenodd;stroke-width:1.0000000pt"
         transform="matrix(0.738614,-0.674128,0.674128,0.738614,-236.0049,123.8602)" />
      <path
         d="M 100.09606,301.93815 C 102.85091,303.24323 116.75953,314.70602 112.31886,318.38944 C 108.10209,321.88712 90.637756,307.45964 89.627645,305.55222 C 88.617531,303.64479 97.341214,300.63307 100.09606,301.93815 z "
         id="path3082"
         sodipodi:nodetypes="czzz"
         style="fill:url(#linearGradient1987);fill-opacity:1.0000000;fill-rule:evenodd;stroke-width:1.0000000pt"
         transform="matrix(0.738614,-0.674128,0.674128,0.738614,-236.0049,123.8602)" />
    </g>
    <path
       d="M 35.035180,121.02854 L 58.968092,93.559994 L 61.393042,96.036656 L 39.332846,124.86980 L 35.035180,121.02854 z "
       id="path3085"
       sodipodi:nodetypes="ccccc"
       style="fill:url(#linearGradient1996);fill-rule:evenodd;stroke-width:1.0000000pt"
       transform="translate(-1.089322,-10.89322)" />
    <g
       id="g3120"
       transform="matrix(0.775200,0.631716,-0.631716,0.775200,241.9578,-212.8171)">
      <path
         d="M 29.167989,378.19783 C 26.909557,376.81768 11.723330,370.96998 11.886363,372.65467 C 12.049396,374.33936 16.463796,381.77102 20.364140,385.37134 C 24.603028,389.28416 32.102603,394.17518 34.385082,394.50125 C 36.667561,394.82732 39.928247,384.55617 36.993630,382.76279 C 34.059016,380.96941 31.426421,379.57799 29.167989,378.19783 z "
         id="path3083"
         sodipodi:nodetypes="czzzzz"
         style="fill:url(#linearGradient1989);fill-opacity:1.0000000;fill-rule:evenodd;stroke-width:1.0000000pt"
         transform="matrix(0.738614,-0.674128,0.674128,0.738614,-236.0049,123.8602)" />
      <path
         d="M 34.575606,381.19367 C 34.575606,381.19367 38.034084,382.34650 39.878606,388.80232 C 41.723129,395.25815 44.489909,398.71663 41.723129,397.79437 C 38.956345,396.87211 23.508478,390.18572 26.736392,386.72724 C 29.964303,383.26876 29.042042,377.96576 34.575606,381.19367 z "
         id="path3084"
         style="fill:url(#linearGradient1925);fill-opacity:1.0000000;fill-rule:evenodd;stroke-width:1.0000000pt"
         transform="matrix(0.738614,-0.674128,0.674128,0.738614,-236.0049,123.8602)" />
      <path
         d="M 19.166958,381.83573 C 19.166958,381.83573 32.535762,380.20539 35.959482,387.05282 C 39.383198,393.90026 43.538658,399.84848 41.093147,399.68544 C 38.647632,399.52241 20.145163,387.70496 19.166958,381.83573 z "
         id="path3086"
         sodipodi:nodetypes="cccc"
         style="fill:url(#linearGradient1998);fill-opacity:1.0000000;fill-rule:evenodd;stroke-width:1.0000000pt"
         transform="matrix(0.738614,-0.674128,0.674128,0.738614,-236.0049,123.8602)" />
    </g>
  </g>
</svg>
