<?xml version="1.0" encoding="UTF-8" standalone="no"?>
<!-- Created with Inkscape (http://www.inkscape.org/) -->

<svg
   xmlns:dc="http://purl.org/dc/elements/1.1/"
   xmlns:cc="http://creativecommons.org/ns#"
   xmlns:rdf="http://www.w3.org/1999/02/22-rdf-syntax-ns#"
   xmlns:svg="http://www.w3.org/2000/svg"
   xmlns="http://www.w3.org/2000/svg"
   xmlns:sodipodi="http://sodipodi.sourceforge.net/DTD/sodipodi-0.dtd"
   xmlns:inkscape="http://www.inkscape.org/namespaces/inkscape"
   id="svg5227"
   version="1.1"
   inkscape:version="0.48.2 r9819"
   width="300"
   height="212"
   sodipodi:docname="akofena_lg.gif">
  <metadata
     id="metadata5233">
    <rdf:RDF>
      <cc:Work
         rdf:about="">
        <dc:format>image/svg+xml</dc:format>
        <dc:type
           rdf:resource="http://purl.org/dc/dcmitype/StillImage" />
        <dc:title></dc:title>
      </cc:Work>
    </rdf:RDF>
  </metadata>
  <defs
     id="defs5231" />
  <sodipodi:namedview
     pagecolor="#ffffff"
     bordercolor="#666666"
     borderopacity="1"
     objecttolerance="10"
     gridtolerance="10"
     guidetolerance="10"
     inkscape:pageopacity="0"
     inkscape:pageshadow="2"
     inkscape:window-width="885"
     inkscape:window-height="675"
     id="namedview5229"
     showgrid="false"
     inkscape:zoom="1.1132075"
     inkscape:cx="150"
     inkscape:cy="106"
     inkscape:window-x="839"
     inkscape:window-y="324"
     inkscape:window-maximized="0"
     inkscape:current-layer="svg5227" />
  <path
     style="fill:#000000"
     d="m 227.99803,210.04661 c -2.92049,-2.98823 -4.04149,-5.29876 -5.5184,-11.37414 l -1.8534,-7.62414 -5.25144,-0.54199 c -12.53128,-1.29334 -20.47648,-9.52306 -20.47648,-21.20973 0,-6.03561 2.41473,-12.00564 6.51406,-16.10497 l 2.33639,-2.33639 -4.05426,-7.46032 -4.05426,-7.46032 -6.67318,0.55946 c -8.70485,0.72978 -16.21989,-1.42305 -21.88009,-6.26797 -6.2959,-5.38905 -8.6231,-10.47658 -8.65896,-18.92949 -0.0259,-6.1031 0.39217,-7.74447 3.2629,-12.81034 l 3.2926,-5.810336 -3.9538,-4.68966 c -2.1746,-2.57932 -5.59856,-6.26466 -7.60881,-8.18966 l -3.65501,-3.5 -6.39441,7 c -3.51692,3.85 -6.41213,7.38053 -6.43379,7.84563 -0.0217,0.46509 0.87009,2.12286 1.98167,3.68392 4.80213,6.743976 6.1389,15.431346 3.51769,22.860656 -2.33606,6.6211 -6.21561,10.82539 -13.13046,14.22956 -5.93811,2.92332 -6.92566,3.10388 -14.73472,2.69401 l -8.37004,-0.43932 -4.13446,7.65471 -4.134467,7.65471 2.614617,2.40806 c 3.83673,3.53362 6.30371,9.64967 6.32883,15.69018 0.0488,11.7307 -7.523792,19.77041 -19.897272,21.12473 -5.968504,0.65327 -5.905581,0.56345 -9.108,13.00117 -1.455686,5.65367 -5.792271,10.09198 -9.860666,10.09198 -1.983823,0 -3.401776,-0.67273 -4.076923,-1.93426 -1.661973,-3.10542 -1.196141,-13.3704 0.914509,-20.15193 l 1.949693,-6.26437 -3.074789,-3.50199 c -4.146049,-4.72209 -5.824597,-9.08733 -5.824597,-15.14745 0,-12.23821 9.179466,-20.92768 22.161004,-20.97804 l 5.661003,-0.022 4.293569,-8.38499 4.293569,-8.38499 -3.206707,-3.65224 c -4.512778,-5.13973 -6.3814,-10.12144 -6.419526,-17.11431 -0.08513,-15.613596 13.592398,-26.744786 30.879293,-25.130516 l 6.27871,0.58632 6.61209,-9.68357 6.6121,-9.68356 -2.33255,-1.88912 c -3.4665,-2.80751 -14.60861,-8.22203 -20.55069,-9.98664 -21.409495,-6.35794 -46.632211,0.0392 -72.781866,18.45949 -5.01003,3.52915 -15.57925,12.87354 -23.84051,21.07771 L 0.71729441,104.74811 1.3838044,99.52235 C 6.2947244,61.018654 29.683504,24.277714 58.139765,10.365654 69.133601,4.9908442 76.477701,3.4757242 88.885808,4.0226242 108.55976,4.8897642 119.7495,10.788164 138.90013,30.386444 l 11.34903,11.61433 9.07458,-9.78493 c 9.42672,-10.16465 21.15377,-20.14359 27.44288,-23.35205 12.29761,-6.2737798 28.54358,-8.5111798 41.25912,-5.6822398 35.72576,7.9482298 66.72033,48.8926498 72.37975,95.6150558 l 0.66621,5.5 -3.22807,-4 C 287.27692,87.203094 265.23524,68.160514 251.13494,59.943334 c -24.84896,-14.48113 -50.39255,-17.2191 -70.77036,-7.58574 -6.31626,2.98593 -14.46627,8.3435 -14.46627,9.50967 0,0.4852 3.12879,5.43568 6.95287,11.00106 l 6.95287,10.11887 9.79713,0.15471 c 8.65758,0.13671 10.32055,0.46419 14.29713,2.81549 8.86453,5.24148 13.2141,12.209996 13.31938,21.339216 0.0752,6.52001 -1.6777,11.50616 -6.06613,17.25532 l -3.56258,4.66723 4.38421,8.21781 c 4.09573,7.67707 4.56274,8.18212 7.09725,7.67521 4.08587,-0.81717 12.29162,1.51335 16.78224,4.76634 10.19918,7.38825 10.89886,21.62004 1.60586,32.66414 l -2.53537,3.01311 1.98757,5.77697 c 2.64515,7.68826 2.72755,18.48422 0.15883,20.80888 -2.79679,2.53106 -5.06151,2.00804 -9.07154,-2.09501 z m -2.38279,-30.91996 c 9.33161,-4.42814 9.74426,-17.51065 0.68788,-21.80819 -11.56462,-5.48777 -24.55671,6.54858 -18.89224,17.50246 2.94264,5.69044 11.18034,7.63884 18.20436,4.30573 z M 87.084029,178.76178 c 7.810305,-2.16925 11.113394,-10.68223 6.85476,-17.66662 -2.598217,-4.26122 -6.832578,-6.29855 -13.090824,-6.29855 -4.523143,0 -5.56331,0.41365 -8.54966,3.4 -2.851395,2.85139 -3.4,4.12047 -3.4,7.86514 0,5.47598 2.666842,9.22494 8.421401,11.83853 4.792074,2.17645 4.972546,2.19237 9.764323,0.8615 z M 59.648305,46.548164 c 1.2375,-1.1551 2.25,-3.1672 2.25,-4.47132 0,-3.35655 -4.257053,-7.28023 -7.898782,-7.28023 -3.977689,0 -8.351219,3.82447 -8.351219,7.30281 0,6.99862 8.4064,9.66989 14.000001,4.44874 z m 192.592685,0.13817 c 3.24241,-1.47734 4.87874,-5.17712 3.68193,-8.32496 -1.17405,-3.08798 -3.91063,-4.56476 -8.45887,-4.56476 -6.94294,0 -9.92365,6.733 -5.11119,11.54545 2.64888,2.64888 6.0192,3.10707 9.88813,1.34427 z M 109.64831,33.203194 c 2.53922,-2.8418 2.73986,-4.23734 1.12028,-7.79194 -2.29853,-5.04474 -11.186374,-5.85685 -14.369043,-1.31296 -2.964262,4.23208 -1.671163,9.27036 2.898419,11.29307 3.955874,1.75105 7.500044,1.00178 10.350344,-2.18817 z m -27.673082,-1.32966 c 3.549372,-3.54937 3.686627,-6.07772 0.52921,-9.74843 -4.641167,-5.39568 -15.606133,-2.29609 -15.606133,4.41156 0,7.79305 9.321242,11.09255 15.076923,5.33687 z m 122.288222,0.8505 c 1.88177,-1.48021 2.63486,-3.00238 2.63486,-5.32569 0,-7.35025 -9.8594,-10.79165 -14.7219,-5.13866 -3.04237,3.53697 -2.87054,6.09833 0.64498,9.61385 3.51569,3.51569 7.662,3.82389 11.44206,0.8505 z m 28,-2 c 1.91103,-1.50322 2.63486,-2.99421 2.63486,-5.42742 0,-6.94079 -10.30539,-10.28552 -15.54545,-5.04546 -3.177,3.177 -3.11395,6.61333 0.18181,9.90909 3.32489,3.32488 8.90444,3.57201 12.72878,0.56379 z"
     id="path5237"
     inkscape:connector-curvature="0" />
</svg>
