<?xml version="1.0" encoding="UTF-8" standalone="no"?>
<!-- Created with Inkscape (http://www.inkscape.org/) -->

<svg
   xmlns:dc="http://purl.org/dc/elements/1.1/"
   xmlns:cc="http://creativecommons.org/ns#"
   xmlns:rdf="http://www.w3.org/1999/02/22-rdf-syntax-ns#"
   xmlns:svg="http://www.w3.org/2000/svg"
   xmlns="http://www.w3.org/2000/svg"
   xmlns:sodipodi="http://sodipodi.sourceforge.net/DTD/sodipodi-0.dtd"
   xmlns:inkscape="http://www.inkscape.org/namespaces/inkscape"
   id="svg3469"
   version="1.1"
   inkscape:version="0.48.2 r9819"
   width="250"
   height="233"
   sodipodi:docname="anan_lg.svg">
  <metadata
     id="metadata3475">
    <rdf:RDF>
      <cc:Work
         rdf:about="">
        <dc:format>image/svg+xml</dc:format>
        <dc:type
           rdf:resource="http://purl.org/dc/dcmitype/StillImage" />
        <dc:title></dc:title>
      </cc:Work>
    </rdf:RDF>
  </metadata>
  <defs
     id="defs3473" />
  <sodipodi:namedview
     pagecolor="#ffffff"
     bordercolor="#666666"
     borderopacity="1"
     objecttolerance="10"
     gridtolerance="10"
     guidetolerance="10"
     inkscape:pageopacity="0"
     inkscape:pageshadow="2"
     inkscape:window-width="2560"
     inkscape:window-height="1392"
     id="namedview3471"
     showgrid="false"
     inkscape:zoom="1.0128755"
     inkscape:cx="-66.533898"
     inkscape:cy="116.5"
     inkscape:window-x="0"
     inkscape:window-y="0"
     inkscape:window-maximized="1"
     inkscape:current-layer="svg3469" />
  <g
     id="g3479"
     transform="translate(2.9618641,-0.0762709)">
    <path
       style="fill:#d0d0d0"
       d="m 151.78689,230.6783 c -4.65812,-4.317 -8.11404,-17.897 -12.27226,-48.22374 -2.84407,-20.74243 -3.63631,-24.06824 -6.64414,-27.89208 -2.54234,-3.23206 -6.68221,-3.3583 -12.0061,-0.3661 -6.77856,3.80975 -10.69235,11.41661 -22.022848,42.80362 -8.875566,24.58652 -13.060466,33.56248 -16.007251,34.33308 -3.879449,1.0145 -11.165614,-0.50059 -16.937266,-3.52195 C 54.695193,221.94717 41.798003,210.02768 40.331168,204.18334 38.935172,198.62125 46.645384,189.58237 73.5,165.29866 96.488949,144.51054 98.932727,141.01164 93.75,136.30555 88.302598,131.35913 84.80223,132.07957 54.175598,144.4507 29.104213,154.57788 18.456152,158 12.016472,158 7.7474366,158 6.8715927,157.62841 5.0236222,155.03317 0.77718724,149.06961 -1.6098526,119.02491 1.3663037,109 c 1.1533092,-3.88482 1.8689474,-4.68553 5.2348193,-5.85713 4.786145,-1.66597 22.144576,-0.50456 50.950424,3.40898 24.461586,3.32333 29.199758,3.49981 30.920458,1.15167 0.724047,-0.98806 1.082921,-2.68948 0.7975,-3.78093 C 88.688313,101.7001 88.585104,101.63803 59.631182,86.09735 36.320745,73.585743 20.581736,64.06634 15.433174,59.36513 c -2.616554,-2.389206 -3.430942,-3.935305 -3.42379,-6.5 0.0192,-6.883964 10.466578,-20.556486 22.76769,-29.796151 8.581272,-6.445602 11.626457,-6.665448 17.060249,-1.231656 6.31244,6.31244 17.99586,21.358716 34.680529,44.662677 8.663098,12.1 16.253078,22.330609 16.866618,22.734687 2.15948,1.422235 6.32656,0.742098 8.21054,-1.340099 C 114.50355,84.680038 113.82324,79.645176 107.55562,58 100.33595,33.066905 97.919456,22.169171 97.765152,13.847605 97.599289,4.9026455 98.954109,2.9860072 106.58011,1.3772498 c 7.63874,-1.61144393 26.86476,-1.71343341 35.15188,-0.1864723 5.47686,1.0091519 6.61292,1.5811274 7.44822,3.75 1.40753,3.6546438 0.31019,13.7736095 -4.75385,43.8367035 -5.06246,30.053727 -5.24624,32.910493 -2.35378,36.58766 4.58253,5.825747 8.53412,3.144559 31.33187,-21.258966 30.84358,-33.016056 35.96823,-37.392215 41.66895,-35.582878 8.12698,2.579403 23.82127,25.357625 23.90286,34.691907 0.0525,6.006177 -10.92467,14.151843 -41.47626,30.777656 -9.35,5.088159 -20.25689,11.02471 -24.23754,13.19234 -3.98065,2.16762 -7.91815,4.91284 -8.75,6.10047 -2.17506,3.10534 -1.88292,6.4457 0.68386,7.8194 1.22657,0.65644 9.94685,1.55529 19.75,2.03575 56.91622,2.78952 61.20763,3.32243 63.57189,7.89439 3.24589,6.27687 0.60451,27.2022 -4.68686,37.12984 -3.78229,7.09629 -6.94447,9.83495 -11.35589,9.83495 -4.30685,0 -22.99015,-9.56019 -46.56011,-23.82468 -19.51819,-11.81237 -24.28636,-13.66145 -27.34392,-10.60389 -3.89504,3.89504 1.06523,13.84775 16.98241,34.07493 27.13345,34.48055 26.93473,34.03178 18.44839,41.66172 -12.5258,11.26178 -35.62054,17.48208 -42.21534,11.37022 z M 133.7772,133.29033 c 6.6898,-3.15184 10.42957,-11.31912 8.35445,-18.24526 -2.6045,-8.69304 -10.78191,-13.91312 -19.84858,-12.67039 -15.87357,2.17571 -20.86972,20.47208 -8.16027,29.88366 5.22837,3.8717 12.78494,4.26847 19.6544,1.03199 z"
       id="path3493"
       inkscape:connector-curvature="0" />
    <path
       style="fill:#000000"
       d="m 153.74297,231.91596 c -4.99847,-2.91088 -8.50103,-15.64177 -13.26759,-48.22419 -1.91887,-13.11663 -3.99205,-24.82567 -4.60708,-26.02009 -3.65131,-7.09111 -8.31826,-8.35614 -15.43686,-4.18437 -7.12905,4.1779 -11.2844,12.42366 -23.943418,47.51269 -7.335583,20.33321 -11.90909,29.9226 -14.377347,30.14537 -4.379348,0.39524 -9.067016,-0.59403 -13.602755,-2.87068 -11.707289,-5.87633 -25.685031,-18.14786 -27.102078,-23.79382 -1.515685,-6.03897 5.349345,-14.06535 34.700532,-40.57078 10.953216,-9.89125 19.12667,-18.05849 19.87132,-19.85624 1.602928,-3.86981 0.0046,-8.28524 -3.592336,-9.92413 -5.922068,-2.69828 -10.740916,-1.50272 -37.891951,9.40096 -29.137658,11.7015 -41.287535,15.29984 -45.7917758,13.56183 -1.7690401,-0.68261 -3.3876002,-2.4615 -4.4002736,-4.83615 -3.77157557,-8.8441 -5.5560429,-32.38791 -3.1723047,-41.8546 0.8286295,-3.29078 1.8797538,-4.87207 3.9503401,-5.94282 4.922475,-2.54551 19.257892,-1.66637 57.305293,3.5143 16.680603,2.2713 22.84513,2.50932 25.681055,0.99158 2.19876,-1.17674 2.540324,-4.78477 0.684259,-7.22799 C 88.0625,100.83184 80.075,96.181976 71,91.403801 40.650253,75.424033 21.759904,64.213903 15.667784,58.567916 9.929943,53.250265 13.396951,44.566012 26.481481,31.481481 32.895119,25.067844 42.477346,18 44.758995,18 48.809803,18 63.264901,35.212925 85.801888,66.873291 93.856686,78.188818 101.24641,88.246406 102.22349,89.223488 106.63188,93.631877 114,89.212461 114,82.15991 114,79.99786 111.71796,70.189905 108.9288,60.364455 95.923878,14.551677 95.216724,4.8550739 104.67012,1.9687933 c 10.48141,-3.200153 39.17474,-1.98107217 42.98197,1.8261561 2.34931,2.3493099 1.44522,12.4299436 -4.13137,46.0651116 -2.8138,16.971355 -4.45867,29.657152 -4.09605,31.590068 0.33327,1.776505 1.68723,4.245821 3.0088,5.48737 4.5986,4.320162 7.40421,2.597017 24.06653,-14.781134 8.25,-8.604432 21.12088,-21.834608 28.60197,-29.400393 C 209.64823,28.045007 210.89572,27.343352 216.94375,30.47091 224.56007,34.409466 238,55.012264 238,62.749194 c 0,2.943132 -0.78349,4.33193 -4.32828,7.672223 -5.68116,5.353428 -19.52268,13.800836 -44.54091,27.183096 C 167.26781,109.29904 162,113.13141 162,117.3424 c 0,5.16763 3.27307,5.80801 37.19137,7.27654 38.9574,1.6867 47.42296,2.9234 49.74783,7.26745 2.92124,5.45839 -0.003,24.31839 -5.44616,35.12742 C 239.65236,174.6404 237.0404,177 232.43884,177 c -4.38412,0 -19.69538,-7.73621 -44.04951,-22.25658 -11.48913,-6.85003 -22.0956,-12.74532 -23.56993,-13.10064 -3.77828,-0.9106 -7.64905,0.83032 -8.38745,3.77233 -1.33429,5.31624 5.08228,15.81654 25.41189,41.58489 18.82665,23.8633 19.26563,25.09296 11.42256,31.99671 -9.44378,8.31275 -23.1491,14.04452 -33.41074,13.97288 -2.39562,-0.0167 -5.14633,-0.49086 -6.11269,-1.05363 z m -19.70425,-97.93571 c 10.91953,-5.57073 12.45769,-20.3361 2.95173,-28.33483 -13.98271,-11.765681 -36.22046,2.382 -29.92683,19.03948 1.40532,3.7195 5.70967,8.23429 9.43638,9.89774 4.56554,2.03787 12.92627,1.75071 17.53872,-0.60239 z"
       id="path3491"
       inkscape:connector-curvature="0" />
  </g>
</svg>
