<?xml version="1.0" encoding="UTF-8" standalone="no"?>
<!-- Created with Inkscape (http://www.inkscape.org/) -->

<svg
   xmlns:dc="http://purl.org/dc/elements/1.1/"
   xmlns:cc="http://creativecommons.org/ns#"
   xmlns:rdf="http://www.w3.org/1999/02/22-rdf-syntax-ns#"
   xmlns:svg="http://www.w3.org/2000/svg"
   xmlns="http://www.w3.org/2000/svg"
   xmlns:sodipodi="http://sodipodi.sourceforge.net/DTD/sodipodi-0.dtd"
   xmlns:inkscape="http://www.inkscape.org/namespaces/inkscape"
   id="svg5010"
   version="1.1"
   inkscape:version="0.48.2 r9819"
   width="150"
   height="186"
   sodipodi:docname="dame_lg.gif">
  <metadata
     id="metadata5016">
    <rdf:RDF>
      <cc:Work
         rdf:about="">
        <dc:format>image/svg+xml</dc:format>
        <dc:type
           rdf:resource="http://purl.org/dc/dcmitype/StillImage" />
        <dc:title></dc:title>
      </cc:Work>
    </rdf:RDF>
  </metadata>
  <defs
     id="defs5014" />
  <sodipodi:namedview
     pagecolor="#ffffff"
     bordercolor="#666666"
     borderopacity="1"
     objecttolerance="10"
     gridtolerance="10"
     guidetolerance="10"
     inkscape:pageopacity="0"
     inkscape:pageshadow="2"
     inkscape:window-width="1203"
     inkscape:window-height="828"
     id="namedview5012"
     showgrid="false"
     inkscape:zoom="1.2688172"
     inkscape:cx="75"
     inkscape:cy="93"
     inkscape:window-x="724"
     inkscape:window-y="317"
     inkscape:window-maximized="0"
     inkscape:current-layer="svg5010" />
  <g
     id="g5020"
     transform="translate(3.9406731,-46.5)">
    <path
       style="fill:#000000"
       d="m 55.698579,229.05762 c -20.19396,-5.2908 -38.05058,-21.20673 -47.8073604,-42.61158 -10.51875,-23.0765 -12.74346,-52.14238 -5.96015,-77.86977 C 15.035199,58.875543 58.044326,35.437466 99.050511,55.650455 141.12813,76.391572 157.50919,139.90271 133.33142,188.56117 117.64461,220.13132 85.542996,236.87683 55.698579,229.05762 z m 10.284472,-30.48135 c 0,-3.64193 -0.288167,-4.08487 -3.219102,-4.9481 l -3.219101,-0.94811 -0.280899,-11.05189 -0.280898,-11.0519 -5.000002,-0.5 -5,-0.5 -0.29795,-7.45532 c -0.16388,-4.10042 -0.78148,-8.03792 -1.37245,-8.75 -0.7229,-0.87104 -3.81575,-1.29468 -9.45204,-1.29468 -8.20369,0 -8.37756,-0.0504 -8.37756,-2.42857 0,-3.34655 -2.53468,-5.57436 -6.32143,-5.55612 -5.25487,0.0253 -5.99621,1.0397 -5.16686,7.06983 3.15204,22.91802 18.8451,43.1488 38.80523,50.0259 7.703892,2.65432 9.183062,2.23374 9.183062,-2.61104 z m 19.691315,2.68495 c 18.638834,-6.14899 34.001544,-24.74643 38.397614,-46.4825 1.79672,-8.88371 1.15484,-10.70245 -3.77712,-10.70245 -4.56415,0 -6.81181,1.66143 -6.81181,5.03518 l 0,2.96482 -7.3,0 c -4.34444,0 -7.785839,0.48584 -8.499999,1.2 -0.71358,0.71358 -1.2,4.15132 -1.2,8.48095 0,8.04188 0.11073,7.92355 -8,8.54911 l -3.5,0.26994 -0.282751,11.25 c -0.279239,11.11027 -0.31238,11.25 -2.668213,11.25 -4.416764,0 -5.549036,1.00806 -5.549036,4.94032 0,5.78331 0.722722,6.03844 9.191315,3.24463 z M 75.283051,182.87627 c 1.555808,-1.55581 1.555808,-10.04419 0,-11.6 -0.66,-0.66 -2.145,-1.2 -3.3,-1.2 -3.232499,0 -4.5,1.97167 -4.5,7 0,5.02833 1.267501,7 4.5,7 1.155,0 2.64,-0.54 3.3,-1.2 z m 27.999999,-38 c 0.66,-0.66 1.2,-3.12643 1.2,-5.48095 0,-3.79924 -0.29882,-4.35595 -2.65559,-4.94746 -1.956219,-0.49098 -3.009659,-0.1823 -3.999999,1.17208 -3.726333,5.09606 1.22132,13.4906 5.455589,9.25633 z m -56.300001,-5.3 0,-5 -3.5,0 c -3.33999,0 -3.51447,0.17624 -3.81663,3.85516 -0.46417,5.65145 0.27266,6.82368 4.05976,6.45871 3.19973,-0.30836 3.25687,-0.4016 3.25687,-5.31387 z m -19.70758,-5.35055 c 0.71083,-0.45095 1.64197,-2.13156 2.06921,-3.73468 0.77128,-2.89409 0.83639,-2.91686 9.17574,-3.20874 5.16883,-0.18091 8.69374,-0.75779 9.16548,-1.5 0.42159,-0.66332 0.77342,-3.34353 0.78184,-5.95603 l 0.0153,-4.75 4.3,0 c 2.365,0 4.84,-0.54 5.500002,-1.2 0.803252,-0.80325 1.2,-5.26667 1.2,-13.5 0,-12.168118 0.02466,-12.299998 2.3,-12.299998 3.390813,0 4.7,-1.87503 4.7,-6.73139 0,-5.57451 -1.251301,-6.013601 -9.404912,-3.30025 -12.45443,4.14456 -22.98725,12.9116 -30.41568,25.316608 -6.17887,10.31832 -11.03279,28.92616 -8.0401,30.82229 1.72505,1.09296 6.95659,1.11848 8.65311,0.0422 z m 97.213401,-0.65647 c 1.01091,-1.21806 0.85089,-3.22142 -0.83458,-10.44843 -5.31929,-22.80833 -20.26528,-40.040278 -39.521216,-45.565898 -3.73965,-1.07312 -6.196474,-1.3322 -6.810489,-0.71819 -0.528282,0.52829 -0.820792,3.1608 -0.650023,5.85003 0.308892,4.86436 0.329776,4.8911 4.060489,5.19987 l 3.75,0.31037 0,12.239628 c 0,8.18639 0.39739,12.63703 1.2,13.43964 0.66,0.66 3.337543,1.2 5.950096,1.2 l 4.750094,0 0.29991,5.75 0.2999,5.75 7.999999,0.5 c 7.6234,0.47646 8.0151,0.61769 8.32074,3 0.17641,1.375 1.04992,3.0625 1.94113,3.75 2.23324,1.72276 7.72767,1.57 9.24395,-0.25702 z M 75.283051,111.87627 c 1.262351,-1.26235 1.625893,-7.52657 0.593011,-10.21821 -0.409662,-1.06757 -1.872573,-1.58179 -4.5,-1.58179 l -3.893011,0 0,5.83333 c 0,3.20834 0.3,6.13334 0.666667,6.5 1.104837,1.10484 5.849936,0.75007 7.133333,-0.53333 z"
       id="path5028"
       inkscape:connector-curvature="0" />
  </g>
</svg>
