<?xml version="1.0" encoding="UTF-8" standalone="no"?>
<!-- Created with Inkscape (http://www.inkscape.org/) -->

<svg
   xmlns:dc="http://purl.org/dc/elements/1.1/"
   xmlns:cc="http://creativecommons.org/ns#"
   xmlns:rdf="http://www.w3.org/1999/02/22-rdf-syntax-ns#"
   xmlns:svg="http://www.w3.org/2000/svg"
   xmlns="http://www.w3.org/2000/svg"
   xmlns:xlink="http://www.w3.org/1999/xlink"
   xmlns:sodipodi="http://sodipodi.sourceforge.net/DTD/sodipodi-0.dtd"
   xmlns:inkscape="http://www.inkscape.org/namespaces/inkscape"
   width="146.3217"
   height="87.173546"
   id="svg2"
   version="1.1"
   inkscape:version="0.48.2 r9819"
   sodipodi:docname="affiche.svg">
  <defs
     id="defs4">
    <radialGradient
       r="29.036913"
       fy="132.28575"
       fx="61.518883"
       cy="132.28575"
       cx="61.518883"
       gradientTransform="matrix(2.382716e-8,-0.296405,1.43676,4.683673e-7,-128.544,150.5202)"
       gradientUnits="userSpaceOnUse"
       id="radialGradient1480"
       xlink:href="#linearGradient2795"
       inkscape:collect="always" />
    <linearGradient
       y2="114.39767"
       x2="135.66525"
       y1="20.603781"
       x1="26.648937"
       gradientTransform="matrix(0.562541,0,0,0.567972,-9.399749,-5.305317)"
       gradientUnits="userSpaceOnUse"
       id="linearGradient1478"
       xlink:href="#linearGradient4689"
       inkscape:collect="always" />
    <linearGradient
       y2="137.27299"
       x2="112.03144"
       y1="192.35176"
       x1="150.96111"
       gradientTransform="matrix(0.562541,0,0,0.567972,-9.399749,-5.305317)"
       gradientUnits="userSpaceOnUse"
       id="linearGradient1475"
       xlink:href="#linearGradient4671"
       inkscape:collect="always" />
    <radialGradient
       gradientUnits="userSpaceOnUse"
       gradientTransform="matrix(1,0,0,0.177966,0,108.7434)"
       r="29.036913"
       fy="132.28575"
       fx="61.518883"
       cy="132.28575"
       cx="61.518883"
       id="radialGradient2801"
       xlink:href="#linearGradient2795"
       inkscape:collect="always" />
    <linearGradient
       y2="76.313133"
       x2="26.670298"
       y1="76.176224"
       x1="172.94208"
       gradientTransform="matrix(0.562541,0,0,0.567972,-11.5974,-7.60954)"
       gradientUnits="userSpaceOnUse"
       id="linearGradient2258"
       xlink:href="#linearGradient4689"
       inkscape:collect="always" />
    <linearGradient
       y2="144.75717"
       x2="-65.308502"
       y1="144.75717"
       x1="224.23996"
       gradientTransform="matrix(0.562541,0,0,0.567972,-11.5974,-7.60954)"
       gradientUnits="userSpaceOnUse"
       id="linearGradient2255"
       xlink:href="#linearGradient4671"
       inkscape:collect="always" />
    <linearGradient
       y2="144.75717"
       x2="-65.308502"
       y1="144.75717"
       x1="224.23996"
       gradientTransform="translate(100.2702,99.61116)"
       gradientUnits="userSpaceOnUse"
       id="linearGradient2250"
       xlink:href="#linearGradient4671"
       inkscape:collect="always" />
    <linearGradient
       y2="76.313133"
       x2="26.670298"
       y1="77.475983"
       x1="172.94208"
       gradientTransform="translate(100.2702,99.61116)"
       gradientUnits="userSpaceOnUse"
       id="linearGradient2248"
       xlink:href="#linearGradient4689"
       inkscape:collect="always" />
    <linearGradient
       y2="144.75717"
       x2="-65.308502"
       y1="144.75717"
       x1="224.23996"
       gradientTransform="translate(100.2702,99.61116)"
       gradientUnits="userSpaceOnUse"
       id="linearGradient2589"
       xlink:href="#linearGradient4671"
       inkscape:collect="always" />
    <linearGradient
       y2="76.313133"
       x2="26.670298"
       y1="77.475983"
       x1="172.94208"
       gradientTransform="translate(100.2702,99.61116)"
       gradientUnits="userSpaceOnUse"
       id="linearGradient2587"
       xlink:href="#linearGradient4689"
       inkscape:collect="always" />
    <linearGradient
       gradientTransform="translate(100.2702,99.61116)"
       gradientUnits="userSpaceOnUse"
       xlink:href="#linearGradient4689"
       id="linearGradient2990"
       y2="76.313133"
       x2="26.670298"
       y1="77.475983"
       x1="172.94208" />
    <linearGradient
       gradientTransform="translate(100.2702,99.61116)"
       gradientUnits="userSpaceOnUse"
       xlink:href="#linearGradient4671"
       id="linearGradient2987"
       y2="144.75717"
       x2="-65.308502"
       y1="144.75717"
       x1="224.23996" />
    <linearGradient
       id="linearGradient4689">
      <stop
         id="stop4691"
         offset="0"
         style="stop-color:#5a9fd4;stop-opacity:1;" />
      <stop
         id="stop4693"
         offset="1"
         style="stop-color:#306998;stop-opacity:1;" />
    </linearGradient>
    <linearGradient
       id="linearGradient4671">
      <stop
         id="stop4673"
         offset="0"
         style="stop-color:#ffd43b;stop-opacity:1;" />
      <stop
         id="stop4675"
         offset="1"
         style="stop-color:#ffe873;stop-opacity:1" />
    </linearGradient>
    <linearGradient
       id="linearGradient3236">
      <stop
         id="stop3244"
         offset="0"
         style="stop-color:#f4f4f4;stop-opacity:1" />
      <stop
         id="stop3240"
         offset="1"
         style="stop-color:white;stop-opacity:1" />
    </linearGradient>
    <linearGradient
       id="linearGradient3676">
      <stop
         id="stop3678"
         offset="0"
         style="stop-color:#b2b2b2;stop-opacity:0.5;" />
      <stop
         id="stop3680"
         offset="1"
         style="stop-color:#b3b3b3;stop-opacity:0;" />
    </linearGradient>
    <linearGradient
       id="linearGradient2787">
      <stop
         id="stop2789"
         offset="0"
         style="stop-color:#7f7f7f;stop-opacity:0.5;" />
      <stop
         id="stop2791"
         offset="1"
         style="stop-color:#7f7f7f;stop-opacity:0;" />
    </linearGradient>
    <linearGradient
       id="linearGradient2795">
      <stop
         id="stop2797"
         offset="0"
         style="stop-color:#b8b8b8;stop-opacity:0.49803922;" />
      <stop
         id="stop2799"
         offset="1"
         style="stop-color:#7f7f7f;stop-opacity:0;" />
    </linearGradient>
  </defs>
  <sodipodi:namedview
     id="base"
     pagecolor="#ffffff"
     bordercolor="#666666"
     borderopacity="1.0"
     inkscape:pageopacity="0.0"
     inkscape:pageshadow="2"
     inkscape:zoom="1.4"
     inkscape:cx="-152.36395"
     inkscape:cy="109.08054"
     inkscape:document-units="px"
     inkscape:current-layer="layer1"
     showgrid="false"
     inkscape:window-width="2560"
     inkscape:window-height="1392"
     inkscape:window-x="0"
     inkscape:window-y="0"
     inkscape:window-maximized="1"
     showguides="true"
     inkscape:guide-bbox="true"
     fit-margin-top="0"
     fit-margin-left="0"
     fit-margin-right="0"
     fit-margin-bottom="0" />
  <metadata
     id="metadata7">
    <rdf:RDF>
      <cc:Work
         rdf:about="">
        <dc:format>image/svg+xml</dc:format>
        <dc:type
           rdf:resource="http://purl.org/dc/dcmitype/StillImage" />
        <dc:title></dc:title>
      </cc:Work>
    </rdf:RDF>
  </metadata>
  <g
     inkscape:label="Calque 1"
     inkscape:groupmode="layer"
     id="layer1"
     transform="translate(-465.76773,-947.67734)">
    <flowRoot
       xml:space="preserve"
       id="flowRoot4240"
       style="font-size:40px;font-style:normal;font-weight:normal;line-height:125%;letter-spacing:0px;word-spacing:0px;fill:#000000;fill-opacity:1;stroke:none;font-family:Sans"><flowRegion
         id="flowRegion4242"><rect
           id="rect4244"
           width="257.14285"
           height="58.57143"
           x="229.28572"
           y="294.50504" /></flowRegion><flowPara
         id="flowPara4246" /></flowRoot>    <g
       transform="matrix(0.50620299,0,0,-0.50620299,465.76773,1034.8519)"
       inkscape:label="Stickers_dakarlug"
       id="g3248">
      <g
         id="g3250">
        <g
           transform="matrix(1,0,0,-1,0,172.21287)"
           id="g3252">
          <path
             id="path3254"
             style="fill:#000000;fill-opacity:1;fill-rule:nonzero;stroke:#000000;stroke-width:6.29472208;stroke-linecap:butt;stroke-linejoin:miter;stroke-miterlimit:4;stroke-opacity:1;stroke-dasharray:none"
             d="m 3.148,102.406 282.762,0 0,15.489 -282.762,0 0,-15.489 z"
             inkscape:connector-curvature="0" />
        </g>
        <path
           id="path3256"
           style="fill:#000000;fill-opacity:1;fill-rule:nonzero;stroke:none"
           d="m 0,49.627 11.711,0 c 7.559,0 12.664,-0.281 15.316,-0.844 2.68,-0.558 4.711,-1.48 6.098,-2.762 1.387,-1.277 2.254,-2.71 2.602,-4.292 0.347,-1.559 0.519,-4.645 0.519,-9.247 l 0,-17.023 C 36.246,11.1 35.988,8.178 35.465,6.693 34.973,5.236 34.094,4.084 32.828,3.244 31.562,2.424 30.004,1.842 28.145,1.502 26.285,1.182 23.484,1.021 19.742,1.021 L 0,1.021 0,49.627 m 15.652,-8.316 0,-31.973 c 2.254,0 3.645,0.359 4.164,1.082 0.52,0.738 0.782,2.73 0.782,5.973 l 0,18.882 c 0,2.204 -0.09,3.614 -0.262,4.231 -0.172,0.621 -0.566,1.07 -1.188,1.351 -0.621,0.301 -1.785,0.454 -3.496,0.454"
           inkscape:connector-curvature="0" />
        <path
           id="path3258"
           style="fill:#000000;fill-opacity:1;fill-rule:nonzero;stroke:none"
           d="m 55.059,25.428 -14.09,0 0,2.672 c 0,3.082 0.433,5.453 1.301,7.117 0.894,1.679 2.664,3.16 5.316,4.441 2.652,1.281 6.098,1.922 10.336,1.922 5.082,0 8.91,-0.73 11.488,-2.191 2.578,-1.442 4.125,-3.223 4.645,-5.344 0.523,-2.102 0.781,-6.445 0.781,-13.031 l 0,-19.993 -14.609,0 0,3.543 C 59.309,3.143 58.121,2.072 56.66,1.35 55.223,0.65 53.5,0.303 51.488,0.303 c -2.625,0 -5.039,0.586 -7.246,1.769 -2.18,1.199 -3.273,3.813 -3.273,7.836 l 0,3.27 c 0,2.984 0.582,5.015 1.75,6.093 1.164,1.083 4.051,2.344 8.66,3.786 4.93,1.558 7.57,2.613 7.918,3.152 0.348,0.539 0.519,1.641 0.519,3.301 0,2.082 -0.195,3.433 -0.593,4.054 -0.371,0.641 -1.004,0.961 -1.895,0.961 -1.019,0 -1.648,-0.273 -1.898,-0.812 -0.246,-0.52 -0.371,-1.891 -0.371,-4.113 l 0,-4.172 m 4.757,-5.465 c -2.402,-1.418 -3.804,-2.609 -4.199,-3.57 -0.371,-0.961 -0.558,-2.344 -0.558,-4.145 0,-2.062 0.164,-3.391 0.484,-3.992 0.348,-0.598 1.016,-0.902 2.008,-0.902 0.941,0 1.547,0.23 1.82,0.691 0.297,0.48 0.445,1.723 0.445,3.723 l 0,8.195"
           inkscape:connector-curvature="0" />
        <path
           id="path3260"
           style="fill:#000000;fill-opacity:1;fill-rule:nonzero;stroke:none"
           d="m 112.348,40.857 -6.094,-15.878 7.918,-23.958 -14.465,0 -4.684,17.352 0,-17.352 -15.019,0 0,48.606 15.019,0 0,-20.414 4.684,11.644 12.641,0"
           inkscape:connector-curvature="0" />
        <path
           id="path3262"
           style="fill:#000000;fill-opacity:1;fill-rule:nonzero;stroke:none"
           d="m 129.859,25.428 -14.089,0 0,2.672 c 0,3.082 0.433,5.453 1.3,7.117 0.891,1.679 2.664,3.16 5.317,4.441 2.652,1.281 6.097,1.922 10.336,1.922 5.082,0 8.906,-0.73 11.488,-2.191 2.574,-1.442 4.125,-3.223 4.644,-5.344 0.524,-2.102 0.782,-6.445 0.782,-13.031 l 0,-19.993 -14.61,0 0,3.543 c -0.918,-1.421 -2.105,-2.492 -3.57,-3.214 -1.437,-0.7 -3.16,-1.047 -5.168,-1.047 -2.625,0 -5.043,0.586 -7.246,1.769 -2.184,1.199 -3.273,3.813 -3.273,7.836 l 0,3.27 c 0,2.984 0.582,5.015 1.746,6.093 1.164,1.083 4.05,2.344 8.664,3.786 4.929,1.558 7.57,2.613 7.918,3.152 0.347,0.539 0.519,1.641 0.519,3.301 0,2.082 -0.195,3.433 -0.594,4.054 -0.371,0.641 -1.003,0.961 -1.898,0.961 -1.016,0 -1.645,-0.273 -1.895,-0.812 -0.246,-0.52 -0.371,-1.891 -0.371,-4.113 l 0,-4.172 m 4.758,-5.465 c -2.402,-1.418 -3.805,-2.609 -4.199,-3.57 -0.375,-0.961 -0.559,-2.344 -0.559,-4.145 0,-2.062 0.161,-3.391 0.481,-3.992 0.348,-0.598 1.019,-0.902 2.012,-0.902 0.937,0 1.546,0.23 1.82,0.691 0.297,0.48 0.445,1.723 0.445,3.723 l 0,8.195"
           inkscape:connector-curvature="0" />
        <path
           id="path3264"
           style="fill:#000000;fill-opacity:1;fill-rule:nonzero;stroke:none"
           d="m 169.824,40.857 -0.594,-5.222 c 2.18,3.742 5.34,5.722 9.481,5.945 l 0,-14.019 c -2.754,0 -4.773,-0.301 -6.063,-0.903 -1.285,-0.601 -2.082,-1.441 -2.378,-2.519 -0.297,-1.063 -0.446,-3.524 -0.446,-7.387 l 0,-15.731 -15.019,0 0,39.836 15.019,0"
           inkscape:connector-curvature="0" />
        <path
           id="path3266"
           style="fill:#000000;fill-opacity:1;fill-rule:nonzero;stroke:none"
           d="m 198.113,49.627 0,-38.879 9.52,0 0,-9.727 -25.168,0 0,48.606 15.648,0"
           inkscape:connector-curvature="0" />
        <path
           id="path3268"
           style="fill:#000000;fill-opacity:1;fill-rule:nonzero;stroke:none"
           d="m 247.043,49.627 0,-32.484 c 0,-3.684 -0.152,-6.274 -0.449,-7.778 -0.297,-1.48 -1.176,-3.008 -2.637,-4.59 -1.465,-1.562 -3.398,-2.754 -5.801,-3.574 -2.383,-0.801 -5.191,-1.199 -8.441,-1.199 -3.594,0 -6.766,0.48 -9.516,1.437 -2.754,0.965 -4.808,2.215 -6.172,3.754 -1.363,1.543 -2.168,3.164 -2.418,4.864 -0.246,1.722 -0.371,5.324 -0.371,10.808 l 0,28.762 15.653,0 0,-36.449 c 0,-2.117 0.136,-3.481 0.406,-4.082 0.301,-0.578 0.883,-0.867 1.75,-0.867 0.992,0 1.621,0.316 1.894,0.957 0.297,0.664 0.446,2.203 0.446,4.625 l 0,35.816 15.656,0"
           inkscape:connector-curvature="0" />
        <path
           id="path3270"
           style="fill:#000000;fill-opacity:1;fill-rule:nonzero;stroke:none"
           d="m 289.012,31.732 -15.653,0 0,4.414 c 0,2.782 -0.148,4.52 -0.445,5.223 -0.297,0.699 -1.004,1.051 -2.117,1.051 -0.969,0 -1.625,-0.301 -1.973,-0.902 -0.347,-0.598 -0.519,-2.141 -0.519,-4.622 l 0,-23.324 c 0,-2.183 0.172,-3.625 0.519,-4.324 0.348,-0.684 1.043,-1.019 2.082,-1.019 1.141,0 1.91,0.386 2.305,1.167 0.422,0.782 0.633,2.301 0.633,4.563 l 0,5.766 -3.16,0 0,7.386 18.328,0 0,-26.09 -9.852,0 -1.449,3.481 c -1.066,-1.5 -2.418,-2.629 -4.051,-3.391 -1.613,-0.742 -3.519,-1.109 -5.726,-1.109 -2.629,0 -5.094,0.508 -7.399,1.527 -2.281,1.043 -4.015,2.325 -5.203,3.844 -1.191,1.52 -1.934,3.113 -2.234,4.773 -0.297,1.68 -0.446,4.192 -0.446,7.536 l 0,14.441 c 0,4.641 0.313,8.016 0.93,10.117 0.621,2.102 2.395,4.024 5.316,5.766 2.95,1.762 6.754,2.64 11.414,2.64 4.586,0 8.391,-0.761 11.415,-2.281 3.023,-1.519 4.992,-3.332 5.91,-5.433 0.918,-2.082 1.375,-5.114 1.375,-9.098 l 0,-2.102"
           inkscape:connector-curvature="0" />
        <path
           id="path3272"
           style="fill:#ffffff;fill-opacity:1;fill-rule:nonzero;stroke:none"
           d="m 88.273,28.6 c -0.027,1.41 0.27,4.402 0.668,6.644 0.7,3.973 0.614,5.043 -0.394,5.031 -0.68,-0.007 -1.715,-2.793 -2.082,-5.601 -0.184,-1.395 -0.774,-2.848 -1.469,-3.617 -0.641,-0.711 -1.312,-2.016 -1.496,-2.899 -0.281,-1.383 -0.402,-1.488 -0.836,-0.734 -0.637,1.105 -0.156,5.566 1.031,9.535 1.137,3.805 1.133,3.871 -0.218,3.66 C 82.652,40.49 82,39.643 81.012,37.428 78.379,31.525 77.996,30.896 76.91,30.729 c -0.64,-0.102 -1.312,-0.774 -1.672,-1.665 -0.957,-2.398 -1.027,-1.414 -0.211,2.817 0.543,2.808 0.598,3.992 0.2,4.121 -0.922,0.293 -0.668,1.07 1.382,4.23 2.004,3.09 2.102,3.911 0.446,3.891 -1.25,-0.016 -3.071,-2.551 -4.703,-6.559 -1.704,-4.183 -2.141,-4.664 -2.168,-2.375 -0.02,1.309 -0.243,1.848 -0.774,1.836 -0.414,-0.004 -0.754,0.172 -0.754,0.395 -0.015,1.039 3.317,5.582 7.016,9.574 5.82,6.277 6.832,7.641 6.465,8.742 -0.215,0.649 -0.067,0.942 0.472,0.95 0.887,0.011 1.039,0.789 0.246,1.265 -1.238,0.742 1.477,5.078 6.715,10.727 3.352,3.617 4.371,3.98 3.992,1.422 -0.335,-2.227 0.575,-3.004 3.016,-2.575 1.004,0.18 1.977,0.575 2.16,0.883 0.43,0.715 3.742,0.168 4.528,-0.754 0.441,-0.511 0.336,-1.191 -0.446,-2.855 -1.461,-3.129 -1.246,-4.93 0.391,-3.25 0.773,0.793 0.754,0.41 -0.086,-1.676 -0.379,-0.941 -1.117,-4.102 -1.641,-7.019 -0.886,-4.942 -2.906,-9.887 -4.062,-9.95 -0.215,-0.011 -0.258,1.442 -0.098,3.231 0.25,2.789 0.176,3.25 -0.512,3.242 -1.609,-0.023 -2.05,-2.09 -2.199,-10.356 -0.078,-4.445 -0.308,-8.25 -0.515,-8.46 -0.203,-0.211 -0.926,0.128 -1.61,0.75 -1.613,1.48 -2.777,1.007 -2.773,-1.122 0.004,-0.902 -0.309,-2.207 -0.692,-2.898 -0.675,-1.215 -0.699,-1.168 -0.75,1.309 l 0,0 z m 3.016,28.89 c 0.129,1.25 0.008,1.406 -0.887,1.16 -0.687,-0.187 -1.043,-0.046 -1.047,0.418 -0.015,1.153 -1.832,0.774 -2.679,-0.566 -1.414,-2.219 -1.059,-2.715 1.847,-2.578 2.497,0.117 2.625,0.195 2.766,1.566 l 0,0 z"
           inkscape:connector-curvature="0" />
        <path
           id="path3274"
           style="fill:#000000;fill-opacity:1;fill-rule:nonzero;stroke:none"
           d="m 71.34,25.908 c -1.379,0.399 -1.949,1.149 -2.309,3.016 -0.261,1.371 -0.867,2.539 -1.343,2.601 -1.676,0.219 -2.29,3.586 -1.34,7.344 0.769,3.035 1.402,3.961 4.109,5.981 3.844,2.863 5.652,5.386 8.609,12.004 1.223,2.742 2.661,5.41 3.188,5.921 0.531,0.512 2.086,2.618 3.461,4.68 1.863,2.793 2.324,3.973 1.816,4.637 -0.508,0.66 -0.984,0.695 -1.871,0.14 -1.422,-0.902 -1.453,0.137 -0.062,2.321 0.824,1.297 0.808,1.316 -0.149,0.211 -2.019,-2.317 -3.785,-3.41 -4.707,-2.914 -1.508,0.816 -6.074,-0.786 -12.047,-4.239 -4.961,-2.867 -5.636,-3.496 -5.902,-5.527 -0.387,-2.965 -1.414,-3.367 -3.074,-1.203 l -1.336,1.734 -2.656,-1.113 c -1.461,-0.609 -2.926,-1.824 -3.258,-2.695 -0.719,-1.911 -3.153,-2.137 -4.477,-0.411 -1.215,1.575 -1.457,1.571 -2.113,-0.042 -1.102,-2.723 -3.723,-0.282 -3.941,3.679 -0.106,1.883 0.289,2.895 1.769,4.508 1.047,1.141 2.18,2.152 2.52,2.246 0.343,0.09 2.558,1.461 4.925,3.043 2.536,1.695 5.293,2.934 6.707,3.012 3.321,0.187 3.852,1.988 3.153,10.722 -0.594,7.508 -0.035,14.875 1.172,15.422 0.742,0.336 3.171,5.676 4.425,9.731 0.489,1.582 1.516,2.844 2.965,3.648 1.93,1.071 2.5,1.09 4.418,0.145 3.41,-1.68 7.063,-5.703 6.481,-7.141 -0.274,-0.672 -0.106,-1.637 0.371,-2.148 0.472,-0.512 0.801,-1.407 0.722,-1.989 -0.183,-1.41 3.735,-6.293 5.204,-6.484 0.863,-0.113 0.941,-0.352 0.3,-0.945 -0.539,-0.504 -0.668,-1.196 -0.343,-1.895 0.378,-0.816 0.543,-0.867 0.64,-0.191 0.121,0.855 2.832,5.496 6.195,10.605 1.532,2.332 7.864,7.614 11.235,9.375 1.043,0.543 -0.715,0.02 -3.906,-1.164 -5.532,-2.051 -5.871,-2.09 -7.336,-0.828 -0.848,0.727 -1.473,1.816 -1.399,2.422 0.133,1 0.297,0.977 1.739,-0.262 2.164,-1.859 4.445,-1.023 4.808,1.758 0.371,2.848 1.621,4.914 4.5,7.441 l 2.5,2.196 -1.898,0.699 c -7.879,2.895 -10.856,5.043 -10.52,7.605 0.289,2.207 1.211,3.875 1.856,3.352 0.281,-0.23 0.289,-0.961 0.019,-1.629 -1.055,-2.594 6.238,-5.223 11.223,-4.047 11.773,2.774 13.383,2.961 18.031,2.082 2.547,-0.48 4.289,-0.586 3.867,-0.234 -0.422,0.355 -2.976,0.933 -5.679,1.293 -4.59,0.609 -4.957,0.777 -5.493,2.527 -0.312,1.028 -0.472,2.555 -0.351,3.395 l 0.222,1.523 1.102,-1.73 c 1.211,-1.91 4.305,-2.653 6.191,-1.489 1.11,0.68 4.594,4.133 6.063,6.004 0.519,0.66 0.414,0.836 -0.383,0.645 -0.601,-0.145 -1.457,0.031 -1.898,0.39 -0.535,0.434 0.64,1.215 3.547,2.348 5.101,1.985 7.914,2.219 10.414,0.867 1.679,-0.914 2.062,-1.715 3.644,-7.605 0.481,-1.777 0.5,-1.766 0.844,0.504 0.273,1.816 -0.164,3 -1.992,5.375 -2.192,2.847 -2.602,3.078 -6.438,3.578 -3.531,0.461 -4.457,0.293 -6.762,-1.207 -2.593,-1.688 -4.46,-2.039 -5.265,-0.996 -0.215,0.277 0.203,0.851 0.93,1.265 0.812,0.465 0.988,0.809 0.457,0.891 -1.457,0.23 -0.817,1.27 1.16,1.875 2.679,0.82 3.566,0.57 2.261,-0.645 -1.023,-0.949 -0.937,-0.96 1.239,-0.175 1.285,0.465 2.48,1.117 2.656,1.445 0.176,0.332 2.41,0.813 4.965,1.07 4.32,0.434 4.449,0.496 1.851,0.895 -1.535,0.234 -4.558,0.191 -6.714,-0.102 -7.411,-1 -7.743,-0.988 -4.879,0.211 8.961,3.746 25.75,3.024 35.961,-1.547 0.652,-0.293 1.16,-0.265 1.128,0.059 -0.234,2.453 3.606,8.5 7.434,11.699 2.57,2.153 3.156,3.047 3.129,4.778 -0.039,2.589 0.934,2.66 1.715,0.117 0.469,-1.532 0.222,-2.457 -1.414,-5.293 -2.688,-4.668 -2.973,-7.395 -0.957,-9.125 1.531,-1.317 1.59,-1.309 1.793,0.23 0.258,1.985 4.734,8.524 6.008,8.774 0.66,0.125 0.527,-0.301 -0.438,-1.422 -0.926,-1.082 -1.449,-2.715 -1.602,-4.989 l -0.222,-3.382 3.64,-0.473 c 2.516,-0.328 3.606,-0.754 3.524,-1.375 -0.063,-0.492 -2.055,-2.375 -4.426,-4.184 -2.934,-2.234 -4.379,-3.839 -4.535,-5.019 -0.141,-1.078 -0.617,-1.684 -1.266,-1.598 -0.75,0.098 -1.14,-0.636 -1.402,-2.636 -0.551,-4.215 0.5,-3.454 2.664,1.929 2.477,6.164 4.063,7.313 14.016,10.145 7.332,2.086 7.746,2.129 7.562,0.742 -0.117,-0.899 -2.078,-2.844 -5.062,-5.012 -2.68,-1.953 -4.215,-3.394 -3.414,-3.207 0.8,0.192 2.722,0.332 4.273,0.317 2.117,-0.02 2.535,-0.176 1.68,-0.629 -0.985,-0.524 -0.981,-0.625 0.05,-0.77 0.653,-0.094 1.583,0.383 2.063,1.055 0.484,0.676 1.859,1.43 3.063,1.68 2.003,0.417 2.203,0.308 2.394,-1.309 0.113,-0.969 -0.48,-3.176 -1.32,-4.902 -1.414,-2.918 -1.446,-3.215 -0.453,-4.204 1.132,-1.117 5.414,-1.281 6.785,-0.261 1.316,0.984 1.859,0.457 1.597,-1.547 -0.156,-1.195 -1.015,-2.512 -2.207,-3.367 l -1.945,-1.403 3.371,-2.461 c 1.856,-1.351 3.567,-2.949 3.805,-3.543 0.238,-0.597 0.855,-1.144 1.371,-1.211 0.98,-0.128 2.016,-3.742 1.719,-6.003 -0.094,-0.723 -1.106,-2.036 -2.246,-2.911 -1.926,-1.484 -2.02,-1.734 -1.317,-3.503 1.09,-2.723 6.746,-6.942 11.41,-8.508 2.418,-0.813 6.192,-1.446 9.532,-1.602 l 5.523,-0.258 1.898,-2.832 c 2.454,-3.66 2.372,-6.082 -0.105,-3.004 -3.352,4.172 -5.297,2.364 -2.227,-2.074 1.813,-2.625 2.059,-3.555 1.684,-6.363 -0.5,-3.707 -3.535,-8.371 -5.527,-8.492 -1.516,-0.094 -1.395,1.855 0.132,2.222 1.563,0.379 1.766,3.5 0.344,5.344 -0.801,1.043 -2.129,1.688 -3.976,1.93 -1.528,0.199 -2.793,0.215 -2.817,0.039 -0.023,-0.176 0.699,-1.922 1.61,-3.875 0.91,-1.953 1.586,-4.059 1.507,-4.676 -0.082,-0.617 0.797,-1.793 1.95,-2.613 1.152,-0.821 3.629,-2.77 5.5,-4.332 l 3.402,-2.836 -2.762,-0.34 c -3.125,-0.387 -9.121,-0.469 -22.855,-0.316 -10.211,0.109 -26.461,-1.133 -29.531,-2.266 l -1.883,-0.691 1.047,-2.762 c 1.543,-4.074 1.054,-6.211 -1.547,-6.754 -1.172,-0.242 -3.387,-0.891 -4.922,-1.438 -1.535,-0.543 -3.203,-0.937 -3.707,-0.871 -0.504,0.067 -1.164,-0.336 -1.465,-0.894 -1.187,-2.196 -7.187,-3.176 -7.711,-1.258 -0.168,0.609 -0.867,0.355 -2.113,-0.766 -1.578,-1.425 -2.16,-1.554 -3.856,-0.859 -2.453,1.008 -3.336,4.578 -2.593,10.496 0.277,2.195 0.254,4.027 -0.047,4.066 -0.305,0.04 -1.942,-0.222 -3.633,-0.582 -1.699,-0.363 -4.688,-0.449 -6.641,-0.195 -7.617,0.981 -19.644,-1.265 -35.011,-6.551 -9.836,-3.379 -13.047,-5.425 -14.711,-9.379 -0.692,-1.64 -2.211,-3.55 -3.555,-4.464 -2.059,-1.403 -2.324,-1.903 -2.184,-4.098 0.09,-1.375 -0.043,-4.195 -0.293,-6.27 -0.418,-3.457 -0.675,-3.914 -3.05,-5.421 -1.567,-0.993 -3.414,-1.54 -4.653,-1.379 -1.133,0.148 -3.152,0.027 -4.488,-0.266 -2.273,-0.504 -2.535,-0.395 -4.023,1.699 l -1.59,2.235 -0.86,-1.766 C 76.816,24.635 75.988,24.564 71.34,25.908 z m 4.039,2.891 c 0.152,1.183 0.605,1.644 1.496,1.527 1.297,-0.168 2.305,1.563 4.387,7.531 0.64,1.84 1.367,2.715 2.289,2.77 1.066,0.062 1.203,-0.172 0.648,-1.133 -0.383,-0.668 -1.129,-3.379 -1.656,-6.027 -0.731,-3.68 -0.746,-5.172 -0.063,-6.34 0.86,-1.461 0.915,-1.422 1.254,0.996 0.219,1.586 0.754,2.621 1.442,2.785 0.765,0.188 1.226,1.285 1.539,3.696 0.504,3.851 1.23,5.562 2.301,5.425 0.472,-0.062 0.336,-1.851 -0.395,-5.222 -0.683,-3.133 -0.922,-5.911 -0.613,-7.149 l 0.504,-2.023 0.832,1.535 c 0.457,0.844 0.746,2.281 0.64,3.191 -0.273,2.356 1.27,2.727 2.575,0.618 1,-1.618 1.164,-1.676 1.738,-0.629 0.348,0.632 0.582,2.191 0.523,3.457 -0.484,9.906 -0.382,12.3 0.602,14.066 1.543,2.785 2.613,1.289 1.64,-2.289 -0.64,-2.355 -0.597,-3 0.219,-3.109 0.563,-0.075 1.106,0.41 1.207,1.078 0.098,0.664 0.711,1.75 1.36,2.41 0.824,0.836 1.375,2.887 1.84,6.812 0.457,3.922 1.128,6.407 2.218,8.235 0.856,1.437 2.129,3.574 2.832,4.742 0.696,1.168 1.106,2.148 0.903,2.176 -0.2,0.027 -1.348,-1.571 -2.551,-3.547 -2.492,-4.106 -3.645,-4.543 -2.766,-1.051 0.328,1.316 0.875,2.356 1.219,2.313 1.012,-0.133 0.898,1.425 -0.184,2.457 -1.066,1.015 -5.265,1.293 -4.828,0.316 0.317,-0.699 -3.902,-1.059 -4.715,-0.395 -0.32,0.258 -0.363,0.743 -0.093,1.071 0.265,0.332 0.363,1.281 0.215,2.105 -0.262,1.469 -0.329,1.465 -2.524,-0.152 -1.242,-0.914 -2.547,-2.277 -2.898,-3.027 -0.352,-0.754 -1.668,-2.356 -2.926,-3.559 -2.512,-2.41 -4.32,-6.492 -2.945,-6.672 0.449,-0.058 0.582,-0.398 0.293,-0.754 -0.293,-0.355 -0.868,-0.379 -1.282,-0.051 -0.433,0.344 -0.418,0.047 0.039,-0.695 0.91,-1.473 0.645,-1.859 -6.015,-8.875 -4.77,-5.019 -7.539,-9.027 -7.707,-11.133 -0.094,-1.183 -0.004,-1.297 0.347,-0.429 0.746,1.839 2.352,1.214 1.731,-0.672 -0.289,-0.883 -0.239,-1.848 0.121,-2.141 0.387,-0.312 1.195,1.047 1.996,3.363 1.555,4.493 3.242,7.184 4.738,7.543 1.91,0.461 1.793,-0.648 -0.351,-3.414 -2.227,-2.867 -3.039,-5.273 -1.555,-4.605 0.629,0.285 0.551,-0.922 -0.297,-4.574 -0.801,-3.469 -0.91,-4.856 -0.348,-4.606 0.442,0.199 0.903,1.125 1.024,2.055 z M 86.07,56.682 c 0.157,1.183 1.825,3.242 2.551,3.148 0.371,-0.047 0.606,-0.637 0.524,-1.305 -0.118,-0.961 0.003,-1.031 0.582,-0.339 1.183,1.425 2.324,-0.036 1.226,-1.571 -0.738,-1.031 -1.105,-1.101 -1.808,-0.34 -0.633,0.68 -0.915,0.727 -0.989,0.172 -0.054,-0.426 -0.57,-0.715 -1.14,-0.64 -0.571,0.074 -0.996,0.468 -0.946,0.875 z M 72.598,29.119 c 0.257,1.973 -0.711,2.449 -1.606,0.797 -0.328,-0.605 -0.23,-1.406 0.219,-1.781 1.137,-0.949 1.137,-0.949 1.387,0.984 z M 51.32,60.686 c 0.055,0.453 1.203,1.511 2.551,2.355 2.063,1.289 2.602,2.141 3.395,5.379 0.804,3.301 0.773,3.867 -0.219,3.992 -1.91,0.25 -4.914,-1.969 -6.5,-4.801 -1.34,-2.394 -1.406,-2.836 -0.641,-4.414 0.485,-1.008 0.571,-2.258 0.203,-2.941 -0.445,-0.82 -0.371,-1.067 0.235,-0.793 0.48,0.215 0.922,0.766 0.976,1.223 z m -3.933,4.046 c 0.925,3.106 -0.235,3.497 -2.157,0.723 -1.695,-2.437 -1.484,-5.449 0.286,-4.086 0.617,0.477 1.457,1.988 1.871,3.363 z m 18.16,3.438 c 2.93,1.527 2.246,4.957 -1.074,5.391 -1.668,0.218 -5.399,-2.137 -5.578,-3.52 -0.059,-0.465 0.496,-0.664 1.406,-0.5 1.332,0.238 1.398,0.117 0.57,-1.039 -1.336,-1.867 -1.34,-2.981 -0.008,-2.66 0.891,0.215 1.004,-0.055 0.52,-1.227 -0.391,-0.953 -0.055,-0.738 0.929,0.586 0.852,1.149 2.305,2.485 3.235,2.969 z m 42.984,-6.938 c 1.071,0.774 2.633,1.801 3.473,2.289 1.387,0.801 1.324,0.817 -0.688,0.145 -1.214,-0.41 -3.281,-1.633 -4.586,-2.719 -2.601,-2.168 -1.312,-1.965 1.801,0.285 z m 58.246,-8.078 c 0.356,-0.047 0.582,-0.633 0.512,-1.3 -0.223,-2.051 2.781,3.148 3.316,5.738 0.969,4.711 2.157,8.183 2.77,8.105 0.34,-0.047 0.27,-2.816 -0.16,-6.152 -0.906,-7.027 -0.594,-8.242 2.039,-7.938 2.48,0.289 3.262,2.497 3.055,8.618 -0.094,2.714 0.054,5.211 0.324,5.543 0.871,1.07 1.691,-0.289 1.422,-2.356 -0.141,-1.101 0.004,-2.211 0.324,-2.473 0.316,-0.261 0.629,-1.765 0.687,-3.343 0.063,-1.684 0.45,-2.801 0.942,-2.707 1.324,0.25 1.836,3.601 1.105,7.23 -0.367,1.836 -0.496,3.473 -0.281,3.637 0.492,0.379 0.496,0.375 2.184,-3.961 0.773,-1.996 1.336,-4.199 1.242,-4.902 -0.106,-0.821 0.207,-1.188 0.871,-1.028 1.871,0.453 2.105,2.141 0.809,5.828 -1.438,4.067 -1.387,8.629 0.062,6.086 0.863,-1.511 3.031,-1.761 3.676,-0.429 0.219,0.453 -0.434,1.804 -1.446,3.011 -1.011,1.203 -2.039,3.051 -2.289,4.106 -0.355,1.504 -1.171,2.191 -3.777,3.187 -4.262,1.629 -8.562,1.145 -11.777,-1.324 -1.989,-1.531 -2.321,-2.191 -2.399,-4.746 -0.062,-2.102 -0.691,-3.918 -2.144,-6.227 -1.438,-2.277 -2.223,-4.543 -2.617,-7.535 -0.598,-4.515 -0.286,-8.082 0.507,-5.765 0.219,0.652 0.692,1.144 1.043,1.097 z M 76.645,73.627 c 5.121,1.406 5.906,1.844 6.523,3.637 0.387,1.125 2.129,3.82 3.871,5.996 1.742,2.172 3.016,4.156 2.824,4.402 -0.187,0.242 -2.258,-1.09 -4.601,-2.969 -3.778,-3.027 -5.942,-4.07 -5.77,-2.785 0.028,0.238 1.285,1.738 2.789,3.34 4.157,4.422 4.164,4.523 0.614,9.859 -3.278,4.922 -5.36,9.664 -5.102,11.637 0.207,1.574 -2.648,4.754 -5.043,5.617 -2.602,0.938 -4.035,-0.105 -5.012,-3.656 -0.406,-1.469 -1.523,-4.059 -2.492,-5.754 -2.234,-3.922 -2.359,-4.969 -1.996,-16.683 0.285,-9.325 0.367,-9.739 2.031,-10.34 0.953,-0.344 2.586,-1.36 3.625,-2.254 1.039,-0.899 1.895,-1.637 1.906,-1.641 0.008,-0.004 2.633,0.715 5.833,1.594 z M 66.844,79.6 c 0.285,0.351 0.812,0.597 1.172,0.55 0.359,-0.043 0.613,-0.394 0.562,-0.777 C 68.527,78.99 68,78.744 67.406,78.822 66.812,78.9 66.559,79.248 66.844,79.6 z m 10.379,3.293 c -0.336,1.394 0.449,2.531 1.273,1.855 0.762,-0.617 0.445,-3.199 -0.375,-3.094 -0.34,0.043 -0.746,0.602 -0.898,1.239 z m -3.055,3.277 c -0.223,0.285 -0.27,1.527 -0.109,2.758 0.16,1.234 -0.36,4.562 -1.149,7.402 -1.578,5.641 -1.414,9.848 0.457,11.731 1.043,1.05 1.278,1.062 1.766,0.082 0.762,-1.543 0.617,-2.172 -0.567,-2.461 -0.73,-0.176 -0.945,-0.868 -0.785,-2.52 0.43,-4.457 1.891,-9.902 2.68,-10.004 0.801,-0.105 2.426,-5.215 2.172,-6.824 -0.074,-0.469 -0.653,-0.035 -1.285,0.965 l -1.153,1.816 -0.234,-1.812 C 75.73,85.553 74.996,85.088 74.168,86.17 z m 28.891,-15.527 c -0.188,0.41 -0.868,0.793 -1.52,0.851 -0.961,0.086 -0.934,-0.039 0.133,-0.672 1.75,-1.039 1.777,-1.043 1.387,-0.179 z m 12.617,2.211 c 0.933,1.144 1.738,2.515 1.789,3.042 0.051,0.528 -0.867,-0.414 -2.043,-2.097 -1.414,-2.024 -2.742,-3.129 -3.914,-3.266 -0.981,-0.113 -1.645,-0.504 -1.481,-0.871 0.453,-1.004 3.746,0.852 5.649,3.192 z m 26.328,-3.946 c -1.262,5.481 -1.395,5.797 -1.281,3.164 0.097,-2.347 1.25,-6.511 1.816,-6.586 0.145,-0.015 -0.094,1.52 -0.535,3.422 z m 7.891,-0.14 c 0.285,-0.043 0.41,-0.926 0.273,-1.965 l -0.246,-1.887 1.328,1.453 c 0.938,1.024 1.52,1.207 1.969,0.621 0.449,-0.586 0.929,-0.648 1.625,-0.211 1.14,0.719 2.586,-0.172 1.816,-1.117 -0.32,-0.391 0.371,-0.668 1.781,-0.711 1.266,-0.043 2.446,0.223 2.618,0.59 0.445,0.934 -6.028,4.871 -7.664,4.664 -0.739,-0.094 -1.622,0.27 -1.961,0.809 -0.895,1.418 -4.641,2.535 -5.879,1.754 -1.254,-0.789 -1.637,-3.125 -0.973,-5.914 l 0.488,-2.047 2.153,2.015 c 1.183,1.11 2.386,1.985 2.672,1.946 z m -52.766,3.839 c -0.652,0.266 -1.59,0.375 -2.082,0.247 -0.496,-0.129 0.039,-0.344 1.183,-0.481 1.145,-0.133 1.551,-0.027 0.899,0.234 z m 35.933,-4.472 c 1.329,0.375 1.305,0.433 -0.273,0.609 -0.957,0.106 -2.707,0.078 -3.891,-0.066 l -2.148,-0.258 2.422,-0.348 c 1.332,-0.195 3.086,-0.164 3.89,0.063 z m -38.386,8.539 c 0.656,0.805 -0.262,0.926 -1.735,0.226 -0.972,-0.464 -0.964,-0.562 0.043,-0.703 0.645,-0.09 1.407,0.125 1.692,0.477 z m 72.75,-4.754 c 1.215,2.773 2.605,4.539 5.082,6.441 1.875,1.442 3.578,3.133 3.785,3.754 0.207,0.625 0.66,0.942 1.008,0.699 0.351,-0.238 0.488,-0.828 0.312,-1.308 -0.242,-0.645 0.641,-0.965 3.371,-1.211 2.036,-0.184 4.649,-0.891 5.805,-1.57 1.156,-0.684 2.34,-1.059 2.629,-0.836 0.894,0.691 -2.742,5.754 -3.934,5.48 -2.398,-0.551 -4.296,-0.484 -4.214,0.145 0.156,1.218 4.984,2.586 6.902,1.953 1.316,-0.434 1.656,-0.367 1.195,0.234 -1.308,1.699 -0.539,2.676 1.321,1.68 2.144,-1.152 2.605,-0.863 1.843,1.156 -0.336,0.887 -0.258,2.57 0.18,3.914 0.816,2.508 0.117,3.211 -1.602,1.61 -1.488,-1.379 -2.093,-1.008 -1.464,0.898 0.671,2.039 0.726,2.031 -3.559,0.766 -2.586,-0.762 -3.648,-0.793 -4.27,-0.118 -0.621,0.664 -0.937,0.676 -1.242,0.043 -0.332,-0.675 -0.765,-0.629 -2.156,0.239 -1.371,0.855 -1.773,0.906 -1.895,0.238 -1.304,-7.121 -2.949,-12.379 -4.14,-13.25 -1.313,-0.953 -1.332,-0.836 -0.406,2.398 0.535,1.868 1.687,7.114 2.554,11.657 1.059,5.511 1.696,7.699 1.926,6.574 0.266,-1.32 0.703,-1.641 2.023,-1.488 1.145,0.132 2.067,-0.309 2.895,-1.383 1.352,-1.758 5.965,-2.719 9.277,-1.93 1.243,0.293 1.731,0.234 1.395,-0.176 -0.289,-0.355 -0.031,-0.511 0.594,-0.359 1.882,0.453 2.367,2.664 1.164,5.332 -1.446,3.203 -1.305,4.406 0.429,3.703 0.739,-0.301 1.375,-0.285 1.414,0.027 0.043,0.317 0.329,1.043 0.641,1.614 0.426,0.785 0.117,1.101 -1.246,1.277 -1.219,0.16 -1.855,-0.137 -1.957,-0.91 -0.133,-1.031 -0.258,-1.027 -1.223,0.066 -0.593,0.668 -1.617,1.336 -2.277,1.481 -0.66,0.148 -1.738,0.386 -2.398,0.531 -0.661,0.145 -2.286,0.156 -3.606,0.027 -1.875,-0.183 -2.316,-0.039 -2,0.664 0.648,1.426 6.676,3.215 11.281,3.344 l 4.211,0.121 -4.512,0.262 c -5.222,0.301 -10.214,-1.125 -12.589,-3.59 -1.219,-1.269 -2.071,-1.57 -3.289,-1.172 -0.899,0.297 -1.594,0.864 -1.547,1.262 0.054,0.395 -0.606,0.234 -1.457,-0.355 -2.164,-1.5 -2.524,-0.594 -0.766,1.937 l 1.477,2.125 -2.586,-1.656 -2.586,-1.656 -0.16,2.226 c -0.215,2.945 -1.266,4.496 -3.231,4.75 -1.738,0.227 -2.676,1.406 -1.527,1.926 0.387,0.176 1.898,1.476 3.359,2.898 l 2.652,2.578 -2.113,-1.023 c -1.816,-0.875 -2.312,-0.863 -3.488,0.09 -1.332,1.078 -1.344,1.062 -0.34,-0.414 0.57,-0.84 0.988,-1.883 0.934,-2.324 -0.145,-1.11 -3.922,-1.489 -4.133,-0.415 -0.305,1.563 -2.086,1.102 -3.477,-0.902 -0.871,-1.254 -1.73,-1.801 -2.32,-1.48 -1.137,0.613 -3.906,-2.969 -2.918,-3.774 0.352,-0.285 0.555,-1.136 0.453,-1.898 -0.219,-1.68 3.805,-4.246 6.211,-3.965 1.059,0.125 1.703,-0.188 1.875,-0.898 0.352,-1.454 2.125,-1.618 3.113,-0.29 0.715,0.957 0.856,0.907 1.387,-0.5 0.512,-1.347 0.02,-2.242 -3.527,-6.382 -3.879,-4.532 -7.817,-10.864 -8.098,-13.036 -0.074,-0.589 0.754,-1.171 2.098,-1.48 1.898,-0.437 2.441,-1.082 3.691,-4.379 l 1.465,-3.863 -1.82,-2.653 c -2.653,-3.863 -1.817,-6.414 2.652,-8.113 1.199,-0.457 2.547,-0.91 2.988,-1.004 0.446,-0.097 1.563,1.539 2.481,3.641 z m -2.035,7.309 c -0.133,0.55 -0.094,1.117 0.089,1.257 0.571,0.438 4.188,-1.297 4.34,-2.082 0.219,-1.136 -4.152,-0.324 -4.429,0.825 z m -0.946,3.437 c 2.633,1.863 4.953,1.777 4.7,-0.168 -0.137,-1.039 -0.622,-1.281 -2.075,-1.023 -1.039,0.187 -2.547,0.183 -3.347,-0.004 -1.106,-0.262 -0.93,0.031 0.722,1.195 z m -3.543,1.543 c 0.051,0.359 0.426,0.805 0.836,0.992 0.41,0.184 0.688,-0.148 0.61,-0.746 -0.078,-0.594 -0.453,-1.039 -0.836,-0.988 -0.379,0.051 -0.653,0.383 -0.61,0.742 z m 7.891,3.992 c -0.609,0.879 -1.668,1.528 -2.352,1.442 -0.683,-0.086 -1.722,0.554 -2.308,1.425 -1.063,1.563 -1.047,1.571 1.633,0.786 2.738,-0.805 5.64,-3.075 5.949,-4.649 0.273,-1.41 -1.731,-0.726 -2.922,0.996 z m -12.781,4.445 c 0.285,0.352 0.968,0.579 1.515,0.508 0.551,-0.07 0.961,-0.441 0.911,-0.824 -0.051,-0.379 -0.735,-0.609 -1.52,-0.504 -0.785,0.102 -1.191,0.473 -0.906,0.82 z m 3.535,0.215 c 0.273,0.336 0.933,0.375 1.461,0.086 1.363,-0.738 1.144,-1.101 -0.528,-0.883 -0.789,0.106 -1.207,0.461 -0.933,0.797 z M 140.691,76.822 c -0.109,1.871 -0.082,1.883 0.774,0.43 0.785,-1.336 0.855,-1.359 0.617,-0.188 -0.152,0.735 -0.234,1.637 -0.187,2.008 0.046,0.375 -0.293,0.508 -0.762,0.297 -0.613,-0.281 -0.567,0.918 0.172,4.344 l 1.015,4.726 -1.199,-3.628 c -1.121,-3.383 -1.57,-9.766 -0.699,-9.879 0.211,-0.024 0.332,0.824 0.269,1.89 z m 14.59,-1.597 c 1.528,0.961 3.164,5.05 3.024,7.562 -0.117,2.09 -0.434,2.438 -2.86,3.16 -1.586,0.469 -2.847,1.301 -3.011,1.989 -0.254,1.062 -0.395,1.066 -1.372,0.043 -0.597,-0.629 -1.253,-0.918 -1.46,-0.653 -0.207,0.27 1.824,3.688 4.507,7.59 4.918,7.152 5.821,8.797 4.086,7.461 -1.277,-0.981 -4.203,-0.477 -5.683,0.977 -1.11,1.093 -0.832,1.156 3.269,0.738 3.91,-0.399 4.071,-0.371 1.231,0.23 l -3.25,0.688 -0.606,3.918 c -0.597,3.875 -2.39,5.683 -2.769,2.793 -0.207,-1.617 -0.457,-1.649 -2.141,-0.266 -1.859,1.527 -3.164,0.156 -3.687,-3.875 -0.364,-2.785 -0.149,-3.719 1.238,-5.387 1.816,-2.187 1.875,-3.3 0.355,-6.804 -0.761,-1.762 -0.777,-2.121 -0.062,-1.575 1.125,0.868 2.32,0.809 1.598,-0.078 -0.286,-0.351 -0.161,-0.687 0.277,-0.742 0.437,-0.058 -0.137,-0.961 -1.277,-2.004 -2.805,-2.57 -3.618,-8.035 -1.754,-11.781 1.945,-3.906 7.242,-5.945 10.347,-3.984 z m -4.863,9.687 c 0.047,0.383 0.402,0.656 0.781,0.606 0.383,-0.051 0.656,-0.403 0.606,-0.786 -0.051,-0.378 -0.403,-0.652 -0.785,-0.601 -0.383,0.051 -0.653,0.402 -0.602,0.781 z m -4.027,1.586 c 0.074,0.57 0.449,1 0.828,0.949 0.383,-0.047 0.633,-0.558 0.558,-1.129 -0.074,-0.574 -0.445,-1 -0.828,-0.953 -0.383,0.051 -0.633,0.563 -0.558,1.133 z m 3.648,9.047 c 0.289,0.351 0.988,0.574 1.563,0.5 0.57,-0.074 0.804,-0.422 0.519,-0.774 -0.285,-0.351 -0.988,-0.578 -1.559,-0.5 -0.574,0.075 -0.808,0.422 -0.523,0.774 z M 136.895,78.607 c 0.078,0.594 -0.192,0.93 -0.606,0.747 -0.414,-0.188 -0.789,-0.633 -0.836,-0.993 -0.047,-0.359 0.227,-0.695 0.609,-0.742 0.383,-0.051 0.758,0.395 0.833,0.988 z m -23.985,7.364 c 6.766,0.847 13.262,2.34 13.36,3.074 0.023,0.191 -1.375,-0.07 -3.106,-0.582 -1.738,-0.512 -6.758,-1.293 -11.16,-1.738 -7.41,-0.746 -9.527,-1.196 -7.121,-1.508 0.531,-0.071 4.144,0.269 8.027,0.754 z m 11.445,-0.766 c 0.016,0.133 -0.46,0.125 -1.062,-0.023 -0.598,-0.145 -1.133,-0.578 -1.184,-0.969 -0.05,-0.402 0.399,-0.395 1.063,0.027 0.633,0.399 1.168,0.832 1.183,0.965 z m 73.465,-9.973 c 5.61,0.539 5.75,0.59 1.856,0.676 -6.153,0.137 -6.297,0.16 -6.578,0.965 -0.141,0.406 1.246,1.293 3.078,1.965 2.726,0.996 2.945,1.187 1.195,1.043 -2.543,-0.207 -5.32,-1.617 -7.004,-3.555 -1.117,-1.285 -1.109,-1.414 0.082,-1.543 0.715,-0.07 4.035,0.129 7.371,0.449 z m -65.687,18.309 c -0.16,0.207 -0.387,0.258 -0.504,0.109 -0.113,-0.148 -1.289,-1.238 -2.606,-2.421 l -2.394,-2.153 2.898,2.043 c 1.594,1.121 2.77,2.215 2.606,2.422 z m 70.019,-13.504 c -0.453,0.258 -1.23,0.359 -1.734,0.227 -0.5,-0.129 -0.133,-0.336 0.82,-0.461 0.957,-0.125 1.367,-0.016 0.914,0.234 z m -96.375,22.727 c 2.399,0.832 3.852,1.582 3.227,1.664 -1.313,0.168 -10.399,-3.715 -13.086,-5.598 -1,-0.703 -2.23,-1.844 -2.73,-2.539 -0.5,-0.699 1.144,0.133 3.656,1.844 2.511,1.715 6.531,3.797 8.933,4.629 z M 231.305,77.787 c 0.148,1.141 -2.344,4.664 -4.219,5.969 -2.504,1.738 -2.484,0.82 0.066,-3.09 1.922,-2.945 3.961,-4.359 4.153,-2.879 z m -88.453,15.695 c -0.086,0.692 -0.301,0.164 -0.477,-1.168 -0.176,-1.335 -0.102,-1.902 0.16,-1.257 0.262,0.644 0.403,1.738 0.317,2.425 z m 1.589,7.536 c -0.496,2.07 -1.125,0.531 -0.918,-2.258 0.192,-2.555 0.235,-2.614 0.7,-0.809 0.273,1.063 0.371,2.445 0.218,3.067 z m -7.957,2.468 c 0.575,1.184 0.786,2.188 0.465,2.231 -0.32,0.043 -0.871,-0.649 -1.219,-1.539 -0.351,-0.887 -0.918,-2.164 -1.257,-2.832 -0.414,-0.821 -0.36,-1.024 0.175,-0.621 0.434,0.336 1.262,1.574 1.836,2.761 z M 196.66,93.01 c 1.559,0.59 2.094,2.168 1.028,3.035 -0.934,0.758 -2.872,-0.609 -3.075,-2.172 -0.199,-1.5 0.071,-1.613 2.047,-0.863 z m 19.719,-2.598 c -0.723,0.426 -1.934,0.856 -2.695,0.957 -1.387,0.18 -1.387,0.18 -0.079,-0.598 0.719,-0.425 1.934,-0.855 2.696,-0.957 1.387,-0.179 1.387,-0.179 0.078,0.598 z m -32.383,6.262 c 0.25,0.312 -0.141,0.808 -0.875,1.105 -1.309,0.535 -1.851,0.02 -1.062,-1.008 0.558,-0.726 1.39,-0.765 1.937,-0.097 z m 13.352,2.394 c 0.172,0.075 0.179,0.305 0.015,0.52 -0.16,0.211 -1.34,-0.508 -2.617,-1.594 l -2.324,-1.98 2.308,1.461 c 1.266,0.8 2.446,1.519 2.618,1.593 z m -62.985,8.75 c 0.075,0.571 -0.371,1.106 -0.992,1.188 -0.922,0.117 -0.992,-0.063 -0.394,-1.008 0.398,-0.633 0.843,-1.168 0.988,-1.187 0.144,-0.02 0.32,0.433 0.398,1.007 z M 214.07,97.061 c -0.523,0.441 -1.824,0.925 -2.89,1.07 -1.293,0.176 -2.586,1.144 -3.86,2.879 -1.925,2.629 -5.492,6.113 -6.375,6.23 -0.261,0.031 0.922,-1.379 2.637,-3.136 3.648,-3.75 4.258,-4.821 2.621,-4.606 -2.219,0.289 -0.644,-0.59 3.07,-1.715 5.395,-1.633 5.977,-1.722 4.797,-0.722 z m -55.074,10.363 c 0.074,0.57 -0.176,1.082 -0.555,1.129 -0.382,0.051 -0.757,-0.375 -0.832,-0.949 -0.074,-0.571 0.176,-1.083 0.559,-1.129 0.383,-0.051 0.754,0.375 0.828,0.949 z m 43.531,-6.485 c -0.14,0.161 -0.988,0.766 -1.879,1.344 -1.535,0.992 -1.558,0.981 -0.421,-0.203 0.988,-1.027 3.144,-2.098 2.3,-1.141 z m -79.25,16.532 c 1.977,0.972 2.043,1.078 0.528,0.855 -2.813,-0.414 -6.614,-1.551 -6.672,-1.996 -0.094,-0.73 3.812,-0.004 6.144,1.141 z m 83.317,-7.45 c -0.856,0.868 -2.453,2.016 -3.547,2.555 -1.887,0.926 -1.926,0.91 -0.746,-0.308 1.16,-1.196 4.726,-3.637 5.504,-3.766 0.191,-0.031 -0.352,0.652 -1.211,1.519 z m -29.84,9.016 c 0.949,1.524 1.84,3.867 1.984,5.207 l 0.262,2.434 -1.012,-2.336 c -0.558,-1.285 -1.601,-3.61 -2.324,-5.164 -0.719,-1.555 -1.156,-2.844 -0.969,-2.871 0.184,-0.024 1.114,1.203 2.059,2.73 z m -2.945,1.973 0.695,2.023 -1.707,-2.246 c -2.012,-2.644 -2.406,-3.937 -0.817,-2.691 0.622,0.488 1.442,1.797 1.829,2.914 z m 42.765,-7.192 c 1.664,1.821 2.024,4.817 0.871,7.203 -0.918,1.895 -5.047,5.192 -6.746,5.383 -0.492,0.055 0.278,-0.633 1.715,-1.535 1.43,-0.898 3.078,-2.332 3.656,-3.183 1.246,-1.832 1,-6.172 -0.418,-7.493 -0.894,-0.828 -1.191,-0.785 -2.707,0.407 l -1.699,1.336 1.543,-1.68 c 1.945,-2.117 2.215,-2.149 3.785,-0.438 z m -33.804,8.219 c 0.062,0.469 1.605,1.949 3.429,3.289 3.047,2.238 7.125,3.539 11.59,3.703 1.531,0.055 1.481,0.114 -0.367,0.438 -6.211,1.09 -14.211,-3.262 -16.578,-9.024 -0.664,-1.609 -0.641,-1.629 0.562,-0.468 0.688,0.664 1.305,1.589 1.364,2.062 z m -41.934,4.078 c 1.637,0.219 1.637,0.227 0.355,1.395 -0.707,0.648 -1.214,1.707 -1.129,2.359 0.083,0.652 -0.492,1.582 -1.285,2.067 -0.808,0.5 -1.554,1.886 -1.711,3.179 -0.336,2.805 -1.453,3.906 -1.738,1.715 -0.113,-0.883 0.524,-3.09 1.418,-4.91 1.68,-3.434 1.539,-4.914 -0.504,-5.184 -0.656,-0.086 -0.262,-0.304 0.875,-0.496 1.141,-0.187 2.813,-0.242 3.719,-0.125 z m 54.676,-5.285 c 1.164,0.594 2.992,1.231 4.066,1.406 1.539,0.254 1.652,0.371 0.535,0.567 -1.359,0.238 -8.414,-2.606 -8.523,-3.438 -0.059,-0.457 0.883,-0.105 3.922,1.465 z m 14.336,-2.027 c -0.856,0.855 -2,1.617 -2.551,1.695 -0.551,0.082 -0.051,-0.766 1.113,-1.883 2.43,-2.332 3.781,-2.156 1.438,0.188 z m -75.219,13.672 c -0.313,1.011 -0.715,1.726 -0.895,1.586 -0.367,-0.282 0.668,-3.325 1.153,-3.387 0.168,-0.024 0.054,0.785 -0.258,1.801 z m 19.949,-3.391 c 1.035,0.797 -4.422,2.969 -10.211,4.059 l -6.195,1.171 3.57,-2.382 c 2.914,-1.942 4.375,-2.457 7.973,-2.789 2.422,-0.227 4.609,-0.25 4.863,-0.059 z m 49.496,-6.961 c -0.476,0.266 -1.074,0.32 -1.336,0.121 -0.261,-0.203 0.129,-0.418 0.86,-0.484 0.816,-0.074 1,0.07 0.476,0.363 z m -32.23,8.152 c 0.156,1.125 0.027,1.157 -1.59,0.375 -1.602,-0.773 -1.844,-0.726 -2.695,0.512 -0.512,0.75 -1.895,3.887 -3.075,6.977 -1.172,3.086 -2.867,6.48 -3.757,7.543 l -1.622,1.933 1.637,-3.097 c 0.899,-1.704 2.535,-5.805 3.633,-9.118 1.801,-5.406 2.199,-6.043 3.945,-6.269 1.086,-0.145 1.895,-0.637 1.84,-1.125 -0.164,-1.375 1.485,0.844 1.684,2.269 z m 18.804,5.77 c 1.485,0.992 2.387,1.851 2.004,1.902 -1.101,0.141 -6.121,-3.465 -7.39,-5.312 -0.637,-0.926 -1.5,-2.754 -1.918,-4.055 -0.629,-1.969 -0.305,-1.687 1.922,1.641 1.472,2.207 3.894,4.824 5.382,5.824 z m -32.992,-5.035 c -0.652,0.265 -1.594,0.375 -2.086,0.246 -0.496,-0.125 0.039,-0.344 1.184,-0.481 1.148,-0.132 1.551,-0.027 0.902,0.235 z m -8.406,3.816 c -1.625,0.977 -2.484,1.156 -3.23,0.684 -0.563,-0.356 -2.008,-0.324 -3.247,0.066 -1.679,0.531 -1.91,0.5 -0.925,-0.121 0.718,-0.453 3.175,-1.078 5.461,-1.391 l 4.16,-0.562 -2.219,1.324 z m 57.066,-6.66 c -0.449,0.254 -1.23,0.355 -1.73,0.227 -0.504,-0.133 -0.133,-0.34 0.82,-0.465 0.953,-0.125 1.364,-0.02 0.91,0.238 z m -11.648,2.945 c -0.473,0.266 -1.078,0.321 -1.336,0.118 -0.262,-0.2 0.125,-0.418 0.863,-0.485 0.813,-0.07 0.996,0.074 0.473,0.367 z m -58.637,12.34 c -0.652,3.285 -0.82,3.297 -1.242,0.07 -0.285,-2.195 -0.129,-2.808 0.66,-2.617 0.828,0.2 0.946,0.707 0.582,2.547 z m 62.352,-5.754 c -0.84,0.278 -2.09,0.434 -2.774,0.348 -0.687,-0.09 0,-0.316 1.528,-0.508 1.527,-0.191 2.09,-0.121 1.246,0.16 z m -21.746,10.067 c -0.934,1.269 -3.047,2.972 -4.703,3.785 -4.641,2.289 -4.883,1.933 -0.59,-0.871 2.144,-1.403 4.457,-3.121 5.144,-3.824 1.942,-1.989 2.004,-1.614 0.149,0.91 z"
           inkscape:connector-curvature="0" />
        <path
           id="path3276"
           style="fill:#ffffff;fill-opacity:1;fill-rule:nonzero;stroke:none"
           d="m 173.488,52.482 c -0.433,1.09 -0.441,2.618 -0.039,8.313 0.231,3.234 0.176,4.875 -0.164,4.867 -0.605,-0.008 -1.133,-1.363 -2.75,-7.098 -1.09,-3.855 -3.117,-7.742 -3.187,-6.093 -0.012,0.343 -0.34,0.621 -0.731,0.613 -0.387,-0.004 -0.816,-0.293 -0.949,-0.637 -0.137,-0.343 -0.277,0.61 -0.316,2.121 -0.086,3.481 0.765,6.766 2.992,11.516 0.968,2.066 1.754,4.273 1.746,4.91 -0.059,4.262 4.359,7.477 9.82,7.152 3.578,-0.21 6.61,-1.625 7.61,-3.554 0.421,-0.821 1.511,-2.696 2.414,-4.168 0.902,-1.477 1.531,-2.871 1.39,-3.106 -0.453,-0.754 -1.851,-0.472 -3.039,0.614 -1.086,0.996 -1.176,1.004 -1.492,0.152 -0.184,-0.5 -0.008,-2.273 0.391,-3.941 0.988,-4.145 1.043,-7.528 0.121,-7.539 -0.453,-0.008 -0.953,0.988 -1.375,2.73 -0.801,3.289 -2.055,6.27 -2.836,6.738 -0.418,0.25 -0.461,-0.859 -0.153,-4.16 0.286,-3.121 0.239,-4.836 -0.16,-5.605 -0.316,-0.606 -0.711,-0.973 -0.879,-0.809 -0.3,0.289 -0.875,3.129 -1.621,8.008 -0.265,1.73 -0.613,2.488 -1.133,2.484 -0.601,-0.011 -0.796,-1.094 -0.988,-5.508 -0.133,-3.027 -0.265,-5.781 -0.297,-6.125 -0.09,-1.023 -1.949,-2.648 -3.043,-2.664 -0.554,-0.007 -1.156,0.348 -1.332,0.789 l 0,0 z"
           inkscape:connector-curvature="0" />
        <path
           id="path3278"
           style="fill:#ffffff;fill-opacity:1;fill-rule:nonzero;stroke:none"
           d="m 50.203,61.807 c -0.242,3.812 -0.058,4.781 1.27,6.566 1.476,1.992 3.957,3.742 5.336,3.762 0.761,0.011 0.847,-0.266 0.582,-1.864 -0.551,-3.285 -1.7,-5.625 -3.297,-6.738 -0.856,-0.594 -2.051,-1.672 -2.656,-2.402 l -1.106,-1.32 -0.129,1.996 z"
           inkscape:connector-curvature="0" />
        <path
           id="path3280"
           style="fill:#ffffff;fill-opacity:1;fill-rule:nonzero;stroke:none"
           d="m 44.297,62.256 c -0.012,1.031 1.199,3.402 2.16,4.223 0.668,0.566 0.777,0.492 0.789,-0.528 0.016,-1.355 -1.672,-4.453 -2.43,-4.461 -0.277,-0.004 -0.511,0.34 -0.519,0.766 l 0,0 z"
           inkscape:connector-curvature="0" />
        <path
           id="path3282"
           style="fill:#ffffff;fill-opacity:1;fill-rule:nonzero;stroke:none"
           d="m 61.742,65.678 c -0.004,0.289 -0.344,0.523 -0.758,0.519 -0.933,-0.015 -0.937,0.18 -0.011,2.024 0.726,1.453 0.715,1.48 -0.52,1.465 -1.777,-0.024 -1.582,0.734 0.574,2.238 2.176,1.523 4.129,1.676 5.293,0.422 1.34,-1.438 1.032,-2.227 -1.855,-4.789 -1.496,-1.325 -2.719,-2.168 -2.723,-1.879 l 0,0 z"
           inkscape:connector-curvature="0" />
        <path
           id="path3284"
           style="fill:#ffffff;fill-opacity:1;fill-rule:nonzero;stroke:none"
           d="m 69.129,73.791 c -0.973,0.793 -2.391,1.695 -3.156,2.008 -0.793,0.32 -1.551,1.121 -1.77,1.867 -0.215,0.719 -0.445,5.707 -0.515,11.082 l -0.126,9.781 2.09,4.735 c 3.946,8.933 3.989,9.011 5.418,9.027 2.86,0.031 6.575,-3.551 6.645,-6.406 0.043,-1.789 2.019,-6.188 4.723,-10.512 3.613,-5.781 3.644,-5.43 -1.055,-10.789 -3.617,-4.121 -1.832,-4.281 3.656,-0.324 2.145,1.543 3.902,2.664 3.906,2.492 0,-0.176 -1.074,-1.84 -2.39,-3.703 -1.317,-1.863 -2.754,-4.102 -3.196,-4.977 -0.437,-0.875 -1.293,-1.922 -1.898,-2.328 -0.859,-0.566 -9.695,-3.461 -10.414,-3.406 -0.082,0.004 -0.945,0.656 -1.918,1.453 l 0,0 z m -0.574,5.781 c -0.004,0.465 -0.348,0.715 -0.84,0.614 -1.254,-0.258 -1.406,-1.43 -0.192,-1.415 0.614,0.008 1.036,0.336 1.032,0.801 l 0,0 z m 10.347,3.758 c 0.114,1.32 -0.035,1.586 -0.894,1.574 -0.68,-0.008 -1.024,-0.336 -1.016,-0.972 0.035,-2.778 1.68,-3.297 1.91,-0.602 l 0,0 z m -2.929,3.344 0.476,1.305 0.969,-1.161 c 0.527,-0.64 1.129,-0.992 1.332,-0.785 0.57,0.582 -0.805,5.656 -1.898,7.012 -2.11,2.613 -3.379,11.375 -1.821,12.547 0.582,0.433 0.715,0.996 0.465,1.933 -0.859,3.258 -3.805,-0.25 -3.75,-4.468 0.02,-1.371 0.512,-4.801 1.098,-7.621 0.586,-2.821 1.078,-6.09 1.094,-7.274 0.042,-3.07 1.16,-3.891 2.039,-1.488 l -0.004,0 z"
           inkscape:connector-curvature="0" />
        <path
           id="path3286"
           style="fill:#ffffff;fill-opacity:1;fill-rule:nonzero;stroke:none"
           d="m 161.777,69.725 c -4.172,1.875 -4.625,3.566 -2.066,7.742 l 1.664,2.711 -1.082,2.769 c -1.527,3.91 -2.27,4.883 -4.258,5.571 -1.558,0.543 -1.719,0.765 -1.484,2.023 0.328,1.773 3.953,7.574 7.621,12.199 3.516,4.43 3.93,5.25 3.375,6.664 -0.524,1.336 -0.848,1.379 -2.047,0.266 -0.852,-0.789 -0.98,-0.781 -2.043,0.168 -0.621,0.558 -1.918,1.164 -2.883,1.348 -2.64,0.503 -4.984,2.085 -5.344,3.593 -0.168,0.735 -0.41,1.688 -0.531,2.125 -0.324,1.153 1.641,3.469 2.957,3.485 0.629,0.011 1.719,0.691 2.449,1.535 1.465,1.687 2.536,1.941 3.024,0.722 0.246,-0.621 0.734,-0.734 2.113,-0.496 1.692,0.301 1.75,0.266 1.004,-0.578 -0.605,-0.691 -0.648,-1.027 -0.187,-1.476 0.332,-0.325 0.863,-0.582 1.183,-0.578 1.551,0.019 3.156,-2.004 3.524,-4.45 0.207,-1.371 0.531,-2.492 0.714,-2.488 0.192,0 0.852,0.371 1.477,0.816 1.227,0.887 2.125,0.583 1.172,-0.39 -0.32,-0.332 -0.578,-0.891 -0.574,-1.25 0.011,-0.813 1.609,-0.828 2.386,-0.031 0.446,0.457 0.801,0.402 1.516,-0.231 1.242,-1.094 2.387,-1.023 4.41,0.262 1.414,0.898 1.668,0.941 1.676,0.269 0.012,-0.605 0.559,-0.781 2.387,-0.761 3.16,0.039 6.117,-0.77 7.558,-2.067 1.094,-0.984 1.207,-0.996 1.649,-0.179 0.504,0.929 2.168,1.211 2.652,0.449 0.602,-0.946 -0.328,-2.047 -1.746,-2.067 -1.672,-0.019 -1.758,-0.492 -0.648,-3.504 1.71,-4.656 0.984,-5.421 -4.809,-5.074 -3.84,0.235 -4.656,0.461 -6.656,1.832 -1.258,0.86 -2.848,1.559 -3.535,1.547 -0.836,-0.012 -1.399,0.356 -1.696,1.106 l -0.449,1.113 -0.461,-1.254 c -0.258,-0.687 -1.152,-4.523 -1.992,-8.52 l -1.527,-7.261 -2.114,1.984 c -1.894,1.774 -6.047,3.625 -6.679,2.973 -0.563,-0.578 0.996,-2.278 2.535,-2.762 0.926,-0.293 2.328,-1.191 3.121,-2 0.797,-0.809 1.746,-1.465 2.109,-1.461 0.621,0.008 0.594,-1.062 -0.082,-3.371 -0.207,-0.699 0.25,-0.797 1.082,-0.23 1.024,0.699 2.227,3.746 3.383,8.558 0.629,2.633 1.238,4.879 1.348,4.992 0.109,0.114 0.691,-0.054 1.297,-0.367 0.605,-0.316 1.57,-0.441 2.144,-0.285 0.574,0.16 1.316,0.066 1.652,-0.203 0.414,-0.332 1.684,-0.231 3.922,0.32 1.824,0.449 3.403,0.817 3.504,0.821 0.106,0 0.07,-0.79 -0.074,-1.75 -0.293,-1.985 -0.102,-2.086 1.644,-0.915 0.68,0.461 1.305,0.75 1.391,0.645 0.086,-0.105 0.074,-1.805 -0.019,-3.777 -0.176,-3.551 -0.192,-3.586 -1.348,-3.078 -1.402,0.617 -2.934,0.125 -2.559,-0.821 0.2,-0.504 -0.437,-0.758 -2.468,-0.996 -4.864,-0.566 -6.961,-3.191 -2.235,-2.789 2.196,0.188 2.36,0.106 4.035,-2.031 1.946,-2.473 1.446,-3.184 -1.277,-1.824 -0.805,0.406 -2.988,0.996 -4.844,1.312 -2.769,0.473 -3.465,0.785 -3.836,1.727 -0.246,0.629 -0.515,1.144 -0.593,1.144 -0.079,0 -1.977,-1.765 -4.215,-3.926 -2.477,-2.386 -4.785,-5.191 -5.899,-7.16 -1.004,-1.777 -2.047,-3.304 -2.32,-3.398 -0.277,-0.09 -1.668,0.363 -3.098,1.008 l 0,0 z m 8.215,8.625 c -0.008,0.859 -2.508,2.226 -4.035,2.207 -0.734,-0.012 -1.004,-0.278 -0.883,-0.875 0.348,-1.684 4.942,-2.93 4.918,-1.332 l 0,0 z m -0.804,4.246 c -0.012,1.027 -0.286,1.269 -1.516,1.367 -1.461,0.113 -4.727,-1.508 -4.715,-2.344 0,-0.226 1.41,-0.379 3.129,-0.34 2.988,0.067 3.117,0.121 3.102,1.317 z m -6.77,1.953 c -0.016,1.219 -1.18,1.027 -1.406,-0.227 -0.09,-0.492 0.168,-0.832 0.633,-0.824 0.464,0.008 0.781,0.438 0.773,1.051 l 0,0 z m -3.82,7.402 c 0.109,0 0.062,0.34 -0.102,0.746 -0.348,0.871 -1.976,0.981 -2.465,0.164 -0.414,-0.687 0.805,-1.515 1.715,-1.168 0.363,0.141 0.75,0.258 0.852,0.258 l 0,0 z m 3.218,0.488 c -0.007,0.582 -1.472,1.118 -2.054,0.75 -0.875,-0.558 -0.422,-1.23 0.812,-1.21 0.688,0.007 1.246,0.214 1.242,0.46 z"
           inkscape:connector-curvature="0" />
        <path
           id="path3288"
           style="fill:#ffffff;fill-opacity:1;fill-rule:nonzero;stroke:none"
           d="m 157.543,65.307 c -0.484,0.117 -0.77,0.406 -0.625,0.644 0.77,1.285 -4.527,1.805 -5.859,0.574 -0.774,-0.714 -0.832,-0.668 -0.754,0.602 0.121,2.019 -0.852,2.012 -3.055,-0.031 -1.605,-1.485 -2.012,-1.672 -2.273,-1.02 -0.559,1.41 -0.387,4.992 0.289,5.942 0.867,1.218 3.714,0.765 5.769,-0.918 0.813,-0.668 1.844,-1.207 2.297,-1.2 1.195,0.016 5.406,-2.152 6.527,-3.359 0.528,-0.574 0.723,-1.043 0.43,-1.051 -0.297,0 -0.836,-0.094 -1.199,-0.203 -0.367,-0.109 -1.063,-0.101 -1.547,0.02 l 0,0 z"
           inkscape:connector-curvature="0" />
        <path
           id="path3290"
           style="fill:#ffffff;fill-opacity:1;fill-rule:nonzero;stroke:none"
           d="m 146.086,130.162 c -1.383,0.461 -3.418,1.453 -4.527,2.203 l -2.016,1.367 2.004,-0.32 c 4.023,-0.644 9.25,-2.058 11.121,-3.016 l 1.918,-0.98 -2.996,-0.047 c -1.649,-0.023 -4.125,0.332 -5.504,0.793 z"
           inkscape:connector-curvature="0" />
        <path
           id="path3292"
           style="fill:#ffffff;fill-opacity:1;fill-rule:nonzero;stroke:none"
           d="m 138.352,126.49 c -0.547,0.141 -0.731,0.625 -0.598,1.621 0.105,0.785 -0.316,2.766 -0.938,4.403 -0.621,1.636 -1.054,3.511 -0.957,4.168 0.129,0.902 0.383,0.523 1.051,-1.582 0.485,-1.528 1.34,-3.18 1.902,-3.676 0.563,-0.496 1.028,-1.274 1.036,-1.727 0.004,-0.457 0.343,-1.261 0.754,-1.789 0.41,-0.527 0.757,-1.129 0.765,-1.332 0.024,-0.39 -1.644,-0.437 -3.015,-0.086 l 0,0 z"
           inkscape:connector-curvature="0" />
        <path
           id="path3294"
           style="fill:#ffffff;fill-opacity:1;fill-rule:nonzero;stroke:none"
           d="m 148.504,75.967 c -2.805,1.836 -4.012,4.027 -4.055,7.347 -0.043,3.407 0.449,4.954 2.383,7.465 1.539,1.992 1.656,3.84 0.238,3.692 -0.664,-0.067 -0.781,0.156 -0.519,0.992 0.926,2.965 0.773,4.742 -0.613,7.035 -1.208,2 -1.344,2.617 -1.083,4.902 0.165,1.434 0.614,3.047 1,3.579 0.633,0.875 0.84,0.902 2.09,0.292 0.766,-0.371 1.559,-0.75 1.766,-0.851 0.207,-0.094 0.609,0.465 0.894,1.246 0.5,1.352 0.559,1.375 1.227,0.488 0.387,-0.511 0.852,-1.968 1.035,-3.234 0.18,-1.266 0.543,-2.805 0.801,-3.418 0.418,-0.981 0.324,-1.121 -0.746,-1.137 -0.848,-0.008 -1.137,-0.23 -0.942,-0.711 0.34,-0.855 2.399,-1.679 4.594,-1.843 l 1.629,-0.122 -3.457,-5.293 c -1.902,-2.91 -3.906,-6.167 -4.449,-7.242 l -0.992,-1.949 1.347,0.356 c 0.883,0.234 1.633,0.109 2.172,-0.356 0.453,-0.391 1.731,-1.117 2.836,-1.609 1.649,-0.742 2.039,-1.188 2.184,-2.489 0.254,-2.293 -0.645,-5.312 -2.035,-6.859 -1.602,-1.769 -4.844,-1.894 -7.305,-0.281 l 0,0 z m 3.332,8.734 c -0.258,1.25 -1.43,1.406 -1.414,0.192 0.008,-0.618 0.336,-1.036 0.801,-1.032 0.465,0.004 0.715,0.348 0.613,0.84 l 0,0 z m -4.02,1.738 c -0.097,0.618 -0.402,1.118 -0.675,1.118 -0.274,-0.004 -0.563,-0.516 -0.645,-1.133 -0.098,-0.778 0.109,-1.125 0.672,-1.117 0.566,0.007 0.766,0.359 0.648,1.132 l 0,0 z m 3.914,8.372 c 0.79,0.515 0.313,1.55 -0.707,1.539 -0.859,-0.012 -1.398,-0.852 -0.98,-1.512 0.383,-0.606 0.793,-0.609 1.687,-0.027 l 0,0 z"
           inkscape:connector-curvature="0" />
        <path
           id="path3296"
           style="fill:#ffffff;fill-opacity:1;fill-rule:nonzero;stroke:none"
           d="m 229.801,77.908 c -0.5,0.367 -1.293,1.168 -1.766,1.781 -1.078,1.399 -2.836,4.442 -2.664,4.618 0.231,0.234 1.555,-0.571 2.66,-1.614 2.856,-2.699 4.321,-6.668 1.77,-4.785 l 0,0 z"
           inkscape:connector-curvature="0" />
        <path
           id="path3298"
           style="fill:#ffffff;fill-opacity:1;fill-rule:nonzero;stroke:none"
           d="m 189.695,75.115 c 0,0.141 0.61,0.848 1.356,1.574 1.535,1.489 3.836,2.672 5.703,2.938 l 1.246,0.176 -1.363,-0.606 c -3.196,-1.414 -3.926,-1.98 -3.477,-2.687 0.246,-0.391 2.801,-0.719 5.77,-0.731 l 2.375,-0.015 -1.621,-0.203 c -3.235,-0.403 -9.985,-0.704 -9.989,-0.446 z"
           inkscape:connector-curvature="0" />
        <path
           id="path3300"
           style="fill:#ffffff;fill-opacity:1;fill-rule:nonzero;stroke:none"
           d="m 170.086,128.365 c -0.172,0.27 -0.918,0.653 -1.695,0.867 -0.907,0.25 -1.528,0.594 -1.797,0.993 -0.223,0.332 -1.203,2.773 -2.176,5.425 -0.973,2.649 -2.246,5.907 -2.832,7.239 -0.59,1.332 -1.016,2.476 -0.949,2.539 0.242,0.254 1.539,-2.285 3.398,-6.668 3.922,-9.246 3.961,-9.293 6.477,-8.125 0.593,0.273 1.121,0.453 1.179,0.402 0.239,-0.234 -0.238,-1.808 -0.746,-2.453 -0.531,-0.68 -0.558,-0.688 -0.859,-0.219 l 0,0 z"
           inkscape:connector-curvature="0" />
        <path
           id="path3302"
           style="fill:#ffffff;fill-opacity:1;fill-rule:nonzero;stroke:none"
           d="m 148.051,129.482 c -1.012,0.172 -2.414,0.551 -3.113,0.84 -1.497,0.621 -6.258,3.657 -5.743,3.668 0.844,0.008 8.614,-1.742 10.668,-2.406 2.383,-0.77 4.645,-1.832 4.649,-2.184 0.004,-0.32 -4.383,-0.261 -6.461,0.082 z"
           inkscape:connector-curvature="0" />
        <g
           transform="matrix(0.986401,0,0,-1,0,172.21287)"
           id="g3304">
          <path
             id="path3306"
             style="fill:#000000;fill-opacity:1;fill-rule:nonzero;stroke:#000000;stroke-width:0.70700097;stroke-linecap:butt;stroke-linejoin:miter;stroke-miterlimit:4;stroke-opacity:1;stroke-dasharray:none"
             d="m 278.427,101.152 c 0.792,-0.734 0.709,-0.73 -0.923,0.036 -0.269,0.124 -0.352,0.011 -0.237,-0.333 0.091,-0.285 0.34,-0.535 0.55,-0.554 0.21,-0.024 0.095,-0.168 -0.257,-0.328 -0.353,-0.164 -1.798,-0.289 -3.22,-0.282 -2.031,0.016 -2.808,0.149 -3.647,0.629 -1.212,0.7 -1.77,0.532 -0.863,-0.261 0.57,-0.504 0.53,-0.52 -0.642,-0.286 -0.737,0.145 -1.176,0.122 -1.073,-0.062 0.095,-0.168 -0.17,-0.289 -0.598,-0.262 -0.749,0.043 -0.741,0.028 0.115,-0.558 0.566,-0.383 0.8,-0.77 0.653,-1.063 -1.311,-2.625 -1.358,-6.933 -0.131,-12.226 0.709,-3.063 0.733,-3.493 0.171,-3.008 -0.495,0.422 -2.198,0.949 -2.218,0.683 -0.008,-0.109 0.341,-0.5 0.776,-0.871 0.974,-0.836 0.97,-1.043 -0.012,-1.367 -0.641,-0.215 -0.807,-0.543 -0.998,-1.973 -0.198,-1.531 -0.023,-3.41 0.456,-4.875 0.119,-0.359 -0.079,-0.554 -0.681,-0.652 -1.327,-0.215 -4.119,1.957 -7.928,6.18 -1.842,2.043 -3.45,3.633 -3.568,3.531 -0.329,-0.266 0.269,-3.824 1.168,-6.918 0.439,-1.508 0.808,-3.273 0.823,-3.926 0.016,-0.652 0.119,-1.351 0.23,-1.551 0.115,-0.199 -0.008,-0.468 -0.273,-0.605 -0.372,-0.188 -0.38,-0.25 -0.048,-0.277 0.238,-0.016 0.828,0.312 1.311,0.738 0.479,0.426 0.863,0.641 0.856,0.48 -0.012,-0.164 -0.194,-0.441 -0.404,-0.613 -0.274,-0.223 -0.194,-0.766 0.285,-1.894 0.562,-1.344 0.958,-1.746 2.538,-2.618 2.432,-1.343 4.02,-1.64 6.055,-1.144 1.034,0.254 2.737,0.316 4.701,0.18 4.237,-0.297 6.387,0.316 9.053,2.578 1.156,0.98 2.851,2.023 4.063,2.488 3.18,1.234 3.386,1.504 2.918,3.836 -0.455,2.258 -0.431,3.254 0.072,3.219 0.198,-0.016 0.502,-0.461 0.673,-0.996 0.376,-1.168 0.534,-1.207 1.097,-0.247 0.507,0.872 0.206,1.153 -2.717,2.543 -2.186,1.043 -2.665,1.477 -1.536,1.399 1.774,-0.125 4.383,-1.313 5.219,-2.375 0.721,-0.914 0.812,-0.953 0.693,-0.324 -0.079,0.398 -0.257,0.804 -0.4,0.902 -0.146,0.098 -0.004,0.668 0.317,1.266 0.95,1.793 1.873,8.211 1.568,10.871 -0.432,3.683 -1.572,6.597 -3.077,7.867 -1.287,1.078 -3.639,1.941 -5.714,2.086 -0.586,0.043 -1.537,0.394 -2.115,0.781 -1.339,0.899 -1.616,0.914 -0.891,0.047 l 0.57,-0.688 -1.548,0.758 c -1.945,0.949 -2.202,0.957 -1.212,0.039 z m 3.699,-2.25 c 0.665,-0.601 0.752,-0.781 0.293,-0.601 -0.527,0.207 -0.487,0.082 0.206,-0.629 0.471,-0.488 0.847,-1.063 0.831,-1.277 -0.016,-0.215 0.357,-0.833 0.824,-1.375 0.729,-0.844 0.748,-0.93 0.15,-0.582 -1.021,0.589 -1.152,0.527 -0.653,-0.309 0.246,-0.41 0.428,-1.027 0.408,-1.371 -0.052,-0.934 0.099,-3.082 0.249,-3.539 0.084,-0.25 -0.055,-0.317 -0.376,-0.176 -0.431,0.195 -0.431,0.066 0.008,-0.883 0.467,-1.008 0.463,-1.066 -0.02,-0.629 -0.483,0.438 -0.507,0.407 -0.265,-0.343 0.147,-0.454 0.186,-0.887 0.087,-0.969 -0.103,-0.082 0.008,-0.821 0.242,-1.637 0.229,-0.82 0.38,-2.039 0.332,-2.703 -0.067,-1.02 -0.213,-1.234 -0.903,-1.344 -0.97,-0.16 -1.956,-1.949 -2.471,-4.484 l -0.336,-1.664 -2.016,-0.086 c -2.744,-0.121 -3.406,-0.399 -4.313,-1.824 -0.423,-0.672 -1.358,-1.528 -2.075,-1.907 -1.192,-0.629 -1.663,-0.668 -5.722,-0.465 -4.368,0.219 -4.966,0.094 -4.099,-0.843 0.646,-0.7 -0.261,-0.407 -1.413,0.457 -0.717,0.539 -1.038,1.027 -0.963,1.457 0.186,1 -0.614,1.551 -1.512,1.043 -0.697,-0.395 -2.024,-0.254 -1.988,0.207 0.027,0.426 0.819,0.863 1.227,0.683 0.23,-0.101 0.523,-0.039 0.658,0.137 0.475,0.625 1.829,0.203 2.835,-0.887 0.867,-0.937 0.994,-1 0.871,-0.402 -0.091,0.469 -0.008,0.641 0.258,0.52 0.217,-0.094 0.411,0.058 0.435,0.343 0.02,0.313 -0.523,0.789 -1.37,1.203 -0.772,0.379 -1.398,0.77 -1.39,0.872 0.008,0.101 0.174,0.078 0.372,-0.059 0.222,-0.148 0.309,-0.074 0.226,0.203 -0.075,0.246 -0.348,0.414 -0.606,0.379 -0.344,-0.051 -0.36,0.016 -0.059,0.266 0.301,0.254 0.788,0.035 1.964,-0.887 2.511,-1.969 5.908,-3.406 6.898,-2.918 0.286,0.137 -0.059,0.332 -0.95,0.531 -0.768,0.172 -1.533,0.402 -1.695,0.512 -0.356,0.242 2.665,1.348 4.249,1.551 1.917,0.25 2.384,0.675 0.677,0.621 -0.835,-0.028 -1.857,-0.121 -2.281,-0.211 -0.605,-0.129 -0.756,-0.039 -0.72,0.441 0.067,0.977 1.904,3.672 3.021,4.434 0.563,0.387 1.034,0.785 1.038,0.883 0.028,0.379 -1.133,0.23 -1.747,-0.223 -0.994,-0.73 -0.724,0.047 0.282,0.82 0.487,0.371 0.898,0.821 0.906,0.992 0.012,0.172 -0.348,0.028 -0.8,-0.316 l -0.823,-0.633 -0.701,2.5 c -1.244,4.434 -1.556,6.289 -1.537,9.102 0.024,3.035 0.729,5.074 1.965,5.687 0.958,0.477 4.272,0.625 3.928,0.176 -0.143,-0.187 -0.174,-0.348 -0.067,-0.355 0.213,-0.016 4.673,0.847 5.96,1.156 1.302,0.312 1.453,0.269 2.471,-0.645 z m 1.156,-20.004 c -0.408,-0.644 -0.832,-1.375 -0.946,-1.628 -0.119,-0.266 -0.194,-0.129 -0.179,0.328 0.032,0.797 1.418,2.941 1.703,2.636 0.083,-0.089 -0.178,-0.691 -0.578,-1.336 z"
             inkscape:connector-curvature="0" />
        </g>
        <path
           id="path3308"
           style="fill:#ffffff;fill-opacity:1;fill-rule:nonzero;stroke:none"
           d="m 272.691,73.635 c -1.707,0.351 -3.093,0.484 -3.082,0.297 0.039,-0.508 -1.293,-0.512 -2.754,-0.008 -1.128,0.383 -1.347,0.672 -1.82,2.402 -0.633,2.317 -0.484,5.469 0.434,9.281 1.105,4.618 1.14,4.688 1.945,4.258 0.898,-0.484 1.352,-0.015 0.68,0.699 -0.426,0.454 -0.383,0.547 0.273,0.594 1.071,0.074 0.957,0.485 -0.472,1.68 -1.059,0.883 -2.79,3.269 -2.833,3.906 -0.007,0.117 0.801,0.164 1.797,0.102 2.762,-0.172 2.633,0.586 -0.226,1.328 -2.539,0.66 -3.098,1.14 -1.68,1.449 0.453,0.098 0.813,0.348 0.797,0.555 -0.047,0.679 -2.301,0.449 -4.176,-0.434 -1.301,-0.609 -1.859,-0.73 -1.879,-0.41 -0.019,0.246 -0.289,0.758 -0.601,1.137 -0.543,0.648 -0.606,0.648 -1.235,-0.016 -0.894,-0.945 -1.074,-0.902 -0.941,0.231 0.121,1.019 1.27,2.058 1.539,1.394 0.09,-0.211 1.941,-0.348 4.223,-0.309 4.73,0.09 6.191,-0.339 7.629,-2.242 1.019,-1.347 2.543,-2.039 4.222,-1.918 1.34,0.094 2.367,-0.507 2.434,-1.437 0.117,-1.645 1.051,-3.613 2.211,-4.656 0.703,-0.637 1.125,-1.321 1.039,-1.704 -0.684,-3.031 -0.899,-6.82 -0.41,-7.078 0.449,-0.238 0.277,-2.773 -0.309,-4.57 -0.223,-0.676 -0.254,-1.27 -0.07,-1.32 0.183,-0.051 -0.223,-0.934 -0.899,-1.965 -1.41,-2.141 -1.453,-2.152 -5.836,-1.246 l 0,0 z"
           inkscape:connector-curvature="0" />
      </g>
    </g>
  </g>
</svg>
