<?xml version="1.0" encoding="UTF-8" standalone="no"?>
<!-- Created with Inkscape (http://www.inkscape.org/) -->

<svg
   xmlns:dc="http://purl.org/dc/elements/1.1/"
   xmlns:cc="http://creativecommons.org/ns#"
   xmlns:rdf="http://www.w3.org/1999/02/22-rdf-syntax-ns#"
   xmlns:svg="http://www.w3.org/2000/svg"
   xmlns="http://www.w3.org/2000/svg"
   xmlns:xlink="http://www.w3.org/1999/xlink"
   xmlns:sodipodi="http://sodipodi.sourceforge.net/DTD/sodipodi-0.dtd"
   xmlns:inkscape="http://www.inkscape.org/namespaces/inkscape"
   id="svg5561"
   version="1.1"
   inkscape:version="0.48.2 r9819"
   width="172"
   height="115"
   sodipodi:docname="rapide.svg">
  <metadata
     id="metadata5567">
    <rdf:RDF>
      <cc:Work
         rdf:about="">
        <dc:format>image/svg+xml</dc:format>
        <dc:type
           rdf:resource="http://purl.org/dc/dcmitype/StillImage" />
      </cc:Work>
    </rdf:RDF>
  </metadata>
  <defs
     id="defs5565">
    <linearGradient
       id="linearGradient6206">
      <stop
         style="stop-color:#44ffff;stop-opacity:1;"
         offset="0"
         id="stop6208" />
      <stop
         style="stop-color:#557bff;stop-opacity:1;"
         offset="1"
         id="stop6210" />
    </linearGradient>
    <linearGradient
       id="linearGradient6153">
      <stop
         style="stop-color:#ba9900;stop-opacity:1;"
         offset="0"
         id="stop6155" />
      <stop
         style="stop-color:#ba2431;stop-opacity:1;"
         offset="1"
         id="stop6157" />
    </linearGradient>
    <linearGradient
       inkscape:collect="always"
       xlink:href="#linearGradient6206"
       id="linearGradient6212"
       x1="104.95602"
       y1="62.634743"
       x2="133.72775"
       y2="62.634743"
       gradientUnits="userSpaceOnUse" />
    <radialGradient
       inkscape:collect="always"
       xlink:href="#linearGradient6206"
       id="radialGradient6224"
       cx="139.24638"
       cy="53.08828"
       fx="139.24638"
       fy="53.08828"
       r="11.68429"
       gradientTransform="matrix(0.89511629,-0.44583273,0.89017353,1.7872372,-32.160752,19.847535)"
       gradientUnits="userSpaceOnUse" />
    <linearGradient
       inkscape:collect="always"
       xlink:href="#linearGradient6206"
       id="linearGradient6815"
       gradientUnits="userSpaceOnUse"
       x1="104.95602"
       y1="62.634743"
       x2="133.72775"
       y2="62.634743" />
  </defs>
  <sodipodi:namedview
     pagecolor="#ffffff"
     bordercolor="#666666"
     borderopacity="1"
     objecttolerance="10"
     gridtolerance="10"
     guidetolerance="10"
     inkscape:pageopacity="0"
     inkscape:pageshadow="2"
     inkscape:window-width="2560"
     inkscape:window-height="1392"
     id="namedview5563"
     showgrid="false"
     inkscape:zoom="5.6568543"
     inkscape:cx="115.11119"
     inkscape:cy="59.752778"
     inkscape:window-x="0"
     inkscape:window-y="0"
     inkscape:window-maximized="1"
     inkscape:current-layer="svg5561" />
  <path
     style="fill:#47402d;fill-opacity:1;stroke:none"
     d="m 126.04178,59.492118 c 0.0884,1.06066 -0.0884,0.618718 0.70711,1.988738 0.7955,1.370019 1.94454,3.844893 2.65165,3.623922 0.70711,-0.220971 4.59619,1.723573 2.87262,-0.53033 -1.72357,-2.253903 -3.62393,-6.142991 -4.77297,-6.098796 -1.14905,0.04419 -1.41421,0.441942 -1.45841,1.016466 z"
     id="path6819"
     inkscape:connector-curvature="0"
     sodipodi:nodetypes="cssssc" />
  <g
     id="g6779"
     transform="matrix(1,0,-0.74132284,1,40.817158,0)">
    <path
       inkscape:connector-curvature="0"
       id="path6775"
       d="m 83.261823,60.199225 c 0,0 -2.916815,-3.005204 -3.800699,-4.596194 -0.883883,-1.590991 -1.414213,-1.767767 -1.767767,-1.767767 -0.353553,0 -2.916815,1.06066 -2.916815,1.06066 l 0.795495,6.363961 z"
       style="fill:#fff5c9;fill-opacity:1;stroke:none" />
    <path
       transform="matrix(0.81944445,0,0,0.79166663,15.000238,12.486262)"
       d="m 77.693356,50.388119 c 0,1.757359 -1.424621,3.18198 -3.181981,3.18198 -1.757359,0 -3.18198,-1.424621 -3.18198,-3.18198 0,-1.75736 1.424621,-3.181981 3.18198,-3.181981 1.75736,0 3.181981,1.424621 3.181981,3.181981 z"
       sodipodi:ry="3.1819806"
       sodipodi:rx="3.1819806"
       sodipodi:cy="50.388119"
       sodipodi:cx="74.511375"
       id="path6777"
       style="fill:#8f6a50;fill-opacity:1;stroke:none"
       sodipodi:type="arc" />
    <path
       style="fill:#fff5c9;fill-opacity:1;stroke:none"
       d="m 73.80427,53.48171 c 1.218347,-1.576487 -0.591043,-1.773549 1.589929,-1.675018 2.180973,0.09853 4.554035,0.58104 2.929636,-1.093978 -1.624398,-1.675019 -2.985995,-1.599662 -4.14217,-2.167671 -1.487173,-0.730621 -1.038273,0.699856 -0.946224,2.079283 0.09205,1.379427 0.568829,2.857384 0.568829,2.857384 z"
       id="path6783"
       inkscape:connector-curvature="0"
       sodipodi:nodetypes="cssssc" />
    <g
       id="g6793">
      <path
         transform="matrix(1,0,0.74132284,1,-40.817158,0)"
         inkscape:connector-curvature="0"
         id="path6787"
         d="m 85.825085,55.603031 c -0.08839,-2.209709 -1.149048,-3.535534 -1.149048,-3.535534 0,0 1.237437,0.08839 2.298097,-0.353554 1.06066,-0.441942 1.414213,3.623922 1.237437,3.977476 -0.176777,0.353553 -2.386486,-0.08839 -2.386486,-0.08839 z"
         style="fill:#8f6a50;stroke:none;stroke-width:1px;stroke-linecap:butt;stroke-linejoin:miter;stroke-opacity:1;fill-opacity:1" />
      <path
         sodipodi:nodetypes="cscssc"
         inkscape:connector-curvature="0"
         id="path6785"
         d="m 86.396528,61.315342 c 0.656922,-1.856155 -3.57177,-6.010408 -3.015509,-6.45235 0.556263,-0.441942 0.987612,-1.767767 3.729039,0.618718 -0.383942,-1.59099 0.149456,-1.944544 1.540806,-1.856155 1.39135,0.08839 7.683361,5.833631 8.580905,6.805903 0.897544,0.972272 -7.235863,3.712311 -10.835241,0.883884 z"
         style="fill:#455b2c;fill-opacity:1;stroke:none" />
      <path
         transform="matrix(1,0,0.74132284,1,-40.817158,0)"
         inkscape:connector-curvature="0"
         id="path6789"
         d="m 83.96893,52.332662 c 0.353553,0.883883 -0.353553,1.502602 1.59099,1.06066 1.944544,-0.441942 2.740039,-0.53033 2.563262,-1.414214 -0.176776,-0.883883 2.828428,-2.65165 1.502602,-3.18198 -1.325825,-0.53033 -4.154252,-2.121321 -4.861359,-0.53033 -0.707107,1.59099 -0.795495,4.065864 -0.795495,4.065864 z"
         style="fill:#8f6a50;stroke:none;stroke-width:1px;stroke-linecap:butt;stroke-linejoin:miter;stroke-opacity:1;fill-opacity:1" />
      <path
         transform="matrix(1,0,0.74132284,1,-40.817158,0)"
         inkscape:connector-curvature="0"
         id="path6791"
         d="m 84.057318,48.266798 c 0.707107,0.265165 1.325826,-0.08839 1.856156,0.53033 0.53033,0.618718 0.618718,1.767767 1.149048,2.474873 0.53033,0.707107 0.795495,2.032932 1.237437,1.590991 0.441942,-0.441942 0.883884,-1.590991 1.679379,-2.386486 0.795495,-0.795495 0.972272,-1.767767 0.618718,-2.474873 -0.353553,-0.707107 -4.507806,-2.298097 -5.391689,-1.856156 -0.883884,0.441942 -1.149049,2.121321 -1.149049,2.121321 z"
         style="fill:#000000;stroke:none;stroke-width:1px;stroke-linecap:butt;stroke-linejoin:miter;stroke-opacity:1;fill-opacity:1" />
    </g>
  </g>
  <g
     id="g6769"
     transform="matrix(1.0889755,0,-0.02620746,1.0383027,-5.0092232,-3.6965192)">
    <path
       inkscape:connector-curvature="0"
       id="path6763"
       d="m 74.501661,57.022425 c 0,0 -0.764119,-2.101329 -0.477575,-3.247508 0.286545,-1.146179 1.52824,-1.146179 1.52824,-1.146179 0,0 -0.859635,2.292358 -0.57309,2.865448 0.286545,0.57309 -0.477575,1.528239 -0.477575,1.528239 z"
       style="fill:#8f6a50;fill-opacity:1;stroke:none" />
    <path
       inkscape:connector-curvature="0"
       id="path6765"
       d="m 73.642027,53.297342 c 2.483388,0.859635 2.292358,1.528239 3.343023,0 1.050664,-1.528239 1.814784,-2.292359 0.477575,-3.247508 -1.33721,-0.95515 -3.151994,-1.241694 -3.534054,-0.859635 -0.382059,0.38206 -0.286544,4.107143 -0.286544,4.107143 z"
       style="fill:#8f6a50;fill-opacity:1;stroke:none" />
    <path
       inkscape:connector-curvature="0"
       id="path6767"
       d="m 75.552326,51.578073 c -0.19103,0.859635 -0.477575,2.101329 -0.859635,1.623754 -0.38206,-0.477575 -1.814784,-0.09551 -1.528239,-1.337209 0.286545,-1.241694 -0.477575,-3.629568 0.859634,-3.629568 1.33721,0 2.960964,-0.57309 3.629568,0.286545 0.668605,0.859634 1.814785,2.292358 0.859635,2.387873 -0.955149,0.09552 -2.769934,-0.191029 -2.960963,0.668605 z"
       style="fill:#000000;fill-opacity:1;stroke:none" />
    <path
       sodipodi:nodetypes="csssc"
       inkscape:connector-curvature="0"
       id="path6761"
       d="m 72.973422,59.983389 c 0,0 -0.477575,0.573089 0.57309,1.910299 1.050664,1.337209 9.64701,1.910299 8.787375,-0.477575 -0.859635,-2.387874 -4.059744,-6.974552 -7.450166,-6.972591 -2.627962,0.0015 -1.910299,5.539867 -1.910299,5.539867 z"
       style="fill:#d73425;fill-opacity:1;stroke:none" />
  </g>
  <path
     d="m 52.815707,94.73822 a 12.96754,12.427225 0 1 1 -25.935079,0 12.96754,12.427225 0 1 1 25.935079,0 z"
     sodipodi:ry="12.427225"
     sodipodi:rx="12.96754"
     sodipodi:cy="94.73822"
     sodipodi:cx="39.848167"
     id="path6700"
     style="fill:#47402d;fill-opacity:1;stroke:none"
     sodipodi:type="arc"
     transform="translate(5.730897,-6.7757475)" />
  <g
     id="g6664">
    <path
       inkscape:connector-curvature="0"
       id="path6594"
       d="m 30.63665,58.463076 c 0,0 0.94555,-2.6848 0.94555,-3.579733 0,-0.894934 0.94555,-1.073921 0.94555,-1.073921 0,0 0,0 1.485863,3.579734 1.485864,3.579734 -3.376963,1.07392 -3.376963,1.07392 z"
       style="fill:#8f6a50;fill-opacity:1;stroke:none" />
    <path
       style="fill:#d73425;fill-opacity:1;stroke:none"
       d="m 26.179058,63.26492 c 0,0 -3.376963,-3.106806 -2.566492,-3.512042 0.810471,-0.405236 5.673299,-3.917278 7.159163,-3.782199 1.485863,0.135078 1.756021,2.431414 1.756021,2.431414 0,0 0.135078,-2.161257 1.485863,-2.431414 1.350786,-0.270157 6.348692,1.080628 6.618849,6.889005 0.270157,5.808378 -14.453404,0.405236 -14.453404,0.405236 z"
       id="path6655"
       inkscape:connector-curvature="0" />
    <path
       sodipodi:type="arc"
       style="fill:#8f6a50;fill-opacity:1;stroke:none"
       id="path6657"
       sodipodi:cx="31.40576"
       sodipodi:cy="52.25602"
       sodipodi:rx="3.1743457"
       sodipodi:ry="3.1743457"
       d="m 34.580106,52.25602 a 3.1743457,3.1743457 0 1 1 -6.348692,0 3.1743457,3.1743457 0 1 1 6.348692,0 z"
       transform="translate(0.9193717,-0.54031415)" />
    <path
       style="fill:#d73425;fill-opacity:1;stroke:none"
       d="m 31.176964,50.432459 -1.620942,1.350785 c 0,0 -3.106807,-1.891099 -1.485864,-2.296335 1.620942,-0.405235 2.566492,-2.161256 3.917277,-2.026178 1.350786,0.135079 2.161257,1.485864 2.971728,1.485864 0.810471,0 1.350786,1.485864 0.135079,1.891099 -1.215707,0.405236 -3.512042,-0.810471 -3.917278,-0.405235 z"
       id="path6659"
       inkscape:connector-curvature="0" />
  </g>
  <g
     id="g6684">
    <path
       style="fill:#8f6a50;fill-opacity:1;stroke:none"
       d="m 56.031415,57.686374 c 0,0 0.94555,-2.6848 0.94555,-3.579733 0,-0.894934 0.94555,-1.073921 0.94555,-1.073921 0,0 0,0 1.485863,3.579734 1.485864,3.579734 -3.376963,1.07392 -3.376963,1.07392 z"
       id="path6672"
       inkscape:connector-curvature="0" />
    <path
       sodipodi:nodetypes="csscssc"
       inkscape:connector-curvature="0"
       id="path6674"
       d="m 51.573823,62.488218 c 0,0 -3.376963,-3.106806 -2.566492,-3.512042 0.810471,-0.405236 5.673299,-3.917278 7.159163,-3.782199 1.485863,0.135078 1.620942,0.540314 1.620942,0.540314 0,0 0.270157,-0.270157 1.620942,-0.540314 1.350786,-0.270157 6.348692,1.080628 6.618849,6.889005 0.270157,5.808378 -14.453404,0.405236 -14.453404,0.405236 z"
       style="fill:#d73425;fill-opacity:1;stroke:none" />
    <path
       transform="translate(26.314137,-1.3170157)"
       d="m 34.580106,52.25602 a 3.1743457,3.1743457 0 1 1 -6.348692,0 3.1743457,3.1743457 0 1 1 6.348692,0 z"
       sodipodi:ry="3.1743457"
       sodipodi:rx="3.1743457"
       sodipodi:cy="52.25602"
       sodipodi:cx="31.40576"
       id="path6676"
       style="fill:#8f6a50;fill-opacity:1;stroke:none"
       sodipodi:type="arc" />
    <path
       sodipodi:nodetypes="ccssssc"
       inkscape:connector-curvature="0"
       id="path6678"
       d="m 56.571729,49.655757 -0.607853,0.236387 c 0,0 -1.654713,0.607854 -0.94555,-0.810471 0.747218,-1.494434 1.181937,-3.984816 2.532722,-3.849738 1.350786,0.135079 1.917529,2.9146 2.465184,3.512042 0.742931,0.810471 0.97932,1.013089 -0.236387,1.418324 -1.215707,0.405236 -2.80288,-0.91178 -3.208116,-0.506544 z"
       style="fill:#d73425;fill-opacity:1;stroke:none" />
  </g>
  <g
     id="g6756"
     transform="translate(-0.86871724,-0.32081153)">
    <path
       sodipodi:nodetypes="ccccc"
       inkscape:connector-curvature="0"
       id="path6726"
       d="m 50.320985,55.101035 -0.653211,4.309264 3.438538,-0.76412 -1.204119,-3.645458 z"
       style="fill:#8f6a50;fill-opacity:1;stroke:none" />
    <path
       style="fill:#fff5c9;fill-opacity:1;stroke:none"
       d="m 51.575818,56.897029 c -3.244828,0.228509 -4.285758,4.476791 -3.610368,5.962655 0.67539,1.485864 14.588482,0.675393 14.588482,0.675393 -4.194459,-4.734236 -7.733281,-6.866557 -10.978114,-6.638048 z"
       id="path6719"
       inkscape:connector-curvature="0"
       sodipodi:nodetypes="zscz" />
    <path
       style="fill:#fff5c9;fill-opacity:1;stroke:none"
       d="m 55.20764,54.018896 c 0.728693,2.148079 0.04868,2.387869 -2.483389,2.387869 -2.53207,0 -5.968141,0.112818 -5.157811,-2.005809 0.86113,-2.251428 1.13458,-3.702901 3.66665,-3.702901 2.53207,0 3.113424,0.782371 3.97455,3.320841 z"
       id="path6723"
       inkscape:connector-curvature="0"
       sodipodi:nodetypes="sssss" />
  </g>
  <g
     id="g6647">
    <path
       sodipodi:type="arc"
       style="fill:#8f6a50;fill-opacity:1;stroke:none"
       id="path6630"
       sodipodi:cx="39.442932"
       sodipodi:cy="53.9445"
       sodipodi:rx="3.3769634"
       sodipodi:ry="3.3769634"
       d="m 42.819896,53.9445 a 3.3769634,3.3769634 0 1 1 -6.753927,0 3.3769634,3.3769634 0 1 1 6.753927,0 z"
       transform="translate(26.340315,-1.0544502)" />
    <path
       sodipodi:nodetypes="ccsc"
       style="fill:#214478;fill-opacity:1;stroke:none"
       d="m 59.569635,62.483068 c 0,0 1.436334,-10.40554 5.934442,-6.281142 6.254131,-2.899685 6.227112,3.449 6.893499,5.114966 0.666386,1.665966 -12.827941,1.166176 -12.827941,1.166176 z"
       id="path6628"
       inkscape:connector-curvature="0" />
    <path
       style="fill:#000000;fill-opacity:1;stroke:none"
       d="m 62.271206,53.134029 c 0.810471,1.756021 3.376963,2.161257 4.457591,1.350786 1.080629,-0.810471 2.701572,-0.540315 2.566493,-2.026179 -0.135078,-1.485864 -0.540315,-3.106806 -2.161257,-3.64712 -1.620943,-0.540315 -2.431414,0 -3.376963,0.540314 -0.94555,0.540314 -1.620943,3.241885 -1.485864,3.782199 z"
       id="path6632"
       inkscape:connector-curvature="0"
       sodipodi:nodetypes="cssssc" />
    <path
       inkscape:connector-curvature="0"
       id="path6637"
       d="m 65.107855,54.214658 c 0.405236,3.64712 -0.675392,4.322513 0.675393,3.64712 1.350785,-0.675392 0.405236,0.405236 0.270157,-2.026178 -0.135079,-2.431413 -0.135079,-2.431413 -0.135079,-2.431413 z"
       style="fill:#000000;fill-opacity:1;stroke:none" />
  </g>
  <g
     id="g6610">
    <path
       inkscape:connector-curvature="0"
       id="path6592"
       d="m 26.179058,63.26492 c 0,0 -3.376963,-3.106806 -2.566492,-3.512042 0.810471,-0.405236 5.673299,-3.917278 7.159163,-3.782199 1.485863,0.135078 1.756021,2.431414 1.756021,2.431414 0,0 0.135078,-2.161257 1.485863,-2.431414 1.350786,-0.270157 6.348692,1.080628 6.618849,6.889005 0.270157,5.808378 -14.453404,0.405236 -14.453404,0.405236 z"
       style="fill:#d73425;fill-opacity:1;stroke:none" />
    <path
       transform="translate(0.9193717,-0.54031415)"
       d="m 34.580106,52.25602 a 3.1743457,3.1743457 0 1 1 -6.348692,0 3.1743457,3.1743457 0 1 1 6.348692,0 z"
       sodipodi:ry="3.1743457"
       sodipodi:rx="3.1743457"
       sodipodi:cy="52.25602"
       sodipodi:cx="31.40576"
       id="path6596"
       style="fill:#8f6a50;fill-opacity:1;stroke:none"
       sodipodi:type="arc" />
    <path
       inkscape:connector-curvature="0"
       id="path6598"
       d="m 31.176964,50.432459 -1.620942,1.350785 c 0,0 -3.106807,-1.891099 -1.485864,-2.296335 1.620942,-0.405235 2.566492,-2.161256 3.917277,-2.026178 1.350786,0.135079 2.161257,1.485864 2.971728,1.485864 0.810471,0 1.350786,1.485864 0.135079,1.891099 -1.215707,0.405236 -3.512042,-0.810471 -3.917278,-0.405235 z"
       style="fill:#d73425;fill-opacity:1;stroke:none" />
  </g>
  <g
     id="g6341"
     transform="translate(119.54451,14.588482)">
    <path
       inkscape:connector-curvature="0"
       id="path6329"
       d="m -98.607333,44.083768 c 0,0 0.94555,-1.350786 1.080629,-2.026178 0.135078,-0.675393 -2.296336,-1.485864 -1.485864,-2.701571 0.810471,-1.215707 2.70157,-4.187435 4.457591,-3.241885 1.756021,0.94555 2.701571,2.971728 2.431414,4.052356 -0.270157,1.080628 -1.215707,1.350785 -1.350785,2.431414 -0.135079,1.080628 0,2.566492 0,2.566492 z"
       style="fill:#876b55;fill-opacity:1;stroke:none" />
    <path
       inkscape:connector-curvature="0"
       id="path6327"
       d="m -99.687961,44.218846 c 0,0 -2.566489,2.566492 -1.891099,4.052356 0.67539,1.485864 14.588482,0.675393 14.588482,0.675393 0,0 -2.83665,-4.052356 -5.53822,-4.59267 -2.701571,-0.540314 -7.159163,-0.135079 -7.159163,-0.135079 z"
       style="fill:#fff5c9;fill-opacity:1;stroke:none" />
    <path
       inkscape:connector-curvature="0"
       id="path6331"
       d="m -97.526704,41.517275 c 0,0 0.810471,-3.782199 2.161256,-3.376963 1.350786,0.405236 2.296335,0.540314 2.701571,-0.270157 0.405236,-0.810471 -0.675393,-2.836649 -0.675393,-2.836649 0,0 -1.350785,-1.485864 -2.971728,-1.080629 -1.620942,0.405236 -3.241884,1.485864 -3.512042,3.376964 -0.27016,1.891099 0,2.836649 2.296336,4.187434 z"
       style="fill:#000000;fill-opacity:1;stroke:none" />
  </g>
  <g
     id="g6825">
    <path
       inkscape:connector-curvature="0"
       id="path6817"
       d="m 123.25755,60.68536 c 0,0 3.8007,-0.53033 3.97748,-0.353553 0.17677,0.176777 -1.59099,-0.707107 -0.97228,-1.149048 0.61872,-0.441942 1.32583,-0.928078 1.59099,-0.220971 0.26517,0.707106 0.61872,-0.574525 0.61872,-0.574525 0,0 -0.39774,-0.972271 -1.10485,-0.839689 -0.70711,0.132583 -2.2981,2.077126 -3.40295,2.077126 -1.10486,0 -0.70711,1.06066 -0.70711,1.06066 z"
       style="fill:#876b55;stroke:none;stroke-width:1px;stroke-linecap:butt;stroke-linejoin:miter;stroke-opacity:1;fill-opacity:1" />
    <path
       sodipodi:nodetypes="sccsssss"
       inkscape:connector-curvature="0"
       id="path6799"
       d="m 106.50795,65.060584 c 13.7787,-1.138485 19.04769,-4.331029 19.04769,-4.331029 l -0.22097,-2.032932 c 0,0 -0.53032,-0.441943 -2.65164,-0.618719 -2.12132,-0.176777 -5.83363,2.032932 -6.62913,-10e-7 -0.79549,-2.032932 -3.53553,-4.154252 -4.15425,-4.507805 -0.61872,-0.353554 -5.12653,-4.772971 -6.18719,-2.209709 -1.06066,2.563262 -3.7634,14.076879 0.79549,13.700195 z"
       style="fill:#d73425;fill-opacity:1;stroke:none" />
    <path
       inkscape:connector-curvature="0"
       id="path6801"
       d="m 107.56862,52.332662 c 0.17678,-2.828427 0.70711,-2.563262 0.35355,-3.093592 -0.35355,-0.530331 2.2981,1.767766 3.09359,1.06066 0.7955,-0.707107 -1.32582,1.944543 -1.14904,2.65165 0.17677,0.707107 -2.2981,-0.618718 -2.2981,-0.618718 z"
       style="fill:#876b55;stroke:none;stroke-width:1px;stroke-linecap:butt;stroke-linejoin:miter;stroke-opacity:1;fill-opacity:1" />
    <path
       transform="translate(-2.5632625,-1.3258252)"
       d="m 116.40745,49.592625 a 3.5355339,3.5355339 0 1 1 -7.07107,0 3.5355339,3.5355339 0 1 1 7.07107,0 z"
       sodipodi:ry="3.5355339"
       sodipodi:rx="3.5355339"
       sodipodi:cy="49.592625"
       sodipodi:cx="112.87192"
       id="path6805"
       style="fill:#876b55;fill-opacity:1;stroke:none"
       sodipodi:type="arc" />
    <path
       inkscape:connector-curvature="0"
       id="path6204"
       d="m 104.95602,60.293192 0.81048,5.53822 27.96125,-1.485864 c 0,0 -1.35078,-3.64712 -6.889,-4.59267 -5.53822,-0.94555 -21.88273,0.540314 -21.88273,0.540314 z"
       style="opacity:0.76691727;fill:url(#linearGradient6815);fill-opacity:1;stroke:none" />
    <path
       style="fill:#000000;fill-opacity:1;stroke:none"
       d="m 106.77312,49.194875 c 0.35356,-1.502602 -0.35355,-1.635185 1.32583,-1.988738 1.67938,-0.353553 5.52427,0.0442 5.52427,0.0442 0,0 -0.61872,-2.342292 -2.38648,-2.386486 -5.45996,-0.315088 -4.14258,3.495509 -4.46362,4.331029 z"
       id="path6832"
       inkscape:connector-curvature="0"
       sodipodi:nodetypes="csccc" />
  </g>
  <g
     id="g6621">
    <path
       inkscape:connector-curvature="0"
       id="path6615"
       d="m 33.904713,62.888304 c 0,0 1.166177,-7.163655 5.664285,-7.496849 4.49811,-0.333193 6.497269,4.664707 7.163656,6.330673 0.666386,1.665966 -12.827941,1.166176 -12.827941,1.166176 z"
       style="fill:#fd9e28;fill-opacity:1;stroke:none" />
    <path
       transform="translate(0.13507854,-1.1895288)"
       d="m 42.819896,53.9445 c 0,1.865045 -1.511918,3.376963 -3.376964,3.376963 -1.865045,0 -3.376963,-1.511918 -3.376963,-3.376963 0,-1.865045 1.511918,-3.376963 3.376963,-3.376963 1.865046,0 3.376964,1.511918 3.376964,3.376963 z"
       sodipodi:ry="3.3769634"
       sodipodi:rx="3.3769634"
       sodipodi:cy="53.9445"
       sodipodi:cx="39.442932"
       id="path6617"
       style="fill:#8f6a50;fill-opacity:1;stroke:none"
       sodipodi:type="arc" />
    <path
       sodipodi:nodetypes="cssssc"
       inkscape:connector-curvature="0"
       id="path6619"
       d="m 36.06597,52.998951 c 0.810471,1.756021 3.376963,3.241885 4.457591,2.431414 1.080629,-0.810471 2.701572,-1.620943 2.566493,-3.106807 -0.135078,-1.485864 -0.540315,-3.106806 -2.161257,-3.64712 -1.620943,-0.540315 -2.431414,0 -3.376963,0.540314 -0.94555,0.540314 -1.620943,3.241885 -1.485864,3.782199 z"
       style="fill:#000000;fill-opacity:1;stroke:none" />
  </g>
  <path
     style="fill:#7c6b33;fill-opacity:1;stroke:none"
     d="m 14.453404,62.500709 0.540314,8.193531 80.506808,-3.186374 -0.945549,-7.890067 z"
     id="path6202"
     inkscape:connector-curvature="0" />
  <path
     style="fill:url(#radialGradient6224);fill-opacity:1;stroke:none;opacity:0.53383459"
     d="m 125.08273,47.055495 10.80628,17.019896 12.5623,-7.969634 c 0,0 -5.6177,-12.375986 -8.91518,-15.263874 -12.39598,-10.856238 -14.59303,6.079156 -14.4534,6.213612 z"
     id="path6214"
     inkscape:connector-curvature="0"
     sodipodi:nodetypes="cccsc" />
  <path
     style="fill:#e95c2f;fill-opacity:1;stroke:none"
     d="m 56.875,29.34375 c -24.562133,0.02747 -45.53125,0.5625 -45.53125,0.5625 L 11.875,75.5625 140.46875,71.375 152.5,65.96875 c 0,0 -8.38325,-25.5374 -20,-32.15625 -6.53443,-3.723103 -44.045115,-4.504069 -75.625,-4.46875 z m 82.78125,12.1875 c 4.05235,4.997906 8.25,14.5625 8.25,14.5625 L 135.625,62.71875 126.3125,48 c 0,0 8.48092,-4.982886 13.34375,-6.46875 z m -117.59375,1.0625 20.03125,0 c 2.273442,0 4.09375,1.820308 4.09375,4.09375 l 0,18.28125 c 0,2.27344 -1.820308,4.09375 -4.09375,4.09375 l -20.03125,0 c -2.273442,0 -4.09375,-1.82031 -4.09375,-4.09375 l 0,-18.28125 c 0,-2.273442 1.820308,-4.09375 4.09375,-4.09375 z M 77.46875,43 89.5,43 c 2.053057,0 3.71875,1.665693 3.71875,3.71875 l 0,16.5 c 0,2.05306 -1.665693,3.6875 -3.71875,3.6875 l -12.03125,0 c -2.053057,0 -3.71875,-1.63444 -3.71875,-3.6875 l 0,-16.5 C 73.75,44.665693 75.415693,43 77.46875,43 z m -26,0.28125 17.28125,0 c 2.099454,0 3.78125,1.681796 3.78125,3.78125 l 0,16.875 c 0,2.09945 -1.681796,3.78125 -3.78125,3.78125 l -17.28125,0 c -2.099454,0 -3.78125,-1.6818 -3.78125,-3.78125 l 0,-16.875 c 0,-2.099454 1.681796,-3.78125 3.78125,-3.78125 z m 65.9375,1.59375 c 1.56396,0 2.85838,0.07863 3.5,0.28125 2.56649,0.810471 12.28125,18.25 12.28125,18.25 L 106.96875,64.46875 105.5,45.5625 c 0,0 7.21438,-0.6875 11.90625,-0.6875 z"
     id="path6101"
     inkscape:connector-curvature="0" />
  <path
     style="fill:#4c3219;fill-opacity:1;stroke:none"
     d="m 46.372509,90.548173 7.306893,-5.179281 c 0,0 -4.330011,-7.152339 -7.577519,-6.659074 -3.247509,0.493264 -8.660023,5.919177 -8.660023,5.919177 z"
     id="path6713"
     inkscape:connector-curvature="0" />
  <g
     id="g5571"
     transform="translate(-361.42857,10.066445)">
    <path
       sodipodi:nodetypes="cccsccsccccc"
       inkscape:connector-curvature="0"
       id="path6099"
       d="m 373.31548,61.013156 0.13508,22.960394 11.75183,0 c 0,0 4.05236,-12.955735 16.61467,-13.501562 12.5623,-0.545829 18.23559,13.263872 18.23559,13.263872 l 58.86807,-1.27359 c 0,0 1.16078,-13.567728 13.39895,-13.580901 12.1429,-0.01307 12.96755,11.376921 12.96755,11.376921 l 15.93926,-7.195001 -9.83455,-23.350678 -12.45341,6.170895 z"
       style="fill:#ffffff;fill-opacity:1;stroke:none" />
    <path
       style="fill:#293d55;fill-opacity:1;stroke:none"
       d="m 373.58564,64.706329 -0.13508,17.263875 11.75183,0 c 0,0 3.24189,-12.832462 15.80419,-13.237697 12.56231,-0.405236 19.04607,12.02199 19.04607,12.02199 l 56.86807,-0.94555 c 0,0 2.02618,-11.211518 13.91309,-13.372775 9.98164,-1.814844 17.83037,12.157068 17.83037,12.157068 l 12.5623,-6.348692 -7.15916,-16.749738 -12.42723,5.403142 z"
       id="path5589"
       inkscape:connector-curvature="0"
       sodipodi:nodetypes="cccsccsccccc" />
  </g>
  <path
     style="fill:#788164;fill-opacity:1;stroke:none"
     d="m 17.154974,41.922511 81.857594,-1.080628 c 0,0 2.026182,-0.810472 0.405236,-2.431414 -1.620943,-1.620942 -81.452358,1.350785 -81.452358,1.350785 z"
     id="path6127"
     inkscape:connector-curvature="0" />
  <rect
     style="fill:#ba9959;fill-opacity:1;stroke:none"
     id="rect6129"
     width="1.3507854"
     height="2.4314137"
     x="20.531939"
     y="39.626175"
     ry="0.52856821" />
  <rect
     ry="0.63868648"
     y="38.917011"
     x="37.053665"
     height="2.9379578"
     width="1.3507854"
     id="rect6131"
     style="fill:#ba9959;fill-opacity:1;stroke:none" />
  <rect
     style="fill:#ba9959;fill-opacity:1;stroke:none"
     id="rect6133"
     width="1.3507854"
     height="3.1743453"
     x="54.884033"
     y="38.444233"
     ry="0.69007504" />
  <rect
     ry="0.69007504"
     y="37.903915"
     x="76.901833"
     height="3.1743453"
     width="1.3507854"
     id="rect6135"
     style="fill:#ba9959;fill-opacity:1;stroke:none" />
  <path
     style="fill:none;stroke:#000000;stroke-width:0.7;stroke-linecap:butt;stroke-linejoin:miter;stroke-opacity:1;stroke-miterlimit:4;stroke-dasharray:none"
     d="m 15.398953,26.388479 0.135079,4.187435 89.557068,-0.405236 3.64712,-1.756021 -1.48586,-6.348691 -2.56649,1.756021 z"
     id="path6137"
     inkscape:connector-curvature="0" />
  <path
     style="fill:none;stroke:#000000;stroke-width:0.5;stroke-linecap:butt;stroke-linejoin:miter;stroke-miterlimit:4;stroke-opacity:1;stroke-dasharray:none"
     d="m 22.693194,30.77554 -0.135078,-4.387061 0.135078,4.251982 0,0 0,0"
     id="path6139"
     inkscape:connector-curvature="0"
     sodipodi:nodetypes="ccccc" />
  <path
     sodipodi:nodetypes="ccccc"
     inkscape:connector-curvature="0"
     id="path6141"
     d="m 52.625655,30.370304 -0.06754,-5.062453 0.06754,4.927374 0,0 0,0"
     style="fill:none;stroke:#000000;stroke-width:0.5;stroke-linecap:butt;stroke-linejoin:miter;stroke-miterlimit:4;stroke-opacity:1;stroke-dasharray:none" />
  <path
     style="fill:none;stroke:#000000;stroke-width:0.5;stroke-linecap:butt;stroke-linejoin:miter;stroke-miterlimit:4;stroke-opacity:1;stroke-dasharray:none"
     d="m 68.693194,30.302765 -0.135078,-5.535228 0.135078,5.400149 0,0 0,0"
     id="path6143"
     inkscape:connector-curvature="0"
     sodipodi:nodetypes="ccccc" />
  <path
     sodipodi:nodetypes="ccccc"
     inkscape:connector-curvature="0"
     id="path6145"
     d="m 82.625655,30.302765 -0.06754,-5.805386 0.06754,5.670307 0,0 0,0"
     style="fill:none;stroke:#000000;stroke-width:0.5;stroke-linecap:butt;stroke-linejoin:miter;stroke-miterlimit:4;stroke-opacity:1;stroke-dasharray:none" />
  <path
     style="fill:none;stroke:#000000;stroke-width:0.5;stroke-linecap:butt;stroke-linejoin:miter;stroke-miterlimit:4;stroke-opacity:1;stroke-dasharray:none"
     d="m 98.693194,30.370304 -0.135078,-6.4546 0.135078,6.319521 0,0 0,0"
     id="path6147"
     inkscape:connector-curvature="0"
     sodipodi:nodetypes="ccccc" />
  <path
     sodipodi:nodetypes="ccccc"
     inkscape:connector-curvature="0"
     id="path6149"
     d="m 36.760733,30.437844 -0.270156,-4.657218 0.270156,4.522139 0,0 0,0"
     style="fill:none;stroke:#000000;stroke-width:0.5;stroke-linecap:butt;stroke-linejoin:miter;stroke-miterlimit:4;stroke-opacity:1;stroke-dasharray:none" />
  <g
     id="g6690">
    <g
       id="g6189">
      <path
         sodipodi:type="arc"
         style="fill:#47402d;fill-opacity:1;stroke:none"
         id="path6183"
         sodipodi:cx="39.848167"
         sodipodi:cy="94.73822"
         sodipodi:rx="12.96754"
         sodipodi:ry="12.427225"
         d="m 52.815707,94.73822 c 0,6.86337 -5.805765,12.42723 -12.96754,12.42723 -7.161774,0 -12.967539,-5.56386 -12.967539,-12.42723 0,-6.863367 5.805765,-12.427225 12.967539,-12.427225 7.161775,0 12.96754,5.563858 12.96754,12.427225 z" />
      <path
         d="m 52.815707,94.73822 c 0,6.86337 -5.805765,12.42723 -12.96754,12.42723 -7.161774,0 -12.967539,-5.56386 -12.967539,-12.42723 0,-6.863367 5.805765,-12.427225 12.967539,-12.427225 7.161775,0 12.96754,5.563858 12.96754,12.427225 z"
         sodipodi:ry="12.427225"
         sodipodi:rx="12.96754"
         sodipodi:cy="94.73822"
         sodipodi:cx="39.848167"
         id="path6185"
         style="fill:#e6e6e6;fill-opacity:1;stroke:none"
         sodipodi:type="arc"
         transform="matrix(0.66304347,0,0,0.66304347,13.4271,31.922662)" />
      <path
         transform="matrix(0.31929347,0,0,0.31929347,27.124907,64.488925)"
         sodipodi:type="arc"
         style="fill:#df4d40;fill-opacity:1;stroke:none"
         id="path6187"
         sodipodi:cx="39.848167"
         sodipodi:cy="94.73822"
         sodipodi:rx="12.96754"
         sodipodi:ry="12.427225"
         d="m 52.815707,94.73822 c 0,6.86337 -5.805765,12.42723 -12.96754,12.42723 -7.161774,0 -12.967539,-5.56386 -12.967539,-12.42723 0,-6.863367 5.805765,-12.427225 12.967539,-12.427225 7.161775,0 12.96754,5.563858 12.96754,12.427225 z" />
    </g>
  </g>
  <g
     id="g6194"
     transform="translate(91.718327,-0.94554977)">
    <path
       sodipodi:type="arc"
       style="fill:#47402d;fill-opacity:1;stroke:none"
       id="path6196"
       sodipodi:cx="39.848167"
       sodipodi:cy="94.73822"
       sodipodi:rx="12.96754"
       sodipodi:ry="12.427225"
       d="m 52.815707,94.73822 c 0,6.86337 -5.805765,12.42723 -12.96754,12.42723 -7.161774,0 -12.967539,-5.56386 -12.967539,-12.42723 0,-6.863367 5.805765,-12.427225 12.967539,-12.427225 7.161775,0 12.96754,5.563858 12.96754,12.427225 z" />
    <path
       d="m 52.815707,94.73822 c 0,6.86337 -5.805765,12.42723 -12.96754,12.42723 -7.161774,0 -12.967539,-5.56386 -12.967539,-12.42723 0,-6.863367 5.805765,-12.427225 12.967539,-12.427225 7.161775,0 12.96754,5.563858 12.96754,12.427225 z"
       sodipodi:ry="12.427225"
       sodipodi:rx="12.96754"
       sodipodi:cy="94.73822"
       sodipodi:cx="39.848167"
       id="path6198"
       style="fill:#e6e6e6;fill-opacity:1;stroke:none"
       sodipodi:type="arc"
       transform="matrix(0.66304347,0,0,0.66304347,13.4271,31.922662)" />
    <path
       transform="matrix(0.31929347,0,0,0.31929347,27.124907,64.488925)"
       sodipodi:type="arc"
       style="fill:#df4d40;fill-opacity:1;stroke:none"
       id="path6200"
       sodipodi:cx="39.848167"
       sodipodi:cy="94.73822"
       sodipodi:rx="12.96754"
       sodipodi:ry="12.427225"
       d="m 52.815707,94.73822 c 0,6.86337 -5.805765,12.42723 -12.96754,12.42723 -7.161774,0 -12.967539,-5.56386 -12.967539,-12.42723 0,-6.863367 5.805765,-12.427225 12.967539,-12.427225 7.161775,0 12.96754,5.563858 12.96754,12.427225 z" />
  </g>
  <path
     style="fill:#e8b05d;fill-opacity:1;stroke:none"
     d="m 146.6953,87.984292 0.54031,2.971728 13.10261,-8.23979 -0.81047,-2.296336 z"
     id="path6323"
     inkscape:connector-curvature="0"
     sodipodi:nodetypes="ccccc" />
  <path
     style="fill:#a32e23;fill-opacity:1;stroke:none"
     d="m 149.39686,86.228272 1.62095,2.026177 6.07853,-3.64712 -0.67539,-2.431414 z"
     id="path6325"
     inkscape:connector-curvature="0"
     sodipodi:nodetypes="ccccc" />
  <g
     id="g6555"
     transform="matrix(0.87060036,0.0310858,-0.0310858,0.87060036,25.616948,5.1114505)">
    <path
       style="fill:#f58a12"
       d="m 61.686722,94.815213 c -0.204353,-0.04959 -0.373857,-0.180686 -0.487952,-0.377323 -0.09711,-0.167374 -0.119139,-0.270627 -0.175415,-0.822278 -0.07229,-0.708624 -0.05497,-0.812958 0.137685,-0.827387 0.205513,-0.01539 0.238038,0.0628 0.312615,0.751529 0.07007,0.647124 0.111115,0.774724 0.272102,0.845968 0.150725,0.06666 0.410329,0.02046 0.52428,-0.09345 0.130941,-0.130868 0.154344,-0.34851 0.108389,-1.007791 -0.03641,-0.524001 -0.01844,-0.586048 0.175019,-0.600537 0.189989,-0.01423 0.222037,0.08803 0.256633,0.818768 0.02707,0.571877 0.02099,0.677917 -0.04811,0.839408 -0.117506,0.274602 -0.332578,0.422487 -0.67754,0.465884 -0.154828,0.01971 -0.333827,0.02257 -0.397705,0.0072 z m 2.356922,-0.227788 c -0.239779,-0.09713 -0.40016,-0.304652 -0.475075,-0.614715 -0.08966,-0.371086 -0.200189,-1.978683 -0.145207,-2.111901 0.05252,-0.127242 0.267394,-0.186247 0.353447,-0.09705 0.02971,0.03079 0.07977,0.238177 0.11122,0.460836 l 0.05719,0.40483 0.127686,-0.03431 c 0.389591,-0.104619 0.444636,-0.109309 0.629923,-0.05366 0.363943,0.108632 0.606232,0.478906 0.64351,0.983454 0.03467,0.46764 -0.112571,0.830106 -0.406039,1.000321 -0.235468,0.136579 -0.643547,0.165026 -0.896654,0.06229 z m 0.703623,-0.406351 c 0.198117,-0.144774 0.249874,-0.702933 0.09366,-1.010054 -0.166228,-0.32682 -0.544805,-0.389207 -0.770445,-0.126988 -0.292079,0.339454 -0.129168,1.152148 0.246132,1.227856 0.157483,0.03177 0.305664,5.51e-4 0.430654,-0.09082 z m 1.804791,0.242154 c -0.199622,-0.06938 -0.2986,-0.150759 -0.418528,-0.34412 -0.08592,-0.13854 -0.109352,-0.254894 -0.168176,-0.835288 -0.0652,-0.643092 -0.06454,-0.678737 0.01357,-0.76951 0.102394,-0.118963 0.182362,-0.126259 0.297555,-0.02716 0.08115,0.06985 0.0942,0.133305 0.132461,0.644123 0.04594,0.61336 0.10179,0.79081 0.282751,0.898367 0.202494,0.120351 0.52302,0.0104 0.603018,-0.206921 0.02436,-0.06623 0.02735,-0.309164 0.0071,-0.58269 -0.04532,-0.614471 -0.02906,-0.775167 0.08812,-0.865126 0.08506,-0.06535 0.104204,-0.06637 0.203716,-0.0112 0.109209,0.06045 0.11009,0.06436 0.157342,0.698393 0.02614,0.350697 0.03332,0.709166 0.01594,0.7966 -0.04225,0.212637 -0.199289,0.421743 -0.398779,0.531025 -0.200654,0.109912 -0.606349,0.146494 -0.816105,0.07361 z m 2.076975,-0.153121 c -0.06082,-0.05231 -0.08084,-0.165357 -0.118601,-0.669553 -0.02499,-0.333619 -0.0301,-0.694919 -0.01134,-0.802898 0.122502,-0.705537 1.203352,-0.903038 1.613645,-0.294861 0.109749,0.162681 0.122032,0.220459 0.184426,0.867501 0.05829,0.604389 0.05856,0.70283 0.0022,0.768321 -0.09077,0.105471 -0.249928,0.106327 -0.335443,0.0019 -0.05696,-0.06963 -0.08145,-0.211898 -0.11631,-0.675557 -0.03763,-0.500791 -0.05717,-0.605527 -0.132445,-0.710447 -0.189325,-0.263886 -0.547405,-0.247524 -0.706964,0.03234 -0.07738,0.135707 -0.08092,0.195505 -0.04238,0.717667 0.02759,0.373187 0.02656,0.60709 -0.0028,0.678256 -0.05413,0.131111 -0.229791,0.177104 -0.333959,0.08747 z m 2.784523,-0.201245 c -0.195678,-0.09418 -0.226756,-0.195791 -0.282978,-0.925193 -0.05372,-0.698853 -0.09288,-0.84298 -0.225381,-0.833057 -0.198982,0.0149 -0.253902,-0.216293 -0.07034,-0.296119 0.161159,-0.07007 0.197474,-0.162637 0.176048,-0.448711 -0.02236,-0.298578 0.02152,-0.401648 0.175925,-0.413213 0.174051,-0.01303 0.234832,0.07904 0.28708,0.434889 l 0.04669,0.318 0.14977,0.0128 c 0.194709,0.01665 0.255,0.05042 0.262229,0.146946 0.0072,0.09646 -0.04731,0.138832 -0.237408,0.184463 l -0.146182,0.03512 0.03716,0.650319 c 0.04478,0.783699 0.05997,0.814887 0.388954,0.790248 0.277509,-0.02078 0.369238,0.06654 0.234432,0.223186 -0.07131,0.08289 -0.141374,0.107298 -0.38928,0.135802 -0.200611,0.02313 -0.33743,0.01797 -0.406717,-0.01545 z m 1.880218,-0.151039 c -0.199175,-0.06922 -0.298186,-0.150426 -0.419505,-0.344047 -0.08758,-0.139771 -0.109578,-0.249475 -0.167638,-0.835914 -0.06352,-0.641393 -0.06276,-0.679736 0.01455,-0.769582 0.101862,-0.118348 0.181974,-0.125491 0.297034,-0.0263 0.08115,0.06985 0.0942,0.133311 0.132461,0.64413 0.04594,0.613361 0.101783,0.790811 0.282748,0.898368 0.202494,0.120351 0.523024,0.01039 0.603021,-0.206922 0.0249,-0.06757 0.02678,-0.314012 0.0047,-0.608831 -0.04528,-0.60464 -0.03032,-0.746194 0.08852,-0.837438 0.08342,-0.064 0.104818,-0.06447 0.225395,-0.0049 l 0.13323,0.06579 0.04405,0.588266 c 0.0623,0.831869 -0.03605,1.148005 -0.424231,1.363692 -0.198459,0.110275 -0.603842,0.147061 -0.814337,0.07389 z m -14.191917,1.000438 c -0.355536,-0.147996 -0.57135,-0.649118 -0.517272,-1.201116 0.05122,-0.522785 0.381597,-0.847748 0.836329,-0.822612 0.470241,0.02602 0.427451,0.06564 0.41742,-0.386701 -0.0049,-0.219661 0.0034,-0.42169 0.01835,-0.448963 0.04955,-0.09032 0.190476,-0.108241 0.292783,-0.03726 0.09882,0.06861 0.100551,0.07969 0.179811,1.151161 0.0746,1.01018 0.07512,1.095145 0.0062,1.281498 -0.04059,0.109769 -0.141131,0.259418 -0.223425,0.332545 -0.131899,0.117214 -0.1896,0.13746 -0.486991,0.170886 -0.279667,0.03141 -0.369109,0.02521 -0.523252,-0.0395 z m 0.733219,-0.390867 c 0.123344,-0.112915 0.171619,-0.326491 0.147507,-0.652647 -0.03365,-0.454039 -0.219499,-0.666482 -0.560951,-0.640909 -0.180894,0.01355 -0.222659,0.0342 -0.316343,0.156281 -0.142113,0.185227 -0.186132,0.500676 -0.109638,0.785725 0.05977,0.222728 0.106211,0.295526 0.259323,0.406508 0.130968,0.09492 0.449321,0.06477 0.580101,-0.05497 z m -2.887802,0.555251 c -0.235186,-0.05199 -0.42817,-0.187342 -0.546635,-0.383294 -0.06514,-0.107754 -0.121315,-0.234229 -0.124823,-0.281056 -0.0035,-0.04679 -0.02521,-0.08372 -0.04825,-0.082 -0.02303,0.0017 -0.04964,-0.100504 -0.05912,-0.227174 -0.0095,-0.12667 -8.09e-4,-0.231541 0.01927,-0.233045 0.02007,-0.0015 0.04266,-0.07572 0.05015,-0.164963 0.05485,-0.65296 0.941486,-0.981929 1.474328,-0.547032 0.262056,0.213889 0.433048,0.636033 0.326071,0.805 -0.05054,0.07979 -0.118163,0.09511 -0.696481,0.157439 l -0.640503,0.06906 0.01683,0.158544 c 0.01902,0.179218 0.144982,0.319205 0.346978,0.385682 0.134252,0.04421 0.326847,6.68e-4 0.600324,-0.135692 0.10564,-0.05269 0.141258,-0.05519 0.198957,-0.0142 0.154032,0.109493 0.04115,0.320111 -0.233471,0.435547 -0.157757,0.06632 -0.509441,0.09575 -0.683663,0.05688 z m 0.681764,-1.33125 c 0.03071,-0.102286 -0.142777,-0.322136 -0.310908,-0.394005 -0.112601,-0.04811 -0.201581,-0.05734 -0.300533,-0.03095 -0.224313,0.05971 -0.455362,0.422979 -0.334952,0.52661 0.0165,0.01418 0.232128,0.01068 0.479166,-0.0078 0.345977,-0.02591 0.453306,-0.0475 0.46723,-0.0938 z m 10.70086,-2.842462 c -0.427547,-0.157497 -0.688509,-0.474505 -0.753393,-0.91519 -0.104341,-0.708649 0.300267,-1.242447 1.011209,-1.334102 0.229849,-0.02962 0.340416,-0.02306 0.488629,0.02984 0.459461,0.163421 0.748531,0.534142 0.783811,1.005208 0.03906,0.521579 -0.143922,0.884134 -0.565375,1.120174 -0.261456,0.146435 -0.705298,0.189711 -0.964881,0.09409 z m -3.036387,-0.622714 c -0.30771,-0.01832 -0.934163,-0.13426 -1.195824,-0.221269 -0.08302,-0.02761 -0.153128,-0.07938 -0.155799,-0.115039 -0.0061,-0.0805 0.635174,-1.476954 0.763519,-1.66287 0.02329,-0.03371 0.124839,-0.03149 0.343341,0.0075 0.208537,0.03728 0.46138,0.04446 0.770998,0.02208 0.882794,-0.06369 1.639444,-0.455234 2.177016,-1.126274 0.318289,-0.397308 0.492075,-0.769574 0.626033,-1.341027 l 0.07033,-0.300035 0.954606,-0.08283 0.954607,-0.08283 -0.0057,0.264418 c -0.01654,0.759065 -0.37325,1.816538 -0.812476,2.408658 l -0.13796,0.185978 -0.197916,-0.09233 c -0.30125,-0.140527 -0.698696,-0.197046 -1.045145,-0.148629 -0.839097,0.117275 -1.538297,0.923874 -1.548874,1.786835 -0.0039,0.315972 -0.0097,0.335076 -0.112381,0.365574 -0.212878,0.06323 -1.157581,0.14932 -1.448312,0.131995 z m -2.696695,-1.027092 c -0.371202,-0.276199 -0.780953,-0.689294 -1.031919,-1.04035 -0.181533,-0.253934 -0.509076,-0.820197 -0.514229,-0.889014 -0.0016,-0.02169 0.118507,-0.142835 0.266961,-0.269174 0.310128,-0.26393 0.555034,-0.656172 0.629335,-1.007962 0.101957,-0.482704 -0.02668,-1.100094 -0.307591,-1.476253 -0.160889,-0.215443 -0.508435,-0.505817 -0.706159,-0.589996 -0.07553,-0.03216 -0.137846,-0.06543 -0.138483,-0.07394 -6.38e-4,-0.0085 0.04567,-0.153309 0.102923,-0.321771 0.241143,-0.709635 0.642659,-1.357586 1.170109,-1.888283 0.13328,-0.134101 0.265762,-0.245576 0.294399,-0.24772 0.04893,-0.0036 1.093602,1.442255 1.099567,1.521898 7.27e-4,0.0097 -0.0851,0.125879 -0.190725,0.258144 -0.542266,0.679036 -0.776024,1.430879 -0.71193,2.289793 0.05984,0.801828 0.392726,1.465601 1.036989,2.06771 0.124991,0.11681 0.227462,0.222832 0.227709,0.235598 0.0015,0.08152 -0.79407,1.641949 -0.843764,1.654797 -0.03381,0.009 -0.206259,-0.09182 -0.383192,-0.223475 z m -2.77677,-2.450721 c -0.726404,-0.210473 -1.057658,-0.849757 -0.813643,-1.570232 0.137514,-0.406011 0.513334,-0.67681 0.990899,-0.713993 0.451551,-0.0352 0.824681,0.148742 1.074549,0.529603 0.267406,0.407594 0.216058,1.034896 -0.114518,1.39902 -0.250514,0.275932 -0.809268,0.450644 -1.137287,0.355602 z m 8.790739,-2.294304 c -0.01159,-0.02852 -0.06055,-0.161457 -0.108831,-0.295418 -0.277285,-0.769264 -0.947569,-1.477475 -1.708271,-1.804929 -0.543562,-0.233982 -0.815488,-0.27547 -1.517591,-0.231542 -0.625976,0.03918 -0.628949,0.0389 -0.688557,-0.06177 -0.176529,-0.298119 -0.280656,-1.465093 -0.196247,-2.199514 0.04861,-0.423013 0.196565,-0.987623 0.367901,-1.403943 0.163136,-0.396404 0.616721,-1.20419 0.678781,-1.208838 0.01468,-0.0011 0.05953,0.551744 0.09964,1.228543 0.109787,1.851249 0.196655,2.184609 0.725608,2.785239 0.495109,0.562184 1.268098,0.923639 1.877619,0.87799 0.270689,-0.02027 0.589665,-0.132508 0.83012,-0.292086 l 0.191231,-0.126909 0.165202,0.164438 c 0.216201,0.215198 0.579596,0.736054 0.760589,1.090152 0.158874,0.310831 0.380235,0.939208 0.422258,1.198677 l 0.02695,0.166418 -0.952681,0.08267 c -0.74076,0.06428 -0.957362,0.07114 -0.973721,0.03082 z M 67.50108,81.550191 c -0.262853,-0.07174 -0.481328,-0.249034 -0.645249,-0.523632 -0.536946,-0.899499 0.232942,-1.973766 1.259185,-1.757008 0.487035,0.102869 0.851402,0.532505 0.892191,1.052016 0.02809,0.356738 -0.02972,0.565055 -0.225344,0.813039 -0.220377,0.279363 -0.49019,0.423334 -0.834832,0.44546 -0.149821,0.0096 -0.350496,-0.0038 -0.44595,-0.02987 z"
       id="path6561"
       inkscape:connector-curvature="0" />
    <path
       style="fill:#ef4911"
       d="m 61.686722,94.815213 c -0.204353,-0.04959 -0.373857,-0.180686 -0.487952,-0.377323 -0.09711,-0.167374 -0.119139,-0.270627 -0.175415,-0.822278 -0.07229,-0.708624 -0.05497,-0.812958 0.137685,-0.827387 0.205513,-0.01539 0.238038,0.0628 0.312615,0.751529 0.07007,0.647124 0.111115,0.774724 0.272102,0.845968 0.150725,0.06666 0.410329,0.02046 0.52428,-0.09345 0.130941,-0.130868 0.154344,-0.34851 0.108389,-1.007791 -0.03641,-0.524001 -0.01844,-0.586048 0.175019,-0.600537 0.189989,-0.01423 0.222037,0.08803 0.256633,0.818768 0.02707,0.571877 0.02099,0.677917 -0.04811,0.839408 -0.117506,0.274602 -0.332578,0.422487 -0.67754,0.465884 -0.154828,0.01971 -0.333827,0.02257 -0.397705,0.0072 z m 2.356922,-0.227788 c -0.239779,-0.09713 -0.40016,-0.304652 -0.475075,-0.614715 -0.08966,-0.371086 -0.200189,-1.978683 -0.145207,-2.111901 0.05252,-0.127242 0.267394,-0.186247 0.353447,-0.09705 0.02971,0.03079 0.07977,0.238177 0.11122,0.460836 l 0.05719,0.40483 0.127686,-0.03431 c 0.389591,-0.104619 0.444636,-0.109309 0.629923,-0.05366 0.363943,0.108632 0.606232,0.478906 0.64351,0.983454 0.03467,0.46764 -0.112571,0.830106 -0.406039,1.000321 -0.235468,0.136579 -0.643547,0.165026 -0.896654,0.06229 z m 0.703623,-0.406351 c 0.198117,-0.144774 0.249874,-0.702933 0.09366,-1.010054 -0.166228,-0.32682 -0.544805,-0.389207 -0.770445,-0.126988 -0.292079,0.339454 -0.129168,1.152148 0.246132,1.227856 0.157483,0.03177 0.305664,5.51e-4 0.430654,-0.09082 z m 1.804791,0.242154 c -0.199622,-0.06938 -0.2986,-0.150759 -0.418528,-0.34412 -0.08592,-0.13854 -0.109352,-0.254894 -0.168176,-0.835288 -0.0652,-0.643092 -0.06454,-0.678737 0.01357,-0.76951 0.102394,-0.118963 0.182362,-0.126259 0.297555,-0.02716 0.08115,0.06985 0.0942,0.133305 0.132461,0.644123 0.04594,0.61336 0.10179,0.79081 0.282751,0.898367 0.202494,0.120351 0.52302,0.0104 0.603018,-0.206921 0.02436,-0.06623 0.02735,-0.309164 0.0071,-0.58269 -0.04532,-0.614471 -0.02906,-0.775167 0.08812,-0.865126 0.08506,-0.06535 0.104204,-0.06637 0.203716,-0.0112 0.109209,0.06045 0.11009,0.06436 0.157342,0.698393 0.02614,0.350697 0.03332,0.709166 0.01594,0.7966 -0.04225,0.212637 -0.199289,0.421743 -0.398779,0.531025 -0.200654,0.109912 -0.606349,0.146494 -0.816105,0.07361 z m 2.076975,-0.153121 c -0.06082,-0.05231 -0.08084,-0.165357 -0.118601,-0.669553 -0.02499,-0.333619 -0.0301,-0.694919 -0.01134,-0.802898 0.122502,-0.705537 1.203352,-0.903038 1.613645,-0.294861 0.109749,0.162681 0.122032,0.220459 0.184426,0.867501 0.05829,0.604389 0.05856,0.70283 0.0022,0.768321 -0.09077,0.105471 -0.249928,0.106327 -0.335443,0.0019 -0.05696,-0.06963 -0.08145,-0.211898 -0.11631,-0.675557 -0.03763,-0.500791 -0.05717,-0.605527 -0.132445,-0.710447 -0.189325,-0.263886 -0.547405,-0.247524 -0.706964,0.03234 -0.07738,0.135707 -0.08092,0.195505 -0.04238,0.717667 0.02759,0.373187 0.02656,0.60709 -0.0028,0.678256 -0.05413,0.131111 -0.229791,0.177104 -0.333959,0.08747 z m 2.784523,-0.201245 c -0.195678,-0.09418 -0.226756,-0.195791 -0.282978,-0.925193 -0.05372,-0.698853 -0.09288,-0.84298 -0.225381,-0.833057 -0.198982,0.0149 -0.253902,-0.216293 -0.07034,-0.296119 0.161159,-0.07007 0.197474,-0.162637 0.176048,-0.448711 -0.02236,-0.298578 0.02152,-0.401648 0.175925,-0.413213 0.174051,-0.01303 0.234832,0.07904 0.28708,0.434889 l 0.04669,0.318 0.14977,0.0128 c 0.194709,0.01665 0.255,0.05042 0.262229,0.146946 0.0072,0.09646 -0.04731,0.138832 -0.237408,0.184463 l -0.146182,0.03512 0.03716,0.650319 c 0.04478,0.783699 0.05997,0.814887 0.388954,0.790248 0.277509,-0.02078 0.369238,0.06654 0.234432,0.223186 -0.07131,0.08289 -0.141374,0.107298 -0.38928,0.135802 -0.200611,0.02313 -0.33743,0.01797 -0.406717,-0.01545 z m 1.880218,-0.151039 c -0.199175,-0.06922 -0.298186,-0.150426 -0.419505,-0.344047 -0.08758,-0.139771 -0.109578,-0.249475 -0.167638,-0.835914 -0.06352,-0.641393 -0.06276,-0.679736 0.01455,-0.769582 0.101862,-0.118348 0.181974,-0.125491 0.297034,-0.0263 0.08115,0.06985 0.0942,0.133311 0.132461,0.64413 0.04594,0.613361 0.101783,0.790811 0.282748,0.898368 0.202494,0.120351 0.523024,0.01039 0.603021,-0.206922 0.0249,-0.06757 0.02678,-0.314012 0.0047,-0.608831 -0.04528,-0.60464 -0.03032,-0.746194 0.08852,-0.837438 0.08342,-0.064 0.104818,-0.06447 0.225395,-0.0049 l 0.13323,0.06579 0.04405,0.588266 c 0.0623,0.831869 -0.03605,1.148005 -0.424231,1.363692 -0.198459,0.110275 -0.603842,0.147061 -0.814337,0.07389 z m -14.191917,1.000438 c -0.355536,-0.147996 -0.57135,-0.649118 -0.517272,-1.201116 0.05122,-0.522785 0.381597,-0.847748 0.836329,-0.822612 0.470241,0.02602 0.427451,0.06564 0.41742,-0.386701 -0.0049,-0.219661 0.0034,-0.42169 0.01835,-0.448963 0.04955,-0.09032 0.190476,-0.108241 0.292783,-0.03726 0.09882,0.06861 0.100551,0.07969 0.179811,1.151161 0.0746,1.01018 0.07512,1.095145 0.0062,1.281498 -0.04059,0.109769 -0.141131,0.259418 -0.223425,0.332545 -0.131899,0.117214 -0.1896,0.13746 -0.486991,0.170886 -0.279667,0.03141 -0.369109,0.02521 -0.523252,-0.0395 z m 0.733219,-0.390867 c 0.123344,-0.112915 0.171619,-0.326491 0.147507,-0.652647 -0.03365,-0.454039 -0.219499,-0.666482 -0.560951,-0.640909 -0.180894,0.01355 -0.222659,0.0342 -0.316343,0.156281 -0.142113,0.185227 -0.186132,0.500676 -0.109638,0.785725 0.05977,0.222728 0.106211,0.295526 0.259323,0.406508 0.130968,0.09492 0.449321,0.06477 0.580101,-0.05497 z m -2.887802,0.555251 c -0.235186,-0.05199 -0.42817,-0.187342 -0.546635,-0.383294 -0.06514,-0.107754 -0.121315,-0.234229 -0.124823,-0.281056 -0.0035,-0.04679 -0.02521,-0.08372 -0.04825,-0.082 -0.02303,0.0017 -0.04964,-0.100504 -0.05912,-0.227174 -0.0095,-0.12667 -8.09e-4,-0.231541 0.01927,-0.233045 0.02007,-0.0015 0.04266,-0.07572 0.05015,-0.164963 0.05485,-0.65296 0.941486,-0.981929 1.474328,-0.547032 0.262056,0.213889 0.433048,0.636033 0.326071,0.805 -0.05054,0.07979 -0.118163,0.09511 -0.696481,0.157439 l -0.640503,0.06906 0.01683,0.158544 c 0.01902,0.179218 0.144982,0.319205 0.346978,0.385682 0.134252,0.04421 0.326847,6.68e-4 0.600324,-0.135692 0.10564,-0.05269 0.141258,-0.05519 0.198957,-0.0142 0.154032,0.109493 0.04115,0.320111 -0.233471,0.435547 -0.157757,0.06632 -0.509441,0.09575 -0.683663,0.05688 z m 0.681764,-1.33125 c 0.03071,-0.102286 -0.142777,-0.322136 -0.310908,-0.394005 -0.112601,-0.04811 -0.201581,-0.05734 -0.300533,-0.03095 -0.224313,0.05971 -0.455362,0.422979 -0.334952,0.52661 0.0165,0.01418 0.232128,0.01068 0.479166,-0.0078 0.345977,-0.02591 0.453306,-0.0475 0.46723,-0.0938 z m 7.664473,-3.465176 c -0.30771,-0.01832 -0.934163,-0.13426 -1.195824,-0.221269 -0.08302,-0.02761 -0.153128,-0.07938 -0.155799,-0.115039 -0.0061,-0.0805 0.635174,-1.476954 0.763519,-1.66287 0.02329,-0.03371 0.124839,-0.03149 0.343341,0.0075 0.208537,0.03728 0.46138,0.04446 0.770998,0.02208 0.882794,-0.06369 1.639444,-0.455234 2.177016,-1.126274 0.318289,-0.397308 0.492075,-0.769574 0.626033,-1.341027 l 0.07033,-0.300035 0.954606,-0.08283 0.954607,-0.08283 -0.0057,0.264418 c -0.01654,0.759065 -0.37325,1.816538 -0.812476,2.408658 l -0.13796,0.185978 -0.197916,-0.09233 c -0.30125,-0.140527 -0.698696,-0.197046 -1.045145,-0.148629 -0.839097,0.117275 -1.538297,0.923874 -1.548874,1.786835 -0.0039,0.315972 -0.0097,0.335076 -0.112381,0.365574 -0.212878,0.06323 -1.157581,0.14932 -1.448312,0.131995 z M 59.820044,86.808374 C 59.09364,86.597901 58.762386,85.958617 59.0064,85.238143 c 0.137514,-0.406011 0.513335,-0.67681 0.990899,-0.713994 0.451551,-0.0352 0.824682,0.148743 1.074549,0.529603 0.267407,0.407594 0.216059,1.034897 -0.114517,1.399019 -0.250515,0.275933 -0.809268,0.450645 -1.137287,0.355603 z m 8.790738,-2.294303 c -0.01159,-0.02852 -0.06055,-0.161458 -0.10883,-0.295419 -0.277285,-0.769263 -0.94757,-1.477475 -1.708271,-1.80493 -0.543562,-0.233982 -0.815488,-0.275469 -1.517591,-0.23154 -0.625976,0.03918 -0.628949,0.0389 -0.688557,-0.06177 -0.176528,-0.298118 -0.280657,-1.465094 -0.196247,-2.199516 0.04861,-0.423012 0.196564,-0.987621 0.367901,-1.403942 0.163136,-0.396403 0.616721,-1.20419 0.67878,-1.208838 0.01468,-0.0011 0.05953,0.551745 0.09964,1.228544 0.109786,1.851249 0.196655,2.184608 0.725608,2.785238 0.495108,0.562184 1.268097,0.92364 1.877619,0.87799 0.270689,-0.02027 0.589664,-0.132508 0.83012,-0.292085 l 0.19123,-0.126909 0.165204,0.164438 c 0.2162,0.215197 0.579594,0.736053 0.760589,1.090151 0.158872,0.310831 0.380234,0.939208 0.422257,1.198677 l 0.02694,0.166419 -0.952681,0.08267 c -0.74076,0.06428 -0.957361,0.07114 -0.97372,0.03082 z m -1.109704,-2.963912 c -0.262853,-0.07174 -0.481328,-0.249033 -0.645249,-0.523632 -0.536947,-0.899499 0.232942,-1.973766 1.259184,-1.757008 0.487035,0.10287 0.851402,0.532506 0.892191,1.052016 0.02809,0.356738 -0.02972,0.565056 -0.225343,0.813039 -0.220377,0.279363 -0.490191,0.423334 -0.834833,0.44546 -0.149821,0.0096 -0.350495,-0.0038 -0.44595,-0.02987 z"
       id="path6559"
       inkscape:connector-curvature="0" />
  </g>
</svg>
