<?xml version="1.0" encoding="UTF-8" standalone="no"?>
<!-- Created with Inkscape (http://www.inkscape.org/) -->

<svg
   xmlns:dc="http://purl.org/dc/elements/1.1/"
   xmlns:cc="http://creativecommons.org/ns#"
   xmlns:rdf="http://www.w3.org/1999/02/22-rdf-syntax-ns#"
   xmlns:svg="http://www.w3.org/2000/svg"
   xmlns="http://www.w3.org/2000/svg"
   xmlns:sodipodi="http://sodipodi.sourceforge.net/DTD/sodipodi-0.dtd"
   xmlns:inkscape="http://www.inkscape.org/namespaces/inkscape"
   width="242.61316"
   height="236.13254"
   id="svg4576"
   version="1.1"
   inkscape:version="0.48.2 r9819"
   sodipodi:docname="Nuevo documento 9">
  <defs
     id="defs4578" />
  <sodipodi:namedview
     id="base"
     pagecolor="#ffffff"
     bordercolor="#666666"
     borderopacity="1.0"
     inkscape:pageopacity="0.0"
     inkscape:pageshadow="2"
     inkscape:zoom="1.9793866"
     inkscape:cx="207.27501"
     inkscape:cy="95.966459"
     inkscape:document-units="px"
     inkscape:current-layer="layer1"
     showgrid="false"
     fit-margin-top="10"
     fit-margin-left="10"
     fit-margin-right="10"
     fit-margin-bottom="10"
     inkscape:window-width="1152"
     inkscape:window-height="840"
     inkscape:window-x="0"
     inkscape:window-y="24"
     inkscape:window-maximized="1" />
  <metadata
     id="metadata4581">
    <rdf:RDF>
      <cc:Work
         rdf:about="">
        <dc:format>image/svg+xml</dc:format>
        <dc:type
           rdf:resource="http://purl.org/dc/dcmitype/StillImage" />
        <dc:title></dc:title>
      </cc:Work>
    </rdf:RDF>
  </metadata>
  <g
     inkscape:label="Capa 1"
     inkscape:groupmode="layer"
     id="layer1"
     transform="translate(-131.86034,-205.31267)">
    <g
       id="g4247"
       transform="matrix(0.56618264,0,0,0.56618264,-249.37464,373.40936)">
      <path
         id="path3708"
         d="m 1002.1562,-71.15625 c -7.03794,46.14929 -46.88655,81.53125 -94.99995,81.53125 -12.0134,0 -23.52543,-2.22295 -34.125,-6.25 l -40.15625,69.5 c 22.56427,10.53792 47.73166,16.4375 74.28125,16.4375 12.49701,0 24.67896,-1.301859 36.4375,-3.78125 -3.99208,-7.511386 -6.28125,-16.05678 -6.28125,-25.15625 0,-29.676672 24.07333,-53.75 53.75,-53.75 19.3454,0 36.3189,10.224065 45.7813,25.5625 25.5529,-27.9162705 42.2137,-64.110325 45.5,-104.09375 l -80.1876,0 z"
         style="fill:#c90016;fill-opacity:1;stroke:#808080;stroke-width:2;stroke-miterlimit:4;stroke-dasharray:none"
         inkscape:connector-curvature="0" />
      <path
         id="path3710"
         d="m 908.03125,-256.71875 c -27.46733,0 -53.46887,6.26661 -76.625,17.5 l 40.03125,69.40625 c 11.27741,-4.64949 23.63685,-7.21875 36.59375,-7.21875 47.6448,0 87.1808,34.66668 94.78125,80.15625 l 80.2813,0 c -3.6649,-40.68239 -21.1949,-77.37632 -47.8126,-105.3125 -9.844,11.10304 -24.2132,18.09375 -40.2187,18.09375 -29.67667,0 -53.75,-24.04208 -53.75,-53.71875 0,-5.32383 0.80799,-10.45679 2.25,-15.3125 -11.48074,-2.35817 -23.35203,-3.59375 -35.53125,-3.59375 z"
         style="fill:#ff9050;fill-opacity:1;stroke:#808080;stroke-width:2;stroke-miterlimit:4;stroke-dasharray:none"
         inkscape:connector-curvature="0" />
      <path
         id="path3712"
         d="m 807.1875,-225.78125 c -28.489,20.58909 -50.56905,49.51222 -62.65625,83.1875 23.83026,5.50259 41.59375,26.8103 41.59375,52.3125 0,26.980722 -19.86703,49.320675 -45.78125,53.15625 10.8882,40.2518351 35.70108,74.766983 68.96875,98.0625 L 849.46875,-8.59375 C 827.79614,-26.21913 813.9375,-53.07242 813.9375,-83.1875 c 0,-29.14586 12.95616,-55.27738 33.4375,-72.90625 l -40.1875,-69.6875 z"
         style="fill:#ffb515;fill-opacity:1;stroke:#808080;stroke-width:2;stroke-miterlimit:4;stroke-dasharray:none"
         inkscape:connector-curvature="0" />
      <path
         transform="translate(200.07111,-460.67017)"
         d="m 835.39615,222.85577 c 0,22.31568 -18.09043,40.40611 -40.4061,40.40611 -22.31567,0 -40.4061,-18.09043 -40.4061,-40.40611 0,-22.31567 18.09043,-40.4061 40.4061,-40.4061 22.31567,0 40.4061,18.09043 40.4061,40.4061 z"
         sodipodi:ry="40.406101"
         sodipodi:rx="40.406101"
         sodipodi:cy="222.85577"
         sodipodi:cx="794.99005"
         id="path3746"
         style="fill:#c90016;fill-opacity:1;stroke:#808080;stroke-width:2;stroke-miterlimit:4;stroke-dasharray:none"
         sodipodi:type="arc" />
      <path
         sodipodi:type="arc"
         style="fill:#ff9050;fill-opacity:1;stroke:#808080;stroke-width:2;stroke-miterlimit:4;stroke-dasharray:none"
         id="path3748"
         sodipodi:cx="794.99005"
         sodipodi:cy="222.85577"
         sodipodi:rx="40.406101"
         sodipodi:ry="40.406101"
         d="m 835.39615,222.85577 c 0,22.31568 -18.09043,40.40611 -40.4061,40.40611 -22.31567,0 -40.4061,-18.09043 -40.4061,-40.40611 0,-22.31567 18.09043,-40.4061 40.4061,-40.4061 22.31567,0 40.4061,18.09043 40.4061,40.4061 z"
         transform="translate(-62.588846,-313.12699)" />
      <path
         transform="translate(196.07112,-161.74624)"
         d="m 835.39615,222.85577 c 0,22.31568 -18.09043,40.40611 -40.4061,40.40611 -22.31567,0 -40.4061,-18.09043 -40.4061,-40.40611 0,-22.31567 18.09043,-40.4061 40.4061,-40.4061 22.31567,0 40.4061,18.09043 40.4061,40.4061 z"
         sodipodi:ry="40.406101"
         sodipodi:rx="40.406101"
         sodipodi:cy="222.85577"
         sodipodi:cx="794.99005"
         id="path3750"
         style="fill:#ffb515;fill-opacity:1;stroke:#808080;stroke-width:2;stroke-miterlimit:4;stroke-dasharray:none"
         sodipodi:type="arc" />
    </g>
  </g>
</svg>
