<?xml version="1.0" encoding="UTF-8" standalone="no"?>
<!-- Created with Inkscape (http://www.inkscape.org/) -->
<svg
   xmlns:dc="http://purl.org/dc/elements/1.1/"
   xmlns:cc="http://web.resource.org/cc/"
   xmlns:rdf="http://www.w3.org/1999/02/22-rdf-syntax-ns#"
   xmlns:svg="http://www.w3.org/2000/svg"
   xmlns="http://www.w3.org/2000/svg"
   xmlns:xlink="http://www.w3.org/1999/xlink"
   xmlns:sodipodi="http://inkscape.sourceforge.net/DTD/sodipodi-0.dtd"
   xmlns:inkscape="http://www.inkscape.org/namespaces/inkscape"
   height="102.40000pt"
   id="svg1"
   inkscape:version="0.42"
   sodipodi:docbase="/home/joel/link to Complexity-0.7/scalable/mimetypes"
   sodipodi:docname="file-blender.svg"
   sodipodi:version="0.32"
   width="102.40000pt">
  <metadata
     id="metadata3">
    <rdf:RDF>
      <cc:Work
         rdf:about="">
        <dc:title>Etiquette Icons</dc:title>
        <dc:description />
        <dc:subject>
          <rdf:Bag>
            <rdf:li>hash</rdf:li>
            <rdf:li />
            <rdf:li>filesystem</rdf:li>
            <rdf:li>computer</rdf:li>
            <rdf:li>icons</rdf:li>
            <rdf:li>theme</rdf:li>
          </rdf:Bag>
        </dc:subject>
        <dc:publisher>
          <cc:Agent
             rdf:about="http://www.openclipart.org">
            <dc:title>Andy Fitzsimon</dc:title>
          </cc:Agent>
        </dc:publisher>
        <dc:creator>
          <cc:Agent>
            <dc:title>Andy Fitzsimon</dc:title>
          </cc:Agent>
        </dc:creator>
        <dc:rights>
          <cc:Agent>
            <dc:title>Andy Fitzsimon</dc:title>
          </cc:Agent>
        </dc:rights>
        <dc:date />
        <dc:format>image/svg+xml</dc:format>
        <dc:type
           rdf:resource="http://purl.org/dc/dcmitype/StillImage" />
        <cc:license
           rdf:resource="http://web.resource.org/cc/PublicDomain" />
        <dc:language>en</dc:language>
        <dc:contributor>
          <cc:Agent>
            <dc:title>Joel Montes de Oca</dc:title>
          </cc:Agent>
        </dc:contributor>
      </cc:Work>
      <cc:License
         rdf:about="http://web.resource.org/cc/PublicDomain">
        <cc:permits
           rdf:resource="http://web.resource.org/cc/Reproduction" />
        <cc:permits
           rdf:resource="http://web.resource.org/cc/Distribution" />
        <cc:permits
           rdf:resource="http://web.resource.org/cc/DerivativeWorks" />
      </cc:License>
    </rdf:RDF>
  </metadata>
  <defs
     id="defs3">
    <linearGradient
       id="linearGradient1507">
      <stop
         id="stop1508"
         offset="0.0000000"
         style="stop-color:#000000;stop-opacity:0.095505618;" />
      <stop
         id="stop1510"
         offset="1.0000000"
         style="stop-color:#000000;stop-opacity:0.0000000;" />
    </linearGradient>
    <linearGradient
       id="linearGradient852"
       xlink:href="#linearGradient1507" />
    <linearGradient
       id="linearGradient844"
       xlink:href="#linearGradient1507" />
    <linearGradient
       id="linearGradient845"
       x1="1.3833333"
       x2="0.10833333"
       xlink:href="#linearGradient841"
       y1="0.49019608"
       y2="0.50490195" />
    <linearGradient
       id="linearGradient840"
       x1="-0.22348484"
       x2="0.59469700"
       xlink:href="#linearGradient853"
       y1="0.38235295"
       y2="0.46568626" />
    <linearGradient
       id="linearGradient849"
       x1="0.010563380"
       x2="1.2288733"
       xlink:href="#linearGradient846"
       y1="0.43229166"
       y2="0.46354166" />
    <radialGradient
       cx="0.50000000"
       cy="0.50000000"
       fx="0.50000000"
       fy="0.14942528"
       id="radialGradient864"
       r="0.50000000"
       xlink:href="#linearGradient853" />
    <linearGradient
       id="linearGradient841">
      <stop
         id="stop842"
         offset="0.00000000"
         style="stop-color:#ffffff;stop-opacity:1.0000000;" />
      <stop
         id="stop843"
         offset="1.0000000"
         style="stop-color:#ffffff;stop-opacity:0.00000000;" />
    </linearGradient>
    <linearGradient
       id="linearGradient1290">
      <stop
         id="stop1291"
         offset="0.0000000"
         style="stop-color:#b2a269;stop-opacity:1.0000000;" />
      <stop
         id="stop1292"
         offset="1.0000000"
         style="stop-color:#6d5b18;stop-opacity:1.0000000;" />
    </linearGradient>
    <linearGradient
       id="linearGradient860"
       x1="0.47535211"
       x2="0.50000000"
       xlink:href="#linearGradient1290"
       y1="0.81081080"
       y2="-0.74324322" />
    <linearGradient
       id="linearGradient851"
       x1="0.39788732"
       x2="0.80985916"
       xlink:href="#linearGradient846"
       y1="0.32222223"
       y2="0.35555556" />
    <linearGradient
       id="linearGradient858"
       x1="0.64285713"
       x2="0.57142860"
       xlink:href="#linearGradient846"
       y1="1.2647059"
       y2="0.049019609" />
    <linearGradient
       id="linearGradient846">
      <stop
         id="stop847"
         offset="0.00000000"
         style="stop-color:#e7e7e7;stop-opacity:1.0000000;" />
      <stop
         id="stop848"
         offset="1.0000000"
         style="stop-color:#a5a5a5;stop-opacity:1.0000000;" />
    </linearGradient>
    <linearGradient
       id="linearGradient850"
       xlink:href="#linearGradient846" />
    <linearGradient
       id="linearGradient859"
       x1="1.4647887"
       x2="0.26408452"
       xlink:href="#linearGradient853"
       y1="-1.1486486"
       y2="1.2905406" />
    <linearGradient
       id="linearGradient853">
      <stop
         id="stop854"
         offset="0.00000000"
         style="stop-color:#000000;stop-opacity:0.29752067;" />
      <stop
         id="stop855"
         offset="1.0000000"
         style="stop-color:#000000;stop-opacity:0.00000000;" />
    </linearGradient>
    <radialGradient
       cx="0.50000000"
       cy="0.50000000"
       fx="0.50704223"
       fy="0.29885057"
       id="radialGradient861"
       r="0.50000000"
       xlink:href="#linearGradient853" />
    <linearGradient
       id="linearGradient1501">
      <stop
         id="stop1502"
         offset="0.0000000"
         style="stop-color:#ffffff;stop-opacity:1.0000000;" />
      <stop
         id="stop1504"
         offset="1.0000000"
         style="stop-color:#ffffff;stop-opacity:0.0000000;" />
    </linearGradient>
    <linearGradient
       id="linearGradient1492">
      <stop
         id="stop1493"
         offset="0.0000000"
         style="stop-color:#cbcbcb;stop-opacity:1.0000000;" />
      <stop
         id="stop1496"
         offset="0.34923077"
         style="stop-color:#f0f0f0;stop-opacity:1.0000000;" />
      <stop
         id="stop1494"
         offset="1.0000000"
         style="stop-color:#e2e2e2;stop-opacity:1.0000000;" />
    </linearGradient>
    <linearGradient
       id="linearGradient1495"
       x1="749.24924"
       x2="380.10222"
       xlink:href="#linearGradient1492"
       y1="207.82652"
       y2="686.15207"
       gradientTransform="scale(0.955425,1.046655)"
       gradientUnits="userSpaceOnUse" />
    <linearGradient
       id="linearGradient1497"
       x1="741.63899"
       x2="622.33327"
       xlink:href="#linearGradient1492"
       y1="169.44361"
       y2="287.73826"
       gradientTransform="scale(0.955293,1.046800)"
       gradientUnits="userSpaceOnUse" />
    <linearGradient
       id="linearGradient1499"
       x1="687.96373"
       x2="330.88033"
       xlink:href="#linearGradient1501"
       y1="236.12772"
       y2="418.53634"
       gradientTransform="scale(0.989009,1.011113)"
       gradientUnits="userSpaceOnUse" />
    <linearGradient
       id="linearGradient1506"
       x1="0.052173913"
       x2="0.78260869"
       xlink:href="#linearGradient1507"
       y1="0.97656250"
       y2="0.0078125000" />
    <linearGradient
       id="linearGradient1556"
       x1="0.31111112"
       x2="0.62222224"
       xlink:href="#linearGradient1507"
       y1="-0.56250000"
       y2="0.79687500" />
    <radialGradient
       cx="0.50000000"
       cy="0.89285713"
       fx="0.54117650"
       fy="3.5200000"
       id="radialGradient856"
       r="0.54606670"
       xlink:href="#linearGradient841" />
    <linearGradient
       id="linearGradient1944"
       xlink:href="#linearGradient841" />
    <linearGradient
       gradientUnits="userSpaceOnUse"
       gradientTransform="scale(1.035098,0.966092)"
       y2="27.030501"
       x2="28.978825"
       y1="17.903679"
       x1="29.582251"
       id="linearGradient1414"
       xlink:href="#linearGradient1801"
       inkscape:collect="always" />
    <linearGradient
       gradientUnits="userSpaceOnUse"
       gradientTransform="scale(1.394717,0.716992)"
       y2="141.04336"
       x2="74.899377"
       y1="189.36112"
       x1="70.122829"
       id="linearGradient1412"
       xlink:href="#linearGradient1801"
       inkscape:collect="always" />
    <linearGradient
       gradientUnits="userSpaceOnUse"
       gradientTransform="scale(1.113522,0.898051)"
       y2="91.454631"
       x2="91.751471"
       y1="55.811242"
       x1="58.206141"
       id="linearGradient1410"
       xlink:href="#linearGradient1917"
       inkscape:collect="always" />
    <linearGradient
       gradientUnits="userSpaceOnUse"
       gradientTransform="scale(1.035098,0.966092)"
       y2="23.363474"
       x2="28.828124"
       y1="38.276049"
       x1="30.403978"
       id="linearGradient1408"
       xlink:href="#linearGradient1801"
       inkscape:collect="always" />
    <linearGradient
       gradientUnits="userSpaceOnUse"
       gradientTransform="scale(1.078444,0.927262)"
       y2="75.618079"
       x2="117.90718"
       y1="51.068406"
       x1="26.813185"
       id="linearGradient1406"
       xlink:href="#linearGradient1823"
       inkscape:collect="always" />
    <linearGradient
       y2="139.35296"
       x2="149.72375"
       y1="372.67654"
       x1="189.67954"
       gradientTransform="scale(1.082128,0.924105)"
       gradientUnits="userSpaceOnUse"
       id="linearGradient1404"
       xlink:href="#linearGradient1792"
       inkscape:collect="always" />
    <linearGradient
       y2="139.35296"
       x2="149.72375"
       y1="372.67654"
       x1="189.67954"
       gradientTransform="scale(1.082128,0.924105)"
       gradientUnits="userSpaceOnUse"
       id="linearGradient1402"
       xlink:href="#linearGradient1792"
       inkscape:collect="always" />
    <linearGradient
       gradientUnits="userSpaceOnUse"
       gradientTransform="scale(1.088916,0.918345)"
       y2="140.76491"
       x2="148.13152"
       y1="358.67594"
       x1="185.44797"
       id="linearGradient1400"
       xlink:href="#linearGradient1792"
       inkscape:collect="always" />
    <linearGradient
       gradientUnits="userSpaceOnUse"
       gradientTransform="scale(1.082128,0.924105)"
       y2="139.35296"
       x2="149.72375"
       y1="372.67654"
       x1="189.67954"
       id="linearGradient1398"
       xlink:href="#linearGradient1792"
       inkscape:collect="always" />
    <linearGradient
       xlink:href="#linearGradient1792"
       id="linearGradient1996" />
    <radialGradient
       xlink:href="#linearGradient1801"
       r="0.50000000"
       id="radialGradient1961"
       fy="0.50000000"
       fx="0.50000000"
       cy="0.50000000"
       cx="0.50000000" />
    <radialGradient
       xlink:href="#linearGradient1792"
       r="0.50000000"
       id="radialGradient1950"
       fy="0.19298245"
       fx="0.67944252"
       cy="0.50000000"
       cx="0.50000000" />
    <linearGradient
       y2="0.26562500"
       y1="1.0781250"
       xlink:href="#linearGradient1801"
       x2="0.56626505"
       x1="0.48594376"
       id="linearGradient1850" />
    <linearGradient
       y2="0.66406250"
       y1="-0.21093750"
       xlink:href="#linearGradient1801"
       x2="0.61157024"
       x1="0.66942149"
       id="linearGradient1849" />
    <linearGradient
       y2="0.46428570"
       y1="2.5803571"
       xlink:href="#linearGradient1792"
       x2="0.60975611"
       x1="0.97212541"
       id="linearGradient1838" />
    <linearGradient
       y2="0.31250000"
       y1="1.7421875"
       xlink:href="#linearGradient1801"
       x2="0.59712231"
       x1="0.74820143"
       id="linearGradient1837" />
    <linearGradient
       y2="0.56060606"
       y1="0.28030303"
       xlink:href="#linearGradient1917"
       x2="0.64417177"
       x1="0.38036808"
       id="linearGradient1836" />
    <linearGradient
       y2="0.41666666"
       y1="0.20454545"
       xlink:href="#linearGradient1823"
       x2="0.85806453"
       x1="0.070967741"
       id="linearGradient1806" />
    <linearGradient
       y2="0.32031250"
       y1="1.3671875"
       xlink:href="#linearGradient1801"
       x2="0.38323355"
       x1="0.90419161"
       id="linearGradient1800" />
    <radialGradient
       xlink:href="#linearGradient1792"
       r="0.50000000"
       id="radialGradient1797"
       fy="0.14062500"
       fx="0.52582157"
       cy="0.50000000"
       cx="0.50000000" />
    <radialGradient
       xlink:href="#linearGradient1938"
       r="0.50000000"
       id="radialGradient1791"
       fy="0.47656250"
       fx="0.53543305"
       cy="0.50000000"
       cx="0.50000000" />
    <pattern
       width="48.000000"
       id="pattern1768"
       height="48.000000">
      <image
         xlink:href="/usr/share/icons/hicolor/48x48/apps/blender.png"
         width="48.000000"
         sodipodi:absref="/usr/share/icons/hicolor/48x48/apps/blender.png"
         id="image1769"
         height="48.000000" />
    </pattern>
    <linearGradient
       id="linearGradient1788">
      <stop
         style="stop-color:#000;stop-opacity:1;"
         offset="0"
         id="stop1789" />
      <stop
         style="stop-color:#fff;stop-opacity:1;"
         offset="1"
         id="stop1790" />
    </linearGradient>
    <linearGradient
       id="linearGradient1792">
      <stop
         style="stop-color:#000000;stop-opacity:0.42937854;"
         offset="0.0000000"
         id="stop1793" />
      <stop
         style="stop-color:#000000;stop-opacity:0.12429378;"
         offset="0.63222224"
         id="stop1795" />
      <stop
         style="stop-color:#000000;stop-opacity:0.0000000;"
         offset="1.0000000"
         id="stop1794" />
    </linearGradient>
    <linearGradient
       id="linearGradient1801">
      <stop
         style="stop-color:#eed680;stop-opacity:1.0000000;"
         offset="0.0000000"
         id="stop1802" />
      <stop
         style="stop-color:#ffffff;stop-opacity:0.12156863;"
         offset="0.63222224"
         id="stop1803" />
      <stop
         style="stop-color:#ffffff;stop-opacity:0.0000000;"
         offset="1.0000000"
         id="stop1804" />
    </linearGradient>
    <linearGradient
       id="linearGradient1823">
      <stop
         style="stop-color:#2f2102;stop-opacity:1.0000000;"
         offset="0.0000000"
         id="stop1824" />
      <stop
         style="stop-color:#9e7009;stop-opacity:1.0000000;"
         offset="0.63676596"
         id="stop1839" />
      <stop
         style="stop-color:#c3af69;stop-opacity:1.0000000;"
         offset="0.77646512"
         id="stop1835" />
      <stop
         style="stop-color:#d1940c;stop-opacity:1.0000000;"
         offset="0.87692505"
         id="stop3352" />
      <stop
         style="stop-color:#644705;stop-opacity:1.0000000;"
         offset="1.0000000"
         id="stop1825" />
    </linearGradient>
    <linearGradient
       id="linearGradient1913">
      <stop
         style="stop-color:#ffffff;stop-opacity:0.67796612;"
         offset="0.0000000"
         id="stop1914" />
      <stop
         style="stop-color:#ffffff;stop-opacity:0.12156863;"
         offset="0.63222224"
         id="stop1915" />
      <stop
         style="stop-color:#ffffff;stop-opacity:0.0000000;"
         offset="1.0000000"
         id="stop1916" />
    </linearGradient>
    <linearGradient
       id="linearGradient1917">
      <stop
         style="stop-color:#ffffff;stop-opacity:0.015686275;"
         offset="0.0000000"
         id="stop1918" />
      <stop
         style="stop-color:#eed680;stop-opacity:0.49484536;"
         offset="0.94999999"
         id="stop1919" />
      <stop
         style="stop-color:#ffffff;stop-opacity:0.0000000;"
         offset="1.0000000"
         id="stop1920" />
    </linearGradient>
    <linearGradient
       id="linearGradient1921">
      <stop
         style="stop-color:#583500;stop-opacity:1.0000000;"
         offset="0.0000000"
         id="stop1922" />
      <stop
         style="stop-color:#c37000;stop-opacity:1.0000000;"
         offset="0.36920634"
         id="stop1923" />
      <stop
         style="stop-color:#eab156;stop-opacity:1.0000000;"
         offset="0.75000000"
         id="stop1925" />
      <stop
         style="stop-color:#b17417;stop-opacity:1.0000000;"
         offset="1.0000000"
         id="stop1926" />
    </linearGradient>
    <linearGradient
       id="linearGradient1938">
      <stop
         style="stop-color:#ffffff;stop-opacity:1.0000000;"
         offset="0.0000000"
         id="stop1939" />
      <stop
         style="stop-color:#ffffff;stop-opacity:0.75141245;"
         offset="0.73333335"
         id="stop1940" />
      <stop
         style="stop-color:#ffffff;stop-opacity:0.0000000;"
         offset="0.86666667"
         id="stop1942" />
      <stop
         style="stop-color:#ffffff;stop-opacity:0.0000000;"
         offset="1.0000000"
         id="stop1941" />
    </linearGradient>
  </defs>
  <sodipodi:namedview
     bordercolor="#666666"
     borderopacity="1.0"
     id="base"
     inkscape:cx="96.142541"
     inkscape:cy="59.971329"
     inkscape:pageopacity="0.0"
     inkscape:pageshadow="2"
     inkscape:window-height="513"
     inkscape:window-width="753"
     inkscape:window-x="323"
     inkscape:window-y="53"
     inkscape:zoom="1.9472329"
     pagecolor="#ffffff"
     inkscape:current-layer="svg1" />
  <g
     id="g1694"
     transform="matrix(0.764672,0.000000,0.000000,0.832601,2.793871,-3.567802)">
    <path
       d="M 17.159384,6.3292894 L 17.159384,43.068526 L 17.159384,79.807768 L 17.159384,116.54700 L 17.159384,153.28624 L 50.687024,153.28624 L 84.214664,153.28624 L 117.74230,153.28624 L 151.26994,153.28624 L 151.26994,116.54700 L 151.26994,79.807768 L 151.26994,43.068526 L 117.74230,6.3292894 L 84.214664,6.3292894 L 50.687024,6.3292894 L 17.159384,6.3292894 z "
       id="path930"
       sodipodi:nodetypes="cccccccccccccccc"
       style="fill:#ffffff;fill-rule:evenodd;stroke-width:0.42649043;stroke-opacity:0.36477986" />
    <g
       id="g1552"
       style="fill:#000000;fill-opacity:0.069182344"
       transform="matrix(0.304171,0.000000,0.000000,0.297572,-36.70399,-112.4880)">
      <path
         d="M 173.35959,408.81260 L 173.35959,531.07360 L 173.35959,653.33460 L 173.35959,775.59560 L 173.35959,897.85660 L 282.12187,897.85660 L 390.88417,897.85660 L 499.64646,897.85660 L 608.40874,897.85660 L 608.40874,775.59560 L 608.40874,653.33460 L 608.40874,531.07360 L 499.64646,408.81260 L 390.88417,408.81260 L 282.12187,408.81260 L 173.35959,408.81260 z "
         id="path1505"
         sodipodi:nodetypes="cccccccccccccccc"
         style="fill:#000000;fill-opacity:0.069182344;fill-rule:evenodd;stroke-width:0.95407495pt" />
      <path
         d="M 170.12500,407.18750 C 170.12500,571.82292 170.12500,736.45833 170.12500,901.09375 C 317.30208,901.09375 464.47917,901.09375 611.65625,901.09375 C 611.65625,777.33333 611.65625,653.57292 611.65625,529.81250 C 574.80918,488.38978 537.97604,446.95335 501.09375,405.56250 C 390.77083,405.56250 280.44792,405.56250 170.12500,405.56250 C 170.12500,405.89583 170.12500,406.97917 170.12500,407.18750 z "
         id="path1538"
         style="fill:#000000;fill-opacity:0.069182344;fill-rule:evenodd;stroke-width:0.95407495pt" />
      <path
         d="M 166.87500,403.93750 C 166.87500,570.73958 166.87500,737.54167 166.87500,904.34375 C 316.21875,904.34375 465.56250,904.34375 614.90625,904.34375 C 614.90625,779.08333 614.90625,653.82292 614.90625,528.56250 C 577.45517,486.47298 540.01754,444.37017 502.53125,402.31250 C 390.64583,402.31250 278.76042,402.31250 166.87500,402.31250 C 166.87500,402.64583 166.87500,403.72917 166.87500,403.93750 z "
         id="path1543"
         style="fill:#000000;fill-opacity:0.069182344;fill-rule:evenodd;stroke-width:0.95407495pt" />
    </g>
    <path
       d="M 297.99034,136.74154 L 297.99034,260.57234 L 297.99034,384.40315 L 297.99034,508.23395 L 297.99034,632.06475 L 410.99634,632.06475 L 524.00235,632.06475 L 637.00835,632.06475 L 750.01435,632.06475 L 750.01435,508.23395 L 750.01435,384.40315 L 750.01435,260.57234 L 637.00835,136.74154 L 524.00235,136.74154 L 410.99634,136.74154 L 297.99034,136.74154 z "
       id="rect900"
       sodipodi:nodetypes="cccccccccccccccc"
       style="fill:url(#linearGradient1495);fill-opacity:1.0000000;fill-rule:evenodd;stroke:#000000;stroke-width:1.4375000;stroke-opacity:0.36477986"
       transform="matrix(0.296689,0.000000,0.000000,0.296689,-71.19601,-34.05825)" />
    <path
       d="M 750.01435,260.57234 C 715.94460,250.48602 671.79788,251.91624 638.44792,257.66516 C 644.20618,220.71628 644.92597,174.41021 637.00835,136.74154 L 750.01435,260.57234 z "
       id="path906"
       sodipodi:nodetypes="cccc"
       style="fill:url(#linearGradient1497);fill-opacity:1.0000000;fill-rule:evenodd;stroke-width:0.95407495pt"
       transform="matrix(0.296689,0.000000,0.000000,0.296689,-71.19601,-34.05825)" />
    <path
       d="M 301.30655,174.90867 L 299.27069,628.90434 L 743.08709,628.90434 L 743.34157,516.67783 C 733.41677,520.49506 633.15091,378.49417 506.92790,384.60173 C 380.59029,390.71484 413.27857,193.23136 301.30655,174.90867 z "
       id="path1500"
       sodipodi:nodetypes="cccczc"
       style="fill:url(#linearGradient1499);fill-opacity:1.0000000;fill-rule:evenodd;stroke-width:1.0000000pt"
       transform="matrix(0.296689,0.000000,0.000000,0.296689,-71.19601,-34.05825)" />
  </g>
  <g
     transform="matrix(0.598652,0.000000,0.000000,0.641106,16.03915,16.22026)"
     id="g1380">
    <g
       id="g1992"
       style="fill:url(#linearGradient1398);fill-opacity:1.0000000"
       transform="matrix(1.311675,0.000000,0.000000,0.709207,-115.1672,19.64326)">
      <path
         d="M 147.58981,85.393502 C 143.69938,85.710142 140.42533,88.004692 138.74606,91.237252 C 137.06680,94.469812 137.49116,99.087862 140.80856,102.11225 L 140.87106,102.17475 L 140.90231,102.20600 C 142.11562,103.21045 143.37072,104.24488 144.58981,105.26850 C 134.31041,105.59129 123.92974,105.74631 113.55856,106.48725 L 113.52731,106.48725 L 113.46481,106.48725 C 110.79051,106.77768 108.52658,108.37980 107.40231,110.39350 C 106.27805,112.40720 106.06637,114.64162 106.40231,116.73725 C 106.73826,118.83288 107.62130,120.87056 109.15231,122.48725 C 110.63086,124.04854 112.91443,125.11747 115.40231,124.98725 L 115.40231,125.01850 C 115.48541,125.01850 115.56920,125.01850 115.65231,125.01850 C 117.87567,125.01850 120.10817,125.01850 122.33981,125.01850 C 113.95967,131.43043 105.59618,137.82456 97.214807,144.23725 L 97.152307,144.29975 L 97.121057,144.33100 C 92.211572,148.40692 92.014680,154.87573 94.464807,159.26850 C 95.689877,161.46488 97.519617,163.29280 99.871057,164.33100 C 102.22251,165.36920 105.15670,165.48365 107.80856,164.20600 C 114.51658,161.22300 117.99438,155.18304 122.05856,151.83100 L 122.02731,151.79975 C 122.84797,151.24164 123.46667,150.65435 123.96481,150.08100 C 126.94530,158.79617 132.36854,166.96344 140.40231,171.89350 C 140.42200,171.90774 140.44512,171.91055 140.46481,171.92475 C 140.52240,171.95992 140.56322,172.01491 140.62106,172.04975 L 140.62106,172.01850 C 159.47718,185.49914 180.50101,180.14662 193.05856,168.01850 C 199.36105,161.93153 203.70530,154.14024 204.80856,146.01850 C 205.88400,138.10155 203.58794,129.83387 197.18356,123.26850 C 197.05523,123.07046 196.87771,122.93128 196.74606,122.73725 C 191.51827,115.03248 183.78555,110.39194 177.77731,105.23725 L 177.71481,105.17475 L 177.62106,105.11225 C 170.32660,99.584262 163.17843,93.379302 155.43356,87.987252 C 155.36677,87.940752 155.31294,87.877382 155.24606,87.831002 L 155.21481,87.862252 C 152.88703,86.054952 150.15439,85.184772 147.58981,85.393502 z M 163.30856,122.01850 C 173.25827,122.01851 181.40232,129.81461 181.40231,139.39350 C 181.40232,148.97238 173.27357,156.67476 163.30856,156.67475 C 153.34356,156.67475 145.21481,148.97237 145.21481,139.39350 C 145.21481,129.81462 153.35887,122.01849 163.30856,122.01850 z "
         id="path1993"
         sodipodi:nodetypes="ccccccccccccccccccccccccccccccccccccccccccccc"
         style="fill:url(#linearGradient1400);fill-rule:evenodd;stroke-width:6.1802764" />
      <path
         d="M 147.28125,83.718750 C 138.77498,83.971439 132.61914,95.345512 138.50839,102.02456 C 142.29053,105.03366 134.59459,103.35730 132.87818,103.96059 C 125.49758,104.22540 117.97684,104.47542 110.73247,105.65871 C 101.91452,108.95364 103.18083,123.41195 111.96312,125.95904 C 115.39859,126.79179 119.16407,126.20061 114.14212,129.07384 C 107.25175,134.33779 100.30963,139.64223 93.967792,145.51428 C 87.498011,153.16411 93.888347,167.33304 104.12939,166.61772 C 112.41753,165.66668 117.68461,158.35176 123.37500,153.06250 C 131.04494,173.35836 155.26482,186.41552 176.25779,179.57282 C 191.91317,174.96595 205.37219,160.84141 206.53125,144.15625 C 207.20346,135.74212 203.59694,127.73271 198.05691,121.57467 C 189.73796,111.69410 178.80437,104.46493 168.98611,96.182439 C 163.04486,92.328456 158.13910,86.599916 151.34375,84.281250 C 149.99425,84.113046 148.61655,83.836176 147.28125,83.718750 z M 163.40625,123.71875 C 173.99589,123.47089 183.38603,135.86957 178.06007,145.67679 C 173.50372,156.12981 157.55798,157.88226 150.52664,149.02664 C 144.50947,141.90169 146.80555,129.21147 155.89788,125.79616 C 158.10311,124.23146 160.87092,124.32467 163.40625,123.71875 z "
         id="path1994"
         style="fill:url(#linearGradient1402);fill-rule:evenodd;stroke-width:6.1802764" />
      <path
         d="M 146.78125,81.468750 C 137.72331,82.239743 130.93066,93.516705 135.75000,101.56250 C 126.77452,101.97934 117.76360,102.73009 108.90625,104.03125 C 99.675870,108.92140 101.09748,124.74410 111.05685,127.89165 C 111.70916,129.46266 106.83065,131.18464 105.48172,132.99999 C 100.30380,137.11010 95.043823,141.49126 90.873582,146.53207 C 85.644018,156.03495 93.904220,169.90336 105.03125,168.75000 C 112.31173,167.29482 117.46577,161.58731 122.75000,156.78125 C 129.17208,170.17093 142.24919,180.05653 156.84740,182.66277 C 171.39979,185.41028 186.98088,179.90273 197.07845,169.12507 C 205.51758,160.52130 210.37880,147.83231 207.96455,135.82199 C 205.39946,124.73341 196.60837,116.49715 188.38917,109.21126 C 176.91547,99.693357 165.76945,89.369504 152.46875,82.500000 C 150.62357,81.795403 148.73340,81.509992 146.78125,81.468750 z M 163.50000,126.18750 C 173.34432,125.74963 181.28705,138.96286 174.33170,146.79633 C 168.40269,155.42860 152.42858,153.27224 150.05814,142.66029 C 147.63382,134.72399 154.66796,126.25239 162.80246,126.27725 C 163.04456,126.37696 163.26307,126.15770 163.50000,126.18750 z "
         id="path1995"
         style="fill:url(#linearGradient1404);fill-rule:evenodd;stroke-width:6.1802764" />
    </g>
    <g
       id="g1988"
       style="fill:#ffffff;fill-opacity:0.27748689"
       transform="matrix(1.311675,0.000000,0.000000,1.311675,-114.2733,-93.32205)">
      <path
         d="M 147.58981,85.393502 C 143.69938,85.710142 140.42533,88.004692 138.74606,91.237252 C 137.06680,94.469812 137.49116,99.087862 140.80856,102.11225 L 140.87106,102.17475 L 140.90231,102.20600 C 142.11562,103.21045 143.37072,104.24488 144.58981,105.26850 C 134.31041,105.59129 123.92974,105.74631 113.55856,106.48725 L 113.52731,106.48725 L 113.46481,106.48725 C 110.79051,106.77768 108.52658,108.37980 107.40231,110.39350 C 106.27805,112.40720 106.06637,114.64162 106.40231,116.73725 C 106.73826,118.83288 107.62130,120.87056 109.15231,122.48725 C 110.63086,124.04854 112.91443,125.11747 115.40231,124.98725 L 115.40231,125.01850 C 115.48541,125.01850 115.56920,125.01850 115.65231,125.01850 C 117.87567,125.01850 120.10817,125.01850 122.33981,125.01850 C 113.95967,131.43043 105.59618,137.82456 97.214807,144.23725 L 97.152307,144.29975 L 97.121057,144.33100 C 92.211572,148.40692 92.014680,154.87573 94.464807,159.26850 C 95.689877,161.46488 97.519617,163.29280 99.871057,164.33100 C 102.22251,165.36920 105.15670,165.48365 107.80856,164.20600 C 114.51658,161.22300 117.99438,155.18304 122.05856,151.83100 L 122.02731,151.79975 C 122.84797,151.24164 123.46667,150.65435 123.96481,150.08100 C 126.94530,158.79617 132.36854,166.96344 140.40231,171.89350 C 140.42200,171.90774 140.44512,171.91055 140.46481,171.92475 C 140.52240,171.95992 140.56322,172.01491 140.62106,172.04975 L 140.62106,172.01850 C 159.47718,185.49914 180.50101,180.14662 193.05856,168.01850 C 199.36105,161.93153 203.70530,154.14024 204.80856,146.01850 C 205.88400,138.10155 203.58794,129.83387 197.18356,123.26850 C 197.05523,123.07046 196.87771,122.93128 196.74606,122.73725 C 191.51827,115.03248 183.78555,110.39194 177.77731,105.23725 L 177.71481,105.17475 L 177.62106,105.11225 C 170.32660,99.584262 163.17843,93.379302 155.43356,87.987252 C 155.36677,87.940752 155.31294,87.877382 155.24606,87.831002 L 155.21481,87.862252 C 152.88703,86.054952 150.15439,85.184772 147.58981,85.393502 z M 163.30856,122.01850 C 173.25827,122.01851 181.40232,129.81461 181.40231,139.39350 C 181.40232,148.97238 173.27357,156.67476 163.30856,156.67475 C 153.34356,156.67475 145.21481,148.97237 145.21481,139.39350 C 145.21481,129.81462 153.35887,122.01849 163.30856,122.01850 z "
         id="path1974"
         sodipodi:nodetypes="ccccccccccccccccccccccccccccccccccccccccccccc"
         style="fill-rule:evenodd;stroke-width:6.1802764" />
      <path
         d="M 147.28125,83.718750 C 138.77498,83.971439 132.61914,95.345512 138.50839,102.02456 C 142.29053,105.03366 134.59459,103.35730 132.87818,103.96059 C 125.49758,104.22540 117.97684,104.47542 110.73247,105.65871 C 101.91452,108.95364 103.18083,123.41195 111.96312,125.95904 C 115.39859,126.79179 119.16407,126.20061 114.14212,129.07384 C 107.25175,134.33779 100.30963,139.64223 93.967792,145.51428 C 87.498011,153.16411 93.888347,167.33304 104.12939,166.61772 C 112.41753,165.66668 117.68461,158.35176 123.37500,153.06250 C 131.04494,173.35836 155.26482,186.41552 176.25779,179.57282 C 191.91317,174.96595 205.37219,160.84141 206.53125,144.15625 C 207.20346,135.74212 203.59694,127.73271 198.05691,121.57467 C 189.73796,111.69410 178.80437,104.46493 168.98611,96.182439 C 163.04486,92.328456 158.13910,86.599916 151.34375,84.281250 C 149.99425,84.113046 148.61655,83.836176 147.28125,83.718750 z M 163.40625,123.71875 C 173.99589,123.47089 183.38603,135.86957 178.06007,145.67679 C 173.50372,156.12981 157.55798,157.88226 150.52664,149.02664 C 144.50947,141.90169 146.80555,129.21147 155.89788,125.79616 C 158.10311,124.23146 160.87092,124.32467 163.40625,123.71875 z "
         id="path1979"
         style="fill-rule:evenodd;stroke-width:6.1802764" />
      <path
         d="M 146.78125,81.468750 C 137.72331,82.239743 130.93066,93.516705 135.75000,101.56250 C 126.77452,101.97934 117.76360,102.73009 108.90625,104.03125 C 99.675870,108.92140 101.09748,124.74410 111.05685,127.89165 C 111.70916,129.46266 106.83065,131.18464 105.48172,132.99999 C 100.30380,137.11010 95.043823,141.49126 90.873582,146.53207 C 85.644018,156.03495 93.904220,169.90336 105.03125,168.75000 C 112.31173,167.29482 117.46577,161.58731 122.75000,156.78125 C 129.17208,170.17093 142.24919,180.05653 156.84740,182.66277 C 171.39979,185.41028 186.98088,179.90273 197.07845,169.12507 C 205.51758,160.52130 210.37880,147.83231 207.96455,135.82199 C 205.39946,124.73341 196.60837,116.49715 188.38917,109.21126 C 176.91547,99.693357 165.76945,89.369504 152.46875,82.500000 C 150.62357,81.795403 148.73340,81.509992 146.78125,81.468750 z M 163.50000,126.18750 C 173.34432,125.74963 181.28705,138.96286 174.33170,146.79633 C 168.40269,155.42860 152.42858,153.27224 150.05814,142.66029 C 147.63382,134.72399 154.66796,126.25239 162.80246,126.27725 C 163.04456,126.37696 163.26307,126.15770 163.50000,126.18750 z "
         id="path1987"
         style="fill-rule:evenodd;stroke-width:6.1802764" />
    </g>
    <path
       d="M 80.943504,27.132743 C 76.730959,27.480702 73.185835,30.002167 71.367535,33.554416 C 69.549235,37.106666 70.008732,42.181421 73.600800,45.504910 L 73.668475,45.573591 L 73.702312,45.607932 C 75.016073,46.711720 76.375089,47.848447 77.695119,48.973301 C 66.564626,49.328012 55.324497,49.498368 44.094633,50.312580 L 44.060796,50.312580 L 43.993121,50.312580 C 41.097401,50.631727 38.646022,52.392294 37.428676,54.605143 C 36.211329,56.817992 35.982124,59.273383 36.345881,61.576264 C 36.709637,63.879146 37.665792,66.118340 39.323567,67.894916 C 40.924532,69.610611 43.397169,70.785250 46.091037,70.642156 L 46.091037,70.676497 C 46.181012,70.676497 46.271738,70.676497 46.361736,70.676497 C 48.769171,70.676497 51.186516,70.676497 53.602928,70.676497 C 44.528946,77.722540 35.472999,84.749022 26.397701,91.795904 L 26.330026,91.864585 L 26.296189,91.898926 C 20.980219,96.377939 20.767025,103.48649 23.420014,108.31368 C 24.746509,110.72728 26.727744,112.73596 29.273875,113.87684 C 31.820006,115.01772 34.997139,115.14348 37.868561,113.73948 C 45.131965,110.46147 48.897716,103.82418 53.298392,100.14064 L 53.264554,100.10630 C 54.153156,99.492997 54.823084,98.847627 55.362470,98.217575 C 58.589727,107.79464 64.461988,116.76962 73.160915,122.18724 C 73.182236,122.20289 73.207263,122.20598 73.228589,122.22158 C 73.290941,122.26023 73.335147,122.32066 73.397776,122.35894 L 73.397776,122.32460 C 93.815085,137.13842 116.57960,131.25656 130.17685,117.92902 C 137.00116,111.24007 141.70509,102.67826 142.89970,93.753313 C 144.06418,85.053409 141.57801,75.968091 134.64338,68.753429 C 134.50443,68.535801 134.31221,68.382859 134.16966,68.169640 C 128.50903,59.702904 120.13608,54.603431 113.63039,48.938960 L 113.56272,48.870279 L 113.46120,48.801598 C 105.56280,42.726917 97.822784,35.908310 89.436679,29.983004 C 89.364356,29.931905 89.306073,29.862266 89.233654,29.811302 L 89.199817,29.845642 C 86.679302,27.859604 83.720415,26.903371 80.943504,27.132743 z M 97.963690,67.379809 C 108.73720,67.379818 117.55553,75.946922 117.55552,86.473127 C 117.55553,96.999318 108.75376,105.46343 97.963690,105.46342 C 87.173638,105.46342 78.371866,96.999309 78.371866,86.473127 C 78.371864,75.946932 87.190213,67.379799 97.963690,67.379809 z "
       id="path1965"
       sodipodi:nodetypes="ccccccccccccccccccccccccccccccccccccccccccccc"
       style="fill:url(#linearGradient1406);fill-rule:evenodd;stroke:#ffffff;stroke-width:4.0204902;stroke-miterlimit:4.0000000;stroke-dasharray:none;stroke-opacity:0.43396226"
       transform="matrix(1.193630,0.000000,0.000000,1.193630,-16.62632,-14.04500)" />
    <path
       d="M 76.892598,36.490081 C 71.252753,36.938925 66.854962,43.415633 71.819120,47.840914 C 75.203151,50.580276 78.553293,53.392610 81.966077,56.096065 C 68.685668,56.742878 55.273172,56.635316 42.066177,57.557915 C 34.693802,58.340778 37.085138,70.510244 43.700009,69.940641 C 49.160027,69.940641 54.664308,69.940641 60.124323,69.940641 C 49.091484,78.199389 38.052804,86.450338 27.017725,94.706094 C 19.295932,100.97459 26.973835,112.99622 34.584947,109.41058 C 40.245262,106.94934 43.770786,101.28432 48.515517,97.457811 C 50.653075,96.310230 54.045579,89.780931 54.620889,94.878076 C 57.275231,103.93731 62.913793,112.56827 71.131191,117.40776 C 107.40594,143.05723 149.77049,96.914108 124.70368,72.950332 C 119.88431,65.678135 112.02951,61.106672 105.44166,55.580118 C 97.802596,49.919423 90.459669,43.674509 82.654006,38.381887 C 80.788669,36.903508 78.772547,36.340468 76.892598,36.490081 z M 92.714971,66.930951 C 104.55368,66.930953 114.38475,76.069637 114.38474,87.396846 C 114.38475,98.724047 104.55368,107.77676 92.714971,107.77675 C 80.876265,107.77675 71.045197,98.724039 71.045200,87.396846 C 71.045202,76.069648 80.876265,66.930942 92.714971,66.930951 z "
       id="path1840"
       sodipodi:nodetypes="cccccccccccccccccccc"
       style="fill:#d1940c;fill-opacity:1.0000000;fill-rule:evenodd;stroke-width:0.87500000;stroke-opacity:0.26701567"
       transform="matrix(1.311675,0.000000,0.000000,1.311675,-20.52867,-29.99062)" />
    <path
       d="M 34.189714 24.460691 A 5.3983760 5.0384841 0 1 1  23.392962,24.460691 A 5.3983760 5.0384841 0 1 1  34.189714 24.460691 z"
       id="path1852"
       sodipodi:cx="28.791338"
       sodipodi:cy="24.460691"
       sodipodi:rx="5.3983760"
       sodipodi:ry="5.0384841"
       sodipodi:type="arc"
       style="fill:#314e6c;fill-opacity:1.0000000;fill-rule:evenodd;stroke:#ffffff;stroke-width:0.75154966"
       transform="matrix(4.056295,0.000000,0.000000,4.371275,-15.79083,-19.05101)" />
    <path
       d="M 34.189714 24.460691 A 5.3983760 5.0384841 0 1 1  23.392962,24.460691 A 5.3983760 5.0384841 0 1 1  34.189714 24.460691 z"
       id="path1853"
       sodipodi:cx="28.791338"
       sodipodi:cy="24.460691"
       sodipodi:rx="5.3983760"
       sodipodi:ry="5.0384841"
       sodipodi:type="arc"
       style="fill:#4b6983;fill-opacity:1.0000000;fill-rule:evenodd;stroke-width:1.4483387"
       transform="matrix(3.741346,0.000000,0.000000,3.741346,-5.574873,-6.796556)" />
    <path
       d="M 34.189714 24.460691 A 5.3983760 5.0384841 0 1 1  23.392962,24.460691 A 5.3983760 5.0384841 0 1 1  34.189714 24.460691 z"
       id="path1876"
       sodipodi:cx="28.791338"
       sodipodi:cy="24.460691"
       sodipodi:rx="5.3983760"
       sodipodi:ry="5.0384841"
       sodipodi:type="arc"
       style="fill:url(#linearGradient1408);fill-rule:evenodd;stroke-width:1.4483387"
       transform="matrix(3.741346,0.000000,0.000000,3.741346,-5.996077,-6.778499)" />
    <path
       d="M 80.585962,18.142366 C 73.188319,18.731103 67.419846,27.226439 73.931208,33.030970 C 78.369957,36.624122 82.764253,40.312992 87.240717,43.859045 C 69.821137,44.707453 52.228302,44.566367 34.905017,45.776517 C 25.234857,46.803379 28.371511,62.765763 37.048073,62.018629 C 44.209842,62.018629 51.429670,62.018629 58.591435,62.018629 C 44.119936,72.851422 29.640774,83.673986 15.166338,94.502855 C 5.0378542,102.72508 15.108769,118.49355 25.092074,113.79036 C 32.516567,110.56201 37.140910,103.13135 43.364455,98.112213 C 46.168236,96.606960 50.618099,88.042642 51.372718,94.728439 C 54.854352,106.61121 62.250313,117.93222 73.028869,124.28006 C 113.98945,153.10921 176.17809,97.399052 143.29856,65.966366 C 136.97712,56.427607 126.67417,50.431333 118.03307,43.182290 C 108.01309,35.757299 98.381550,27.566000 88.143057,20.623801 C 85.696341,18.684648 83.051843,17.946122 80.585962,18.142366 z M 101.33977,58.070894 C 116.86831,58.070897 129.76348,70.057880 129.76348,84.915497 C 129.76348,99.773103 116.86831,111.64732 101.33977,111.64731 C 85.811237,111.64731 72.916073,99.773091 72.916077,84.915497 C 72.916079,70.057894 85.811237,58.070882 101.33977,58.070894 z "
       id="path1912"
       sodipodi:nodetypes="cccccccccccccccccccc"
       style="fill:url(#linearGradient1410);fill-rule:evenodd;stroke-width:1.2484038;stroke-opacity:0.43396226" />
    <path
       d="M 138.35768,98.813709 C 146.14618,112.44014 131.39070,129.68563 105.33711,132.19280 C 78.892750,134.73758 57.930408,117.07716 57.498625,102.09401 C 57.073931,87.356690 130.68375,85.387716 138.35768,98.813709 z "
       id="path1855"
       sodipodi:nodetypes="czzz"
       style="fill:url(#linearGradient1412);fill-opacity:1.0000000;fill-rule:evenodd;stroke-width:1.0000000pt" />
    <path
       d="M 34.189714 24.460691 A 5.3983760 5.0384841 0 1 1  23.392962,24.460691 A 5.3983760 5.0384841 0 1 1  34.189714 24.460691 z"
       id="path1854"
       sodipodi:cx="28.791338"
       sodipodi:cy="24.460691"
       sodipodi:rx="5.3983760"
       sodipodi:ry="5.0384841"
       sodipodi:type="arc"
       style="fill:url(#linearGradient1414);fill-rule:evenodd;stroke-width:1.4483387"
       transform="matrix(3.260100,0.000000,0.000000,3.741346,8.072475,-5.905050)" />
  </g>
</svg>
