<?xml version="1.0" encoding="UTF-8" standalone="no"?>
<!-- Created with Inkscape (http://www.inkscape.org/) -->
<svg
   xmlns:dc="http://purl.org/dc/elements/1.1/"
   xmlns:cc="http://web.resource.org/cc/"
   xmlns:rdf="http://www.w3.org/1999/02/22-rdf-syntax-ns#"
   xmlns:svg="http://www.w3.org/2000/svg"
   xmlns="http://www.w3.org/2000/svg"
   xmlns:xlink="http://www.w3.org/1999/xlink"
   xmlns:sodipodi="http://inkscape.sourceforge.net/DTD/sodipodi-0.dtd"
   xmlns:inkscape="http://www.inkscape.org/namespaces/inkscape"
   height="102.40000pt"
   id="svg1"
   inkscape:version="0.42"
   sodipodi:docbase="/home/Joel/.icons/Complexity-0.4/scalable/mimetypes"
   sodipodi:docname="encrypted.svg"
   sodipodi:version="0.32"
   width="102.40000pt">
  <metadata
     id="metadata3">
    <rdf:RDF>
      <cc:Work
         rdf:about="">
        <dc:title>Etiquette Icons</dc:title>
        <dc:description />
        <dc:subject>
          <rdf:Bag>
            <rdf:li>hash</rdf:li>
            <rdf:li />
            <rdf:li>filesystem</rdf:li>
            <rdf:li>computer</rdf:li>
            <rdf:li>icons</rdf:li>
            <rdf:li>theme</rdf:li>
          </rdf:Bag>
        </dc:subject>
        <dc:publisher>
          <cc:Agent
             rdf:about="http://www.openclipart.org">
            <dc:title>Andy Fitzsimon</dc:title>
          </cc:Agent>
        </dc:publisher>
        <dc:creator>
          <cc:Agent>
            <dc:title>Andy Fitzsimon</dc:title>
          </cc:Agent>
        </dc:creator>
        <dc:rights>
          <cc:Agent>
            <dc:title>Andy Fitzsimon</dc:title>
          </cc:Agent>
        </dc:rights>
        <dc:date />
        <dc:format>image/svg+xml</dc:format>
        <dc:type
           rdf:resource="http://purl.org/dc/dcmitype/StillImage" />
        <cc:license
           rdf:resource="http://web.resource.org/cc/PublicDomain" />
        <dc:language>en</dc:language>
        <dc:contributor>
          <cc:Agent>
            <dc:title>Joel Montes de Oca</dc:title>
          </cc:Agent>
        </dc:contributor>
      </cc:Work>
      <cc:License
         rdf:about="http://web.resource.org/cc/PublicDomain">
        <cc:permits
           rdf:resource="http://web.resource.org/cc/Reproduction" />
        <cc:permits
           rdf:resource="http://web.resource.org/cc/Distribution" />
        <cc:permits
           rdf:resource="http://web.resource.org/cc/DerivativeWorks" />
      </cc:License>
    </rdf:RDF>
  </metadata>
  <defs
     id="defs3">
    <linearGradient
       id="linearGradient1507">
      <stop
         id="stop1508"
         offset="0.0000000"
         style="stop-color:#000000;stop-opacity:0.095505618;" />
      <stop
         id="stop1510"
         offset="1.0000000"
         style="stop-color:#000000;stop-opacity:0.0000000;" />
    </linearGradient>
    <linearGradient
       id="linearGradient852"
       xlink:href="#linearGradient1507" />
    <linearGradient
       id="linearGradient844"
       xlink:href="#linearGradient1507" />
    <linearGradient
       id="linearGradient845"
       x1="1.3833333"
       x2="0.10833333"
       xlink:href="#linearGradient841"
       y1="0.49019608"
       y2="0.50490195" />
    <linearGradient
       id="linearGradient840"
       x1="-0.22348484"
       x2="0.59469700"
       xlink:href="#linearGradient853"
       y1="0.38235295"
       y2="0.46568626" />
    <linearGradient
       id="linearGradient849"
       x1="0.010563380"
       x2="1.2288733"
       xlink:href="#linearGradient846"
       y1="0.43229166"
       y2="0.46354166" />
    <radialGradient
       cx="0.50000000"
       cy="0.50000000"
       fx="0.50000000"
       fy="0.14942528"
       id="radialGradient864"
       r="0.50000000"
       xlink:href="#linearGradient853" />
    <linearGradient
       id="linearGradient841">
      <stop
         id="stop842"
         offset="0.00000000"
         style="stop-color:#ffffff;stop-opacity:1.0000000;" />
      <stop
         id="stop843"
         offset="1.0000000"
         style="stop-color:#ffffff;stop-opacity:0.00000000;" />
    </linearGradient>
    <linearGradient
       id="linearGradient1290">
      <stop
         id="stop1291"
         offset="0.0000000"
         style="stop-color:#b2a269;stop-opacity:1.0000000;" />
      <stop
         id="stop1292"
         offset="1.0000000"
         style="stop-color:#6d5b18;stop-opacity:1.0000000;" />
    </linearGradient>
    <linearGradient
       id="linearGradient860"
       x1="0.47535211"
       x2="0.50000000"
       xlink:href="#linearGradient1290"
       y1="0.81081080"
       y2="-0.74324322" />
    <linearGradient
       id="linearGradient851"
       x1="0.39788732"
       x2="0.80985916"
       xlink:href="#linearGradient846"
       y1="0.32222223"
       y2="0.35555556" />
    <linearGradient
       id="linearGradient858"
       x1="0.64285713"
       x2="0.57142860"
       xlink:href="#linearGradient846"
       y1="1.2647059"
       y2="0.049019609" />
    <linearGradient
       id="linearGradient846">
      <stop
         id="stop847"
         offset="0.00000000"
         style="stop-color:#e7e7e7;stop-opacity:1.0000000;" />
      <stop
         id="stop848"
         offset="1.0000000"
         style="stop-color:#a5a5a5;stop-opacity:1.0000000;" />
    </linearGradient>
    <linearGradient
       id="linearGradient850"
       xlink:href="#linearGradient846" />
    <linearGradient
       id="linearGradient859"
       x1="1.4647887"
       x2="0.26408452"
       xlink:href="#linearGradient853"
       y1="-1.1486486"
       y2="1.2905406" />
    <linearGradient
       id="linearGradient853">
      <stop
         id="stop854"
         offset="0.00000000"
         style="stop-color:#000000;stop-opacity:0.29752067;" />
      <stop
         id="stop855"
         offset="1.0000000"
         style="stop-color:#000000;stop-opacity:0.00000000;" />
    </linearGradient>
    <radialGradient
       cx="0.50000000"
       cy="0.50000000"
       fx="0.50704223"
       fy="0.29885057"
       id="radialGradient861"
       r="0.50000000"
       xlink:href="#linearGradient853" />
    <linearGradient
       id="linearGradient1501">
      <stop
         id="stop1502"
         offset="0.0000000"
         style="stop-color:#ffffff;stop-opacity:1.0000000;" />
      <stop
         id="stop1504"
         offset="1.0000000"
         style="stop-color:#ffffff;stop-opacity:0.0000000;" />
    </linearGradient>
    <linearGradient
       id="linearGradient1492">
      <stop
         id="stop1493"
         offset="0.0000000"
         style="stop-color:#cbcbcb;stop-opacity:1.0000000;" />
      <stop
         id="stop1496"
         offset="0.34923077"
         style="stop-color:#f0f0f0;stop-opacity:1.0000000;" />
      <stop
         id="stop1494"
         offset="1.0000000"
         style="stop-color:#e2e2e2;stop-opacity:1.0000000;" />
    </linearGradient>
    <linearGradient
       id="linearGradient1495"
       x1="749.24924"
       x2="380.10222"
       xlink:href="#linearGradient1492"
       y1="207.82652"
       y2="686.15207"
       gradientTransform="scale(0.955425,1.046655)"
       gradientUnits="userSpaceOnUse" />
    <linearGradient
       id="linearGradient1497"
       x1="741.63899"
       x2="622.33327"
       xlink:href="#linearGradient1492"
       y1="169.44361"
       y2="287.73826"
       gradientTransform="scale(0.955293,1.046800)"
       gradientUnits="userSpaceOnUse" />
    <linearGradient
       id="linearGradient1499"
       x1="687.96373"
       x2="330.88033"
       xlink:href="#linearGradient1501"
       y1="236.12772"
       y2="418.53634"
       gradientTransform="scale(0.989009,1.011113)"
       gradientUnits="userSpaceOnUse" />
    <linearGradient
       id="linearGradient1506"
       x1="0.052173913"
       x2="0.78260869"
       xlink:href="#linearGradient1507"
       y1="0.97656250"
       y2="0.0078125000" />
    <linearGradient
       id="linearGradient1556"
       x1="0.31111112"
       x2="0.62222224"
       xlink:href="#linearGradient1507"
       y1="-0.56250000"
       y2="0.79687500" />
    <radialGradient
       cx="0.50000000"
       cy="0.89285713"
       fx="0.54117650"
       fy="3.5200000"
       id="radialGradient856"
       r="0.54606670"
       xlink:href="#linearGradient841" />
    <linearGradient
       id="linearGradient1944"
       xlink:href="#linearGradient841" />
    <linearGradient
       y2="62.779984"
       y1="60.433849"
       xlink:href="#linearGradient2713"
       x2="17.425413"
       x1="17.681860"
       spreadMethod="reflect"
       id="linearGradient3086"
       gradientUnits="userSpaceOnUse"
       gradientTransform="matrix(2.218790,0.000000,0.000000,1.825981,-5.130350e-2,-1.012826)" />
    <linearGradient
       y2="11.710631"
       y1="1.6246380"
       xlink:href="#linearGradient2780"
       x2="35.995708"
       x1="35.995708"
       id="linearGradient3084"
       gradientUnits="userSpaceOnUse"
       gradientTransform="matrix(1.632005,0.000000,0.000000,2.436073,-5.130350e-2,2.009678)" />
    <linearGradient
       y2="44.981197"
       y1="68.680031"
       xlink:href="#linearGradient2780"
       x2="26.974447"
       x1="26.974447"
       spreadMethod="pad"
       id="linearGradient3080"
       gradientUnits="userSpaceOnUse"
       gradientTransform="matrix(2.136116,0.000000,0.000000,1.825981,2.348697,-1.012826)" />
    <radialGradient
       xlink:href="#linearGradient3057"
       r="7.4833150"
       id="radialGradient3071"
       gradientUnits="userSpaceOnUse"
       gradientTransform="scale(3.741657,0.267261)"
       fy="231.98276"
       fx="8.0178375"
       cy="231.98276"
       cx="8.0178375" />
    <radialGradient
       xlink:href="#linearGradient3057"
       r="7.4833150"
       id="radialGradient3069"
       gradientUnits="userSpaceOnUse"
       gradientTransform="scale(3.741657,0.267261)"
       fy="231.98276"
       fx="8.0178375"
       cy="231.98276"
       cx="8.0178375" />
    <radialGradient
       xlink:href="#linearGradient3057"
       r="7.4833150"
       id="radialGradient3063"
       gradientUnits="userSpaceOnUse"
       gradientTransform="scale(3.741657,0.267261)"
       fy="231.98276"
       fx="8.0178375"
       cy="231.98276"
       cx="8.0178375" />
    <radialGradient
       xlink:href="#linearGradient2834"
       r="6.0678878"
       id="radialGradient2959"
       gradientUnits="userSpaceOnUse"
       gradientTransform="matrix(-2.846279,0.000000,0.000000,2.087943,139.5254,-3.586178)"
       fy="8.9813547"
       fx="21.595108"
       cy="8.9813547"
       cx="21.595108" />
    <radialGradient
       xlink:href="#linearGradient2834"
       r="6.0678878"
       id="radialGradient2955"
       gradientUnits="userSpaceOnUse"
       gradientTransform="matrix(3.085042,0.000000,0.000000,2.052895,-15.98480,-3.149280)"
       fy="8.9813547"
       fx="21.595108"
       cy="8.9813547"
       cx="21.595108" />
    <linearGradient
       y2="6.0918369"
       y1="11.170151"
       xlink:href="#linearGradient2780"
       x2="39.723621"
       x1="38.362892"
       id="linearGradient2951"
       gradientUnits="userSpaceOnUse"
       gradientTransform="matrix(1.637520,0.000000,0.000000,2.474150,-5.130350e-2,-1.282600e-2)" />
    <linearGradient
       y2="7.5863166"
       y1="9.5745525"
       xlink:href="#linearGradient2780"
       x2="38.781849"
       x1="38.781849"
       id="linearGradient2943"
       gradientUnits="userSpaceOnUse"
       gradientTransform="matrix(1.632005,0.000000,0.000000,2.482509,-5.130350e-2,-1.282600e-2)" />
    <linearGradient
       y2="-13.170087"
       y1="24.384579"
       xlink:href="#linearGradient2780"
       x2="33.184048"
       x1="33.184048"
       id="linearGradient2935"
       gradientUnits="userSpaceOnUse"
       gradientTransform="matrix(2.210222,0.000000,0.000000,1.964283,-1.515862,-2.171324)" />
    <radialGradient
       xlink:href="#linearGradient2780"
       r="13.638700"
       id="radialGradient2929"
       gradientUnits="userSpaceOnUse"
       gradientTransform="scale(0.973329,1.027402)"
       fy="16.278088"
       fx="27.270315"
       cy="16.278088"
       cx="27.270315" />
    <linearGradient
       y2="-13.170087"
       y1="24.384579"
       xlink:href="#linearGradient2780"
       x2="33.184048"
       x1="33.184048"
       id="linearGradient2895"
       gradientUnits="userSpaceOnUse"
       gradientTransform="matrix(2.161083,0.000000,0.000000,1.804543,-5.130350e-2,2.267068)" />
    <radialGradient
       xlink:href="#linearGradient2834"
       r="6.0678878"
       id="radialGradient2873"
       gradientUnits="userSpaceOnUse"
       gradientTransform="matrix(-2.366562,0.000000,0.000000,1.726511,129.1226,-0.112925)"
       fy="8.9813547"
       fx="21.595108"
       cy="8.9813547"
       cx="21.595108" />
    <radialGradient
       xlink:href="#linearGradient2834"
       r="6.0678878"
       id="radialGradient2869"
       gradientUnits="userSpaceOnUse"
       gradientTransform="matrix(2.366562,0.000000,0.000000,1.726511,-0.404355,-1.282600e-2)"
       fy="8.9813547"
       fx="21.595108"
       cy="8.9813547"
       cx="21.595108" />
    <radialGradient
       xlink:href="#linearGradient2834"
       r="3.5649405"
       id="radialGradient2840"
       gradientUnits="userSpaceOnUse"
       gradientTransform="scale(1.896245,0.527358)"
       fy="14.639010"
       fx="17.191872"
       cy="14.639010"
       cx="17.191872" />
    <radialGradient
       xlink:href="#linearGradient2780"
       r="15.156592"
       id="radialGradient2821"
       gradientUnits="userSpaceOnUse"
       gradientTransform="matrix(0.621397,0.000000,0.000000,1.882058,2.388831,-9.409409)"
       fy="22.546396"
       fx="20.360580"
       cy="22.546398"
       cx="20.360580" />
    <radialGradient
       xlink:href="#linearGradient2780"
       r="15.156592"
       id="radialGradient2819"
       gradientUnits="userSpaceOnUse"
       gradientTransform="matrix(0.500069,0.000000,0.000000,1.675192,5.002970,-5.108149)"
       fy="22.546396"
       fx="20.360580"
       cy="22.546398"
       cx="20.360580" />
    <radialGradient
       xlink:href="#linearGradient2780"
       r="15.156592"
       id="radialGradient2817"
       gradientUnits="userSpaceOnUse"
       gradientTransform="matrix(0.433337,0.000000,0.000000,1.434961,6.409890,-0.113137)"
       fy="22.546396"
       fx="20.360580"
       cy="22.546398"
       cx="20.360580" />
    <radialGradient
       xlink:href="#linearGradient2780"
       r="15.156592"
       id="radialGradient2815"
       gradientUnits="userSpaceOnUse"
       gradientTransform="matrix(0.621397,0.000000,0.000000,1.882058,2.388831,-9.409409)"
       fy="22.546396"
       fx="20.360580"
       cy="22.546398"
       cx="20.360580" />
    <radialGradient
       xlink:href="#linearGradient2780"
       r="15.156592"
       id="radialGradient2813"
       gradientUnits="userSpaceOnUse"
       gradientTransform="matrix(0.500069,0.000000,0.000000,1.675192,5.002970,-5.108149)"
       fy="22.546396"
       fx="20.360580"
       cy="22.546398"
       cx="20.360580" />
    <radialGradient
       xlink:href="#linearGradient2780"
       r="15.156592"
       id="radialGradient2811"
       gradientUnits="userSpaceOnUse"
       gradientTransform="matrix(0.433337,0.000000,0.000000,1.434961,6.409890,-0.113137)"
       fy="22.546396"
       fx="20.360580"
       cy="22.546398"
       cx="20.360580" />
    <radialGradient
       xlink:href="#linearGradient2780"
       r="15.156592"
       id="radialGradient2796"
       gradientUnits="userSpaceOnUse"
       gradientTransform="matrix(0.621397,0.000000,0.000000,1.882058,2.388831,-9.409409)"
       fy="22.546396"
       fx="20.360580"
       cy="22.546398"
       cx="20.360580" />
    <radialGradient
       xlink:href="#linearGradient2780"
       r="15.156592"
       id="radialGradient2792"
       gradientUnits="userSpaceOnUse"
       gradientTransform="matrix(0.500069,0.000000,0.000000,1.675192,5.002970,-5.108149)"
       fy="22.546396"
       fx="20.360580"
       cy="22.546398"
       cx="20.360580" />
    <radialGradient
       xlink:href="#linearGradient2780"
       r="15.156592"
       id="radialGradient2788"
       gradientUnits="userSpaceOnUse"
       gradientTransform="matrix(0.433337,0.000000,0.000000,1.434961,6.409890,-0.113137)"
       fy="22.546396"
       fx="20.360580"
       cy="22.546398"
       cx="20.360580" />
    <linearGradient
       y2="62.779984"
       y1="60.433849"
       xlink:href="#linearGradient2713"
       x2="17.425413"
       x1="17.681860"
       spreadMethod="reflect"
       id="linearGradient2740"
       gradientUnits="userSpaceOnUse"
       gradientTransform="scale(1.102326,0.907173)" />
    <linearGradient
       y2="45.887836"
       y1="44.011002"
       xlink:href="#linearGradient2713"
       x2="24.605862"
       x1="24.261463"
       spreadMethod="reflect"
       id="linearGradient2736"
       gradientUnits="userSpaceOnUse"
       gradientTransform="matrix(2.218790,0.000000,0.000000,1.825981,-5.130350e-2,-1.012826)" />
    <linearGradient
       y2="47.295517"
       y1="46.357063"
       xlink:href="#linearGradient2713"
       x2="29.093641"
       x1="29.093641"
       spreadMethod="reflect"
       id="linearGradient2732"
       gradientUnits="userSpaceOnUse"
       gradientTransform="matrix(2.218790,0.000000,0.000000,1.825981,-5.130350e-2,-1.012826)" />
    <linearGradient
       y2="42.645634"
       y1="40.272228"
       xlink:href="#linearGradient2713"
       x2="28.071486"
       x1="28.071486"
       spreadMethod="reflect"
       id="linearGradient2719"
       gradientUnits="userSpaceOnUse"
       gradientTransform="matrix(1.121224,0.000000,0.000000,0.891883,0.000000,4.000000)" />
    <linearGradient
       y2="52.608921"
       y1="52.608921"
       xlink:href="#linearGradient2701"
       x2="44.723549"
       x1="29.613848"
       spreadMethod="reflect"
       id="linearGradient2707"
       gradientUnits="userSpaceOnUse"
       gradientTransform="matrix(2.151801,0.000000,0.000000,1.770850,-5.130350e-2,4.351838)" />
    <linearGradient
       id="linearGradient2701">
      <stop
         style="stop-color:#a47c44;stop-opacity:1.0000000;"
         offset="0.00000000"
         id="stop2703" />
      <stop
         style="stop-color:#baa363;stop-opacity:1.0000000;"
         offset="0.75000000"
         id="stop2770" />
      <stop
         style="stop-color:#d6c795;stop-opacity:1.0000000;"
         offset="1.0000000"
         id="stop2705" />
    </linearGradient>
    <linearGradient
       id="linearGradient2713">
      <stop
         style="stop-color:#000000;stop-opacity:1.0000000;"
         offset="0.00000000"
         id="stop2715" />
      <stop
         style="stop-color:#ffffff;stop-opacity:1.0000000;"
         offset="1.0000000"
         id="stop2717" />
    </linearGradient>
    <linearGradient
       id="linearGradient2780">
      <stop
         style="stop-color:#ffffff;stop-opacity:1.0000000;"
         offset="0.00000000"
         id="stop2782" />
      <stop
         style="stop-color:#ffffff;stop-opacity:0.00000000;"
         offset="1.0000000"
         id="stop2784" />
    </linearGradient>
    <linearGradient
       id="linearGradient2834">
      <stop
         style="stop-color:#ffe19c;stop-opacity:1.0000000;"
         offset="0.00000000"
         id="stop2836" />
      <stop
         style="stop-color:#b79e4f;stop-opacity:0.00000000;"
         offset="1.0000000"
         id="stop2838" />
    </linearGradient>
    <linearGradient
       id="linearGradient3057">
      <stop
         style="stop-color:#282828;stop-opacity:1.0000000;"
         offset="0.00000000"
         id="stop3059" />
      <stop
         style="stop-color:#282828;stop-opacity:0.00000000;"
         offset="1.0000000"
         id="stop3061" />
    </linearGradient>
  </defs>
  <sodipodi:namedview
     bordercolor="#666666"
     borderopacity="1.0"
     id="base"
     inkscape:cx="96.142541"
     inkscape:cy="59.971329"
     inkscape:pageopacity="0.0"
     inkscape:pageshadow="2"
     inkscape:window-height="949"
     inkscape:window-width="1280"
     inkscape:window-x="0"
     inkscape:window-y="25"
     inkscape:zoom="1.9472329"
     pagecolor="#ffffff"
     inkscape:current-layer="svg1" />
  <g
     id="g1694"
     transform="matrix(0.764672,0.000000,0.000000,0.832601,2.793871,-3.567802)">
    <path
       d="M 17.159384,6.3292894 L 17.159384,43.068526 L 17.159384,79.807768 L 17.159384,116.54700 L 17.159384,153.28624 L 50.687024,153.28624 L 84.214664,153.28624 L 117.74230,153.28624 L 151.26994,153.28624 L 151.26994,116.54700 L 151.26994,79.807768 L 151.26994,43.068526 L 117.74230,6.3292894 L 84.214664,6.3292894 L 50.687024,6.3292894 L 17.159384,6.3292894 z "
       id="path930"
       sodipodi:nodetypes="cccccccccccccccc"
       style="fill:#ffffff;fill-rule:evenodd;stroke-width:0.42649043;stroke-opacity:0.36477986" />
    <g
       id="g1552"
       style="fill:#000000;fill-opacity:0.069182344"
       transform="matrix(0.304171,0.000000,0.000000,0.297572,-36.70399,-112.4880)">
      <path
         d="M 173.35959,408.81260 L 173.35959,531.07360 L 173.35959,653.33460 L 173.35959,775.59560 L 173.35959,897.85660 L 282.12187,897.85660 L 390.88417,897.85660 L 499.64646,897.85660 L 608.40874,897.85660 L 608.40874,775.59560 L 608.40874,653.33460 L 608.40874,531.07360 L 499.64646,408.81260 L 390.88417,408.81260 L 282.12187,408.81260 L 173.35959,408.81260 z "
         id="path1505"
         sodipodi:nodetypes="cccccccccccccccc"
         style="fill:#000000;fill-opacity:0.069182344;fill-rule:evenodd;stroke-width:0.95407495pt" />
      <path
         d="M 170.12500,407.18750 C 170.12500,571.82292 170.12500,736.45833 170.12500,901.09375 C 317.30208,901.09375 464.47917,901.09375 611.65625,901.09375 C 611.65625,777.33333 611.65625,653.57292 611.65625,529.81250 C 574.80918,488.38978 537.97604,446.95335 501.09375,405.56250 C 390.77083,405.56250 280.44792,405.56250 170.12500,405.56250 C 170.12500,405.89583 170.12500,406.97917 170.12500,407.18750 z "
         id="path1538"
         style="fill:#000000;fill-opacity:0.069182344;fill-rule:evenodd;stroke-width:0.95407495pt" />
      <path
         d="M 166.87500,403.93750 C 166.87500,570.73958 166.87500,737.54167 166.87500,904.34375 C 316.21875,904.34375 465.56250,904.34375 614.90625,904.34375 C 614.90625,779.08333 614.90625,653.82292 614.90625,528.56250 C 577.45517,486.47298 540.01754,444.37017 502.53125,402.31250 C 390.64583,402.31250 278.76042,402.31250 166.87500,402.31250 C 166.87500,402.64583 166.87500,403.72917 166.87500,403.93750 z "
         id="path1543"
         style="fill:#000000;fill-opacity:0.069182344;fill-rule:evenodd;stroke-width:0.95407495pt" />
    </g>
    <path
       d="M 297.99034,136.74154 L 297.99034,260.57234 L 297.99034,384.40315 L 297.99034,508.23395 L 297.99034,632.06475 L 410.99634,632.06475 L 524.00235,632.06475 L 637.00835,632.06475 L 750.01435,632.06475 L 750.01435,508.23395 L 750.01435,384.40315 L 750.01435,260.57234 L 637.00835,136.74154 L 524.00235,136.74154 L 410.99634,136.74154 L 297.99034,136.74154 z "
       id="rect900"
       sodipodi:nodetypes="cccccccccccccccc"
       style="fill:url(#linearGradient1495);fill-opacity:1.0000000;fill-rule:evenodd;stroke:#000000;stroke-width:1.4375000;stroke-opacity:0.36477986"
       transform="matrix(0.296689,0.000000,0.000000,0.296689,-71.19601,-34.05825)" />
    <path
       d="M 750.01435,260.57234 C 715.94460,250.48602 671.79788,251.91624 638.44792,257.66516 C 644.20618,220.71628 644.92597,174.41021 637.00835,136.74154 L 750.01435,260.57234 z "
       id="path906"
       sodipodi:nodetypes="cccc"
       style="fill:url(#linearGradient1497);fill-opacity:1.0000000;fill-rule:evenodd;stroke-width:0.95407495pt"
       transform="matrix(0.296689,0.000000,0.000000,0.296689,-71.19601,-34.05825)" />
    <path
       d="M 301.30655,174.90867 L 299.27069,628.90434 L 743.08709,628.90434 L 743.34157,516.67783 C 733.41677,520.49506 633.15091,378.49417 506.92790,384.60173 C 380.59029,390.71484 413.27857,193.23136 301.30655,174.90867 z "
       id="path1500"
       sodipodi:nodetypes="cccczc"
       style="fill:url(#linearGradient1499);fill-opacity:1.0000000;fill-rule:evenodd;stroke-width:1.0000000pt"
       transform="matrix(0.296689,0.000000,0.000000,0.296689,-71.19601,-34.05825)" />
  </g>
  <g
     id="g1825"
     transform="matrix(0.612736,0.000000,0.000000,0.627417,27.58299,27.90626)">
    <g
       id="layer2">
      <path
         style="fill:#282828;fill-opacity:1.0000000;fill-rule:evenodd;stroke:none;stroke-width:0.62500000;stroke-linecap:round;stroke-linejoin:round;stroke-miterlimit:4.0000000;stroke-dashoffset:0.0000000;stroke-opacity:1.0000000"
         id="rect2723"
         d="M 64.359126,2.0000000 C 44.287226,2.0000000 28.128259,18.158966 28.128259,38.230867 L 28.128259,78.487385 L 38.192389,78.487385 L 38.192389,38.230867 C 38.192389,23.734494 49.862754,12.064130 64.359126,12.064130 C 78.855498,12.064130 90.525863,23.734494 90.525863,38.230867 L 90.525863,78.487385 L 100.58999,78.487385 L 100.58999,38.230867 C 100.58999,18.158966 84.431026,2.0000000 64.359126,2.0000000 z " />
      <path
         style="opacity:0.64999998;fill:url(#linearGradient3084);fill-opacity:1.0000000;fill-rule:evenodd;stroke:none;stroke-width:0.62500000;stroke-linecap:round;stroke-linejoin:round;stroke-miterlimit:4.0000000;stroke-dashoffset:0.0000000;stroke-opacity:1.0000000"
         id="path3082"
         d="M 64.359126,4.6292539 C 45.402331,4.6292539 30.141085,20.935813 30.141085,39.538022 L 30.141085,77.066368 C 30.141085,91.155570 38.917475,103.11605 51.401559,108.11367 C 42.456647,104.04079 36.179563,95.313819 36.179563,84.967072 L 36.179563,37.562846 C 36.179563,23.337627 47.849928,10.941742 62.346300,10.941742 L 66.371952,10.941742 C 80.868324,10.941742 92.538689,23.337627 92.538689,37.562846 L 92.538689,84.967072 C 92.538689,95.313819 86.261604,104.04079 77.316693,108.11367 C 89.800776,103.11605 98.577166,91.155570 98.577166,77.066368 L 98.577166,39.538022 C 98.577166,20.935813 83.315920,4.6292539 64.359126,4.6292539 z " />
      <path
         style="opacity:0.49999997;fill:url(#linearGradient2951);fill-opacity:1.0000000;fill-rule:evenodd;stroke:none;stroke-width:0.62500000;stroke-linecap:round;stroke-linejoin:round;stroke-miterlimit:4.0000000;stroke-dashoffset:0.0000000;stroke-opacity:1.0000000"
         id="path2931"
         d="M 64.359126,2.8539414 C 44.849100,2.8539414 29.142472,18.454974 29.142472,37.833835 L 29.142472,76.929009 C 29.142472,91.606445 38.174990,104.06629 51.023407,109.27255 C 41.817448,105.02963 35.357175,95.938304 35.357175,85.159575 L 35.357175,35.776195 C 35.357175,20.957066 47.368128,6.6939225 62.287558,6.6939225 L 66.430694,6.6939225 C 81.350124,6.6939225 93.361077,20.957066 93.361077,35.776195 L 93.361077,85.159575 C 93.361077,95.938304 86.900804,105.02963 77.694844,109.27255 C 90.543262,104.06629 99.575780,91.606445 99.575780,76.929009 L 99.575780,37.833835 C 99.575780,18.454974 83.869152,2.8539414 64.359126,2.8539414 z " />
      <path
         style="opacity:0.80000001;fill:url(#radialGradient2869);fill-opacity:1.0000000;fill-rule:evenodd;stroke:none;stroke-width:1.0000000px;stroke-linecap:butt;stroke-linejoin:miter;stroke-opacity:1.0000000"
         id="path2861"
         d="M 49.470641,12.003202 C 44.032247,15.408450 40.971920,21.213331 41.571128,23.148345 C 42.216771,25.233301 46.037790,15.914775 56.854306,13.028936 C 65.194873,10.803680 56.853813,7.3802310 49.470641,12.003202 z " />
      <path
         style="opacity:0.80000001;fill:url(#radialGradient2873);fill-opacity:1.0000000;fill-rule:evenodd;stroke:none;stroke-width:1.0000000px;stroke-linecap:butt;stroke-linejoin:miter;stroke-opacity:1.0000000"
         id="path2871"
         d="M 79.247611,11.903104 C 84.686005,15.308352 87.746331,21.113233 87.147123,23.048247 C 86.501481,25.133203 82.680461,15.814677 71.863945,12.928838 C 63.523378,10.703581 71.864438,7.2801320 79.247611,11.903104 z " />
      <path
         style="opacity:0.49999997;fill:url(#linearGradient2943);fill-opacity:1.0000000;fill-rule:evenodd;stroke:none;stroke-width:0.62500000;stroke-linecap:round;stroke-linejoin:round;stroke-miterlimit:4.0000000;stroke-dashoffset:0.0000000;stroke-opacity:1.0000000"
         id="rect2875"
         d="M 64.359126,6.2794038 C 45.402331,6.2794038 30.141085,19.274072 30.141085,38.230867 L 30.141085,76.474559 C 30.141085,90.832324 38.917475,103.02079 51.401559,108.11367 C 42.456647,103.96315 36.179563,95.069836 36.179563,84.525863 L 36.179563,36.218041 C 36.179563,21.721668 47.849928,10.035751 62.346300,10.035751 L 66.371952,10.035751 C 80.868324,10.035751 92.538689,21.721668 92.538689,36.218041 L 92.538689,84.525863 C 92.538689,95.069836 86.261604,103.96315 77.316693,108.11367 C 89.800776,103.02079 98.577166,90.832324 98.577166,76.474559 L 98.577166,38.230867 C 98.577166,19.274072 83.315920,6.2794038 64.359126,6.2794038 z " />
      <path
         style="opacity:0.80000001;fill:url(#linearGradient2935);fill-opacity:1.0000000;fill-rule:evenodd;stroke:none;stroke-width:0.62500000;stroke-linecap:round;stroke-linejoin:round;stroke-miterlimit:4.0000000;stroke-dashoffset:0.0000000;stroke-opacity:1.0000000"
         id="path2933"
         d="M 64.359126,4.0389347 C 37.597412,4.0389347 31.421633,27.354187 31.421633,37.899012 C 31.421633,69.533490 33.480224,69.533490 33.480224,37.899012 C 33.480224,14.700396 49.942868,5.5442086 64.359126,5.5442086 C 78.775384,5.5442086 95.238027,15.646794 95.238027,37.899012 C 95.238027,69.533490 97.296619,69.533490 97.296619,37.899012 C 97.296619,27.354187 91.120840,4.0389347 64.359126,4.0389347 z " />
      <path
         style="opacity:0.60000002;fill:url(#linearGradient2895);fill-opacity:1.0000000;fill-rule:evenodd;stroke:none;stroke-width:0.62500000;stroke-linecap:round;stroke-linejoin:round;stroke-miterlimit:4.0000000;stroke-dashoffset:0.0000000;stroke-opacity:1.0000000"
         id="path2885"
         d="M 64.359126,7.0913370 C 38.192389,7.0913370 32.153911,29.391473 32.153911,39.078761 C 32.153911,68.140624 34.166737,68.140624 34.166737,39.078761 C 34.166737,17.766728 50.263376,8.4741970 64.359126,8.4741970 C 78.454875,8.4741970 94.551515,18.636162 94.551515,39.078761 C 94.551515,68.140624 96.564341,68.140624 96.564341,39.078761 C 96.564341,29.391473 90.525863,7.0913370 64.359126,7.0913370 z " />
      <path
         style="opacity:0.80000001;fill:#ffffff;fill-opacity:1.0000000;fill-rule:evenodd;stroke:none;stroke-width:1.0000000px;stroke-linecap:butt;stroke-linejoin:miter;stroke-opacity:1.0000000"
         id="path2897"
         d="M 36.979617,16.487555 C 34.104370,21.735798 40.006680,18.418682 41.377593,16.761368 C 45.231503,12.102333 51.745249,8.7250830 57.462695,7.6228400 C 62.257428,6.6984824 62.988478,4.8471270 59.040233,4.5406553 C 51.168146,3.9296066 39.736027,11.456231 36.979617,16.487555 z " />
      <path
         style="opacity:0.60000002;fill:#ffffff;fill-opacity:1.0000000;fill-rule:evenodd;stroke:none;stroke-width:1.0000000px;stroke-linecap:butt;stroke-linejoin:miter;stroke-opacity:1.0000000"
         id="path2901"
         d="M 32.623431,25.155638 C 32.928211,27.720405 37.886922,19.357836 41.791152,15.431911 C 46.559495,10.637072 53.787418,7.2811100 57.264611,6.8376665 C 63.463032,6.0471897 60.520985,3.0096623 56.635935,3.7770922 C 42.515997,6.5662613 31.846251,18.615574 32.623431,25.155638 z " />
      <path
         style="opacity:0.80000001;fill:#ffffff;fill-opacity:1.0000000;fill-rule:evenodd;stroke:none;stroke-width:1.0000000px;stroke-linecap:butt;stroke-linejoin:miter;stroke-opacity:1.0000000"
         id="path2909"
         d="M 91.579935,16.451601 C 94.474486,21.689224 88.560004,18.393859 87.183000,16.741604 C 83.311963,12.096789 76.785826,8.7435420 71.064360,7.6623560 C 66.266258,6.7556569 64.915924,4.9102192 68.863013,4.5892139 C 76.732798,3.9491874 88.805023,11.430459 91.579935,16.451601 z " />
      <path
         style="opacity:0.60000002;fill:#ffffff;fill-opacity:1.0000000;fill-rule:evenodd;stroke:none;stroke-width:1.0000000px;stroke-linecap:butt;stroke-linejoin:miter;stroke-opacity:1.0000000"
         id="path2911"
         d="M 95.798321,24.924688 C 95.502987,27.490558 90.513520,19.146303 86.594864,15.234779 C 81.808901,10.457527 74.568672,7.1281990 71.089869,6.6975603 C 64.888580,5.9299082 67.797417,3.0024050 71.706633,3.6353351 C 85.848263,5.9367719 96.551418,18.381806 95.798321,24.924688 z " />
      <path
         style="opacity:0.40000001;fill:url(#radialGradient2955);fill-opacity:1.0000000;fill-rule:evenodd;stroke:none;stroke-width:1.0000000px;stroke-linecap:butt;stroke-linejoin:miter;stroke-opacity:1.0000000"
         id="path2953"
         d="M 49.032092,11.138281 C 41.942618,15.187263 37.953187,22.089508 38.734312,24.390321 C 39.575969,26.869420 44.557039,15.789305 58.657416,12.357921 C 69.530154,9.7119990 58.656774,5.6413744 49.032092,11.138281 z " />
      <path
         style="opacity:0.40000001;fill:url(#radialGradient2959);fill-opacity:1.0000000;fill-rule:evenodd;stroke:none;stroke-width:1.0000000px;stroke-linecap:butt;stroke-linejoin:miter;stroke-opacity:1.0000000"
         id="path2957"
         d="M 79.540422,10.945305 C 86.081213,15.063412 89.761889,22.083498 89.041216,24.423589 C 88.264698,26.945014 83.669133,15.675732 70.660040,12.185767 C 60.628786,9.4946720 70.660632,5.3545529 79.540422,10.945305 z " />
      <path
         transform="matrix(2.012826,0.000000,0.000000,2.012826,3.974348,-1.282600e-2)"
         style="opacity:0.40000001;fill:url(#radialGradient3063);fill-opacity:1.0000000;fill-rule:evenodd;stroke:none;stroke-width:0.62500000;stroke-linecap:round;stroke-linejoin:round;stroke-miterlimit:4.0000000;stroke-dashoffset:0.0000000;stroke-opacity:1.0000000"
         id="path3055"
         d="M 58.000000,62.000000 C 58.000000,63.104569 45.463973,64.000000 30.000000,64.000000 C 14.536027,64.000000 2.0000000,63.104569 2.0000000,62.000000 C 2.0000000,60.895431 14.536027,60.000000 30.000000,60.000000 C 45.463973,60.000000 58.000000,60.895431 58.000000,62.000000 L 58.000000,62.000000 z " />
      <path
         transform="matrix(2.012826,0.000000,0.000000,2.516032,3.974348,-34.23087)"
         style="opacity:0.40000001;fill:url(#radialGradient3071);fill-opacity:1.0000000;fill-rule:evenodd;stroke:none;stroke-width:0.62500000;stroke-linecap:round;stroke-linejoin:round;stroke-miterlimit:4.0000000;stroke-dashoffset:0.0000000;stroke-opacity:1.0000000"
         id="path3065"
         d="M 58.000000,62.000000 C 58.000000,63.104569 45.463973,64.000000 30.000000,64.000000 C 14.536027,64.000000 2.0000000,63.104569 2.0000000,62.000000 C 2.0000000,60.895431 14.536027,60.000000 30.000000,60.000000 C 45.463973,60.000000 58.000000,60.895431 58.000000,62.000000 L 58.000000,62.000000 z " />
      <path
         transform="matrix(2.012826,0.000000,0.000000,2.012826,3.974348,-2.025652)"
         style="opacity:0.40000001;fill:url(#radialGradient3069);fill-opacity:1.0000000;fill-rule:evenodd;stroke:none;stroke-width:0.62500000;stroke-linecap:round;stroke-linejoin:round;stroke-miterlimit:4.0000000;stroke-dashoffset:0.0000000;stroke-opacity:1.0000000"
         id="path3067"
         d="M 58.000000,62.000000 C 58.000000,63.104569 45.463973,64.000000 30.000000,64.000000 C 14.536027,64.000000 2.0000000,63.104569 2.0000000,62.000000 C 2.0000000,60.895431 14.536027,60.000000 30.000000,60.000000 C 45.463973,60.000000 58.000000,60.895431 58.000000,62.000000 L 58.000000,62.000000 z " />
    </g>
    <g
       id="layer1">
      <rect
         y="57.359127"
         x="24.102608"
         width="80.513039"
         style="fill:url(#linearGradient2707);fill-opacity:1.0000000;fill-rule:evenodd;stroke:none;stroke-width:0.62500000;stroke-linecap:round;stroke-linejoin:round;stroke-miterlimit:4.0000000;stroke-dashoffset:0.0000000;stroke-opacity:1.0000000"
         ry="0.79691833"
         rx="0.81601155"
         id="rect1941"
         height="66.259109" />
      <rect
         y="57.359127"
         x="24.102608"
         width="80.513039"
         style="opacity:0.029999973;fill:url(#linearGradient2732);fill-opacity:1.0000000;fill-rule:evenodd;stroke:none;stroke-width:0.62500000;stroke-linecap:round;stroke-linejoin:round;stroke-miterlimit:4.0000000;stroke-dashoffset:0.0000000;stroke-opacity:1.0000000"
         ry="0.79691833"
         rx="0.81601155"
         id="rect2709"
         height="66.259109" />
      <rect
         y="57.359127"
         x="24.102608"
         width="80.513039"
         style="opacity:0.029999973;fill:url(#linearGradient2736);fill-opacity:1.0000000;fill-rule:evenodd;stroke:none;stroke-width:0.62500000;stroke-linecap:round;stroke-linejoin:round;stroke-miterlimit:4.0000000;stroke-dashoffset:0.0000000;stroke-opacity:1.0000000"
         ry="0.79691833"
         rx="0.81601155"
         id="rect2734"
         height="66.259109" />
      <rect
         y="57.359127"
         x="24.102608"
         width="80.513039"
         style="opacity:0.029999973;fill:url(#linearGradient3086);fill-opacity:1.0000000;fill-rule:evenodd;stroke:none;stroke-width:0.62500000;stroke-linecap:round;stroke-linejoin:round;stroke-miterlimit:4.0000000;stroke-dashoffset:0.0000000;stroke-opacity:1.0000000"
         ry="0.79691833"
         rx="0.81601155"
         id="rect2738"
         height="66.259109" />
      <path
         style="opacity:0.49999997;fill:#ffffff;fill-opacity:1.0000000;fill-rule:evenodd;stroke:none;stroke-width:0.62500000;stroke-linecap:round;stroke-linejoin:round;stroke-miterlimit:4.0000000;stroke-dashoffset:0.0000000;stroke-opacity:1.0000000"
         id="path2727"
         d="M 26.618640,57.359126 C 28.428730,59.480775 44.763964,61.145360 65.274048,61.145360 C 85.502620,61.145360 101.56730,59.498208 103.75791,57.418285 C 103.72708,57.415066 103.73240,57.359126 103.70072,57.359126 L 26.618640,57.359126 z " />
      <g
         transform="matrix(1.719497,0.000000,0.000000,1.981605,4.420926,1.487591)"
         id="g2798">
        <path
           style="opacity:0.40277776;fill:url(#radialGradient2817);fill-opacity:1.0000000;fill-rule:evenodd;stroke:none;stroke-width:1.0000000px;stroke-linecap:butt;stroke-linejoin:miter;stroke-opacity:1.0000000"
           id="path2778"
           d="M 13.971247,30.766863 C 13.531705,33.396386 13.040370,50.075728 14.667687,53.646863 C 16.259550,57.140196 16.060569,36.980196 19.940738,33.806863 C 23.861905,30.600002 14.385794,28.286863 13.971247,30.766863 z " />
        <path
           style="opacity:0.29999998;fill:url(#radialGradient2819);fill-opacity:1.0000000;fill-rule:evenodd;stroke:none;stroke-width:1.0000000px;stroke-linecap:butt;stroke-linejoin:miter;stroke-opacity:1.0000000"
           id="path2790"
           d="M 13.728722,30.941568 C 13.221493,34.011307 12.654496,53.482989 14.532410,57.651979 C 16.369410,61.730142 16.139785,38.195094 20.617473,34.490503 C 25.142472,30.746772 14.207108,28.046383 13.728722,30.941568 z " />
        <path
           style="opacity:0.20000000;fill:url(#radialGradient2821);fill-opacity:1.0000000;fill-rule:evenodd;stroke:none;stroke-width:1.0000000px;stroke-linecap:butt;stroke-linejoin:miter;stroke-opacity:1.0000000"
           id="path2794"
           d="M 13.231668,31.092008 C 12.601372,34.540822 11.896808,56.417020 14.230350,61.100829 C 16.513051,65.682595 16.227713,39.241256 21.791801,35.079193 C 27.414678,30.873157 13.826121,27.839303 13.231668,31.092008 z " />
      </g>
      <g
         transform="matrix(-1.719497,0.000000,0.000000,1.981605,124.2973,1.487605)"
         id="g2803">
        <path
           style="opacity:0.40277776;fill:url(#radialGradient2811);fill-opacity:1.0000000;fill-rule:evenodd;stroke:none;stroke-width:1.0000000px;stroke-linecap:butt;stroke-linejoin:miter;stroke-opacity:1.0000000"
           id="path2805"
           d="M 13.971247,30.766863 C 13.531705,33.396386 13.040370,50.075728 14.667687,53.646863 C 16.259550,57.140196 16.060569,36.980196 19.940738,33.806863 C 23.861905,30.600002 14.385794,28.286863 13.971247,30.766863 z " />
        <path
           style="opacity:0.29999998;fill:url(#radialGradient2813);fill-opacity:1.0000000;fill-rule:evenodd;stroke:none;stroke-width:1.0000000px;stroke-linecap:butt;stroke-linejoin:miter;stroke-opacity:1.0000000"
           id="path2807"
           d="M 13.728722,30.941568 C 13.221493,34.011307 12.654496,53.482989 14.532410,57.651979 C 16.369410,61.730142 16.139785,38.195094 20.617473,34.490503 C 25.142472,30.746772 14.207108,28.046383 13.728722,30.941568 z " />
        <path
           style="opacity:0.20000000;fill:url(#radialGradient2815);fill-opacity:1.0000000;fill-rule:evenodd;stroke:none;stroke-width:1.0000000px;stroke-linecap:butt;stroke-linejoin:miter;stroke-opacity:1.0000000"
           id="path2809"
           d="M 13.231668,31.092008 C 12.601372,34.540822 11.896808,56.417020 14.230350,61.100829 C 16.513051,65.682595 16.227713,39.241256 21.791801,35.079193 C 27.414678,30.873157 13.826121,27.839303 13.231668,31.092008 z " />
      </g>
      <path
         style="opacity:0.24999996;fill:url(#linearGradient3080);fill-opacity:1.0000000;fill-rule:evenodd;stroke:none;stroke-width:0.62500000;stroke-linecap:round;stroke-linejoin:round;stroke-miterlimit:4.0000000;stroke-dashoffset:0.0000000;stroke-opacity:1.0000000"
         id="rect3077"
         d="M 103.11564,114.72466 L 103.11564,122.61182 C 103.11564,123.16937 102.68350,123.61823 102.14673,123.61823 L 26.571520,123.61823 C 26.034743,123.61823 25.602607,123.16937 25.602607,122.61182 L 25.602607,94.596405 C 25.602607,124.11291 103.11564,73.717412 103.11564,114.72466 z " />
      <path
         style="opacity:0.49999997;fill:#000000;fill-opacity:1.0000000;fill-rule:evenodd;stroke:none;stroke-width:0.62500000;stroke-linecap:round;stroke-linejoin:round;stroke-miterlimit:4.0000000;stroke-dashoffset:0.0000000;stroke-opacity:1.0000000"
         id="path2768"
         d="M 25.646537,123.61824 C 27.456628,121.49659 43.791857,119.83200 64.301941,119.83200 C 84.530518,119.83200 100.59520,121.47915 102.78580,123.55908 C 102.75497,123.56230 102.76030,123.61824 102.72862,123.61824 L 25.646537,123.61824 z " />
    </g>
  </g>
</svg>
