<?xml version="1.0" encoding="UTF-8" standalone="no"?>
<!-- Created with Inkscape (http://www.inkscape.org/) -->
<svg
   xmlns:dc="http://purl.org/dc/elements/1.1/"
   xmlns:cc="http://web.resource.org/cc/"
   xmlns:rdf="http://www.w3.org/1999/02/22-rdf-syntax-ns#"
   xmlns:svg="http://www.w3.org/2000/svg"
   xmlns="http://www.w3.org/2000/svg"
   xmlns:xlink="http://www.w3.org/1999/xlink"
   xmlns:sodipodi="http://inkscape.sourceforge.net/DTD/sodipodi-0.dtd"
   xmlns:inkscape="http://www.inkscape.org/namespaces/inkscape"
   height="102.40000pt"
   id="svg1"
   inkscape:version="0.42"
   sodipodi:docbase="/home/joel/.icons/Complexity-0.7/scalable/mimetypes"
   sodipodi:docname="gnome-mime-application-wine.svg"
   sodipodi:version="0.32"
   width="102.40000pt">
  <metadata
     id="metadata3">
    <rdf:RDF>
      <cc:Work
         rdf:about="">
        <dc:title>Etiquette Icons</dc:title>
        <dc:description />
        <dc:subject>
          <rdf:Bag>
            <rdf:li>hash</rdf:li>
            <rdf:li />
            <rdf:li>filesystem</rdf:li>
            <rdf:li>computer</rdf:li>
            <rdf:li>icons</rdf:li>
            <rdf:li>theme</rdf:li>
          </rdf:Bag>
        </dc:subject>
        <dc:publisher>
          <cc:Agent
             rdf:about="http://www.openclipart.org">
            <dc:title>Andy Fitzsimon</dc:title>
          </cc:Agent>
        </dc:publisher>
        <dc:creator>
          <cc:Agent>
            <dc:title>Andy Fitzsimon</dc:title>
          </cc:Agent>
        </dc:creator>
        <dc:rights>
          <cc:Agent>
            <dc:title>Andy Fitzsimon</dc:title>
          </cc:Agent>
        </dc:rights>
        <dc:date />
        <dc:format>image/svg+xml</dc:format>
        <dc:type
           rdf:resource="http://purl.org/dc/dcmitype/StillImage" />
        <cc:license
           rdf:resource="http://web.resource.org/cc/PublicDomain" />
        <dc:language>en</dc:language>
      </cc:Work>
      <cc:License
         rdf:about="http://web.resource.org/cc/PublicDomain">
        <cc:permits
           rdf:resource="http://web.resource.org/cc/Reproduction" />
        <cc:permits
           rdf:resource="http://web.resource.org/cc/Distribution" />
        <cc:permits
           rdf:resource="http://web.resource.org/cc/DerivativeWorks" />
      </cc:License>
    </rdf:RDF>
  </metadata>
  <defs
     id="defs3">
    <linearGradient
       id="linearGradient1507">
      <stop
         id="stop1508"
         offset="0.0000000"
         style="stop-color:#000000;stop-opacity:0.095505618;" />
      <stop
         id="stop1510"
         offset="1.0000000"
         style="stop-color:#000000;stop-opacity:0.0000000;" />
    </linearGradient>
    <linearGradient
       id="linearGradient852"
       xlink:href="#linearGradient1507" />
    <linearGradient
       id="linearGradient844"
       xlink:href="#linearGradient1507" />
    <linearGradient
       id="linearGradient845"
       x1="1.3833333"
       x2="0.10833333"
       xlink:href="#linearGradient841"
       y1="0.49019608"
       y2="0.50490195" />
    <linearGradient
       id="linearGradient840"
       x1="-0.22348484"
       x2="0.59469700"
       xlink:href="#linearGradient853"
       y1="0.38235295"
       y2="0.46568626" />
    <linearGradient
       id="linearGradient849"
       x1="0.010563380"
       x2="1.2288733"
       xlink:href="#linearGradient846"
       y1="0.43229166"
       y2="0.46354166" />
    <radialGradient
       cx="0.50000000"
       cy="0.50000000"
       fx="0.50000000"
       fy="0.14942528"
       id="radialGradient864"
       r="0.50000000"
       xlink:href="#linearGradient853" />
    <linearGradient
       id="linearGradient841">
      <stop
         id="stop842"
         offset="0.00000000"
         style="stop-color:#ffffff;stop-opacity:1.0000000;" />
      <stop
         id="stop843"
         offset="1.0000000"
         style="stop-color:#ffffff;stop-opacity:0.00000000;" />
    </linearGradient>
    <linearGradient
       id="linearGradient1290">
      <stop
         id="stop1291"
         offset="0.0000000"
         style="stop-color:#b2a269;stop-opacity:1.0000000;" />
      <stop
         id="stop1292"
         offset="1.0000000"
         style="stop-color:#6d5b18;stop-opacity:1.0000000;" />
    </linearGradient>
    <linearGradient
       id="linearGradient860"
       x1="0.47535211"
       x2="0.50000000"
       xlink:href="#linearGradient1290"
       y1="0.81081080"
       y2="-0.74324322" />
    <linearGradient
       id="linearGradient851"
       x1="0.39788732"
       x2="0.80985916"
       xlink:href="#linearGradient846"
       y1="0.32222223"
       y2="0.35555556" />
    <linearGradient
       id="linearGradient858"
       x1="0.64285713"
       x2="0.57142860"
       xlink:href="#linearGradient846"
       y1="1.2647059"
       y2="0.049019609" />
    <linearGradient
       id="linearGradient846">
      <stop
         id="stop847"
         offset="0.00000000"
         style="stop-color:#e7e7e7;stop-opacity:1.0000000;" />
      <stop
         id="stop848"
         offset="1.0000000"
         style="stop-color:#a5a5a5;stop-opacity:1.0000000;" />
    </linearGradient>
    <linearGradient
       id="linearGradient850"
       xlink:href="#linearGradient846" />
    <linearGradient
       id="linearGradient859"
       x1="1.4647887"
       x2="0.26408452"
       xlink:href="#linearGradient853"
       y1="-1.1486486"
       y2="1.2905406" />
    <linearGradient
       id="linearGradient853">
      <stop
         id="stop854"
         offset="0.00000000"
         style="stop-color:#000000;stop-opacity:0.29752067;" />
      <stop
         id="stop855"
         offset="1.0000000"
         style="stop-color:#000000;stop-opacity:0.00000000;" />
    </linearGradient>
    <radialGradient
       cx="0.50000000"
       cy="0.50000000"
       fx="0.50704223"
       fy="0.29885057"
       id="radialGradient861"
       r="0.50000000"
       xlink:href="#linearGradient853" />
    <linearGradient
       id="linearGradient1501">
      <stop
         id="stop1502"
         offset="0.0000000"
         style="stop-color:#ffffff;stop-opacity:1.0000000;" />
      <stop
         id="stop1504"
         offset="1.0000000"
         style="stop-color:#ffffff;stop-opacity:0.0000000;" />
    </linearGradient>
    <linearGradient
       id="linearGradient1492">
      <stop
         id="stop1493"
         offset="0.0000000"
         style="stop-color:#cbcbcb;stop-opacity:1.0000000;" />
      <stop
         id="stop1496"
         offset="0.34923077"
         style="stop-color:#f0f0f0;stop-opacity:1.0000000;" />
      <stop
         id="stop1494"
         offset="1.0000000"
         style="stop-color:#e2e2e2;stop-opacity:1.0000000;" />
    </linearGradient>
    <linearGradient
       id="linearGradient1495"
       x1="749.24924"
       x2="380.10222"
       xlink:href="#linearGradient1492"
       y1="207.82652"
       y2="686.15207"
       gradientTransform="scale(0.955425,1.046655)"
       gradientUnits="userSpaceOnUse" />
    <linearGradient
       id="linearGradient1497"
       x1="741.63899"
       x2="622.33327"
       xlink:href="#linearGradient1492"
       y1="169.44361"
       y2="287.73826"
       gradientTransform="scale(0.955293,1.046800)"
       gradientUnits="userSpaceOnUse" />
    <linearGradient
       id="linearGradient1499"
       x1="687.96373"
       x2="330.88033"
       xlink:href="#linearGradient1501"
       y1="236.12772"
       y2="418.53634"
       gradientTransform="scale(0.989009,1.011113)"
       gradientUnits="userSpaceOnUse" />
    <linearGradient
       id="linearGradient1506"
       x1="0.052173913"
       x2="0.78260869"
       xlink:href="#linearGradient1507"
       y1="0.97656250"
       y2="0.0078125000" />
    <linearGradient
       id="linearGradient1556"
       x1="0.31111112"
       x2="0.62222224"
       xlink:href="#linearGradient1507"
       y1="-0.56250000"
       y2="0.79687500" />
    <radialGradient
       cx="0.50000000"
       cy="0.89285713"
       fx="0.54117650"
       fy="3.5200000"
       id="radialGradient856"
       r="0.54606670"
       xlink:href="#linearGradient841" />
    <linearGradient
       id="linearGradient1944"
       xlink:href="#linearGradient841" />
    <radialGradient
       gradientUnits="userSpaceOnUse"
       r="12.562782"
       fy="37.080400"
       fx="46.384533"
       cy="37.865574"
       cx="41.875938"
       id="radialGradient1386"
       xlink:href="#linearGradient1918"
       inkscape:collect="always" />
    <linearGradient
       gradientUnits="userSpaceOnUse"
       gradientTransform="scale(0.988302,1.011837)"
       y2="70.989283"
       y1="116.07082"
       xlink:href="#linearGradient1982"
       x2="5.4840095"
       x1="81.211522"
       id="linearGradient1644" />
    <linearGradient
       gradientUnits="userSpaceOnUse"
       gradientTransform="scale(0.961706,1.039819)"
       y2="116.28294"
       y1="20.534979"
       xlink:href="#linearGradient1982"
       x2="181.64224"
       x1="45.023643"
       id="linearGradient3050" />
    <linearGradient
       gradientUnits="userSpaceOnUse"
       gradientTransform="scale(1.121334,0.891795)"
       y2="441.86894"
       y1="436.18505"
       xlink:href="#linearGradient1990"
       x2="21.609067"
       x1="27.254147"
       id="linearGradient1998" />
    <linearGradient
       gradientUnits="userSpaceOnUse"
       gradientTransform="scale(0.917519,1.089896)"
       y2="103.12432"
       y1="99.757841"
       xlink:href="#linearGradient1982"
       x2="51.658587"
       x1="48.353673"
       id="linearGradient1996" />
    <linearGradient
       gradientUnits="userSpaceOnUse"
       gradientTransform="scale(1.088969,0.918300)"
       y2="422.44497"
       y1="411.51218"
       xlink:href="#linearGradient1982"
       x2="21.619641"
       x1="23.057706"
       id="linearGradient1989" />
    <linearGradient
       gradientUnits="userSpaceOnUse"
       gradientTransform="scale(1.168503,0.855796)"
       y2="352.44402"
       y1="378.20698"
       xlink:href="#linearGradient1982"
       x2="83.709572"
       x1="101.15012"
       id="linearGradient1987" />
    <linearGradient
       gradientUnits="userSpaceOnUse"
       gradientTransform="scale(0.789568,1.266516)"
       y2="262.38469"
       y1="246.53215"
       xlink:href="#linearGradient1982"
       x2="99.764216"
       x1="76.440939"
       id="linearGradient1981" />
    <linearGradient
       gradientUnits="userSpaceOnUse"
       gradientTransform="scale(1.233739,0.810545)"
       y2="424.20239"
       y1="396.80029"
       xlink:href="#linearGradient1954"
       x2="68.691985"
       x1="49.627894"
       id="linearGradient1979" />
    <radialGradient
       gradientUnits="userSpaceOnUse"
       xlink:href="#linearGradient1806"
       r="9.8527928"
       id="radialGradient1977"
       fy="39.239628"
       fx="37.805072"
       cy="39.007645"
       cx="42.007257" />
    <pattern
       width="48.000000"
       id="pattern1961"
       height="48.000000">
      <image
         xlink:href="/usr/share/icons/hicolor/48x48/apps/wine.png"
         width="48.000000"
         sodipodi:absref="/usr/share/icons/hicolor/48x48/apps/wine.png"
         id="image1962"
         height="48.000000" />
    </pattern>
    <radialGradient
       gradientUnits="userSpaceOnUse"
       xlink:href="#linearGradient1954"
       r="10.998282"
       id="radialGradient1953"
       fy="22.164028"
       fx="53.432021"
       cy="22.775043"
       cx="58.375500" />
    <radialGradient
       xlink:href="#linearGradient1918"
       r="0.42322907"
       id="radialGradient1941"
       fy="0.18582444"
       fx="0.56333953"
       cy="0.41226101"
       cx="0.84898806" />
    <radialGradient
       xlink:href="#linearGradient1918"
       r="0.50000000"
       id="radialGradient1937"
       fy="0.46875000"
       fx="0.67944252"
       cy="0.50000000"
       cx="0.50000000" />
    <radialGradient
       gradientUnits="userSpaceOnUse"
       xlink:href="#linearGradient1918"
       r="12.562782"
       id="radialGradient1502"
       fy="31.584183"
       fx="34.828524"
       cy="37.865574"
       cx="41.875938" />
    <linearGradient
       gradientUnits="userSpaceOnUse"
       gradientTransform="scale(0.988302,1.011837)"
       y2="128.85731"
       y1="95.243884"
       xlink:href="#linearGradient1990"
       x2="53.662830"
       x1="23.770393"
       id="linearGradient1927" />
    <linearGradient
       gradientUnits="userSpaceOnUse"
       gradientTransform="scale(0.967013,1.034112)"
       y2="376.63461"
       y1="372.34343"
       xlink:href="#linearGradient1982"
       x2="34.710554"
       x1="41.803414"
       id="linearGradient1925" />
    <linearGradient
       gradientUnits="userSpaceOnUse"
       gradientTransform="scale(0.946639,1.056369)"
       y2="277.92343"
       y1="321.39782"
       xlink:href="#linearGradient1918"
       x2="28.429239"
       x1="104.84399"
       id="linearGradient1922" />
    <linearGradient
       gradientUnits="userSpaceOnUse"
       gradientTransform="scale(1.133936,0.881884)"
       y2="332.33321"
       y1="370.90508"
       xlink:href="#linearGradient1908"
       x2="28.057237"
       x1="68.265486"
       id="linearGradient1915" />
    <linearGradient
       gradientUnits="userSpaceOnUse"
       gradientTransform="scale(1.598611,0.625543)"
       y2="12.402272"
       y1="12.402272"
       xlink:href="#linearGradient1918"
       x2="26.262699"
       x1="17.133599"
       id="linearGradient1912" />
    <linearGradient
       gradientUnits="userSpaceOnUse"
       gradientTransform="scale(1.184518,0.844225)"
       y2="351.19707"
       y1="397.89075"
       xlink:href="#linearGradient1908"
       x2="26.172458"
       x1="78.753585"
       id="linearGradient1911" />
    <pattern
       width="48.000000"
       id="pattern1900"
       height="48.000000">
      <image
         xlink:href="/usr/share/icons/hicolor/48x48/apps/wine.png"
         width="48.000000"
         sodipodi:absref="/usr/share/icons/hicolor/48x48/apps/wine.png"
         id="image1901"
         height="48.000000" />
    </pattern>
    <pattern
       width="48.000000"
       id="pattern1891"
       height="48.000000">
      <image
         xlink:href="/usr/share/icons/hicolor/48x48/apps/wallpaper.png"
         width="48.000000"
         sodipodi:absref="/usr/share/icons/hicolor/48x48/apps/wallpaper.png"
         id="image1892"
         height="48.000000" />
    </pattern>
    <pattern
       width="48.000000"
       id="pattern1882"
       height="48.000000">
      <image
         xlink:href="/usr/share/icons/hicolor/48x48/apps/ooo_web.xpm"
         width="48.000000"
         sodipodi:absref="/usr/share/icons/hicolor/48x48/apps/ooo_web.xpm"
         id="image1883"
         height="48.000000" />
    </pattern>
    <pattern
       width="48.000000"
       id="pattern1873"
       height="48.000000">
      <image
         xlink:href="/usr/share/icons/hicolor/48x48/apps/im-jabber.png"
         width="48.000000"
         sodipodi:absref="/usr/share/icons/hicolor/48x48/apps/im-jabber.png"
         id="image1874"
         height="48.000000" />
    </pattern>
    <pattern
       width="48.000000"
       id="pattern1864"
       height="48.000000">
      <image
         xlink:href="/usr/share/icons/hicolor/48x48/apps/gnome-starthere.png"
         width="48.000000"
         sodipodi:absref="/usr/share/icons/hicolor/48x48/apps/gnome-starthere.png"
         id="image1865"
         height="48.000000" />
    </pattern>
    <linearGradient
       id="linearGradient1908">
      <stop
         style="stop-color:#884631;stop-opacity:1.0000000;"
         offset="0.0000000"
         id="stop1909" />
      <stop
         style="stop-color:#df421e;stop-opacity:1.0000000;"
         offset="0.62500000"
         id="stop3698" />
      <stop
         style="stop-color:#efa08e;stop-opacity:1.0000000;"
         offset="0.81250000"
         id="stop3699" />
      <stop
         style="stop-color:#fff;stop-opacity:1;"
         offset="1"
         id="stop1910" />
    </linearGradient>
    <linearGradient
       id="linearGradient1918">
      <stop
         style="stop-color:#000000;stop-opacity:0.31638417;"
         offset="0.0000000"
         id="stop1919" />
      <stop
         style="stop-color:#000000;stop-opacity:0.079096042;"
         offset="0.50000000"
         id="stop1920" />
      <stop
         style="stop-color:#000000;stop-opacity:0.0000000;"
         offset="1.0000000"
         id="stop1921" />
    </linearGradient>
    <linearGradient
       id="linearGradient1806">
      <stop
         style="stop-color:#000000;stop-opacity:0.40677965;"
         offset="0.0000000"
         id="stop1807" />
      <stop
         style="stop-color:#000000;stop-opacity:0.073446326;"
         offset="0.64777780"
         id="stop3276" />
      <stop
         style="stop-color:#000000;stop-opacity:0.0000000;"
         offset="1.0000000"
         id="stop1808" />
    </linearGradient>
    <linearGradient
       id="linearGradient1954">
      <stop
         style="stop-color:#ffffff;stop-opacity:0.78431374;"
         offset="0.0000000"
         id="stop1955" />
      <stop
         style="stop-color:#990000;stop-opacity:0.0000000;"
         offset="0.81000000"
         id="stop3697" />
      <stop
         style="stop-color:#ffffff;stop-opacity:0.0000000;"
         offset="1.0000000"
         id="stop1957" />
    </linearGradient>
    <linearGradient
       id="linearGradient1982">
      <stop
         style="stop-color:#ffffff;stop-opacity:1.0000000;"
         offset="0.0000000"
         id="stop1983" />
      <stop
         style="stop-color:#ffffff;stop-opacity:0.078431375;"
         offset="0.60111111"
         id="stop1984" />
      <stop
         style="stop-color:#ffffff;stop-opacity:0.0000000;"
         offset="1.0000000"
         id="stop1985" />
    </linearGradient>
    <linearGradient
       id="linearGradient1990">
      <stop
         style="stop-color:#000000;stop-opacity:0.0000000;"
         offset="0.0000000"
         id="stop1991" />
      <stop
         style="stop-color:#000000;stop-opacity:0.11299435;"
         offset="0.50000000"
         id="stop1992" />
      <stop
         style="stop-color:#000000;stop-opacity:0.0000000;"
         offset="1.0000000"
         id="stop1993" />
    </linearGradient>
  </defs>
  <sodipodi:namedview
     bordercolor="#666666"
     borderopacity="1.0"
     id="base"
     inkscape:cx="75.446071"
     inkscape:cy="66.466984"
     inkscape:pageopacity="0.0"
     inkscape:pageshadow="2"
     inkscape:window-height="950"
     inkscape:window-width="1280"
     inkscape:window-x="0"
     inkscape:window-y="25"
     inkscape:zoom="0.48680823"
     pagecolor="#ffffff"
     inkscape:current-layer="svg1" />
  <g
     id="g1694"
     transform="matrix(0.764672,0.000000,0.000000,0.832601,2.793871,-3.567802)">
    <path
       d="M 17.159384,6.3292894 L 17.159384,43.068526 L 17.159384,79.807768 L 17.159384,116.54700 L 17.159384,153.28624 L 50.687024,153.28624 L 84.214664,153.28624 L 117.74230,153.28624 L 151.26994,153.28624 L 151.26994,116.54700 L 151.26994,79.807768 L 151.26994,43.068526 L 117.74230,6.3292894 L 84.214664,6.3292894 L 50.687024,6.3292894 L 17.159384,6.3292894 z "
       id="path930"
       sodipodi:nodetypes="cccccccccccccccc"
       style="fill:#ffffff;fill-rule:evenodd;stroke-width:0.42649043;stroke-opacity:0.36477986" />
    <g
       id="g1552"
       style="fill:#000000;fill-opacity:0.069182344"
       transform="matrix(0.304171,0.000000,0.000000,0.297572,-36.70399,-112.4880)">
      <path
         d="M 173.35959,408.81260 L 173.35959,531.07360 L 173.35959,653.33460 L 173.35959,775.59560 L 173.35959,897.85660 L 282.12187,897.85660 L 390.88417,897.85660 L 499.64646,897.85660 L 608.40874,897.85660 L 608.40874,775.59560 L 608.40874,653.33460 L 608.40874,531.07360 L 499.64646,408.81260 L 390.88417,408.81260 L 282.12187,408.81260 L 173.35959,408.81260 z "
         id="path1505"
         sodipodi:nodetypes="cccccccccccccccc"
         style="fill:#000000;fill-opacity:0.069182344;fill-rule:evenodd;stroke-width:0.95407495pt" />
      <path
         d="M 170.12500,407.18750 C 170.12500,571.82292 170.12500,736.45833 170.12500,901.09375 C 317.30208,901.09375 464.47917,901.09375 611.65625,901.09375 C 611.65625,777.33333 611.65625,653.57292 611.65625,529.81250 C 574.80918,488.38978 537.97604,446.95335 501.09375,405.56250 C 390.77083,405.56250 280.44792,405.56250 170.12500,405.56250 C 170.12500,405.89583 170.12500,406.97917 170.12500,407.18750 z "
         id="path1538"
         style="fill:#000000;fill-opacity:0.069182344;fill-rule:evenodd;stroke-width:0.95407495pt" />
      <path
         d="M 166.87500,403.93750 C 166.87500,570.73958 166.87500,737.54167 166.87500,904.34375 C 316.21875,904.34375 465.56250,904.34375 614.90625,904.34375 C 614.90625,779.08333 614.90625,653.82292 614.90625,528.56250 C 577.45517,486.47298 540.01754,444.37017 502.53125,402.31250 C 390.64583,402.31250 278.76042,402.31250 166.87500,402.31250 C 166.87500,402.64583 166.87500,403.72917 166.87500,403.93750 z "
         id="path1543"
         style="fill:#000000;fill-opacity:0.069182344;fill-rule:evenodd;stroke-width:0.95407495pt" />
    </g>
    <path
       d="M 297.99034,136.74154 L 297.99034,260.57234 L 297.99034,384.40315 L 297.99034,508.23395 L 297.99034,632.06475 L 410.99634,632.06475 L 524.00235,632.06475 L 637.00835,632.06475 L 750.01435,632.06475 L 750.01435,508.23395 L 750.01435,384.40315 L 750.01435,260.57234 L 637.00835,136.74154 L 524.00235,136.74154 L 410.99634,136.74154 L 297.99034,136.74154 z "
       id="rect900"
       sodipodi:nodetypes="cccccccccccccccc"
       style="fill:url(#linearGradient1495);fill-opacity:1.0000000;fill-rule:evenodd;stroke:#000000;stroke-width:1.4375000;stroke-opacity:0.36477986"
       transform="matrix(0.296689,0.000000,0.000000,0.296689,-71.19601,-34.05825)" />
    <path
       d="M 750.01435,260.57234 C 715.94460,250.48602 671.79788,251.91624 638.44792,257.66516 C 644.20618,220.71628 644.92597,174.41021 637.00835,136.74154 L 750.01435,260.57234 z "
       id="path906"
       sodipodi:nodetypes="cccc"
       style="fill:url(#linearGradient1497);fill-opacity:1.0000000;fill-rule:evenodd;stroke-width:0.95407495pt"
       transform="matrix(0.296689,0.000000,0.000000,0.296689,-71.19601,-34.05825)" />
    <path
       d="M 301.30655,174.90867 L 299.27069,628.90434 L 743.08709,628.90434 L 743.34157,516.67783 C 733.41677,520.49506 633.15091,378.49417 506.92790,384.60173 C 380.59029,390.71484 413.27857,193.23136 301.30655,174.90867 z "
       id="path1500"
       sodipodi:nodetypes="cccczc"
       style="fill:url(#linearGradient1499);fill-opacity:1.0000000;fill-rule:evenodd;stroke-width:1.0000000pt"
       transform="matrix(0.296689,0.000000,0.000000,0.296689,-71.19601,-34.05825)" />
  </g>
  <g
     transform="matrix(0.752231,0.000000,0.000000,0.835274,8.091064,6.926516)"
     id="wineglass">
    <path
       style="fill:url(#linearGradient3050);fill-opacity:1.0000000;fill-rule:evenodd;stroke-width:0.75000000"
       sodipodi:nodetypes="czzzzzzz"
       id="path1056"
       d="M 75.948894,20.745164 L 61.319553,44.962300 C 57.420484,51.416738 57.488810,80.214220 58.647141,81.385494 L 61.408043,84.177249 C 62.635979,85.418912 83.283520,79.365875 92.224442,72.438593 L 117.14977,53.126849 C 121.33451,49.884582 110.58066,35.576021 103.67860,30.284828 C 96.776533,24.993625 78.951243,15.775135 75.948894,20.745164 z " />
    <path
       transform="matrix(6.929434,0.000000,0.000000,3.084932,-205.8924,0.927250)"
       style="fill:url(#radialGradient1977);fill-opacity:1.0000000;fill-rule:evenodd;stroke-width:1.0000000pt"
       sodipodi:type="arc"
       sodipodi:ry="12.562782"
       sodipodi:rx="12.562782"
       sodipodi:cy="37.865574"
       sodipodi:cx="41.875938"
       id="path1976"
       d="M 54.438721 37.865574 A 12.562782 12.562782 0 1 1  29.313156,37.865574 A 12.562782 12.562782 0 1 1  54.438721 37.865574 z" />
    <path
       transform="matrix(4.074372,0.000000,0.000000,1.541655,-73.11689,66.55027)"
       style="fill:url(#radialGradient1502);fill-opacity:1.0000000;fill-rule:evenodd;stroke-width:1.0000000pt"
       sodipodi:type="arc"
       sodipodi:ry="12.562782"
       sodipodi:rx="12.562782"
       sodipodi:cy="37.865574"
       sodipodi:cx="41.875938"
       id="path1934"
       d="M 54.438721 37.865574 A 12.562782 12.562782 0 1 1  29.313156,37.865574 A 12.562782 12.562782 0 1 1  54.438721 37.865574 z" />
    <path
       transform="matrix(4.331314,0.000000,0.000000,1.248007,-125.8529,73.05806)"
       style="fill:url(#radialGradient1386);fill-opacity:1.0000000;fill-rule:evenodd;stroke-width:1.0000000pt"
       sodipodi:type="arc"
       sodipodi:ry="12.562782"
       sodipodi:rx="12.562782"
       sodipodi:cy="37.865574"
       sodipodi:cx="41.875938"
       id="path1936"
       d="M 54.438721 37.865574 A 12.562782 12.562782 0 1 1  29.313156,37.865574 A 12.562782 12.562782 0 1 1  54.438721 37.865574 z" />
    <path
       transform="matrix(3.856546,0.000000,0.000000,1.602573,-116.3511,82.22937)"
       style="fill:url(#radialGradient1953);fill-opacity:1.0000000;fill-rule:evenodd;stroke-width:1.0000000pt"
       sodipodi:type="arc"
       sodipodi:ry="10.998282"
       sodipodi:rx="10.998282"
       sodipodi:cy="22.775043"
       sodipodi:cx="58.375500"
       id="path1952"
       d="M 69.373782 22.775043 A 10.998282 10.998282 0 1 1  47.377217,22.775043 A 10.998282 10.998282 0 1 1  69.373782 22.775043 z" />
    <path
       transform="translate(-1.089322,-10.89322)"
       style="fill:url(#linearGradient1927);fill-opacity:1.0000000;fill-rule:evenodd;stroke-width:1.0000000pt"
       sodipodi:nodetypes="ccczzzccc"
       id="path3076"
       d="M 62.488746,94.742202 L 40.352416,123.49980 L 41.249573,127.14432 L 49.620842,140.53053 C 53.965664,147.47817 32.387125,136.57050 26.518719,132.12709 C 20.650307,127.68368 7.5270076,111.43188 14.410389,113.87005 L 34.672623,121.04718 L 59.350329,91.569670 L 62.488746,94.742202 z " />
    <path
       style="fill:url(#linearGradient1644);fill-opacity:1.0000000;fill-rule:evenodd;stroke-width:1.0000000pt"
       sodipodi:nodetypes="ccczzzccc"
       id="path1643"
       d="M 61.354125,84.205155 L 39.217795,112.96275 L 40.114952,116.60727 L 48.486221,129.99348 C 52.831043,136.94112 31.252504,126.03345 25.384098,121.59004 C 19.515686,117.14663 6.3923869,100.89483 13.275768,103.33300 L 33.538002,110.51013 L 58.215708,81.032623 L 61.354125,84.205155 z " />
    <g
       transform="matrix(0.679574,0.733608,-0.733608,0.679574,280.8556,-185.2491)"
       id="g3112">
      <path
         transform="matrix(0.738614,-0.674128,0.674128,0.738614,-236.0049,123.8602)"
         style="fill:url(#linearGradient1915);fill-rule:evenodd;stroke-width:1.0000000pt"
         sodipodi:nodetypes="czzccccc"
         id="path3075"
         d="M 59.566561,346.69634 L 58.914426,330.71898 C 58.721774,325.99899 58.672546,316.75399 63.765894,316.75399 C 69.299455,316.75399 75.923114,314.33926 83.748758,314.33926 C 91.574399,314.33926 102.59120,320.24524 102.59120,320.24524 L 84.347762,338.21856 C 84.347762,338.21856 66.413998,348.97882 63.153314,348.32668 C 59.892631,347.67454 59.566561,346.69634 59.566561,346.69634 z " />
      <path
         transform="matrix(0.738614,-0.674128,0.674128,0.738614,-236.0049,123.8602)"
         style="fill:url(#linearGradient1922);fill-opacity:1.0000000;fill-rule:evenodd;stroke-width:0.75000000"
         sodipodi:nodetypes="czzzzzzz"
         id="path3077"
         d="M 71.267562,290.12096 L 58.224828,315.22823 C 54.748627,321.91991 56.667547,350.65348 57.898759,351.74789 L 60.833373,354.35644 C 62.138569,355.51662 82.441808,348.24692 90.831667,340.66156 L 114.63466,319.14105 C 118.56148,315.59078 107.18943,302.45722 99.961582,297.62054 C 92.733733,292.78385 73.944295,284.96825 71.267562,290.12096 z " />
      <path
         transform="matrix(0.738614,-0.674128,0.674128,0.738614,-236.0049,123.8602)"
         style="fill:url(#linearGradient1911);fill-rule:evenodd;stroke-width:1.0000000pt"
         sodipodi:nodetypes="czzccccc"
         id="path3078"
         d="M 59.855168,348.81328 L 59.203033,332.83592 C 59.010382,328.11592 59.152198,315.60273 64.054501,318.87093 C 68.896368,322.09884 71.600418,323.60372 79.426062,323.60372 C 87.251704,323.60372 107.49111,315.67579 103.80207,321.90105 L 84.636369,340.33550 C 84.636369,340.33550 66.702605,351.09576 63.441921,350.44362 C 60.181238,349.79148 59.855168,348.81328 59.855168,348.81328 z " />
      <path
         transform="matrix(2.942502,-0.555238,0.212587,2.236651,-65.28913,288.6336)"
         style="fill:url(#linearGradient1912);fill-opacity:1.0000000;fill-rule:evenodd;stroke-width:1.4922816"
         sodipodi:type="arc"
         sodipodi:ry="2.8553233"
         sodipodi:rx="7.2969375"
         sodipodi:cy="7.7581573"
         sodipodi:cx="34.686890"
         id="path3079"
         d="M 41.983827 7.7581573 A 7.2969375 2.8553233 0 1 1  27.389952,7.7581573 A 7.2969375 2.8553233 0 1 1  41.983827 7.7581573 z" />
      <path
         transform="matrix(0.738614,-0.674128,0.674128,0.738614,-236.0049,123.8602)"
         style="fill:url(#linearGradient1979);fill-opacity:1.0000000;fill-rule:evenodd;stroke-width:1.0000000pt"
         id="path3080"
         d="M 61.360727,339.43340 L 61.360727,325.59949 C 61.360727,325.59949 61.821857,321.44932 66.433163,323.29384 C 71.044466,325.13836 77.039161,330.67193 83.494986,326.98288 C 89.950811,323.29384 87.645158,336.20549 80.267072,338.51114 C 72.888989,340.81680 61.360727,339.43340 61.360727,339.43340 z " />
      <path
         transform="matrix(0.738614,-0.674128,0.674128,0.738614,-236.0049,123.8602)"
         style="fill:url(#linearGradient1981);fill-opacity:1.0000000;fill-rule:evenodd;stroke-width:1.0000000pt"
         id="path3081"
         d="M 70.583336,301.15958 C 70.583336,301.15958 64.127510,308.99880 62.282988,316.83801 C 60.438466,324.67723 59.516208,344.04471 61.360727,345.42810 C 63.205249,346.81149 91.334203,312.22671 87.645158,312.22671 C 83.956117,312.22671 70.583336,301.15958 70.583336,301.15958 z " />
      <path
         transform="matrix(0.738614,-0.674128,0.674128,0.738614,-236.0049,123.8602)"
         style="fill:url(#linearGradient1987);fill-opacity:1.0000000;fill-rule:evenodd;stroke-width:1.0000000pt"
         sodipodi:nodetypes="czzz"
         id="path3082"
         d="M 100.09606,301.93815 C 102.85091,303.24323 116.75953,314.70602 112.31886,318.38944 C 108.10209,321.88712 90.637756,307.45964 89.627645,305.55222 C 88.617531,303.64479 97.341214,300.63307 100.09606,301.93815 z " />
    </g>
    <path
       transform="translate(-1.089322,-10.89322)"
       style="fill:url(#linearGradient1996);fill-rule:evenodd;stroke-width:1.0000000pt"
       sodipodi:nodetypes="ccccc"
       id="path3085"
       d="M 35.035180,121.02854 L 58.968092,93.559994 L 61.393042,96.036656 L 39.332846,124.86980 L 35.035180,121.02854 z " />
    <g
       transform="matrix(0.775200,0.631716,-0.631716,0.775200,241.9578,-212.8171)"
       id="g3120">
      <path
         transform="matrix(0.738614,-0.674128,0.674128,0.738614,-236.0049,123.8602)"
         style="fill:url(#linearGradient1989);fill-opacity:1.0000000;fill-rule:evenodd;stroke-width:1.0000000pt"
         sodipodi:nodetypes="czzzzz"
         id="path3083"
         d="M 29.167989,378.19783 C 26.909557,376.81768 11.723330,370.96998 11.886363,372.65467 C 12.049396,374.33936 16.463796,381.77102 20.364140,385.37134 C 24.603028,389.28416 32.102603,394.17518 34.385082,394.50125 C 36.667561,394.82732 39.928247,384.55617 36.993630,382.76279 C 34.059016,380.96941 31.426421,379.57799 29.167989,378.19783 z " />
      <path
         transform="matrix(0.738614,-0.674128,0.674128,0.738614,-236.0049,123.8602)"
         style="fill:url(#linearGradient1925);fill-opacity:1.0000000;fill-rule:evenodd;stroke-width:1.0000000pt"
         id="path3084"
         d="M 34.575606,381.19367 C 34.575606,381.19367 38.034084,382.34650 39.878606,388.80232 C 41.723129,395.25815 44.489909,398.71663 41.723129,397.79437 C 38.956345,396.87211 23.508478,390.18572 26.736392,386.72724 C 29.964303,383.26876 29.042042,377.96576 34.575606,381.19367 z " />
      <path
         transform="matrix(0.738614,-0.674128,0.674128,0.738614,-236.0049,123.8602)"
         style="fill:url(#linearGradient1998);fill-opacity:1.0000000;fill-rule:evenodd;stroke-width:1.0000000pt"
         sodipodi:nodetypes="cccc"
         id="path3086"
         d="M 19.166958,381.83573 C 19.166958,381.83573 32.535762,380.20539 35.959482,387.05282 C 39.383198,393.90026 43.538658,399.84848 41.093147,399.68544 C 38.647632,399.52241 20.145163,387.70496 19.166958,381.83573 z " />
    </g>
  </g>
</svg>
