<?xml version="1.0" encoding="UTF-8" standalone="no"?>
<!-- Created with Inkscape (http://www.inkscape.org/) -->

<svg
 xmlns:svg="http://www.w3.org/2000/svg"
 xmlns="http://www.w3.org/2000/svg"
 xmlns:inkscape="http://www.inkscape.org/namespaces/inkscape"
 version="1.1"
 width="720"
 height="720"
 id="svg2">
<defs
 id="defs4">
<inkscape:path-effect
 effect="skeletal"
 id="path-effect3059" />
<inkscape:path-effect
 effect="skeletal"
 id="path-effect3041" />
<inkscape:path-effect
 effect="skeletal"
 id="path-effect3023" />
<inkscape:path-effect
 effect="skeletal"
 id="path-effect3005" />
<inkscape:path-effect
 effect="skeletal"
 id="path-effect2986" />
<inkscape:path-effect
 effect="spiro"
 id="path-effect2984" />
<inkscape:path-effect
 effect="skeletal"
 id="path-effect2965" />
<inkscape:path-effect
 effect="spiro"
 id="path-effect2963" />
<inkscape:path-effect
 effect="skeletal"
 id="path-effect2944" />
<inkscape:path-effect
 effect="spiro"
 id="path-effect2942" />
<inkscape:path-effect
 effect="spiro"
 id="path-effect2938" />
</defs>
<g
 id="layer1" />
<g
 transform="matrix(2.004773269689737,0,0,2.004773269689737,-391.4341422944201,7.550593283326294)"
 id="g3784">
<path
 d="m 374.8225066920975,18.68012073129341 c -43.3923890131205,0 -78.59375,35.17011098687951 -78.59375,78.56250000000007 0,43.39238901312042 35.2013609868795,78.56250000000001 78.59375,78.56250000000001 -42.7331611218428,-7.535009276743 -71.2850092767429,-48.2668388781573 -63.75,-91.00000000000011 6.7258245261045,-38.14404635683508 39.9325903332062,-64.97353724067214 77.375,-64.93749999999994 -4.4293979263778,-0.77519126351878 -8.9735821391095,-1.1875 -13.625,-1.1875 z"
 id="path2865"
 style="fill:#eec73e;fill-opacity:1;stroke:none" />
<path
 d="m 402.1069766080139,21.06720253925021 c -42.7331611218429,-7.5350092767429 -83.5069600195186,20.98813651066849 -91.0419692962615,63.72129763251135 -7.535009276743,42.73316112184284 21.0243382585022,83.48161128278904 63.7574993803451,91.01662055953194 -40.7755077539009,-14.8410711095107 -61.8205811963482,-59.912069096477 -46.9795100868376,-100.68757685037769 13.2472882774148,-36.39662541120267 50.608460896419,-57.05222167436001 87.475778426566,-50.51492571425148 -4.2274948688197,-1.53257124445782 -8.6310460519075,-2.72770539230288 -13.2117984238118,-3.53541562741393 z"
 id="path3706"
 style="fill:#f0a513;fill-opacity:1;stroke:none" />
<path
 d="m 428.5624217121431,28.15591769030754 c -40.7755077539009,-14.84107110951066 -85.8828533154047,6.1684481270903 -100.7239244249153,46.94395588099121 -14.8410711095107,40.77550775390086 6.2085016509688,85.86417605048406 46.9840094048697,100.70524715999475 -37.5789112162592,-21.6961945065603 -50.4777660390259,-69.73690141227 -28.7815715324658,-107.31581262852894 19.3662398778671,-33.54331142003196 59.746618984411,-47.39740322228961 94.9186495905203,-34.55748097246127 -3.8971415188881,-2.24338482365249 -8.0262599979382,-4.1850308365462 -12.3971630380087,-5.77590943999552 z"
 id="path3708"
 style="fill:#fb8b00;fill-opacity:1;stroke:none" />
<path
 d="m 453.3850066920974,39.73087916166345 c -37.5789112162592,-21.69619450656027 -85.649239572123,-8.83866543144417 -107.3454340786832,28.74024578481503 -21.6961945065604,37.57891121625912 -8.7959771375759,85.63780127825472 28.7829340786833,107.33399578481501 -33.2404984771581,-27.8920900123322 -37.6012095035899,-77.44281326722598 -9.7091194912579,-110.68331174438398 24.8967580794205,-29.67080088509813 67.0694062878096,-36.30243865755324 99.4774656178208,-17.55002465825192 -3.4483754959538,-2.88603429018792 -7.177600095415,-5.51519623654881 -11.2058461265626,-7.84090516699401 z"
 id="path3710"
 style="fill:#f44800;fill-opacity:1;stroke:none" />
<path
 d="M 475.8205098640948,55.44038760622405 C 442.5800113869368,27.54829759389183 393.007292839046,31.86316699279933 365.115202826714,65.10366546995739 337.2231128143816,98.3441639471153 341.5820082149394,147.9130307189614 374.8225066920975,175.8051207312936 346.9304166797651,142.5646222541355 351.2403474475799,93.0094563022819 384.4808459247376,65.11736628994967 c 29.6708008850984,-24.8967580794203 72.3543236199103,-24.10444286412742 101.0137091903506,-0.009319725543 -2.8948323285373,-3.44099306521975 -6.1108524460338,-6.67778518972775 -9.6740452509931,-9.66765895818276 z"
 id="path3712"
 style="fill:#ffff99;fill-opacity:1;stroke:none" />
<path
 d="M 495.1872398171668,74.80711755929593 C 467.2951498048346,41.56661908213795 417.7262830329886,37.2077236815803 384.4857845558307,65.09981369391259 c -33.2404984771581,27.89209001233207 -37.5553678760654,77.464808560223 -9.6632778637332,110.7053070373809 -21.6961945065604,-37.5789112162593 -8.8465770099488,-85.63281122374958 28.73233420631,-107.32900573030994 33.5433114200322,-19.36623987786675 75.4407914418744,-11.1740457717117 99.4807023245347,17.53166838231094 -2.2533311456738,-3.89139900719154 -4.8584296373202,-7.63747301903933 -7.848303405775,-11.20066582399876 z"
 id="path3714"
 style="fill:#ffff00;fill-opacity:1;stroke:none" />
<path
 d="M 510.8967482617273,97.24262073129338 C 489.200553755167,59.66370951503424 441.1416636931714,46.76349214604991 403.5627524769124,68.45968665261027 365.9838412606531,90.1558811591704 353.1263121855373,138.2262095150344 374.8225066920975,175.8051207312936 c -14.8410711095107,-40.7755077539011 6.1578039904833,-85.8680483817473 46.9333117443838,-100.70911949125812 36.3966254112028,-13.24728827741442 76.2350289907594,2.09586904713748 94.9250246582521,34.53996561782062 -1.54336363619,-4.2235667594726 -3.4583859025608,-8.3651000954151 -5.7840948330057,-12.39334612656279 z"
 id="path3720"
 style="fill:#fdca01;fill-opacity:1;stroke:none" />
<path
 d="M 522.4717097330833,122.0652057112475 C 507.6306386235727,81.28969795734664 462.5419703269894,60.24012519686726 421.7664625730886,75.08119630637803 380.9909548191876,89.92226741588852 359.981435582587,135.0296129773926 374.8225066920975,175.8051207312935 c -7.5350092767429,-42.7331611218431 20.9750832326637,-83.49422834099455 63.7082443545062,-91.0292376177377 38.1440463568352,-6.72582452610422 74.7129037605457,15.30210194555031 87.4850981521085,50.49878347609881 -0.7865018036005,-4.4274035729951 -1.9532608621801,-8.8385578383367 -3.544139465629,-13.2094608784071 z"
 id="path3722"
 style="fill:#986601;fill-opacity:1;stroke:none" />
<path
 d="m 529.5604248841407,148.5206508153768 c -7.5350092767434,-42.7331611218429 -48.2834594376891,-71.29250865708792 -91.0166205595319,-63.75749938034491 -42.7331611218431,7.53500927674273 -71.2563069092541,48.3088081744188 -63.7212976325113,91.04196929626161 0,-43.3923890131208 35.1550451847238,-78.58347842221884 78.547434197844,-78.58347842221914 38.7324797557339,2.4e-13 70.9206647561225,28.04338821958474 77.3869812082085,64.92322135207314 -0.0057425117,-4.4967159693265 -0.3887869788991,-9.0434604738665 -1.1964972140099,-13.6242128457707 z"
 id="path3724"
 style="fill:#f44800;fill-opacity:1;stroke:none" />
<path
 d="m 531.9475066920977,175.8051207312932 c -5e-13,-43.3923890131206 -35.1701109868795,-78.59374999999998 -78.5625000000002,-78.59374999999984 -43.3923890131207,-2.3e-13 -78.5625,35.20136098687967 -78.5625,78.59375000000015 7.535009276743,-42.7331611218431 48.2668388781573,-71.2850092767428 91,-63.7500000000002 38.1440463568351,6.7258245261047 64.9735372406719,39.9325903332062 64.9374999999998,77.3749999999998 0.7751912635156,-4.4293979263784 1.1875,-8.9735821391096 1.1875,-13.6249999999999 z"
 id="path3726"
 style="fill:#fd3301;fill-opacity:1;stroke:none" />
<path
 d="m 529.5604248841408,203.0895906472098 c 7.5350092767427,-42.733161121843 -20.9881365106684,-83.5069600195185 -63.7212976325113,-91.0419692962614 -42.733161121843,-7.5350092767431 -83.481611282789,21.0243382585024 -91.0166205595319,63.7574993803452 14.8410711095108,-40.7755077539011 59.9120690964771,-61.8205811963481 100.6875768503778,-46.9795100868378 36.3966254112026,13.2472882774149 57.0522216743595,50.608460896419 50.5149257142511,87.4757784265657 1.5325712444544,-4.227494868821 2.7277053923026,-8.6310460519075 3.5354156274141,-13.2117984238118 z"
 id="path3728"
 style="fill:#d40000;fill-opacity:1;stroke:none" />
<path
 d="m 522.4717097330833,229.5450357513391 c 14.8410711095105,-40.7755077539011 -6.1684481270903,-85.8828533154047 -46.9439558809909,-100.7239244249153 -40.7755077539011,-14.8410711095109 -85.8641760504841,6.208501650969 -100.7052471599948,46.9840094048698 21.6961945065605,-37.5789112162593 69.7369014122702,-50.4777660390259 107.3158126285292,-28.781571532466 33.5433114200317,19.3662398778672 47.3974032222893,59.7466189844109 34.5574809724611,94.9186495905201 2.2433848236493,-3.89714151889 4.1850308365457,-8.0262599979382 5.7759094399953,-12.3971630380087 z"
 id="path3730"
 style="fill:#980101;fill-opacity:1;stroke:none" />
<path
 d="m 510.8967482617274,254.3676207312934 c 21.6961945065599,-37.5789112162594 8.8386654314443,-85.6492395721229 -28.7402457848146,-107.3454340786831 -37.5789112162592,-21.6961945065605 -85.6378012782547,-8.7959771375757 -107.3339957848151,28.7829340786834 27.8920900123324,-33.2404984771581 77.4428132672262,-37.60120950359 110.6833117443841,-9.7091194912581 29.6708008850978,24.8967580794206 36.3024386575531,67.0694062878095 17.5500246582518,99.4774656178207 2.8860342901853,-3.4483754959563 5.5151962365485,-7.1776000954152 7.8409051669939,-11.2058461265629 z"
 id="path3732"
 style="fill:#fdd99b;fill-opacity:1;stroke:none" />
<path
 d="m 495.1872398171669,276.8031239032908 c 27.8920900123317,-33.2404984771583 23.5772206134248,-82.8132170250486 -9.6632778637329,-110.7053070373807 -33.240498477158,-27.8920900123325 -82.8093652490039,-23.5331946117744 -110.7014552613363,9.7073038653836 33.2404984771582,-27.8920900123323 82.7956644290118,-23.5821592445176 110.6877544413441,9.6583392326401 24.89675807942,29.6708008850983 24.1044428641272,72.3543236199101 0.00931972554,101.0137091903503 3.4409930652177,-2.8948323285402 6.6777851897275,-6.1108524460339 9.6676589581827,-9.6740452509933 z"
 id="path3734"
 style="fill:#d9bb7a;fill-opacity:1;stroke:none" />
<path
 d="m 475.8205098640951,296.1698538563628 c 33.2404984771576,-27.8920900123326 37.5993938777153,-77.4609567841782 9.7073038653837,-110.7014552613359 -27.8920900123321,-33.2404984771583 -77.4648085602229,-37.5553678760653 -110.7053070373811,-9.6632778637331 37.5789112162594,-21.6961945065603 85.6328112237498,-8.8465770099489 107.3290057303102,28.7323342063099 19.3662398778665,33.5433114200321 11.1740457717115,75.4407914418741 -17.5316683823138,99.4807023245339 3.8913990071899,-2.2533311456772 7.637473019039,-4.8584296373204 11.2006658239986,-7.8483034057753 z"
 id="path3736"
 style="fill:#816647;fill-opacity:1;stroke:none" />
<path
 d="m 453.3850066920977,311.8793623009232 c 37.5789112162588,-21.6961945065607 50.4791285852433,-69.7550845685558 28.7829340786835,-107.3339957848146 -21.6961945065601,-37.5789112162594 -69.7665228624241,-50.436440291375 -107.3454340786835,-28.7402457848148 40.7755077539011,-14.8410711095106 85.8680483817474,6.1578039904832 100.7091194912583,46.9333117443837 13.2472882774142,36.3966254112029 -2.0958690471376,76.2350289907592 -34.5399656178233,94.9250246582509 4.2235667594715,-1.5433636361934 8.3651000954148,-3.458385902561 12.3933461265627,-5.7840948330061 z"
 id="path3738"
 style="fill:#565248;fill-opacity:1;stroke:none" />
<path
 d="m 428.5624217121436,323.4543237722792 c 40.7755077539006,-14.8410711095111 61.82508051438,-59.9297394060939 46.9840094048698,-100.7052471599943 -14.8410711095106,-40.7755077539012 -59.9484166710145,-61.7850269905016 -100.7239244249157,-46.943955880991 42.733161121843,-7.535009276743 83.4942283409947,20.9750832326635 91.0292376177378,63.7082443545061 6.7258245261041,38.144046356835 -15.3021019455503,74.7129037605461 -50.4987834761012,87.4850981521071 4.4274035729946,-0.7865018036036 8.8385578383364,-1.95326086218 13.209460878407,-3.5441394656292 z"
 id="path3740"
 style="fill:#aaccee;fill-opacity:1;stroke:none" />
<path
 d="m 402.1069766080142,330.5430389233363 c 42.7331611218427,-7.5350092767436 71.2925086570876,-48.2834594376892 63.7574993803451,-91.0166205595315 -7.5350092767428,-42.7331611218432 -48.3088081744186,-71.256306909254 -91.0419692962618,-63.7212976325112 43.3923890131207,-1e-13 78.583478422219,35.1550451847237 78.5834784222194,78.547434197844 -4e-13,38.7324797557338 -28.0433882195848,70.9206647561224 -64.9232213520753,77.3869812082072 4.4967159693265,-0.0057425117 9.0434604738661,-0.3887869788993 13.6242128457706,-1.1964972140102 z"
 id="path3742"
 style="fill:#6699cc;fill-opacity:1;stroke:none" />
<path
 d="m 374.8225066920978,332.9301207312933 c 43.3923890131205,-8e-13 78.5937499999997,-35.1701109868799 78.5937500000001,-78.5624999999997 3e-13,-43.3923890131208 -35.2013609868794,-78.5624999999998 -78.5937500000004,-78.5625 42.7331611218432,7.5350092767429 71.285009276743,48.2668388781573 63.7500000000007,91 -6.7258245261049,38.144046356835 -39.9325903332063,64.9735372406719 -77.3750000000016,64.9374999999978 4.4293979263783,0.7751912635154 8.9735821391093,1.1874999999995 13.6249999999997,1.1874999999997 z"
 id="path3744"
 style="fill:#336699;fill-opacity:1;stroke:none" />
<path
 d="m 347.5380367761817,330.5430389233368 c 42.7331611218429,7.5350092767421 83.5069600195183,-20.9881365106688 91.0419692962614,-63.7212976325109 7.5350092767432,-42.7331611218432 -21.0243382585021,-83.4816112827889 -63.7574993803454,-91.016620559532 40.7755077539012,14.8410711095107 61.8205811963483,59.912069096477 46.979510086838,100.6875768503778 -13.2472882774149,36.3966254112025 -50.608460896419,57.0522216743599 -87.475778426567,50.514925714249 4.2274948688209,1.5325712444547 8.6310460519073,2.7277053923025 13.2117984238117,3.5354156274136 z"
 id="path3746"
 style="fill:#003366;fill-opacity:1;stroke:none" />
<path
 d="m 321.0825916720525,323.4543237722795 c 40.7755077539011,14.8410711095099 85.8828533154045,-6.1684481270906 100.7239244249152,-46.9439558809907 14.841071109511,-40.7755077539012 -6.2085016509687,-85.8641760504839 -46.98400940487,-100.7052471599948 37.5789112162595,21.6961945065603 50.4777660390261,69.73690141227 28.7815715324662,107.3158126285292 -19.3662398778671,33.5433114200317 -59.7466189844108,47.3974032222894 -94.9186495905209,34.5574809724585 3.8971415188898,2.2433848236496 8.0262599979381,4.1850308365458 12.3971630380088,5.7759094399952 z"
 id="path3748"
 style="fill:#b3defd;fill-opacity:1;stroke:none" />
<path
 d="m 296.2600066920983,311.8793623009236 c 37.5789112162594,21.6961945065596 85.6492395721228,8.8386654314438 107.345434078683,-28.7402457848145 21.6961945065606,-37.5789112162594 8.795977137576,-85.6378012782545 -28.7829340786836,-107.3339957848151 33.2404984771583,27.8920900123323 37.6012095035902,77.442813267226 9.7091194912583,110.6833117443841 -24.8967580794205,29.6708008850979 -67.0694062878092,36.3024386575531 -99.477465617821,17.5500246582491 3.448375495956,2.8860342901854 7.1776000954151,5.5151962365484 11.2058461265631,7.8409051669936 z"
 id="path3750"
 style="fill:#0197fd;fill-opacity:1;stroke:none" />
<path
 d="m 273.8245035201005,296.1698538563628 c 33.2404984771582,27.8920900123316 82.8132170250485,23.5772206134241 110.7053070373808,-9.6632778637328 27.8920900123325,-33.2404984771582 23.5331946117746,-82.809365249004 -9.7073038653838,-110.7014552613364 27.8920900123326,33.2404984771581 23.582159244518,82.7956644290118 -9.6583392326397,110.687754441344 -29.6708008850983,24.8967580794202 -72.3543236199101,24.1044428641275 -101.0137091903501,0.00931972554 2.8948323285398,3.4409930652177 6.1108524460338,6.6777851897274 9.6740452509934,9.6676589581824 z"
 id="path3752"
 style="fill:#0169c9;fill-opacity:1;stroke:none" />
<path
 d="m 254.4577735670285,276.8031239032908 c 27.8920900123326,33.2404984771575 77.460956784178,37.599393877715 110.701455261336,9.7073038653839 33.2404984771583,-27.8920900123323 37.5553678760654,-77.464808560223 9.663277863733,-110.7053070373812 21.6961945065607,37.5789112162593 8.8465770099491,85.6328112237498 -28.7323342063098,107.32900573031 -33.543311420032,19.3662398778667 -75.440791441874,11.1740457717119 -99.4807023245337,-17.5316683823137 2.2533311456768,3.8913990071898 4.8584296373203,7.6374730190389 7.8483034057755,11.2006658239984 z"
 id="path3754"
 style="fill:#013397;fill-opacity:1;stroke:none" />
<path
 d="m 238.748265122468,254.3676207312935 c 21.6961945065606,37.5789112162587 69.7550845685556,50.4791285852428 107.3339957848147,28.7829340786836 37.5789112162593,-21.6961945065603 50.4364402913752,-69.7665228624241 28.7402457848148,-107.3454340786835 14.8410711095108,40.7755077539011 -6.1578039904828,85.8680483817474 -46.9333117443837,100.709119491258 -36.3966254112028,13.2472882774144 -76.2350289907592,-2.0958690471372 -94.9250246582507,-34.5399656178231 1.543363636193,4.2235667594714 3.4583859025608,8.3651000954147 5.7840948330063,12.3933461265626 z"
 id="path3756"
 style="fill:#ccff99;fill-opacity:1;stroke:none" />
<path
 d="m 227.1733036511121,229.5450357513393 c 14.8410711095111,40.7755077539005 59.9297394060937,61.8250805143796 100.7052471599943,46.98400940487 40.7755077539011,-14.8410711095107 61.7850269905019,-59.9484166710145 46.9439558809911,-100.7239244249157 7.535009276743,42.7331611218431 -20.9750832326634,83.4942283409947 -63.7082443545061,91.0292376177376 -38.1440463568352,6.7258245261042 -74.7129037605462,-15.3021019455501 -87.4850981521069,-50.4987834761009 0.7865018036031,4.4274035729943 1.9532608621797,8.8385578383362 3.5441394656293,13.2094608784069 z"
 id="path3758"
 style="fill:#98fc66;fill-opacity:1;stroke:none" />
<path
 d="m 220.0845885000547,203.0895906472101 c 7.5350092767435,42.7331611218426 48.283459437689,71.2925086570872 91.0166205595315,63.7574993803453 42.733161121843,-7.535009276743 71.2563069092543,-48.3088081744187 63.7212976325113,-91.0419692962619 3e-13,43.3923890131208 -35.1550451847235,78.5834784222191 -78.5474341978438,78.5834784222191 -38.732479755734,-3e-13 -70.9206647561225,-28.0433882195846 -77.3869812082071,-64.9232213520749 0.0057425117,4.4967159693262 0.388786978899,9.043460473866 1.1964972140103,13.6242128457706 z"
 id="path3760"
 style="fill:#339900;fill-opacity:1;stroke:none" />
<path
 d="m 217.6975066920977,175.8051207312937 c 6e-13,43.3923890131203 35.1701109868795,78.5937499999993 78.5624999999996,78.5937500000002 43.3923890131206,-9e-14 78.5625000000002,-35.2013609868795 78.5625000000002,-78.5937500000004 -7.5350092767429,42.7331611218431 -48.2668388781572,71.285009276743 -90.9999999999998,63.7500000000002 -38.1440463568352,-6.7258245261048 -64.973537240672,-39.9325903332061 -64.9374999999979,-77.3750000000012 -0.7751912635153,4.4293979263781 -1.1874999999998,8.9735821391092 -1.1874999999996,13.6249999999998 z"
 id="path3762"
 style="fill:#015a01;fill-opacity:1;stroke:none" />
<path
 d="m 220.0845885000544,148.5206508153775 c -7.5350092767422,42.7331611218427 20.9881365106686,83.5069600195178 63.7212976325109,91.0419692962615 42.7331611218429,7.5350092767427 83.4816112827891,-21.0243382585021 91.0166205595322,-63.7574993803454 -14.8410711095107,40.7755077539012 -59.912069096477,61.8205811963484 -100.6875768503775,46.9795100868379 -36.3966254112027,-13.247288277415 -57.0522216743599,-50.6084608964189 -50.5149257142493,-87.4757784265667 -1.5325712444544,4.2274948688206 -2.7277053923026,8.6310460519072 -3.5354156274135,13.2117984238117 z"
 id="path3764"
 style="fill:#002b3d;fill-opacity:1;stroke:none" />
<path
 d="m 227.1733036511116,122.0652057112483 c -14.8410711095099,40.7755077539008 6.1684481270906,85.8828533154039 46.9439558809908,100.7239244249153 40.7755077539011,14.8410711095104 85.8641760504842,-6.2085016509687 100.7052471599951,-46.98400940487 -21.6961945065604,37.5789112162595 -69.7369014122701,50.4777660390262 -107.3158126285291,28.7815715324662 -33.5433114200319,-19.3662398778673 -47.3974032222894,-59.7466189844109 -34.5574809724589,-94.9186495905207 -2.2433848236493,3.8971415188896 -4.1850308365459,8.026259997938 -5.7759094399951,12.3971630380086 z"
 id="path3766"
 style="fill:#ff9bff;fill-opacity:1;stroke:none" />
<path
 d="m 238.7482651224674,97.24262073129382 c -21.6961945065595,37.57891121625919 -8.8386654314437,85.64923957212228 28.7402457848147,107.34543407868316 37.5789112162593,21.69619450656 85.6378012782548,8.7959771375759 107.3339957848154,-28.7829340786835 -27.8920900123324,33.2404984771582 -77.4428132672262,37.6012095035902 -110.6833117443841,9.7091194912583 -29.670800885098,-24.8967580794208 -36.3024386575531,-67.0694062878095 -17.5500246582495,-99.47746561782096 -2.8860342901852,3.4483754959559 -5.5151962365485,7.177600095415 -7.8409051669936,11.20584612656293 z"
 id="path3768"
 style="fill:#ff00ff;fill-opacity:1;stroke:none" />
<path
 d="m 254.4577735670279,74.80711755929627 c -27.8920900123315,33.24049847715813 -23.5772206134242,82.81321702504811 9.663277863733,110.70530703738083 33.2404984771582,27.892090012332 82.8093652490042,23.5331946117746 110.7014552613366,-9.7073038653836 -33.2404984771582,27.8920900123324 -82.795664429012,23.5821592445177 -110.6877544413441,-9.6583392326399 -24.8967580794202,-29.6708008850986 -24.1044428641273,-72.35432361991024 -0.00931972554,-101.01370919035025 -3.4409930652175,2.89483232853975 -6.6777851897275,6.11085244603369 -9.6676589581825,9.6740452509933 z"
 id="path3774"
 style="fill:#6600cc;fill-opacity:1;stroke:none" />
<path
 d="m 273.8245035201,55.44038760622454 c -33.2404984771573,27.89209001233245 -37.599393877715,77.46095678417765 -9.7073038653837,110.70145526133606 27.8920900123325,33.2404984771578 77.4648085602232,37.5553678760655 110.7053070373814,9.6632778637331 -37.5789112162594,21.6961945065605 -85.6328112237499,8.846577009949 -107.3290057303102,-28.7323342063098 -19.3662398778666,-33.5433114200323 -11.1740457717116,-75.44079144187453 17.5316683823138,-99.48070232453399 -3.8913990071897,2.25333114567676 -7.637473019039,4.8584296373202 -11.2006658239984,7.84830340577539 z"
 id="path3776"
 style="fill:#eeeeee;fill-opacity:1;stroke:none" />
<path
 d="M 296.2600066920974,39.73087916166426 C 258.6810954758389,61.42707366822488 245.7808781068547,109.4859637302197 267.477072613414,147.064874946479 c 21.6961945065606,37.578911216259 69.7665228624243,50.4364402913753 107.3454340786837,28.7402457848149 -40.7755077539011,14.8410711095108 -85.8680483817475,-6.1578039904831 -100.7091194912582,-46.9333117443837 -13.2472882774143,-36.39662541120289 2.0958690471375,-76.2350289907594 34.5399656178232,-94.92502465825073 -4.2235667594713,1.54336363619296 -8.3651000954148,3.45838590256075 -12.3933461265625,5.78409483300613 z"
 id="path3778"
 style="fill:#cccccf;fill-opacity:1;stroke:none" />
<path
 d="m 321.0825916720515,28.15591769030796 c -40.7755077539003,14.84107110951111 -61.8250805143795,59.92973940609358 -46.9840094048698,100.70524715999444 14.8410711095109,40.7755077539008 59.9484166710145,61.785026990502 100.7239244249158,46.9439558809912 -42.7331611218431,7.535009276743 -83.4942283409948,-20.9750832326635 -91.0292376177377,-63.7082443545061 -6.7258245261042,-38.14404635683536 15.3021019455503,-74.71290376054633 50.498783476101,-87.48509815210692 -4.4274035729943,0.78650180360313 -8.8385578383364,1.95326086217969 -13.2094608784068,3.5441394656292 z"
 id="path3780"
 style="fill:#aaaaaa;fill-opacity:1;stroke:none" />
<path
 d="m 347.5380367761807,21.06720253925055 c -42.7331611218423,7.53500927674347 -71.2925086570871,48.28345943768894 -63.7574993803451,91.01662055953156 7.5350092767431,42.7331611218428 48.3088081744186,71.2563069092544 91.0419692962619,63.7212976325114 -43.3923890131207,1e-13 -78.5834784222192,-35.1550451847237 -78.5834784222192,-78.54743419784372 3e-13,-38.73247975573401 28.0433882195848,-70.92066475612259 64.923221352075,-77.38698120820706 -4.4967159693262,0.0057425117 -9.0434604738662,0.38878697889899 -13.6242128457704,1.19649721401023 z"
 id="path3782"
 style="fill:#888888;fill-opacity:1;stroke:none" />
</g>
</svg>
