<?xml version="1.0" encoding="UTF-8" standalone="no"?>
<!-- Created with Inkscape (http://www.inkscape.org/) -->
<svg
   xmlns:dc="http://purl.org/dc/elements/1.1/"
   xmlns:cc="http://web.resource.org/cc/"
   xmlns:rdf="http://www.w3.org/1999/02/22-rdf-syntax-ns#"
   xmlns:svg="http://www.w3.org/2000/svg"
   xmlns="http://www.w3.org/2000/svg"
   xmlns:xlink="http://www.w3.org/1999/xlink"
   xmlns:sodipodi="http://inkscape.sourceforge.net/DTD/sodipodi-0.dtd"
   xmlns:inkscape="http://www.inkscape.org/namespaces/inkscape"
   width="102.40000pt"
   height="102.40000pt"
   id="svg2"
   sodipodi:version="0.32"
   inkscape:version="0.42"
   sodipodi:docbase="/home/Joel/.icons/Complexity-0.1/scalable/filesystems"
   sodipodi:docname="gnome-fs-directory.svg">
  <defs
     id="defs4">
    <linearGradient
       id="linearGradient4335">
      <stop
         style="stop-color:#b7b7b7;stop-opacity:0.72164947;"
         offset="0.0000000"
         id="stop4337" />
      <stop
         style="stop-color:#b7b7b7;stop-opacity:0;"
         offset="1"
         id="stop4339" />
    </linearGradient>
    <linearGradient
       id="linearGradient4327">
      <stop
         style="stop-color:#919191;stop-opacity:0.38144329;"
         offset="0.0000000"
         id="stop4329" />
      <stop
         style="stop-color:#000000;stop-opacity:0.0000000;"
         offset="1.0000000"
         id="stop4331" />
    </linearGradient>
    <linearGradient
       inkscape:collect="always"
       id="linearGradient4313">
      <stop
         style="stop-color:#b7b7b7;stop-opacity:1;"
         offset="0"
         id="stop4315" />
      <stop
         style="stop-color:#b7b7b7;stop-opacity:0;"
         offset="1"
         id="stop4317" />
    </linearGradient>
    <linearGradient
       inkscape:collect="always"
       id="linearGradient4303">
      <stop
         style="stop-color:#000000;stop-opacity:1;"
         offset="0"
         id="stop4305" />
      <stop
         style="stop-color:#000000;stop-opacity:0;"
         offset="1"
         id="stop4307" />
    </linearGradient>
    <linearGradient
       id="linearGradient2776">
      <stop
         style="stop-color:#f1e194;stop-opacity:1.0000000;"
         offset="0.0000000"
         id="stop2778" />
      <stop
         style="stop-color:#e9d362;stop-opacity:1.0000000;"
         offset="1.0000000"
         id="stop2780" />
    </linearGradient>
    <linearGradient
       inkscape:collect="always"
       xlink:href="#linearGradient2776"
       id="linearGradient2782"
       x1="50.994900"
       y1="40.524384"
       x2="49.353466"
       y2="97.060875"
       gradientUnits="userSpaceOnUse"
       gradientTransform="matrix(1.098605,0.000000,0.000000,0.948809,-1.160021,15.82770)" />
    <linearGradient
       inkscape:collect="always"
       xlink:href="#linearGradient2776"
       id="linearGradient2790"
       x1="74.490173"
       y1="17.119358"
       x2="73.431328"
       y2="95.566200"
       gradientUnits="userSpaceOnUse"
       gradientTransform="matrix(1.098605,0.000000,0.000000,1.034574,-1.160021,7.503009)" />
    <linearGradient
       inkscape:collect="always"
       xlink:href="#linearGradient2776"
       id="linearGradient4294"
       gradientUnits="userSpaceOnUse"
       gradientTransform="matrix(1.098605,0.000000,0.000000,1.034574,-1.160021,7.503009)"
       x1="74.490173"
       y1="17.119358"
       x2="73.431328"
       y2="95.566200" />
    <linearGradient
       inkscape:collect="always"
       xlink:href="#linearGradient2776"
       id="linearGradient4296"
       gradientUnits="userSpaceOnUse"
       gradientTransform="matrix(1.098605,0.000000,0.000000,0.948809,-1.160021,15.82770)"
       x1="50.994900"
       y1="40.524384"
       x2="49.353466"
       y2="97.060875" />
    <linearGradient
       inkscape:collect="always"
       xlink:href="#linearGradient4313"
       id="linearGradient4319"
       x1="64.762337"
       y1="119.71278"
       x2="38.207066"
       y2="113.90945"
       gradientUnits="userSpaceOnUse" />
    <radialGradient
       inkscape:collect="always"
       xlink:href="#linearGradient4303"
       id="radialGradient4323"
       cx="63.949417"
       cy="113.90945"
       fx="63.949417"
       fy="113.90945"
       r="57.508587"
       gradientTransform="matrix(1.000000,0.000000,0.000000,4.349349e-2,0.000000,108.9551)"
       gradientUnits="userSpaceOnUse" />
    <radialGradient
       inkscape:collect="always"
       xlink:href="#linearGradient4335"
       id="radialGradient4341"
       cx="190.49339"
       cy="109.84487"
       fx="190.49339"
       fy="109.84487"
       r="53.110535"
       gradientTransform="matrix(1.000000,0.000000,0.000000,6.632653e-2,4.968248e-15,102.5592)"
       gradientUnits="userSpaceOnUse" />
    <linearGradient
       inkscape:collect="always"
       xlink:href="#linearGradient2776"
       id="linearGradient4365"
       gradientUnits="userSpaceOnUse"
       gradientTransform="matrix(1.098605,0.000000,0.000000,1.034574,-1.160021,7.503009)"
       x1="74.490173"
       y1="17.119358"
       x2="73.431328"
       y2="95.566200" />
    <linearGradient
       inkscape:collect="always"
       xlink:href="#linearGradient2776"
       id="linearGradient4367"
       gradientUnits="userSpaceOnUse"
       gradientTransform="matrix(1.098605,0.000000,0.000000,0.948809,-1.160021,15.82770)"
       x1="50.994900"
       y1="40.524384"
       x2="49.353466"
       y2="97.060875" />
  </defs>
  <sodipodi:namedview
     id="base"
     pagecolor="#ffffff"
     bordercolor="#666666"
     borderopacity="1.0"
     inkscape:pageopacity="0.0"
     inkscape:pageshadow="2"
     inkscape:zoom="3.6904167"
     inkscape:cx="124.14661"
     inkscape:cy="73.327392"
     inkscape:document-units="px"
     inkscape:current-layer="layer1"
     showgrid="false"
     inkscape:window-width="1280"
     inkscape:window-height="949"
     inkscape:window-x="0"
     inkscape:window-y="25" />
  <metadata
     id="metadata7">
    <rdf:RDF>
      <cc:Work
         rdf:about="">
        <dc:format>image/svg+xml</dc:format>
        <dc:type
           rdf:resource="http://purl.org/dc/dcmitype/StillImage" />
        <dc:title>Complexity Folder</dc:title>
        <dc:date>09-23-2005</dc:date>
        <dc:creator>
          <cc:Agent>
            <dc:title>Joel Montes de Oca</dc:title>
          </cc:Agent>
        </dc:creator>
        <dc:rights>
          <cc:Agent>
            <dc:title>Joel Montes de Oca</dc:title>
          </cc:Agent>
        </dc:rights>
        <dc:publisher>
          <cc:Agent>
            <dc:title>Joel Montes de Oca</dc:title>
          </cc:Agent>
        </dc:publisher>
        <dc:subject>
          <rdf:Bag>
            <rdf:li>folder</rdf:li>
          </rdf:Bag>
        </dc:subject>
        <dc:description>A floder for the Complexity icon set</dc:description>
        <cc:license
           rdf:resource="http://web.resource.org/cc/PublicDomain" />
      </cc:Work>
      <cc:License
         rdf:about="http://web.resource.org/cc/PublicDomain">
        <cc:permits
           rdf:resource="http://web.resource.org/cc/Reproduction" />
        <cc:permits
           rdf:resource="http://web.resource.org/cc/Distribution" />
        <cc:permits
           rdf:resource="http://web.resource.org/cc/DerivativeWorks" />
      </cc:License>
    </rdf:RDF>
  </metadata>
  <g
     inkscape:label="Layer 1"
     inkscape:groupmode="layer"
     id="layer1">
    <path
       sodipodi:type="arc"
       style="fill:url(#radialGradient4341);fill-opacity:1.0000000;stroke:none;stroke-width:0.10000000;stroke-miterlimit:4.0000000;stroke-dasharray:none;stroke-opacity:1.0000000"
       id="path4325"
       sodipodi:cx="190.49339"
       sodipodi:cy="109.84487"
       sodipodi:rx="53.110535"
       sodipodi:ry="3.5226374"
       d="M 243.60393 109.84487 A 53.110535 3.5226374 0 1 1  137.38286,109.84487 A 53.110535 3.5226374 0 1 1  243.60393 109.84487 z"
       transform="matrix(1.073980,0.000000,0.000000,2.692308,17.20454,-169.9039)" />
    <g
       id="g4372">
      <path
         sodipodi:nodetypes="ccccc"
         id="rect4369"
         d="M 36.944542,69.199050 L 127.08591,69.199050 L 106.12872,122.03861 L 15.987355,122.03861 L 36.944542,69.199050 z "
         style="fill:#b7b7b7;fill-opacity:0.20967741;stroke:none;stroke-width:0.10000000;stroke-miterlimit:4.0000000;stroke-opacity:1.0000000" />
      <g
         transform="matrix(0.913009,0.000000,0.000000,1.110533,-0.668338,-2.948724)"
         id="g4343">
        <path
           style="fill:#b7b7b7;fill-opacity:0.20967741;stroke:#000000;stroke-width:0.10000000;stroke-miterlimit:4.0000000;stroke-opacity:1.0000000"
           d="M 18.697075,84.102520 L 104.59524,107.94807 L 9.2130515,107.40612 L 18.697075,84.102520 z "
           id="rect4298"
           sodipodi:nodetypes="cccc" />
        <g
           id="g4274"
           transform="translate(-0.270972,-0.541944)">
          <path
             style="fill:url(#linearGradient4365);fill-opacity:1.0000000;stroke:#af900b;stroke-width:0.42862418;stroke-miterlimit:4.0000000;stroke-dasharray:none;stroke-opacity:1.0000000"
             d="M 31.052252,25.421189 L 126.79647,25.421189 L 104.89826,107.71478 L 9.1540211,107.71478 L 31.052252,25.421189 z "
             id="path2053"
             sodipodi:nodetypes="ccccc" />
          <path
             sodipodi:nodetypes="ccccc"
             id="rect3518"
             d="M 24.609883,32.715601 L 122.06293,32.715601 C 115.54755,56.903543 110.27840,82.051121 109.45860,105.95409 L 12.005543,105.95409 L 24.609883,32.715601 z "
             style="fill:#000000;fill-opacity:0.096774168;stroke:none;stroke-width:0.40000001;stroke-miterlimit:4.0000000;stroke-opacity:1.0000000" />
          <g
             transform="matrix(9.693971e-3,1.051634,-1.091779,9.337523e-3,70.74603,-55.08543)"
             id="g4253">
            <rect
               style="fill:#ffffff;fill-opacity:1.0000000;stroke:#000000;stroke-width:0.099999979;stroke-miterlimit:4.0000000;stroke-dasharray:none;stroke-opacity:1.0000000"
               id="rect4247"
               width="87.794937"
               height="73.704399"
               x="-46.379532"
               y="79.966599"
               transform="matrix(9.775073e-3,-0.999952,0.999952,9.775073e-3,0.000000,0.000000)" />
            <path
               style="fill:none;fill-opacity:0.75000000;fill-rule:evenodd;stroke:#000000;stroke-width:0.10000000;stroke-linecap:butt;stroke-linejoin:miter;stroke-miterlimit:4.0000000;stroke-dasharray:none;stroke-opacity:1.0000000"
               d="M 88.878852,-33.499377 C 89.034308,-33.809388 91.662653,-33.770349 93.485377,-33.770349 C 95.044767,-33.770349 96.788005,-32.686460 98.633848,-32.686460 C 99.988708,-32.686460 101.34357,-32.686460 102.69843,-32.686460 C 104.36029,-32.686460 105.86725,-32.863368 107.30496,-32.144516 C 108.56348,-31.515255 110.96744,-31.873544 112.45343,-31.873544 C 114.06071,-31.873544 115.34198,-32.934399 116.51801,-33.228405 C 117.65800,-33.513403 119.31855,-33.499377 120.85356,-33.499377 C 122.54936,-33.499377 124.20568,-32.957433 126.00203,-32.957433 C 127.54462,-32.957433 128.99525,-32.415488 130.60856,-32.415488 C 131.93789,-32.415488 133.51079,-32.144516 134.94411,-32.144516 C 136.18348,-32.144516 137.80669,-32.656932 139.00869,-32.957433 C 140.54554,-33.341644 141.89713,-33.499377 143.61522,-33.499377 C 144.33963,-33.499377 145.50992,-33.770349 146.59591,-33.770349"
               id="path4249" />
            <path
               id="path4251"
               d="M 145.65355,-26.725075 C 145.49660,-27.035086 142.84303,-26.996047 141.00280,-26.996047 C 139.42845,-26.996047 137.66848,-25.912158 135.80492,-25.912158 C 134.43704,-25.912158 133.06917,-25.912158 131.70131,-25.912158 C 130.02350,-25.912158 128.50208,-26.089066 127.05057,-25.370214 C 125.77997,-24.740953 123.35293,-25.099242 121.85267,-25.099242 C 120.22997,-25.099242 118.93640,-26.160097 117.74908,-26.454103 C 116.59815,-26.739101 114.92166,-26.725075 113.37192,-26.725075 C 111.65983,-26.725075 109.98762,-26.183131 108.17403,-26.183131 C 106.61663,-26.183131 105.15208,-25.641186 103.52327,-25.641186 C 102.18119,-25.641186 100.59319,-25.370214 99.146120,-25.370214 C 97.894841,-25.370214 96.256055,-25.882630 95.042517,-26.183131 C 93.490919,-26.567342 92.126353,-26.725075 90.391774,-26.725075 C 89.660404,-26.725075 88.478883,-26.996047 87.382466,-26.996047"
               style="fill:none;fill-opacity:0.75000000;fill-rule:evenodd;stroke:#000000;stroke-width:0.10047879;stroke-linecap:butt;stroke-linejoin:miter;stroke-miterlimit:4.0000000;stroke-dasharray:none;stroke-opacity:1.0000000" />
          </g>
          <g
             id="g4266"
             transform="matrix(9.693971e-3,1.051634,-1.091779,9.337523e-3,68.37920,-54.23050)">
            <rect
               transform="matrix(9.775073e-3,-0.999952,0.999952,9.775073e-3,0.000000,0.000000)"
               y="79.966599"
               x="-46.379532"
               height="73.704399"
               width="87.794937"
               id="rect4268"
               style="fill:#ffffff;fill-opacity:1.0000000;stroke:#000000;stroke-width:0.099999979;stroke-miterlimit:4.0000000;stroke-dasharray:none;stroke-opacity:1.0000000" />
            <path
               id="path4270"
               d="M 88.878852,-33.499377 C 89.034308,-33.809388 91.662653,-33.770349 93.485377,-33.770349 C 95.044767,-33.770349 96.788005,-32.686460 98.633848,-32.686460 C 99.988708,-32.686460 101.34357,-32.686460 102.69843,-32.686460 C 104.36029,-32.686460 105.86725,-32.863368 107.30496,-32.144516 C 108.56348,-31.515255 110.96744,-31.873544 112.45343,-31.873544 C 114.06071,-31.873544 115.34198,-32.934399 116.51801,-33.228405 C 117.65800,-33.513403 119.31855,-33.499377 120.85356,-33.499377 C 122.54936,-33.499377 124.20568,-32.957433 126.00203,-32.957433 C 127.54462,-32.957433 128.99525,-32.415488 130.60856,-32.415488 C 131.93789,-32.415488 133.51079,-32.144516 134.94411,-32.144516 C 136.18348,-32.144516 137.80669,-32.656932 139.00869,-32.957433 C 140.54554,-33.341644 141.89713,-33.499377 143.61522,-33.499377 C 144.33963,-33.499377 145.50992,-33.770349 146.59591,-33.770349"
               style="fill:none;fill-opacity:0.75000000;fill-rule:evenodd;stroke:#000000;stroke-width:0.10000000;stroke-linecap:butt;stroke-linejoin:miter;stroke-miterlimit:4.0000000;stroke-dasharray:none;stroke-opacity:1.0000000" />
            <path
               style="fill:none;fill-opacity:0.75000000;fill-rule:evenodd;stroke:#000000;stroke-width:0.10047879;stroke-linecap:butt;stroke-linejoin:miter;stroke-miterlimit:4.0000000;stroke-dasharray:none;stroke-opacity:1.0000000"
               d="M 145.65355,-26.725075 C 145.49660,-27.035086 142.84303,-26.996047 141.00280,-26.996047 C 139.42845,-26.996047 137.66848,-25.912158 135.80492,-25.912158 C 134.43704,-25.912158 133.06917,-25.912158 131.70131,-25.912158 C 130.02350,-25.912158 128.50208,-26.089066 127.05057,-25.370214 C 125.77997,-24.740953 123.35293,-25.099242 121.85267,-25.099242 C 120.22997,-25.099242 118.93640,-26.160097 117.74908,-26.454103 C 116.59815,-26.739101 114.92166,-26.725075 113.37192,-26.725075 C 111.65983,-26.725075 109.98762,-26.183131 108.17403,-26.183131 C 106.61663,-26.183131 105.15208,-25.641186 103.52327,-25.641186 C 102.18119,-25.641186 100.59319,-25.370214 99.146120,-25.370214 C 97.894841,-25.370214 96.256055,-25.882630 95.042517,-26.183131 C 93.490919,-26.567342 92.126353,-26.725075 90.391774,-26.725075 C 89.660404,-26.725075 88.478883,-26.996047 87.382466,-26.996047"
               id="path4272" />
          </g>
          <g
             id="g4258"
             transform="matrix(9.693971e-3,1.051634,-1.091779,9.337523e-3,64.82897,-55.65538)">
            <rect
               transform="matrix(9.775073e-3,-0.999952,0.999952,9.775073e-3,0.000000,0.000000)"
               y="79.966599"
               x="-46.379532"
               height="73.704399"
               width="87.794937"
               id="rect4260"
               style="fill:#ffffff;fill-opacity:1.0000000;stroke:#000000;stroke-width:0.099999979;stroke-miterlimit:4.0000000;stroke-dasharray:none;stroke-opacity:1.0000000" />
            <path
               id="path4262"
               d="M 88.878852,-33.499377 C 89.034308,-33.809388 91.662653,-33.770349 93.485377,-33.770349 C 95.044767,-33.770349 96.788005,-32.686460 98.633848,-32.686460 C 99.988708,-32.686460 101.34357,-32.686460 102.69843,-32.686460 C 104.36029,-32.686460 105.86725,-32.863368 107.30496,-32.144516 C 108.56348,-31.515255 110.96744,-31.873544 112.45343,-31.873544 C 114.06071,-31.873544 115.34198,-32.934399 116.51801,-33.228405 C 117.65800,-33.513403 119.31855,-33.499377 120.85356,-33.499377 C 122.54936,-33.499377 124.20568,-32.957433 126.00203,-32.957433 C 127.54462,-32.957433 128.99525,-32.415488 130.60856,-32.415488 C 131.93789,-32.415488 133.51079,-32.144516 134.94411,-32.144516 C 136.18348,-32.144516 137.80669,-32.656932 139.00869,-32.957433 C 140.54554,-33.341644 141.89713,-33.499377 143.61522,-33.499377 C 144.33963,-33.499377 145.50992,-33.770349 146.59591,-33.770349"
               style="fill:none;fill-opacity:0.75000000;fill-rule:evenodd;stroke:#000000;stroke-width:0.10000000;stroke-linecap:butt;stroke-linejoin:miter;stroke-miterlimit:4.0000000;stroke-dasharray:none;stroke-opacity:1.0000000" />
            <path
               style="fill:none;fill-opacity:0.75000000;fill-rule:evenodd;stroke:#000000;stroke-width:0.10047879;stroke-linecap:butt;stroke-linejoin:miter;stroke-miterlimit:4.0000000;stroke-dasharray:none;stroke-opacity:1.0000000"
               d="M 145.65355,-26.725075 C 145.49660,-27.035086 142.84303,-26.996047 141.00280,-26.996047 C 139.42845,-26.996047 137.66848,-25.912158 135.80492,-25.912158 C 134.43704,-25.912158 133.06917,-25.912158 131.70131,-25.912158 C 130.02350,-25.912158 128.50208,-26.089066 127.05057,-25.370214 C 125.77997,-24.740953 123.35293,-25.099242 121.85267,-25.099242 C 120.22997,-25.099242 118.93640,-26.160097 117.74908,-26.454103 C 116.59815,-26.739101 114.92166,-26.725075 113.37192,-26.725075 C 111.65983,-26.725075 109.98762,-26.183131 108.17403,-26.183131 C 106.61663,-26.183131 105.15208,-25.641186 103.52327,-25.641186 C 102.18119,-25.641186 100.59319,-25.370214 99.146120,-25.370214 C 97.894841,-25.370214 96.256055,-25.882630 95.042517,-26.183131 C 93.490919,-26.567342 92.126353,-26.725075 90.391774,-26.725075 C 89.660404,-26.725075 88.478883,-26.996047 87.382466,-26.996047"
               id="path4264" />
          </g>
          <path
             sodipodi:nodetypes="ccccccccc"
             id="rect1322"
             d="M 1.5643517,35.605082 L 25.335172,35.987910 L 26.789311,44.031119 L 73.703417,43.870445 L 72.625973,35.802146 L 95.815486,35.605082 C 105.07062,58.979080 106.68952,82.663475 104.55557,107.51319 L 8.7428123,107.73028 C 12.488594,83.497225 9.7999211,59.242766 1.5643517,35.605082 z "
             style="fill:url(#linearGradient4367);fill-opacity:1.0000000;stroke:#af900b;stroke-width:0.41047370;stroke-miterlimit:4.0000000;stroke-dasharray:none;stroke-opacity:1.0000000" />
          <path
             id="path3507"
             d="M 10.258076,104.52206 L 100.99889,104.52206"
             style="fill:none;fill-opacity:1.0000000;fill-rule:evenodd;stroke:#f8d02e;stroke-width:0.33741236;stroke-linecap:butt;stroke-linejoin:miter;stroke-miterlimit:4.0000000;stroke-dasharray:none;stroke-opacity:1.0000000" />
          <path
             style="fill:none;fill-opacity:1.0000000;fill-rule:evenodd;stroke:#f8d02e;stroke-width:0.33745998;stroke-linecap:butt;stroke-linejoin:miter;stroke-miterlimit:4.0000000;stroke-dasharray:none;stroke-opacity:1.0000000"
             d="M 10.253942,102.22400 L 101.02038,102.22400"
             id="path4235" />
          <path
             style="fill:none;fill-opacity:1.0000000;fill-rule:evenodd;stroke:#f8d02e;stroke-width:0.33739516;stroke-linecap:butt;stroke-linejoin:miter;stroke-miterlimit:4.0000000;stroke-dasharray:none;stroke-opacity:1.0000000"
             d="M 10.260601,106.32598 L 100.99217,106.32598"
             id="path5691" />
        </g>
      </g>
    </g>
  </g>
</svg>
