<?xml version="1.0" encoding="UTF-8" standalone="no"?>
<!-- Created with Inkscape (http://www.inkscape.org/) -->

<svg
   xmlns:dc="http://purl.org/dc/elements/1.1/"
   xmlns:cc="http://creativecommons.org/ns#"
   xmlns:rdf="http://www.w3.org/1999/02/22-rdf-syntax-ns#"
   xmlns:svg="http://www.w3.org/2000/svg"
   xmlns="http://www.w3.org/2000/svg"
   xmlns:xlink="http://www.w3.org/1999/xlink"
   xmlns:sodipodi="http://sodipodi.sourceforge.net/DTD/sodipodi-0.dtd"
   xmlns:inkscape="http://www.inkscape.org/namespaces/inkscape"
   width="2560"
   height="1600"
   id="svg2"
   sodipodi:version="0.32"
   inkscape:version="0.48.2 r9819"
   version="1.0"
   sodipodi:docname="960_grid_16_col_v4.svg"
   inkscape:output_extension="org.inkscape.output.svg.inkscape"
   style="enable-background:new"
   enable-background="new"
   inkscape:export-filename="/Users/genova/github/B3D/as/960_grid_16_col_v4.png"
   inkscape:export-xdpi="90"
   inkscape:export-ydpi="90">
  <metadata
     id="metadata2425">
    <rdf:RDF>
      <cc:Work
         rdf:about="">
        <dc:format>image/svg+xml</dc:format>
        <dc:type
           rdf:resource="http://purl.org/dc/dcmitype/StillImage" />
        <dc:title />
      </cc:Work>
    </rdf:RDF>
  </metadata>
  <defs
     id="defs4">
    <linearGradient
       id="linearGradient5646">
      <stop
         style="stop-color:#73737d;stop-opacity:1;"
         offset="0"
         id="stop5648" />
      <stop
         style="stop-color:#565656;stop-opacity:1;"
         offset="1"
         id="stop5650" />
    </linearGradient>
    <linearGradient
       id="linearGradient4564">
      <stop
         style="stop-color:#da5035;stop-opacity:1;"
         offset="0"
         id="stop4566" />
      <stop
         style="stop-color:#a60e03;stop-opacity:1;"
         offset="1"
         id="stop4568" />
    </linearGradient>
    <mask
       maskUnits="userSpaceOnUse"
       id="mask3230">
      <path
         transform="translate(0,2)"
         d="m 790,500 a 280,280 0 1 1 -560,0 280,280 0 1 1 560,0 z"
         sodipodi:ry="280"
         sodipodi:rx="280"
         sodipodi:cy="500"
         sodipodi:cx="510"
         id="path3232"
         style="fill:#ffffff;fill-opacity:1;stroke:#ffffff;stroke-width:3;stroke-miterlimit:4;stroke-opacity:1;stroke-dasharray:none"
         sodipodi:type="arc" />
    </mask>
    <linearGradient
       inkscape:collect="always"
       xlink:href="#linearGradient4564"
       id="linearGradient4582"
       gradientUnits="userSpaceOnUse"
       gradientTransform="translate(-20,0.5)"
       x1="1100"
       y1="240"
       x2="1100"
       y2="280" />
    <mask
       maskUnits="userSpaceOnUse"
       id="mask4907">
      <g
         transform="matrix(1.0163339,0,0,0.90954045,300.5245,62.992281)"
         style="fill:#ffffff"
         id="g4909">
        <rect
           ry="7.0503597"
           y="624"
           x="825"
           height="144.02878"
           width="275.5"
           id="rect4911"
           style="fill:#ffffff;fill-opacity:1;stroke:none" />
      </g>
    </mask>
    <mask
       maskUnits="userSpaceOnUse"
       id="mask4987">
      <g
         id="g4989"
         style="fill:#ffffff"
         transform="matrix(1.0163339,0,0,0.90954045,-8.4755031,62.992281)">
        <rect
           style="fill:#ffffff;fill-opacity:1;stroke:none"
           id="rect4991"
           width="275.5"
           height="144.02878"
           x="825"
           y="624"
           ry="7.0503597" />
      </g>
    </mask>
    <mask
       maskUnits="userSpaceOnUse"
       id="mask5488">
      <g
         id="g5490"
         style="fill:#ffffff"
         transform="matrix(1.0163339,0,0,0.90954045,610.5245,62.992281)">
        <rect
           style="fill:#ffffff;fill-opacity:1;stroke:none"
           id="rect5492"
           width="275.5"
           height="144.02878"
           x="825"
           y="624"
           ry="7.0503597" />
      </g>
    </mask>
    <linearGradient
       inkscape:collect="always"
       xlink:href="#linearGradient5646"
       id="linearGradient5652"
       x1="889.53308"
       y1="854.80487"
       x2="890.53308"
       y2="890.03143"
       gradientUnits="userSpaceOnUse" />
    <linearGradient
       inkscape:collect="always"
       xlink:href="#linearGradient5646"
       id="linearGradient5698"
       gradientUnits="userSpaceOnUse"
       x1="889.53308"
       y1="854.80487"
       x2="890.53308"
       y2="890.03143"
       gradientTransform="translate(300,0)" />
    <linearGradient
       inkscape:collect="always"
       xlink:href="#linearGradient5646"
       id="linearGradient5716"
       gradientUnits="userSpaceOnUse"
       gradientTransform="translate(616,0)"
       x1="889.53308"
       y1="854.80487"
       x2="890.53308"
       y2="890.03143" />
    <mask
       maskUnits="userSpaceOnUse"
       id="mask4285">
      <rect
         style="fill:#ffffff;fill-opacity:1;stroke:none"
         id="rect4287"
         width="728"
         height="90"
         x="146"
         y="0" />
    </mask>
    <linearGradient
       gradientUnits="userSpaceOnUse"
       y2="419.34396"
       x2="486.49915"
       y1="528.6297"
       x1="487.21298"
       id="linearGradient13680-7"
       xlink:href="#linearGradient13674-3"
       inkscape:collect="always" />
    <linearGradient
       y2="425.39993"
       x2="-395.84943"
       y1="274.711"
       x1="-344.15295"
       gradientTransform="matrix(-0.5914583,0,0,0.5914584,210.0216,142.2324)"
       gradientUnits="userSpaceOnUse"
       id="linearGradient2449-0"
       xlink:href="#linearGradient2555-0"
       inkscape:collect="always" />
    <linearGradient
       id="linearGradient2555-0"
       inkscape:collect="always">
      <stop
         id="stop2557-6"
         offset="0"
         style="stop-color: rgb(255, 255, 255); stop-opacity: 1;" />
      <stop
         id="stop2559-7"
         offset="1"
         style="stop-color: rgb(255, 255, 255); stop-opacity: 0;" />
    </linearGradient>
    <linearGradient
       id="linearGradient13674-3"
       inkscape:collect="always">
      <stop
         id="stop13676-5"
         offset="0"
         style="stop-color:#15a0dd;stop-opacity:1;" />
      <stop
         id="stop13678-0"
         offset="1"
         style="stop-color:#15a0dd;stop-opacity:0;" />
    </linearGradient>
  </defs>
  <sodipodi:namedview
     id="base"
     pagecolor="#ffffff"
     bordercolor="#666666"
     borderopacity="1.0"
     gridtolerance="10000"
     guidetolerance="10"
     objecttolerance="10"
     inkscape:pageopacity="0.0"
     inkscape:pageshadow="2"
     inkscape:zoom="1.4142136"
     inkscape:cx="1404.8044"
     inkscape:cy="1298.1113"
     inkscape:document-units="px"
     inkscape:current-layer="layer4"
     showgrid="false"
     showguides="true"
     inkscape:guide-bbox="true"
     inkscape:window-width="2560"
     inkscape:window-height="1392"
     inkscape:window-x="0"
     inkscape:window-y="0"
     inkscape:window-maximized="1"
     fit-margin-top="0"
     fit-margin-left="0"
     fit-margin-right="0"
     fit-margin-bottom="0">
    <sodipodi:guide
       position="800,580"
       orientation="1,0"
       id="guide-30" />
    <sodipodi:guide
       position="810,580"
       orientation="1,0"
       id="guide-40" />
    <sodipodi:guide
       position="850,580"
       orientation="1,0"
       id="guide-80" />
    <sodipodi:guide
       position="860,580"
       orientation="1,0"
       id="guide-90" />
    <sodipodi:guide
       position="870,580"
       orientation="1,0"
       id="guide-100" />
    <sodipodi:guide
       position="910,580"
       orientation="1,0"
       id="guide-140" />
    <sodipodi:guide
       position="920,580"
       orientation="1,0"
       id="guide-150" />
    <sodipodi:guide
       position="930,580"
       orientation="1,0"
       id="guide-160" />
    <sodipodi:guide
       position="970,580"
       orientation="1,0"
       id="guide-200" />
    <sodipodi:guide
       position="980,580"
       orientation="1,0"
       id="guide-210" />
    <sodipodi:guide
       position="990,580"
       orientation="1,0"
       id="guide-220" />
    <sodipodi:guide
       position="1030,580"
       orientation="1,0"
       id="guide-260" />
    <sodipodi:guide
       position="1040,580"
       orientation="1,0"
       id="guide-270" />
    <sodipodi:guide
       position="1050,580"
       orientation="1,0"
       id="guide-280" />
    <sodipodi:guide
       position="1090,580"
       orientation="1,0"
       id="guide-320" />
    <sodipodi:guide
       position="1100,580"
       orientation="1,0"
       id="guide-330" />
    <sodipodi:guide
       position="1110,580"
       orientation="1,0"
       id="guide-340" />
    <sodipodi:guide
       position="1150,580"
       orientation="1,0"
       id="guide-380" />
    <sodipodi:guide
       position="1160,580"
       orientation="1,0"
       id="guide-390" />
    <sodipodi:guide
       position="1170,580"
       orientation="1,0"
       id="guide-400" />
    <sodipodi:guide
       position="1220,580"
       orientation="1,0"
       id="guide-450" />
    <sodipodi:guide
       position="1230,580"
       orientation="1,0"
       id="guide-460" />
    <sodipodi:guide
       position="1270,580"
       orientation="1,0"
       id="guide-500" />
    <sodipodi:guide
       position="1280,580"
       orientation="1,0"
       id="guide-510" />
    <sodipodi:guide
       position="1290,580"
       orientation="1,0"
       id="guide-520" />
    <sodipodi:guide
       position="1330,580"
       orientation="1,0"
       id="guide-560" />
    <sodipodi:guide
       position="1340,580"
       orientation="1,0"
       id="guide-570" />
    <sodipodi:guide
       position="1350,580"
       orientation="1,0"
       id="guide-580" />
    <sodipodi:guide
       position="1390,580"
       orientation="1,0"
       id="guide-620" />
    <sodipodi:guide
       position="1400,580"
       orientation="1,0"
       id="guide-630" />
    <sodipodi:guide
       position="1410,580"
       orientation="1,0"
       id="guide-640" />
    <sodipodi:guide
       position="1450,580"
       orientation="1,0"
       id="guide-680" />
    <sodipodi:guide
       position="1460,580"
       orientation="1,0"
       id="guide-690" />
    <sodipodi:guide
       position="1470,580"
       orientation="1,0"
       id="guide-700" />
    <sodipodi:guide
       position="1510,580"
       orientation="1,0"
       id="guide-740" />
    <sodipodi:guide
       position="1520,580"
       orientation="1,0"
       id="guide-750" />
    <sodipodi:guide
       position="1530,580"
       orientation="1,0"
       id="guide-760" />
    <sodipodi:guide
       position="1570,580"
       orientation="1,0"
       id="guide-800" />
    <sodipodi:guide
       position="1580,580"
       orientation="1,0"
       id="guide-810" />
    <sodipodi:guide
       position="1590,580"
       orientation="1,0"
       id="guide-820" />
    <sodipodi:guide
       position="1630,580"
       orientation="1,0"
       id="guide-860" />
    <sodipodi:guide
       position="1640,580"
       orientation="1,0"
       id="guide-870" />
    <sodipodi:guide
       position="1650,580"
       orientation="1,0"
       id="guide-880" />
    <sodipodi:guide
       position="1690,580"
       orientation="1,0"
       id="guide-920" />
    <sodipodi:guide
       position="1700,580"
       orientation="1,0"
       id="guide-930" />
    <sodipodi:guide
       position="1710,580"
       orientation="1,0"
       id="guide-940" />
    <sodipodi:guide
       position="1750,580"
       orientation="1,0"
       id="guide-980" />
    <sodipodi:guide
       position="1760,580"
       orientation="1,0"
       id="guide-990" />
    <inkscape:grid
       type="xygrid"
       id="grid2390"
       visible="true"
       enabled="true"
       color="#0000ff"
       opacity="0.0627451"
       empcolor="#0000ff"
       empopacity="0.1254902"
       dotted="false"
       spacingx="1px"
       spacingy="1px"
       originx="2.7755576e-17px"
       originy="0px"
       empspacing="5"
       snapvisiblegridlinesonly="true" />
  </sodipodi:namedview>
  <g
     inkscape:groupmode="layer"
     id="layer4"
     inkscape:label="fond"
     style="display:inline"
     transform="translate(770,0)">
    <image
       y="0"
       x="-770"
       id="image4083"
       xlink:href="file:///Users/genova/github/B3D/as/image/Namib-Desert-Dunes-Africa-Landscape.jpg"
       height="1600"
       width="2560" />
    <path
       sodipodi:type="arc"
       style="fill:#ffffff;fill-opacity:0;stroke:none"
       id="path4142"
       sodipodi:cx="1280"
       sodipodi:cy="480"
       sodipodi:rx="170"
       sodipodi:ry="170"
       d="m 1450,480 c 0,93.88841 -76.1116,170 -170,170 -93.8884,0 -170,-76.11159 -170,-170 0,-93.88841 76.1116,-170 170,-170 93.8884,0 170,76.11159 170,170 z"
       transform="translate(-770,0)" />
  </g>
  <g
     inkscape:groupmode="layer"
     id="layer6"
     inkscape:label="fond2"
     style="display:none"
     transform="translate(770,0)">
    <image
       y="0"
       x="-770"
       id="image4969"
       xlink:href="file:///Users/genova/github/B3D/as/image/night_sky_hd_by_gigantor90-d30ujjx.png"
       height="1600"
       width="2560" />
  </g>
  <g
     inkscape:groupmode="layer"
     id="layer1"
     inkscape:label="pub"
     style="display:inline"
     transform="translate(770,0)">
    <image
       y="-11.014814"
       x="122"
       id="image4282"
       xlink:href="file:///Users/genova/github/B3D/as/image/photos/bande.jpg"
       height="104.02964"
       width="754"
       mask="url(#mask4285)" />
    <path
       style="fill:none;stroke:#ffffff;stroke-width:1px;stroke-linecap:butt;stroke-linejoin:miter;stroke-opacity:1"
       d="m 100,90.9 820,0 0,0"
       id="path3496"
       inkscape:connector-curvature="0"
       sodipodi:nodetypes="ccc" />
  </g>
  <g
     inkscape:groupmode="layer"
     id="layer2"
     inkscape:label="logo"
     style="display:inline"
     transform="translate(770,0)">
    <g
       style="fill:#ffb128;fill-opacity:1"
       transform="matrix(0.19933856,0,0,0.19933856,311.50632,163.08793)"
       id="g3046">
      <path
         inkscape:connector-curvature="0"
         id="path3048"
         d="m 322.45709,122.89222 c -2.91111,-0.57177 -5.57441,-1.32106 -5.91842,-1.66508 -0.86202,-0.86201 16.30296,-18.49885 54.03169,-55.516975 17.58044,-17.249335 33.05003,-32.722544 34.37686,-34.384913 6.18509,-7.749282 87.06057,-88.057902 88.65613,-88.034762 1.73203,0.0251 8.44344,8.310352 8.44344,10.423422 0,0.55918 -38.13262,39.1464277 -84.73914,85.749454 -58.63736,58.632934 -85.48125,84.692044 -87.14838,84.600594 -1.32507,-0.0727 -4.79104,-0.59997 -7.70218,-1.17174 z m 291.76684,-4.43462 c 0,-0.50255 13.56982,-14.47538 30.15515,-31.050759 l 30.15515,-30.137054 0,10.256634 0,10.256622 -20.81962,20.794137 -20.81963,20.79412 -9.33552,0 c -5.13454,0 -9.33553,-0.41117 -9.33553,-0.9137 z m -745.89775,-8.50852 c -0.33271,-0.53833 25.03667,-26.616103 56.376379,-57.950605 l 56.981296,-56.9718353 9.9906077,0.35428 9.9905929,0.35427 -57.6668946,57.5963363 -57.666881,57.596324 -8.70009,0 c -4.78505,0 -8.97231,-0.44044 -9.30501,-0.97877 z m 1487.25172,0 c -0.3327,-0.53833 25.0367,-26.616103 56.3764,-57.950605 l 56.9813,-56.9718353 10.0887,0.35428 10.0886,0.35427 -57.7112,57.5963363 -57.7114,57.596324 -8.7537,0 c -4.8146,0 -9.0259,-0.44044 -9.3587,-0.97877 z m -973.40764,-1.20556 c -0.33247,-0.53798 32.48683,-34.05542 72.93181,-74.483207 54.71236,-54.689127 73.80462,-73.077799 74.58444,-71.835829 0.57647,0.9181 1.72816,4.8737 2.5593,8.790222 l 1.51117,7.12095 -52.34283,51.878367 C 452.62561,58.747124 422.77893,88.308963 415.0882,95.90701 l -13.98316,13.81464 -9.16512,0 c -5.04084,0 -9.43716,-0.44016 -9.76966,-0.97813 z M 1879.1318,107.7113 c -0.4424,-0.44227 -0.8042,-2.20846 -0.8042,-3.92487 0,-2.50948 11.3314,-14.450262 57.85,-60.961307 31.8174,-31.812305 58.1693,-57.521125 58.5598,-57.130715 0.6268,0.62687 -4.6044,23.4150295 -5.6366,24.553795 -0.223,0.245982 -22.3742,22.456743 -49.2251,49.357245 l -48.8198,48.909992 -5.56,0 c -3.0581,0 -5.922,-0.36186 -6.3641,-0.80414 z m 154.7964,-0.10614 c 0,-0.50064 21.983,-22.888315 48.8512,-49.750411 l 48.8514,-48.8401676 0,11.0390976 0,11.039101 -39.4615,38.711308 -39.4615,38.711302 -9.3899,0 c -5.1643,0 -9.3897,-0.4096 -9.3897,-0.91023 z M 814.45411,106.39871 c 0,-1.18259 92.00246,-93.17353 93.1852,-93.17353 0.49436,0 0.89885,4.224976 0.89885,9.388828 l 0,9.38883 -37.32599,37.653201 -37.32598,37.653201 -9.71605,0 c -5.34382,0 -9.71603,-0.40974 -9.71603,-0.91053 z m 226.17299,-28.054118 28.9395,-28.964645 0.3541,9.900525 0.3541,9.900526 -19.0361,19.06412 -19.0363,19.064122 -10.2575,0 -10.2574,0 28.9396,-28.964648 z m 161.019,27.738268 c 0,-0.67451 18.8621,-19.95122 41.9157,-42.83713 46.1467,-45.811013 43.3439,-43.914411 43.6047,-29.506968 l 0.1206,6.642202 -33.4802,33.464142 -33.4801,33.464134 -9.3402,0 c -5.525,0 -9.3401,-0.50093 -9.3401,-1.22638 z M 411.58135,105.5111 c 0,-0.95822 121.54331,-124.025142 123.07303,-124.615822 1.66424,-0.642622 2.64569,7.02886 1.79884,14.0604617 L 535.633,1.7662194 485.38766,52.124704 c -33.23183,33.306649 -51.47743,50.743436 -53.88395,51.495356 -4.96474,1.55123 -19.92236,2.971 -19.92236,1.89104 z m 164.84813,-0.21221 c -0.44227,-0.44227 -0.80413,-1.37855 -0.80413,-2.08061 0,-1.43963 111.02729,-112.9110203 112.46117,-112.9110203 0.50721,0 0.91813,4.20665 0.91321,9.34810004 l -0.008,9.34810066 -48.25639,48.5497856 -48.25639,48.549784 -7.62218,0 c -4.19219,0 -7.98404,-0.36186 -8.42631,-0.80414 z m 1143.48312,-1.20621 c -2.8415,-2.84136 2.0447,-8.39996 47.6733,-54.23387 26.6626,-26.782632 48.9171,-48.6956936 49.4544,-48.6956936 0.5374,0 0.977,4.488454 0.977,9.9743266 l 0,9.974332 -41.9556,41.892521 -41.9555,41.892534 -6.6949,0 c -3.682,0 -7.0565,-0.36187 -7.4987,-0.80415 z M 117.26713,102.38669 c 0,-1.55892 58.41018,-60.212569 59.96261,-60.212569 1.1678,0 5.1882,10.310056 5.17847,13.279868 -0.004,1.001501 -10.45982,12.264448 -23.23675,25.028772 l -23.23077,23.207859 -9.33678,0 c -5.88692,0 -9.33678,-0.48179 -9.33678,-1.30393 z m 1487.25177,-0.0323 c 0,-1.65559 58.2024,-60.180243 59.8488,-60.180243 1.2534,0 5.3025,10.160644 5.2922,13.279868 0,1.001501 -10.4597,12.264448 -23.2367,25.028772 l -23.2309,23.207863 -9.3367,0 c -6.0262,0 -9.3367,-0.4738 -9.3367,-1.33627 z m 300.3452,0.42533 c 0,-1.11914 85.9386,-87.142102 87.0566,-87.142102 0.4402,0 -0.709,5.768594 -2.5538,12.819109 l -3.3542,12.819123 -31.2734,31.207392 -31.2735,31.207408 -9.3009,0 c -5.1153,0 -9.3008,-0.40992 -9.3008,-0.91094 z m -2054.16847,-1.45997 c 0,-1.10461 128.554729,-131.709616 130.412997,-132.492936 0.485197,-0.20453 0.115193,2.509452 -0.822186,6.031032 -2.301826,8.647432 -2.182448,10.048182 0.980971,11.510612 2.533261,1.17111 -1.100855,5.0787317 -54.580814,58.688286 l -57.294778,57.433616 -9.34809,-0.002 c -5.20371,-0.002 -9.3481,-0.51987 -9.3481,-1.1682 z m 1408.84837,0.24262 c 0,-1.7525 31.281,-32.127855 32.1702,-31.238725 0.4906,0.490612 1.1188,4.453191 1.3959,8.805713 l 0.5039,7.913663 -7.652,7.720709 -7.6521,7.7207 -9.383,0 c -5.1606,0 -9.3829,-0.41492 -9.3829,-0.92206 z m 78.4034,-0.2348 c 0,-1.09734 128.538,-131.728296 130.3683,-132.491156 0.4782,-0.19926 0.021,3.007972 -1.0173,7.127182 -1.8744,7.441062 -1.8685,7.504082 0.9142,9.757362 l 2.8007,2.26794 -57.1848,57.250731 -57.185,57.250731 -9.348,-0.002 c -5.1601,-0.001 -9.3481,-0.52125 -9.3481,-1.15983 z m 460.7706,0.0307 c 0,-1.47555 19.2395,-21.791805 20.6368,-21.791805 0.5912,0 1.0749,4.25822 1.0749,9.462697 0,12.279518 -1.1413,13.455218 -13.0616,13.455218 -4.7576,0 -8.6501,-0.50673 -8.6501,-1.12606 z M 686.59628,100.29762 c 0,-0.53929 1.62838,-2.54062 3.61863,-4.44739 l 3.61861,-3.46685 0,4.44739 c 0,4.13741 -0.25221,4.44739 -3.61861,4.44739 -1.99025,0 -3.61863,-0.44124 -3.61863,-0.98054 z m 1273.75332,0.1041 c 0,-1.43583 15.4934,-16.599673 16.2191,-15.874044 0.3324,0.33243 -0.337,4.101583 -1.4875,8.375904 l -2.0919,7.7715 -6.3199,0.36459 c -3.476,0.20054 -6.3198,-0.0865 -6.3198,-0.63793 z m 135.0951,0.17689 c 0,-1.09723 41.4154,-43.930018 42.4764,-43.930018 0.5208,0 0.947,4.449632 0.947,9.888077 l 0,9.88809 -12.4267,12.426719 -12.4269,12.426732 -9.2849,0 c -5.1067,0 -9.2849,-0.31481 -9.2849,-0.69958 z M 1745.846,98.92725 c 0.5069,-1.44317 75.3215,-74.846217 76.2856,-74.846217 0.3908,0 0.7105,4.221648 0.7105,9.381435 l 0,9.381447 -28.7051,28.614038 -28.705,28.614047 -9.994,0 c -5.7833,0 -9.8246,-0.48231 -9.592,-1.14472 z M -58.235829,90.43736 c 5.023208,-5.08558 8.58663,-7.87399 8.79692,-6.883695 0.194404,0.915522 -0.619785,4.599588 -1.809309,8.186805 l -2.162787,6.52222 -6.634132,0.36148 -6.634133,0.36148 8.443441,-8.54829 z m 154.534183,7.4485 C 95.96526,97.34689 114.04603,78.558574 136.47783,56.134048 l 40.7851,-40.771882 2.50891,7.429263 2.50891,7.429264 -6.19181,6.881369 c -3.40549,3.784748 -18.46841,19.229901 -33.47313,34.322552 l -27.28133,27.441186 -9.21524,0 c -5.06838,0 -9.48778,-0.44098 -9.820886,-0.97994 z m 80.072856,-0.0958 c 0,-1.22047 21.59479,-21.216434 22.13765,-20.498645 0.74006,0.97851 4.39888,11.459438 4.39888,12.600847 0,0.659238 -1.59777,2.947968 -3.55062,5.086048 -3.43752,3.76361 -3.86016,3.88744 -13.26827,3.88744 -5.34469,0 -9.71764,-0.48407 -9.71764,-1.07569 z m 197.51621,0.18431 c -3.81463,-0.23937 -6.93568,-0.81671 -6.93568,-1.28298 0,-0.46627 37.16847,-38.013263 82.59659,-83.437758 53.1815,-53.17727 83.009,-82.171774 83.75461,-81.415604 0.63692,0.64591 2.28271,3.80836 3.65732,7.02765 l 2.4993,5.853282 -76.90582,77.093943 c -55.45458,55.590242 -77.57871,77.024607 -79.31823,76.845327 -1.32682,-0.13675 -5.53346,-0.44449 -9.34809,-0.68386 z m 503.28939,-0.027 c 0,-0.5051 8.95608,-9.862094 19.9024,-20.793335 l 19.90239,-19.87498 0,10.215177 0,10.215176 -10.52915,10.578172 -10.52915,10.57816 -9.37325,0 c -5.15528,0 -9.37324,-0.41326 -9.37324,-0.91837 z m 27.26653,-0.0825 c -0.34022,-0.55049 2.34171,-3.9244 5.95984,-7.49758 l 6.57842,-6.49671 0,7.49758 0,7.49758 -5.95984,0 c -3.27791,0 -6.23821,-0.45039 -6.57842,-1.00087 z m 67.62167,0.19673 c -0.44229,-0.44226 -0.80415,-1.64934 -0.80415,-2.68237 0,-1.83762 105.81584,-108.690632 107.63544,-108.690632 0.5077,0 0.9301,4.4780317 0.9389,9.9511917 l 0.016,9.9512057 -46.3141,46.1373756 -46.31404,46.137369 -7.17691,0 c -3.94725,0 -7.5387,-0.36186 -7.98096,-0.80414 z m 104.13569,-0.25437 c 0,-0.58218 0.8141,-1.73422 1.8094,-2.5601 1.5115,-1.25454 1.8092,-1.08038 1.8092,1.05852 0,1.47151 -0.7693,2.5601 -1.8092,2.5601 -0.9953,0 -1.8094,-0.47634 -1.8094,-1.05852 z m 116.4682,-0.44924 c -2.2773,-7.497186 -4.4564,-4.89027 47.8917,-57.29478 27.3364,-27.365796 50.0626,-49.7560003 50.5029,-49.7560003 0.4403,0 1.4319,3.62614 2.2037,8.05809 l 1.4032,8.0580717 -25.102,25.2543186 c -70.867,71.29702 -66.4818,67.18806 -71.7038,67.18806 -2.7417,0 -4.9306,-0.6352 -5.1957,-1.50776 z m 98.2364,0.74553 c 0,-1.29626 6.267,-7.68122 7.5393,-7.68122 0.5814,0 0.887,1.76408 0.6791,3.92017 -0.3324,3.447 -0.8512,3.96579 -4.2982,4.29815 -2.1561,0.20789 -3.9202,-0.0338 -3.9202,-0.5371 z m 138.1107,-7.66621 c 5.0232,-5.085581 8.5865,-7.873991 8.7968,-6.883696 0.1944,0.915522 -0.6198,4.599588 -1.8093,8.186806 l -2.1627,6.52222 -6.6342,0.36148 -6.6341,0.36147 8.4435,-8.54828 z m 154.5424,7.46184 c -0.4481,-0.72496 79.6582,-82.261609 80.8184,-82.261609 0.6555,0 4.071,11.668124 4.071,13.907444 0,1.811493 -10.1591,12.930817 -32.8692,35.976261 l -32.8691,33.354424 -9.2768,-0.005 c -5.1024,-0.002 -9.5457,-0.43992 -9.8743,-0.97155 z m 80.0646,-0.0706 c 0,-1.20784 21.6237,-21.194988 22.2033,-20.52289 0.2141,0.248286 1.3312,3.33382 2.4824,6.856761 2.2366,6.844619 1.833,8.149389 -4.0806,13.195509 -2.008,1.71345 -20.6051,2.13821 -20.6051,0.47062 z m 272.6025,0.12171 c 0,-1.51767 50.5148,-51.49931 51.2777,-50.736445 0.3888,0.38876 -0.6146,5.911048 -2.2298,12.271757 -3.2647,12.856491 -3.47,13.158102 -19.6256,28.825811 l -10.8831,10.554297 -9.2696,0 c -5.0984,0 -9.2696,-0.41194 -9.2696,-0.91542 z m 188.1681,-0.0241 c 0,-1.17968 14.8299,-15.947333 16.0146,-15.947333 0.4798,0 0.8722,3.799548 0.8722,8.443443 l 0,8.44344 -8.4434,0 c -4.6438,0 -8.4434,-0.42278 -8.4434,-0.9395 z m -88.0531,-10.183684 0,-9.916966 49.1331,-49.187122 c 27.0231,-27.0528616 49.5491,-49.187062 50.0576,-49.187062 1.2374,0 1.1534,18.2769137 -0.093,20.24109374 C 2133.5703,2.6361314 2038.4998,97.6595 2037.4226,97.6595 c -0.5952,0 -1.0822,-4.46263 -1.0822,-9.916975 z M 325.63918,94.32508 c -3.81462,-0.96271 -6.91373,-2.09898 -6.88691,-2.52503 0.0268,-0.42605 15.36071,-16.328725 34.07531,-35.339289 l 34.02655,-34.564602 10.1729,-0.696211 c 5.59508,-0.382921 10.31721,-0.551887 10.49361,-0.375492 0.54285,0.542854 -70.8443,73.200534 -72.95954,74.258054 -1.15661,0.57825 -4.88313,0.26191 -8.92192,-0.75738 z m 725.23112,1.20555 c 0,-1.18152 29.2914,-30.438597 30.4741,-30.438597 0.4881,0 0.8873,4.225182 0.8873,9.389299 l 0,9.3893 -6.3705,6.291378 -6.3705,6.29138 -9.3101,0 c -5.1207,0 -9.3103,-0.41524 -9.3103,-0.92276 z M -158.13748,94.34252 c -0.29262,-0.49756 1.172,-5.24699 3.25471,-10.554296 l 3.78676,-9.649647 75.055872,-74.70585726 C -34.759397,-41.655498 -0.71891345,-75.007794 -0.39461295,-74.683494 c 0.32430051,0.3243 -1.23690405,6.407882 -3.46933775,13.519052 -3.3630466,10.712582 -4.9556606,13.906954 -9.2887533,18.630744 -2.876366,3.135732 -35.171044,35.4192277 -71.765971,71.741106 -52.977565,52.58229 -67.162885,66.039772 -69.611495,66.039772 -1.69139,0 -3.31468,-0.4071 -3.60731,-0.90466 z m 69.143398,-0.15844 c 0,-0.58472 25.596211,-26.638769 56.880463,-57.897884 l 56.880456,-56.83479 9.460864,0 c 5.203475,0 9.460864,0.41073 9.460864,0.912732 0,0.50201 -15.195106,16.1005817 -33.7669095,34.663499 l -33.7669035,33.750751 -6.929182,0.618035 -6.929182,0.618037 -1.976802,7.342644 c -1.08725,4.03845 -2.540862,8.380791 -3.230268,9.649648 -0.689407,1.268844 -7.188131,8.142022 -14.441625,15.273715 l -13.18816,12.966713 -9.226812,0 c -5.074742,0 -9.226803,-0.47839 -9.226803,-1.0631 z m 242.447382,0.3624 c 0,-1.43151 40.36806,-42.735993 41.42333,-42.384239 0.60337,0.201123 2.07881,3.538827 3.27879,7.417105 l 2.18174,7.051431 -12.16214,12.800438 c -6.68918,7.04025 -12.99944,13.478945 -14.02283,14.308205 -1.85065,1.49964 -20.69889,2.23453 -20.69889,0.80706 z m 146.00651,-1.61227 c -2.95477,-1.19801 -5.53397,-2.66318 -5.73155,-3.255962 -0.19759,-0.592766 14.25888,-15.688397 32.12551,-33.54584 l 32.48477,-32.46806 8.68455,1.552002 8.68452,1.552014 -34.2236,34.239407 c -18.82297,18.831672 -34.76995,34.209089 -35.43773,34.172019 -0.66778,-0.037 -3.63168,-1.04758 -6.58647,-2.24558 z m 662.15141,-7.038383 0,-9.351352 83.52968,-83.4672953 83.5297,-83.4672977 10.5543,-0.82819 c 6.5631,-0.515 10.5543,-0.3871 10.5543,0.33824 0,0.64154 -16.9622,17.886414 -37.6939,38.321928 -20.7317,20.435524 -62.6624,62.0563005 -93.1794,92.490624 -30.51698,30.434336 -55.89247,55.330546 -56.39003,55.324926 -0.49756,-0.006 -0.90465,-4.21833 -0.90465,-9.361583 z m 367.50298,8.446693 c -0.2927,-0.49756 1.1721,-5.24699 3.2548,-10.554296 l 3.7867,-9.649647 75.0559,-74.70585726 c 41.2807,-41.08821774 75.3212,-74.44051374 75.6455,-74.11621374 0.3243,0.3243 -1.2369,6.407882 -3.4693,13.519052 -3.3671,10.725632 -4.9517,13.901184 -9.2966,18.630744 -2.8808,3.135732 -35.1728,35.4192277 -71.7604,71.741106 -53.0338,52.648872 -67.1475,66.039772 -69.6037,66.039772 -1.6944,0 -3.3203,-0.4071 -3.6129,-0.90466 z m 69.387,-0.4292 c 0.2446,-0.73363 25.9232,-26.787673 57.0634,-57.897882 l 56.6188,-56.564032 9.3786,0 c 5.158,0 9.3783,0.41073 9.3783,0.912732 0,0.50201 -15.195,16.1005817 -33.7669,34.663499 l -33.7669,33.750751 -6.9292,0.618035 -6.9292,0.618037 -1.9768,7.342644 c -1.0872,4.03845 -2.5409,8.380791 -3.2304,9.649648 -0.6892,1.268844 -7.1879,8.142022 -14.4415,15.273715 l -13.1881,12.966713 -9.3274,0 c -6.2771,0 -9.1819,-0.43618 -8.8827,-1.33386 z m 242.2039,0.63316 c 0,-1.43151 40.3681,-42.735993 41.4232,-42.384239 0.6034,0.201123 2.0789,3.538827 3.2788,7.417105 l 2.1818,7.051431 -12.1621,12.800438 c -6.6892,7.04025 -12.9995,13.478945 -14.0229,14.308205 -1.8507,1.49964 -20.6988,2.23453 -20.6988,0.80706 z M 681.16836,77.154091 c 9.27,-9.287785 17.26892,-16.886882 17.77537,-16.886882 0.50645,0 0.92082,4.222324 0.92082,9.382943 l 0,9.382943 -7.57125,7.503939 -7.57123,7.503936 -10.20414,0 -10.20414,0 16.85457,-16.886879 z M 854.94694,92.97219 c -0.7038,-1.13875 65.12038,-66.478745 66.97137,-66.478745 0.60187,0 1.09431,4.191927 1.09431,9.315395 l 0,9.315395 -24.45836,24.458369 -24.45837,24.458366 -9.2442,0 c -5.08432,0 -9.54146,-0.48095 -9.90475,-1.06878 z M 1780.6249,91.9188 c 0,-1.18213 47.3782,-48.538473 48.5609,-48.538473 0.4914,0 0.8936,4.214471 0.8936,9.365501 l 0,9.365501 -15.3959,15.36172 -15.3959,15.361721 -9.3314,0 c -5.1322,0 -9.3313,-0.41219 -9.3313,-0.91597 z M 614.22988,90.72391 c 0.004,-0.49756 19.81522,-20.353014 44.02651,-44.12323 l 44.02057,-43.2185666 0,10.0558416 0,10.055847 -34.08312,34.067381 -34.08311,34.067377 -9.9434,0 c -5.46887,0 -9.94072,-0.40709 -9.93745,-0.90465 z M 1041.8238,49.411356 c 23.2124,-23.219462 42.6143,-42.2172046 43.1154,-42.2172046 0.5011,0 0.9112,4.2103456 0.9112,9.3563216 l 0,9.356321 -32.8773,32.860884 -32.8772,32.860882 -10.2381,0 -10.23826,0 42.20426,-42.217204 z m 1042.1997,34.823526 c 10.0506,-10.321818 49.457,-49.740891 57.6816,-57.700234 l 6.8126,-6.592928 0,10.455718 0,10.455707 -25.6319,25.383951 -25.6319,25.383964 -10.2149,0.004 -10.2151,0.004 7.1996,-7.393681 z M 493.56519,49.712907 c 40.71691,-41.2340746 49.43,-49.74683726 50.92351,-49.75273726 1.08482,-0.005 -3.31952,15.82192526 -6.38854,22.95602926 -3.52005,8.182564 -52.34041,56.672523 -60.6187,60.208443 -7.6338,3.260639 -19.96398,7.297718 -22.28891,7.297718 -1.00443,0 16.26327,-18.319256 38.37264,-40.709453 z m 86.9326,30.155148 0.0476,-9.348096 100.46202,-101.019755 100.46202,-101.019744 8.60955,0 c 10.34436,0 11.10682,-0.86372 11.10682,-12.5819 l 0,-7.91568 49.55337,-49.15685 49.55337,-49.15684 7.1383,-0.35912 7.13831,-0.35911 0,3.60656 c 0,3.1688 -12.40792,16.06526 -102.22594,106.25098 l -102.22595,102.644474 -7.49635,-0.0473 c -8.88732,-0.0561 -9.99363,1.16553 -9.99363,11.035652 l 0,6.4168 -55.18878,55.179017 c -30.35384,30.348441 -55.59369,55.178997 -56.08857,55.178997 -0.49489,0 -0.87838,-4.206643 -0.85218,-9.348095 z m 666.02091,8.016323 c 0.7869,-2.361051 56.9156,-57.626111 57.9053,-57.014445 0.5257,0.324892 0.9558,4.514781 0.9558,9.310861 l 0,8.720156 -20.2843,20.157594 -20.2842,20.157606 -9.3683,0 c -6.2984,0 -9.2229,-0.436429 -8.9243,-1.331772 z M 814.45411,83.481859 c 0,-4.365077 2.04081,-6.568563 56.69167,-61.210136 l 56.69168,-56.682059 0,10.253252 0,10.253262 -50.96746,50.956887 -50.96746,50.956879 -5.72422,0 -5.72421,0 0,-4.528085 z m 910.68529,-7.058331 0,-9.174004 48.3921,-49.02543 c 26.6154,-26.9639843 48.87,-49.20637 49.4544,-49.4275 0.5843,-0.22115 1.0624,4.105612 1.0624,9.615002 l 0,10.017082 -48.5297,48.584426 c -26.6913,26.721441 -48.9458,48.584428 -49.4545,48.584428 -0.5085,0 -0.9247,-4.128299 -0.9247,-9.174004 z M 100.00506,83.486672 c -0.284676,-0.49756 -1.221319,-3.706694 -2.081428,-7.131415 l -1.563834,-6.226772 4.937152,-5.835286 c 10.54294,-12.460879 75.08916,-75.657511 76.12632,-74.534611 0.5851,0.6334717 2.01056,4.0683017 3.16769,7.6329317 l 2.10385,6.4811337 -40.24588,40.2593446 c -22.13523,22.142635 -40.62397,40.259329 -41.0861,40.259329 -0.46211,0 -1.07312,-0.407095 -1.35777,-0.904655 z m 1487.25164,0 c -0.2846,-0.49756 -1.2212,-3.706694 -2.0813,-7.131415 l -1.5639,-6.226772 4.9464,-5.835286 c 10.8488,-12.798399 75.044,-75.693041 76.0968,-74.554991 0.5962,0.6446817 2.0308,4.0886817 3.188,7.6533117 l 2.1039,6.4811337 -40.2459,40.2593446 c -22.1352,22.142635 -40.6241,40.259329 -41.0861,40.259329 -0.4622,0 -1.0733,-0.407095 -1.3579,-0.904655 z m 302.865,-0.984565 c -2.1094,-3.471822 -4.3934,-14.247318 -3.398,-16.031442 1.6721,-2.997518 130.1339,-131.028447 130.8006,-130.361837 0.3185,0.31856 -0.8362,6.223132 -2.5659,13.121272 l -3.1449,12.542054 -60.5038,60.928122 c -33.2771,33.510475 -60.8117,60.42129 -61.188,59.801831 z m -1086.52345,-9.8761 0,-9.352908 56.69167,-56.6820506 56.69168,-56.6820584 0,10.252792 0,10.252804 -55.79183,55.782168 c -30.68551,30.680184 -56.19676,55.782161 -56.69168,55.782161 -0.49491,0 -0.89984,-4.208814 -0.89984,-9.352908 z m -512.86088,3.279855 c -2.4448,-1.291305 -4.82187,-2.957449 -5.28237,-3.702546 -0.78123,-1.264056 62.84171,-66.2153706 64.86114,-66.2153706 0.47913,0 3.44998,1.635446 6.6019,3.6343341 l 5.73074,3.6343335 -32.55183,32.551842 c -17.90352,17.903509 -33.08344,32.52785 -33.73315,32.498527 -0.64973,-0.02931 -3.18161,-1.109817 -5.62643,-2.40112 z m 1738.36603,-8.105378 0,-9.35362 49.1583,-49.1473645 c 27.0371,-27.0310715 49.5629,-49.1473875 50.0575,-49.1473875 0.4945,0 0.8992,4.209132 0.8992,9.353612 l 0,9.353622 -49.1583,49.147368 c -27.0372,27.031062 -49.563,49.147377 -50.0575,49.147377 -0.4946,0 -0.8992,-4.209127 -0.8992,-9.353607 z m -831.5218,6.893756 c -0.311,-0.96903 -0.8493,-5.290022 -1.1963,-9.602207 l -0.631,-7.840339 47.8454,-47.9352845 c 52.4428,-52.5414075 49.372,-50.2817475 52.8096,-38.8594135 l 1.7701,5.88183 -50.0163,50.058641 c -32.5282,32.555749 -50.2139,49.442596 -50.5815,48.296773 z M 270.68357,68.45947 c -2.77922,-2.136034 -5.05313,-4.427185 -5.05313,-5.091467 0,-0.664271 15.94011,-17.174249 35.42247,-36.688827 l 35.42247,-35.4810563 3.16764,6.91906 3.16765,6.9190567 -2.35131,3.189824 c -2.18858,2.9690266 -52.81923,53.4034376 -61.0308,60.7942346 l -3.69186,3.322856 -5.05313,-3.883681 z M 85.416049,65.480262 c -1.057481,-3.103544 -1.922692,-6.499074 -1.922692,-7.545638 0,-1.046564 17.892603,-19.789291 39.761363,-41.650506 l 39.76134,-39.747662 1.77086,4.238242 c 4.61699,11.0499817 7.61394,6.85375 -36.19187,50.674649 -21.81303,21.820541 -40.019212,39.673715 -40.458186,39.673715 -0.438962,0 -1.663334,-2.539257 -2.720815,-5.6428 z M 1572.687,65.536592 c -1.068,-3.134519 -1.9419,-6.555404 -1.9419,-7.601968 0,-1.046564 17.8927,-19.789291 39.7613,-41.650506 l 39.7615,-39.747672 1.8956,4.537112 c 4.5322,10.8470217 7.1725,7.17348 -36.1378,50.281138 -21.6422,21.540894 -39.8101,39.326303 -40.3732,39.523145 -0.5631,0.196828 -1.8974,-2.20673 -2.9655,-5.341249 z m -1723.19758,2.301803 c 0,-0.807434 2.40724,-8.096501 5.34942,-16.197934 l 5.34941,-14.729872 73.303412,-73.310805 C -26.191463,-76.721164 7.0045429,-109.50156 7.2605601,-109.24554 7.7521372,-108.75396 2.2232394,-88.438296 0.1800597,-83.228496 -1.2242416,-79.647794 -150.51058,70.011302 -150.51058,67.838395 z m 1487.28138,0.0036 c -0.017,-0.809436 2.3776,-8.100143 5.3197,-16.201576 l 5.3495,-14.729872 73.3034,-73.310803 c 40.3168,-40.320948 73.5128,-73.101444 73.7687,-72.845564 0.2559,0.25589 -0.3992,3.49086 -1.4557,7.18883 -1.0565,3.697962 -2.7842,9.745192 -3.8393,13.438284 -1.8748,6.56234 -3.6258,8.43043 -77.1676,82.3235657 -41.387,41.5848713 -75.2625,74.9465843 -75.2787,74.1371353 z M 505.30392,65.844856 c 0.53052,-0.912748 2.86437,-3.184396 5.18632,-5.048104 4.1762,-3.352023 4.17032,-3.334123 -0.54636,1.659546 -4.95618,5.24726 -6.28389,6.216893 -4.63996,3.388558 z m 1216.21698,-13.685334 0,-9.313864 49.133,-49.1871283 c 27.0231,-27.0529157 49.549,-49.1871197 50.0576,-49.1871197 0.5083,0 0.9244,4.20913 0.9244,9.353612 l 0,9.353622 -49.1583,49.147375 c -27.0371,27.031063 -49.563,49.147377 -50.0575,49.147377 -0.4946,0 -0.8992,-4.191238 -0.8992,-9.313874 z M 28.007889,58.236694 c 0,-1.466734 112.673491,-113.765264 114.145121,-113.765264 1.39725,0 5.26926,9.586012 5.26926,13.045192 0,0.96778 -13.4632,15.390794 -29.91821,32.051136 -58.766039,59.499347 -56.476564,59.5306 4.58789,0.0626 26.29941,-25.611834 37.54866,-36.135716 38.37322,-35.898906 0.40888,0.11749 1.72143,3.0908 2.91679,6.607482 l 2.17338,6.39398 L 125.429,6.9518984 85.302667,47.170879 72.723628,46.744896 60.144577,46.318912 l -6.881464,6.371035 -6.881465,6.371023 -9.186885,0 c -5.052785,2.4e-5 -9.186874,-0.370921 -9.186874,-0.824286 z M 1515.2596,58.151534 c 0,-1.498976 112.6738,-113.680104 114.1794,-113.680104 1.363,0 5.235,9.620182 5.235,13.006852 0,0.9467 -14.0089,15.912514 -31.1307,33.2573577 -36.5434,37.0190843 -46.3499,47.4270243 -43.051,45.6906303 1.3269,-0.698356 4.593,-3.626035 7.2582,-6.505948 8.0571,-8.706359 78.6906,-76.03248 79.7365,-76.00289 0.5352,0.0152 1.9513,2.90486 3.1467,6.421532 l 2.1733,6.39398 -40.1262,40.1838744 -40.1264,40.1838556 -12.0621,-0.254835 c -13.4239,-0.283603 -14.7409,0.160076 -21.6548,7.294856 l -4.7682,4.920307 -9.4048,0 c -5.1726,0 -9.4049,-0.409266 -9.4049,-0.909468 z m -928.7784,-11.233443 0,-10.132576 86.54527,-86.603313 c 47.5999,-47.63182 87.6422,-86.885082 88.98291,-87.229452 1.3407,-0.34438 6.22584,-0.46281 10.85585,-0.26319 l 8.41822,0.36296 -96.49648,96.073432 c -53.07305,52.840393 -96.90356,96.489968 -97.40112,96.999072 -0.49756,0.509103 -0.90465,-3.634021 -0.90465,-9.206933 z m 1302.3681,7.683314 c -0.3054,-0.532589 -0.9297,-3.042353 -1.3875,-5.577254 -0.4577,-2.534915 -1.1485,-5.433054 -1.535,-6.44032 -0.4876,-1.270424 21.5919,-24.137351 72.0846,-74.655597 40.0329,-40.053338 73.0136,-72.597884 73.2902,-72.321214 0.2767,0.27666 -0.7541,6.092102 -2.2907,12.923192 l -2.7938,12.420194 -67.4212,66.944452 c -37.0814,36.819431 -67.8643,67.108769 -68.4062,67.309649 -0.5419,0.20087 -1.2351,-0.07056 -1.5404,-0.603102 z m -696.8528,-10.027213 0,-10.25333 42.2863,-42.2107523 42.2863,-42.2107497 4.1346,4.824832 c 2.2741,2.65364 4.1428,5.37025 4.1527,6.036902 0.012,0.66664 -20.8796,22.104314 -46.4211,47.6392604 l -46.4388,46.4271776 0,-10.25334 z M -19.479495,50.872806 c -0.32325,-0.523035 14.9086233,-16.100568 33.848609,-34.616733 31.72752,-31.017565 34.828096,-33.719865 39.416684,-34.353465 4.889561,-0.67516 4.974043,-0.7685 4.635027,-5.120402 -0.334759,-4.2971 0.495594,-5.28727 27.139631,-32.363376 15.116724,-15.361864 27.701344,-28.555036 27.965844,-29.318146 0.26448,-0.76314 -11.64908,10.524782 -26.4746,25.084236 l -26.955467,26.471754 -1.711546,-4.15693 c -0.941347,-2.28632 -1.977876,-6.097752 -2.303407,-8.469852 -0.584093,-4.256302 -0.113504,-4.798412 35.864154,-41.312558 20.050826,-20.349804 37.095156,-36.999644 37.876306,-36.999644 0.78116,0 2.44999,3.02932 3.70851,6.73185 1.76871,5.20347 1.97995,7.22544 0.93042,8.90601 -1.07018,1.71362 -0.74152,3.67309 1.55156,9.250392 1.60014,3.8919 2.92223,8.16814 2.93797,9.502712 0.019,1.6189 -23.16364,25.605984 -69.654103,72.070804 l -69.6827128,69.644309 -9.2525761,0 c -5.0889131,0 -9.5170511,-0.427938 -9.8403031,-0.950961 z m 997.953285,-9.000237 -0.0241,-9.951199 70.28571,-69.601726 70.2857,-69.601734 9.3481,-0.0567 c 5.1414,-0.0311 9.3482,0.35199 9.3482,0.85144 -2e-4,1.1828 -157.13526,158.311117 -158.31806,158.311117 -0.49575,0 -0.91214,-4.478039 -0.92553,-9.951198 z m 489.29851,9.000237 c -0.3232,-0.523035 14.9284,-16.128323 33.8928,-34.678418 31.9386,-31.24109 34.8443,-33.77192 39.4166,-34.33057 4.8566,-0.59337 4.9306,-0.67496 4.5907,-5.059592 -0.3354,-4.32839 0.4533,-5.26859 27.4412,-32.710136 15.2826,-15.539484 27.7866,-28.676876 27.7866,-29.194206 0,-0.51731 -11.6909,10.576652 -25.9799,24.653284 -14.2889,14.076594 -26.6,25.387096 -27.358,25.134436 -1.7088,-0.56962 -4.345,-7.647262 -4.4682,-11.996462 -0.076,-2.676302 6.2215,-9.646512 36.2336,-40.106358 19.9791,-20.276914 36.9911,-36.867094 37.8046,-36.867094 0.8134,0 2.4599,3.23956 3.6588,7.19902 1.7602,5.81357 1.8895,7.54871 0.6717,9.01604 -1.2277,1.47917 -1.0256,2.81352 1.0866,7.17673 1.427,2.947852 2.8736,7.168232 3.2146,9.378602 0.6067,3.932002 -0.8883,5.525012 -69.1394,73.677286 l -69.7595,69.658399 -9.2526,0 c -5.0888,0 -9.517,-0.427938 -9.8402,-0.950961 z M 241.23564,48.506702 c -1.01795,-1.160973 -2.75497,-3.895381 -3.86003,-6.076455 l -2.00924,-3.965583 22.67083,-22.884331 22.67082,-22.8843233 9.9512,0.0121 c 5.47316,0.006 9.95119,0.42326 9.95119,0.92611 0,1.0616 -55.75701,56.9833803 -56.81571,56.9833803 -0.38955,0 -1.54113,-0.949887 -2.55906,-2.11086 z m 24.43473,-4.050971 -3.98246,-4.955624 30.6098,-30.6274486 30.60977,-30.6274624 10.25396,0 10.25395,0 -35.56774,35.583087 c -19.56226,19.57069 -36.15883,35.583073 -36.88129,35.583073 -0.72245,0 -3.10565,-2.230033 -5.29599,-4.955625 z m -254.549363,2.65667 c 0,-1.130143 132.066313,-131.909107 133.863113,-132.558257 0.55603,-0.20088 2.20121,2.78448 3.65594,6.634132 l 2.64498,6.99938 -60.733919,59.971382 -60.733923,59.971364 -9.348095,0.03739 c -5.141453,0.0205 -9.348096,-0.454367 -9.348096,-1.055382 z m 1487.251793,0 c 0,-1.130143 132.0662,-131.909107 133.8631,-132.558257 0.5559,-0.20088 2.2012,2.78448 3.6559,6.634132 l 2.6449,6.99938 -60.7339,59.971382 -60.7339,59.971364 -9.3481,0.03739 c -5.1414,0.0205 -9.348,-0.454367 -9.348,-1.055382 z m -686.3311,-9.907318 0,-10.191619 55.86693,-55.745488 c 30.72683,-30.660016 56.23808,-55.745492 56.69168,-55.745492 0.45361,0 0.82474,4.43182 0.82474,9.848482 l 0,9.848472 -35.88464,35.759978 c -19.73654,19.6679837 -45.24779,44.907873 -56.69167,56.088629 l -20.80704,20.328658 0,-10.19162 z m 1059.9116,7.730875 c -0.2996,-0.523891 -1.2154,-3.810971 -2.035,-7.304625 l -1.4903,-6.352085 20.932,-21.4391035 c 29.7066,-30.4261585 139.7434,-139.4142945 139.7434,-138.4115745 0,0.46004 -1.3876,6.36272 -3.0834,13.11708 l -3.0834,12.28065 -21.3423,21.491824 c -46.2752,46.59942 -129.1261,127.518171 -129.641,126.617834 z m 166.7997,-13.392877 0,-9.424848 49.4915,-49.377697 c 27.2205,-27.157736 49.7464,-49.60388 50.0576,-49.8803 0.3113,-0.27641 0.566,4.05053 0.566,9.615422 l 0,10.118022 -49.1331,49.1871197 c -27.0231,27.0529103 -49.5491,49.1871163 -50.0576,49.1871163 -0.5084,0 -0.9244,-4.241178 -0.9244,-9.424835 z m -1461.92144,-1.520314 0,-10.190282 73.30016,-73.263605 73.30015,-73.2636 9.92805,0 c 5.46042,0 9.92804,0.40863 9.92804,0.90807 0,0.86472 -154.34096,155.165749 -162.53624,162.494185 l -3.92016,3.505512 0,-10.19028 z m 605.06934,3.406361 c -0.4001,-1.492679 -0.7347,-5.356181 -0.7437,-8.585544 l -0.017,-5.871594 33.3317,-33.933202 c 18.3325,-18.663284 34.2741,-34.391736 35.4261,-34.952138 2.4011,-1.16816 12.058,4.254142 12.058,6.770482 0,1.48011 -77.1043,79.28596 -78.5712,79.28596 -0.4164,0 -1.0844,-1.221283 -1.4843,-2.713964 z M 237.21244,24.697476 C 232.72515,13.957865 232.72921,13.947733 247.2611,-0.34464026 l 13.184,-12.96671174 9.82992,0 c 5.40644,0 9.8299,0.41308 9.8299,0.91796 0,0.50488 -9.20878,10.1147817 -20.46395,21.3553584 l -20.46396,20.4373846 -1.96457,-4.701875 z m 738.51935,3.452439 c -0.46873,-0.468779 -0.85074,-4.697111 -0.84893,-9.396297 l 0,-8.543953 56.18564,-56.993243 56.1856,-56.993232 10.1523,0 c 5.5838,0 10.1522,0.40897 10.1522,0.9088 0,1.70539 -130.97487,131.873258 -131.83019,131.017925 z m 753.02621,-9.803873 0,-9.3536186 49.1583,-49.1473714 c 27.0371,-27.031064 49.5631,-49.147388 50.0576,-49.147388 0.4946,0 0.8992,4.19123 0.8992,9.31388 l 0,9.313862 -49.1331,49.18713 c -27.0231,27.0529114 -49.5489,49.187115 -50.0575,49.187115 -0.5084,0 -0.9245,-4.209129 -0.9245,-9.353609 z M -131.21128,20.86051 c 0,-0.772092 2.19231,-7.555335 4.87182,-15.0738686 l 4.87182,-13.6700717 108.781678,-108.8311897 c 59.82992,-59.85714 109.136178,-108.43708 109.569459,-107.95542 0.433293,0.48167 1.734427,3.79196 2.891432,7.35621 l 2.103651,6.48047 -35.35169,35.36692 c -19.443423,19.45181 -35.751169,35.12001 -36.239429,34.81825 -0.488272,-0.30176 -1.235806,-2.13331 -1.661199,-4.07011 -0.990886,-4.51143 -3.447819,-6.7106 -5.147736,-4.60765 -0.676959,0.83744 -2.736592,6.76866 -4.57696,13.18048 l -3.346136,11.65784 -73.383357,73.37596 c -40.360846,40.356798 -73.383353,72.744272 -73.383353,71.97218 z m 1487.25178,0 c 0,-0.772092 2.1922,-7.555335 4.8718,-15.0738686 l 4.8718,-13.6700717 108.7816,-108.8311897 c 59.83,-59.85714 109.1362,-108.43708 109.5695,-107.95542 0.4333,0.48167 1.7345,3.79196 2.8915,7.35621 l 2.1036,6.48047 -35.3517,35.36692 c -19.4434,19.45181 -35.7511,35.12001 -36.2393,34.81825 -0.4883,-0.30176 -1.236,-2.13331 -1.6612,-4.07011 -0.9909,-4.51143 -3.4479,-6.7106 -5.1479,-4.60765 -0.6769,0.83744 -2.7365,6.76866 -4.5769,13.18048 l -3.3462,11.65784 -73.3833,73.37596 c -40.3608,40.356798 -73.3833,72.744272 -73.3833,71.97218 z M 816.86652,5.6815804 l 0,-9.9560107 56.72752,-56.6868717 56.7275,-56.686878 -0.33738,10.36722 -0.3374,10.367232 -55.43122,56.27565 c -30.48717,30.9516277 -55.86273,56.27567 -56.39012,56.27567 -0.5274,0 -0.9589,-4.480211 -0.9589,-9.9560116 z M 1874.8828,9.9081145 c -0.619,-2.4878001 -1.4367,-5.8722861 -1.8172,-7.5210841 -0.6085,-2.63747066 2.8157,-6.5159007 28.4875,-32.2660064 16.0485,-16.097502 29.779,-29.268204 30.5124,-29.268204 1.2722,0 4.16,9.945442 4.16,14.327212 0,2.23117 -56.6747,59.251353 -58.8923,59.251353 -0.7288,0 -1.8315,-2.035471 -2.4504,-4.5232705 z m 166.2826,-7.8458551 0,-9.9567197 49.1583,-49.1473797 c 27.0371,-27.031066 49.563,-49.14739 50.0575,-49.14739 0.4946,0 0.8992,4.21801 0.8992,9.373352 l 0,9.373342 -49.544,49.73075 c -27.2492,27.351924 -49.775,49.730761 -50.0575,49.730761 -0.2825,0 -0.5135,-4.4805246 -0.5135,-9.9567156 z m -858.5399,-3.03059966 -2.7367,-6.91509004 27.8339,-27.4411857 c 20.0035,-19.721274 28.6123,-27.441186 30.601,-27.441186 3.2269,0 10.4439,2.26462 12.1394,3.809142 1.2193,1.11084 -61.6114,64.9625774 -63.886,64.9240034 -0.6681,-0.01085 -2.4463,-3.132401 -3.9516,-6.93568366 z m -948.28534,1.2544997 c -1.94277,-6.99582974 -1.57949,-12.95010144 0.92857,-15.21987144 1.67373,-1.5147 4.58343,-1.99626 12.06205,-1.99626 5.42092,0 9.84826,0.4071 9.83853,0.90466 -0.01,0.49755 -4.86592,5.39515 -10.79151,10.8835417 l -10.77381,9.9789107 -1.26383,-4.55098096 z m 1490.79924,-5.16516974 0,-10.2528217 48.5554,-48.54421 c 26.7054,-26.699306 48.9599,-48.544218 49.4544,-48.544218 0.4946,0 0.8991,4.20913 0.8991,9.35362 l 0,9.353612 -49.4544,49.44342 -49.4545,49.4434134 0,-10.2528157 z m -923.95356,-2.06984 0,-9.3181517 56.37279,-56.420072 c 31.00504,-31.031026 56.78768,-56.420056 57.29478,-56.420056 0.50709,0 0.92198,4.19316 0.92198,9.31817 l 0,9.31816 -56.37279,56.42007 c -31.00503,31.031016 -56.78769,56.4200524 -57.29478,56.4200524 -0.50708,0 -0.92198,-4.1931727 -0.92198,-9.3181727 z m 1061.46876,5.11671 c -0.7258,-1.90914 -1.6053,-5.68008 -1.9543,-8.3798417 l -0.6345,-4.90868 29.5908,-29.497186 c 16.2748,-16.223454 29.9204,-29.167486 30.3233,-28.764516 0.4031,0.40299 1.5504,3.863872 2.5498,7.690852 l 1.8171,6.958162 -30.1863,30.186196 -30.1861,30.1861794 -1.3198,-3.4711657 z m -1271.34858,-9.2830117 0,-10.069162 60.0369,-59.992442 60.03692,-59.992444 10.00489,0 10.00489,0 -8.6161,9.49592 c -4.73885,5.22275 -36.25767,36.750472 -70.0418,70.061608 l -61.4257,60.5656817 0,-10.0691617 z m 389.60443,-3.06962 0,-9.316862 53.95965,-54.00895 c 29.6779,-29.704936 54.3748,-54.008956 54.8823,-54.008956 0.5076,0 0.9228,4.20891 0.9228,9.35312 l 0,9.35311 -53.9826,53.97271 c -29.6906,29.684976 -54.38766,53.9726897 -54.88244,53.9726897 -0.49491,0 -0.89971,-4.19259 -0.89971,-9.3168617 z m -546.76633,7.3534517 c -0.46808,-0.4681 -0.85106,-1.82778 -0.85106,-3.021532 0,-1.1937397 -0.92501,-4.1101997 -2.05555,-6.4809997 l -2.05556,-4.310552 36.72655,-36.741376 c 20.51756,-20.525854 37.66927,-36.741378 38.86255,-36.741378 1.1748,0 4.04519,1.76407 6.37868,3.92016 l 4.24268,3.920172 -40.1986,40.153278 c -22.10925,22.084314 -40.58161,39.7703077 -41.04969,39.3022277 z m 1602.19638,-13.3819037 0,-9.31426 49.7561,-49.81572 49.756,-49.815696 0.3542,9.91891 0.3542,9.91891 -49.2,49.211068 c -27.06,27.066096 -49.6096,49.21107 -50.1103,49.21107 -0.5005,0 -0.9102,-4.19142 -0.9102,-9.314282 z m -892.9718,6.265012 c -3.8574,-0.8411 -7.228,-1.74381 -7.4902,-2.00604 -0.2623,-0.26222 33.1327,-34.083048 74.2111,-75.157396 41.0783,-41.074342 75.0521,-74.316322 75.4973,-73.871082 0.4453,0.44521 1.0353,4.49272 1.3112,8.99445 l 0.5017,8.18495 -67.4416,67.849084 c -37.0927,37.317008 -67.9216,67.778484 -68.5087,67.692194 -0.587,-0.0864 -4.2233,-0.84508 -8.0808,-1.68616 z m 30.91,-3.38056 c -2.779,-2.1026 -5.086,-4.367622 -5.1265,-5.033352 -0.098,-1.6109 128.7045,-130.350826 129.5592,-129.496146 1.1265,1.12642 -1.849,19.58836 -3.5694,22.14804 -1.9929,2.96493 -114.4196,116.437308 -115.23,116.301628 -0.3193,-0.0534 -2.8544,-1.81755 -5.6333,-3.92017 z m 679.4429,0.34037 c -1.429,-4.220592 -3.1238,-11.580752 -3.13,-13.592234 -0.012,-2.37592 58.8244,-61.445212 60.2936,-60.537172 0.4793,0.29625 1.5765,3.860942 2.4383,7.921522 l 1.5667,7.382882 -30.288,30.287936 c -19.9968,19.997044 -30.4893,29.693056 -30.8806,28.537066 z M 414.59686,-21.244354 c -2.65364,-1.58443 -5.36761,-3.10228 -6.03102,-3.37301 -1.64157,-0.6699 71.88895,-74.339744 74.17424,-74.314774 2.36079,0.0258 11.15744,5.03794 11.68955,6.66047 0.46235,1.40985 -72.22819,74.199016 -73.92151,74.021796 -0.59754,-0.0626 -3.2576,-1.41006 -5.91126,-2.994482 z m 1306.92404,-6.8486 0,-9.956792 48.5552,-48.54421 c 26.7055,-26.699314 48.9599,-48.544204 49.4545,-48.544204 0.4945,0 0.8991,4.34221 0.8991,9.64936 l 0,9.64939 -48.8289,48.851608 c -26.8558,26.868394 -49.1103,48.85162 -49.4545,48.85162 -0.3439,0 -0.6254,-4.480552 -0.6254,-9.956772 z m -967.37709,6.63584 c 0,-1.18274 140.24867,-141.423776 141.43147,-141.423776 0.49545,0 0.90083,4.20861 0.90083,9.35248 l 0,9.35248 -61.82241,61.813664 -61.82239,61.813672 -9.34375,0 c -5.13906,0 -9.34375,-0.40883 -9.34375,-0.90852 z m 217.11705,-9.193002 0,-10.694682 53.90114,-54.13393 c 29.6455,-29.773652 54.3426,-54.133902 54.8823,-54.133902 0.5396,0 0.9813,4.48026 0.9813,9.95616 l 0,9.95618 -54.8824,54.872426 -54.88234,54.87244 0,-10.694692 z m -387.19207,-1.09364 0,-9.988972 55.56223,-56.05081 c 30.55922,-30.827952 55.75569,-55.508032 55.99215,-54.844612 0.23645,0.66341 0.69839,5.27715 1.02653,10.25275 l 0.59661,9.04655 -55.66659,55.787016 c -30.61664,30.682866 -56.08156,55.78703 -56.58877,55.78703 -0.50719,0 -0.92216,-4.49502 -0.92216,-9.988952 z m 506.60641,6.664932 c 0,-1.83455 77.9214,-78.524316 81.7042,-80.412806 6.1355,-3.06301 12.5281,-9.26204 14.6541,-14.2105 2.0607,-4.79607 88.5645,-92.63321 91.2271,-92.63321 0.7731,0 2.9231,2.78822 4.7778,6.19604 l 3.3722,6.19604 -88.0046,87.88801 -88.0047,87.888036 -9.863,0 c -5.4248,0 -9.8631,-0.41023 -9.8631,-0.91161 z m -283.76054,-13.864402 -0.57444,-8.745002 56.82368,-56.993232 c 31.25304,-31.34628 57.23292,-56.99323 57.7331,-56.99323 0.50018,0 0.90942,4.20881 0.90942,9.3529 l 0,9.35292 -56.39489,56.385304 c -31.01718,31.011936 -56.73858,56.38533 -57.15865,56.38533 -0.42007,0 -1.02228,-3.93525 -1.33822,-8.74499 z m 317.06914,7.76197 c -0.3342,-0.54065 37.6956,-39.214628 84.5103,-85.942184 l 85.1179,-84.95915 2.1727,4.82482 c 4.911,10.9059 11.6034,2.92 -74.549,88.95768 l -78.206,78.101854 -9.2191,0 c -5.0707,0 -9.4926,-0.44236 -9.8268,-0.98302 z m 907.1774,-0.97977 c -0.4685,-0.46843 -0.8517,-4.85489 -0.8517,-9.747702 l 0,-8.896012 49.7548,-49.40396 c 27.3651,-27.17216 50.1624,-49.40393 50.6606,-49.40393 0.4982,0 0.9059,4.20908 0.9059,9.35354 l 0,9.35355 -49.809,49.798104 c -27.3949,27.388966 -50.1922,49.41485 -50.6606,48.94641 z m -2135.83595,-1.0938 c 0,-0.49455 2.23508,-7.201142 4.966809,-14.903532 l 4.966831,-14.004344 97.2570353,-97.401828 c 53.4913537,-53.57099 97.7384447,-97.24134 98.3268347,-97.04521 1.74847,0.58283 5.6967,11.8152 4.96425,14.12293 -0.7147,2.25181 -210.48176,210.773364 -210.48176,209.231984 z m 1487.25175,-0.002 c 0,-0.49314 2.2351,-7.198592 4.9667,-14.900972 l 4.9669,-14.004354 97.2571,-97.401828 c 53.4913,-53.57099 97.7383,-97.24133 98.3267,-97.0452 1.746,0.58195 5.6973,11.81355 4.9663,14.11654 -0.7126,2.2451 -210.4837,210.772504 -210.4837,209.235674 z m -668.03694,-1.72099 c 0.64908,-1.87491 192.88749,-195.450184 194.10035,-195.450184 0.60718,0 1.07756,4.20664 1.0453,9.34809 l -0.0586,9.34808 -88.2959,88.98118 -88.29592,88.981194 -9.44861,-0.0235 c -5.52002,-0.0138 -9.28144,-0.50638 -9.04654,-1.18487 z m -313.51301,-3.25609 c -2.8195,-0.99803 -5.12637,-2.188002 -5.12637,-2.644362 0,-2.02718 75.93416,-76.444612 77.40628,-75.860172 9.6372,3.82596 11.85295,4.97836 11.85295,6.16475 0,0.76131 -16.42276,17.800342 -36.49502,37.864506 -39.49307,39.477148 -37.52692,38.054268 -47.63784,34.475278 z m -21.94866,-1.12577 c -3.61324,-0.971212 -6.84333,-2.039652 -7.17798,-2.374282 -1.2107,-1.21072 74.73594,-77.723122 77.1484,-77.723122 3.57136,0 13.19319,3.84007 13.19319,5.26539 0,1.34911 -74.86263,76.843824 -76.03525,76.677254 -0.30735,-0.0437 -3.51511,-0.87403 -7.12836,-1.84524 z M 35.947642,-46.318128 c -1.049797,-3.611202 -1.908724,-7.299782 -1.908724,-8.196882 0,-1.60235 72.215392,-74.59171 73.800752,-74.59171 0.70952,0 5.80884,12.29537 5.80884,14.00616 0,1.20852 -13.789051,15.136082 -44.831759,45.282138 l -30.960372,30.066086 -1.908737,-6.565792 z m 1487.251658,0 c -1.0497,-3.611202 -1.9087,-7.299782 -1.9087,-8.196882 0,-1.60235 72.2155,-74.59171 73.8008,-74.59171 0.7095,0 5.8088,12.29537 5.8088,14.00616 0,1.20852 -13.7889,15.136082 -44.8317,45.282138 l -30.9605,30.066086 -1.9087,-6.565792 z m -946.36774,-4.656502 0,-9.920962 55.7695,-55.817268 c 30.67322,-30.69951 56.18448,-55.81728 56.69167,-55.81728 0.5072,0 0.92218,4.82806 0.92218,10.72901 l 0,10.72901 -55.72648,55.009222 c -30.64956,30.255066 -56.16081,55.00922 -56.69167,55.00922 -0.53087,0 -0.9652,-4.46444 -0.9652,-9.920952 z m -246.97066,5.447442 c -3.48291,-1.02656 -6.33258,-2.43918 -6.33258,-3.13911 0,-0.69996 16.94287,-18.271214 37.65081,-39.047228 28.6871,-28.781434 38.34566,-37.774584 40.5695,-37.774584 3.18111,0 12.31074,2.36828 13.73515,3.56298 1.02845,0.86261 -76.38393,78.507532 -78.12704,78.361732 -0.63978,-0.0536 -4.01291,-0.93722 -7.49584,-1.96379 z m 1523.0536,-1.17212 c -0.676,-1.77827 -1.5147,-5.442132 -1.8639,-8.141892 l -0.6344,-4.90868 30.1805,-30.087186 c 29.109,-29.018944 30.2219,-29.978624 31.3432,-27.029424 0.6393,1.68179 1.4946,5.45074 1.9006,8.37547 l 0.7381,5.31773 -29.4841,29.853596 c -16.2162,16.419484 -29.814,29.853606 -30.2174,29.853606 -0.4033,0 -1.2865,-1.45496 -1.9626,-3.23322 z m -1097.56448,-2.49952 c 0,-1.182782 166.78456,-167.960922 167.9674,-167.960922 0.49578,0 0.90141,4.19648 0.90141,9.32549 l 0,9.32548 -75.07322,75.10893 -75.07321,75.108922 -9.3612,0 c -5.14865,0 -9.36118,-0.40855 -9.36118,-0.9079 z M 1943.4933,-51.90954 c -0.027,-0.99512 1.0844,-6.69444 2.4676,-12.665162 l 2.5148,-10.855852 91.276,-92.021086 91.276,-92.02105 8.1419,0.0479 c 6.9398,0.0408 8.1418,0.36032 8.1418,2.16419 0,2.84865 -99.5437,102.31131 -100.6322,100.5502 -1.5278,-2.47214 -2.9968,-1.38578 -4.2975,3.17804 -1.0312,3.61876 -11.0426,14.41255 -50.0652,53.977712 -26.827,27.199944 -48.7973,48.640258 -48.8232,47.645148 z M 366.00222,-55.18932 c -3.50759,-1.03343 -6.22156,-2.32345 -6.03103,-2.86673 0.38956,-1.11077 43.87215,-45.09031 64.41865,-65.15486 l 13.4116,-13.097 6.4908,1.91827 c 3.56994,1.05504 6.96004,2.20297 7.53357,2.55093 1.21569,0.73758 -76.42746,78.77048 -78.23298,78.62566 -0.66724,-0.0536 -4.08302,-0.94283 -7.59061,-1.97627 z m 1362.75578,-7.277902 0,-9.351472 80.6579,-80.651166 c 44.3619,-44.35814 80.9386,-80.18092 81.2817,-79.60619 0.343,0.57472 1.3234,4.20508 2.1786,8.06747 l 1.5549,7.02254 -81.9286,81.93513 c -45.0607,45.064342 -82.337,81.93516 -82.8364,81.93516 -0.4995,0 -0.9081,-4.20816 -0.9081,-9.351472 z m -750.61266,7.390552 c -0.46945,-0.46946 -0.85351,-4.894262 -0.85351,-9.832882 l 0,-8.979342 93.17947,-93.368716 93.1794,-93.36869 9.4364,0.0216 c 6.945,0.0159 9.3336,0.41967 9.0466,1.52934 -0.2144,0.82927 -18.1923,19.14852 -39.9507,40.70944 l -39.5605,39.20168 -7.4815,0.6031 -7.4813,0.60311 -0.6031,8.14236 -0.6032,8.14237 -53.7273,53.7251 c -29.5499,29.548816 -54.1113,53.34102 -54.58076,52.87156 z m -662.38328,-2.73518 c -3.27633,-1.15319 -6.1268,-2.606222 -6.33437,-3.228952 -0.20758,-0.62275 16.6449,-18.148152 37.44994,-38.945336 l 37.82739,-37.813092 6.70657,1.50088 c 3.68863,0.82548 7.42894,1.95828 8.3118,2.51736 1.16302,0.73647 -9.03825,11.65468 -37.03207,39.634652 -21.25051,21.240004 -39.16267,38.576108 -39.80479,38.524698 -0.64214,-0.0514 -3.84815,-1.03701 -7.12447,-2.19021 z m 1394.90284,-13.679014 0,-9.931662 77.8231,-77.819824 c 56.1481,-56.1457 78.1053,-77.3727 78.8363,-76.21457 0.5574,0.88286 1.6891,4.62454 2.515,8.31482 l 1.5015,6.70961 -79.4299,79.43664 c -43.6864,43.690172 -79.8384,79.436658 -80.3379,79.436658 -0.4994,0 -0.9081,-4.46924 -0.9081,-9.931672 z m 134.0627,4.202202 c -0.619,-2.4878 -1.4368,-5.873052 -1.8175,-7.522782 -0.6096,-2.64176 2.9248,-6.626782 29.6358,-33.412986 16.6803,-16.72741 30.7025,-30.18195 31.1604,-29.89897 0.4578,0.28296 1.4929,3.87166 2.3001,7.97489 l 1.4678,7.46041 -29.9434,29.961342 c -16.4688,16.478754 -30.3336,29.961366 -30.8106,29.961366 -0.477,0 -1.3737,-2.03547 -1.9926,-4.52327 z m -1944.577535,2.24181 c 0,-0.91989 2.285422,-7.974902 5.078706,-15.677784 l 5.078717,-14.005222 60.822018,-61.516492 c 58.953816,-59.62696 84.891115,-85.50671 97.617683,-97.40112 5.609328,-5.24254 6.639246,-5.72947 12.118509,-5.72947 6.101412,0 7.452483,1.0571 7.452483,5.83103 0,1.1083 -42.337826,44.3503 -94.084053,96.09335 -51.746234,51.74304 -94.084063,93.325618 -94.084063,92.405708 z m 1487.251735,0.24577 c 0,-0.78474 2.2601,-7.795422 5.0224,-15.579284 l 5.0224,-14.152492 73.6967,-74.522662 c 40.5332,-40.98746 77.6437,-78.07738 82.4675,-82.42203 8.2626,-7.44163 9.1105,-7.89939 14.6327,-7.89939 5.9678,0 7.3264,1.08133 7.3264,5.83103 0,1.1083 -42.3378,44.3503 -94.084,96.09335 -51.7463,51.74304 -94.0841,93.436208 -94.0841,92.651478 z m -1087.09294,-4.67773 c -3.15121,-1.640352 -5.72948,-3.382502 -5.72948,-3.871412 0,-0.48892 16.41948,-17.293114 36.48773,-37.342646 l 36.48773,-36.45368 7.00042,2.17657 c 3.85022,1.1971 7.0071,2.57705 7.01527,3.06652 0.0253,1.51512 -72.70472,75.522888 -74.1604,75.463288 -0.75449,-0.0309 -3.95005,-1.39828 -7.10127,-3.03864 z M 38.236659,-77.319074 36.021414,-84.635526 72.69024,-121.31914 c 20.167858,-20.17599 37.01534,-36.28844 37.43885,-35.80542 0.42351,0.48301 1.77391,3.74635 3.00089,7.25188 l 2.23085,6.37367 -36.73338,36.74819 c -20.203345,20.211504 -37.057851,36.748196 -37.454463,36.748196 -0.396602,0 -1.717951,-3.29241 -2.936328,-7.31645 z m 237.250671,2.54176 -6.04043,-4.77468 -3.00313,2.36227 c -1.65173,1.29925 -3.76094,2.36227 -4.68713,2.36227 -2.15956,0 -9.80498,-7.840882 -9.22826,-9.464192 0.24031,-0.67635 38.93123,-39.869174 85.97985,-87.095174 l 85.54295,-85.86544 5.52559,0.65806 c 3.03908,0.36193 7.13174,1.27056 9.09482,2.01919 l 3.56922,1.36112 -36.17795,36.12016 -36.17798,36.12015 -5.46936,0 c -18.19709,0 -30.40787,12.12334 -28.29014,28.08759 l 0.81032,6.10851 -12.41161,12.45399 c -6.82639,6.8497 -11.8672,12.454 -11.20181,12.454 0.66539,0 6.08363,-4.92441 12.04051,-10.94312 5.95687,-6.01871 12.82404,-12.54446 15.26033,-14.50166 l 4.42963,-3.55855 4.48369,3.04272 c 2.46602,1.67348 4.95072,3.0427 5.52156,3.0427 0.57084,0 1.03788,0.68188 1.03788,1.5153 0,1.90077 -71.27775,73.269476 -73.1761,73.269476 -0.76562,0 -4.11022,-2.14861 -7.43245,-4.77469 z m 971.99467,0.55206 c 12.6936,-13.387442 40.2216,-40.392216 40.6936,-39.920206 1.4336,1.43357 -8.401,16.707642 -15.7517,24.464074 -8.4871,8.95551 -15.9924,14.479942 -24.3537,17.926102 l -4.81,1.982482 4.2218,-4.452452 z m 278.0064,-3.09382 -2.2152,-7.316452 36.6688,-36.683614 c 20.1679,-20.17599 37.0153,-36.28844 37.4388,-35.80542 0.4236,0.48301 1.7739,3.74635 3.0009,7.25188 l 2.2309,6.37367 -36.7334,36.74819 c -20.2034,20.211504 -37.0579,36.748196 -37.4544,36.748196 -0.3966,0 -1.7181,-3.29241 -2.9364,-7.31645 z m -557.84615,-4.422792 0,-9.326842 79.89875,-79.932402 79.8988,-79.93239 9.3605,0 c 5.9293,0 9.3603,0.48007 9.3603,1.30973 0,1.83618 -175.18644,177.208736 -177.02067,177.208736 -1.06364,0 -1.49768,-2.70298 -1.49768,-9.326832 z m 1077.10535,-1.22748 -0.036,-9.348092 49.6705,-49.152902 c 27.319,-27.03408 49.8612,-49.15288 50.0941,-49.15288 0.2328,0 0.4339,4.47804 0.4472,9.9512 l 0.024,9.95119 -49.1769,48.49674 c -27.0473,26.673212 -49.584,48.520616 -50.0815,48.549786 -0.4976,0.0292 -0.9211,-4.15359 -0.9411,-9.295042 z m -1458.2664,-4.17649 0,-10.499332 55.4615,-55.535582 c 30.50383,-30.54455 55.74368,-55.53556 56.08857,-55.53556 0.34489,0 0.62707,4.48022 0.62707,9.95605 l 0,9.95607 -56.08857,56.07885 -56.08857,56.078856 0,-10.499352 z m 1357.0159,8.093492 c 0.019,-0.66166 1.3179,-6.576702 2.8866,-13.144504 l 2.8523,-11.941462 74.0293,-74.00071 74.0295,-74.00069 9.3277,0 c 5.1302,0 9.3276,0.40851 9.3276,0.90782 0,0.49929 -38.8096,39.71464 -86.2437,87.1452 -47.434,47.43056 -86.2282,85.696026 -86.2093,85.034346 z m -97.53,-17.578834 c -0.7773,-3.36768 -1.4132,-7.035612 -1.4132,-8.150942 0,-2.36698 59.8334,-62.59586 61.0129,-61.41628 0.437,0.43687 1.5304,3.94036 2.43,7.78558 l 1.6354,6.99129 -30.4194,30.4567 c -16.7308,16.75118 -30.7373,30.456692 -31.1259,30.456692 -0.3885,0 -1.3424,-2.75537 -2.1198,-6.12304 z m -1940.992212,-0.31032 c 0,-0.33186 2.192617,-6.754912 4.872493,-14.273442 l 4.872493,-13.67006 61.765994,-61.81805 61.765989,-61.81804 10.799511,0 10.799523,0 -76.397363,75.6894 c -42.018554,41.62918 -76.865653,75.870352 -77.438009,76.091492 -0.572346,0.22114 -1.040631,0.13056 -1.040631,-0.2013 z m 348.132692,-4.673962 c -1.73679,-2.96362 -3.15781,-6.16049 -3.15781,-7.10414 0,-0.94367 35.68861,-37.3425 79.30803,-80.88628 l 79.30804,-79.17053 7.23723,0.62393 c 3.98048,0.34316 7.90282,0.97972 8.71632,1.41456 0.92827,0.49621 -30.12413,32.39143 -83.38746,85.65074 l -84.86653,84.860122 -3.15782,-5.388402 z m 1139.11902,4.673962 c 0,-0.33186 2.1927,-6.754912 4.8725,-14.273442 l 4.8724,-13.67006 61.7662,-61.81805 61.7659,-61.81804 10.7889,0 10.789,0 -76.386,75.6894 c -42.0123,41.62918 -76.8546,75.870352 -77.4275,76.091492 -0.5727,0.22114 -1.0414,0.13056 -1.0414,-0.2013 z M 40.968522,-98.509578 c -0.343261,-0.57503 -1.323424,-4.204072 -2.178142,-8.064522 l -1.554028,-7.01902 35.486359,-35.50165 c 19.517496,-19.52592 35.982499,-35.3363 36.588859,-35.13417 0.60637,0.20212 2.19138,3.2332 3.52223,6.73574 l 2.41975,6.36824 -36.830467,36.83044 c -20.256743,20.25676 -37.111299,36.359982 -37.454561,35.784942 z m 1487.251778,0 c -0.3433,-0.57503 -1.3235,-4.204072 -2.1782,-8.064522 l -1.554,-7.01902 35.4863,-35.50165 c 19.5175,-19.52592 35.9826,-35.3363 36.5889,-35.13417 0.6063,0.20212 2.1913,3.2332 3.5222,6.73574 l 2.4197,6.36824 -36.8304,36.83044 c -20.2567,20.25676 -37.1113,36.359982 -37.4545,35.784942 z m 522.2932,-5.954482 c -0.4976,-0.50656 -0.9047,-5.02181 -0.9047,-10.03386 l 0,-9.11284 49.1331,-49.18712 c 27.0231,-27.0529 49.5491,-49.18709 50.0576,-49.18709 0.5084,0 0.9126,4.20664 0.898,9.34808 l -0.027,9.34809 -49.1265,49.87289 c -27.0195,27.43008 -49.5337,49.45842 -50.0312,48.95185 z M 587.341,-105.73149 c -0.47288,-0.4729 -0.8598,-4.70675 -0.8598,-9.40858 l 0,-8.54877 56.69167,-56.68204 56.69168,-56.68204 0,10.22102 0,10.22102 -55.83188,55.8696 c -30.70753,30.72827 -56.21878,55.48268 -56.69167,55.00979 z m 1248.8834,-7.99652 c -0.8107,-2.81951 -1.7698,-6.14663 -2.1311,-7.39361 -0.5069,-1.74863 6.4496,-9.27168 30.4126,-32.88956 17.0883,-16.84229 31.3253,-30.36677 31.6377,-30.05439 1.5797,1.57973 3.6698,14.52815 2.652,16.42986 -1.2785,2.389 -59.1704,59.03407 -60.3335,59.03407 -0.42,0 -1.4269,-2.30686 -2.2377,-5.12637 z m 112.0632,2.49951 c 0,-1.10866 1.1613,-7.07758 2.5806,-13.26426 l 2.5807,-11.24851 55.5443,-55.78701 55.5444,-55.78702 10.0256,0 c 5.5141,0 10.0256,0.4089 10.0256,0.90866 0,0.49976 -30.6678,31.57284 -68.1507,69.05127 -37.4828,37.47845 -68.1505,67.23553 -68.1505,66.12687 z m -1708.65661,-6.45543 -2.26716,-6.66989 70.51956,-70.52728 70.51957,-70.52729 9.35195,0 c 5.14359,0 9.35198,0.4087 9.35198,0.90822 0,1.44674 -152.4498,153.48612 -153.90043,153.48612 -0.71955,0 -2.32853,-3.00144 -3.57547,-6.66988 z m 1496.36431,-5.65544 0,-9.99778 65.4935,-65.48526 65.4936,-65.48524 10.1834,0.35428 10.1835,0.35429 -73.5179,73.97324 c -40.4349,40.68531 -74.4896,74.49324 -75.677,75.12877 -1.994,1.06709 -2.1591,0.39066 -2.1591,-8.8423 z m -752.71128,-1.24449 -0.0386,-9.9512 66.39548,-66.03978 66.3953,-66.03975 9.6345,0 c 5.2989,0 9.6343,0.40872 9.6343,0.90827 0,1.18276 -149.89806,151.07365 -151.08086,151.07365 -0.49551,0 -0.91853,-4.47803 -0.93988,-9.95119 z m -953.38123,2.22676 c -1.042198,-3.58502 -1.894901,-6.98093 -1.894901,-7.54644 0,-0.56553 15.992939,-17.01428 35.539865,-36.5528 l 35.539879,-35.52455 1.895497,4.53655 c 4.82761,11.55411 7.16745,8.07973 -31.480276,46.74469 -19.164874,19.17344 -35.488724,34.86078 -36.275206,34.86078 -0.78647,0 -2.28266,-2.93321 -3.324858,-6.51823 z m 1487.21281,0.26828 c -1.0208,-3.43749 -1.856,-6.83339 -1.856,-7.54647 0,-0.71307 15.993,-17.28253 35.5399,-36.82105 l 35.5399,-35.52455 1.8954,4.53655 c 4.5667,10.92948 6.7922,7.67691 -31.7667,46.4271 -19.2526,19.3481 -35.5654,35.17837 -36.2506,35.17837 -0.6851,0 -2.0811,-2.81248 -3.1019,-6.24995 z m 521.6415,-7.02382 0,-10.25828 49.1583,-49.14736 c 27.033,-27.03105 49.5588,-49.14737 50.0534,-49.14737 0.4945,0 0.8993,4.19311 0.8993,9.31803 l 0,9.31802 -50.0535,50.08761 -50.0534,50.0876 0,-10.25825 z m -1073.52726,-3.0196 0,-10.85666 52.17356,-52.1632 52.1734,-52.1632 9.9461,0 c 5.4703,0 9.946,0.40908 9.946,0.90905 0,0.49997 -27.9538,28.85891 -62.1195,63.01985 l -62.11956,62.11082 0,-10.85666 z m 215.56656,-0.84965 -0.6748,-8.79041 37.8133,-37.9046 37.8134,-37.90459 4.2287,3.22537 c 8.3425,6.36307 9.8458,4.29189 -35.4645,48.85971 -22.7082,22.33605 -41.6821,40.76712 -42.1645,40.95796 -0.4822,0.19082 -1.1804,-3.60872 -1.5516,-8.44344 z m 647.6821,6.58872 c -0.2954,-0.49756 -1.2367,-4.06494 -2.0919,-7.92751 l -1.555,-7.02285 30.9208,-30.92091 c 17.0066,-17.00651 31.1951,-30.64686 31.53,-30.31192 0.335,0.33495 1.369,3.86642 2.2976,7.8477 l 1.6887,7.23873 -30.5758,31.0007 c -16.8167,17.05038 -30.8237,31.00071 -31.1266,31.00071 -0.3029,0 -0.7925,-0.40709 -1.0878,-0.90465 z m -1246.82212,-10.07021 0,-10.17072 52.90031,-52.8498 c 48.00408,-47.95822 53.22333,-52.81293 56.39012,-52.45146 3.27724,0.37407 3.51018,0.7657 3.82415,6.42937 l 0.33432,6.03103 -55.81979,55.74653 c -30.70089,30.6606 -56.2269,56.12662 -56.72446,56.59115 -0.49756,0.46454 -0.90465,-3.7322 -0.90465,-9.3261 z m 1143.48302,-2.92296 0,-10.86722 51.598,-51.54639 51.598,-51.54637 10.0613,0 10.0614,0 -25.3941,26.23497 c -13.9666,14.42923 -41.7133,42.51536 -61.6593,62.41361 l -36.2653,36.17863 0,-10.86723 z m -1478.16181,-5.70302 c -0.33315,-1.49268 -0.75058,-5.21833 -0.92763,-8.27922 l -0.32191,-5.56524 56.56118,-57.50811 c 31.10865,-31.62946 57.49941,-58.01024 58.64612,-58.62394 2.8984,-1.55117 21.69706,-3.00448 21.69706,-1.67738 0,1.282 -132.88331,134.36785 -134.16334,134.36785 -0.48716,0 -1.15832,-1.22128 -1.49148,-2.71396 z m -24.05753,-6.63413 c 1.56589,-14.79441 -0.15187,-12.57686 43.30751,-55.90799 36.45292,-36.34531 40.94312,-40.42663 45.89408,-41.7149 7.98745,-2.07836 18.64419,-3.2377 18.6422,-2.02807 -0.002,1.14302 -106.71092,106.58664 -107.86578,106.58664 -0.39165,0 -0.38176,-3.12106 0.022,-6.93568 z m -294.823877,4.52147 c 0.219855,-0.9961 2.570894,-7.91942 5.224547,-15.38514 l 4.824824,-13.57405 40.467168,-40.45456 40.467169,-40.45457 9.903119,0.35425 9.903119,0.35425 -55.594836,55.48545 c -30.577149,30.51702 -55.414954,54.67048 -55.19511,53.67437 z m 1487.295217,0.001 c 0.309,-0.99513 2.6866,-7.91845 5.2837,-15.38514 l 4.7222,-13.57585 40.4671,-40.45457 40.4673,-40.45456 9.903,0.35425 9.9033,0.35425 -55.6542,55.48545 c -30.6096,30.51702 -55.4013,54.67129 -55.0924,53.67617 z m -839.76605,-10.51199 0,-9.30578 39.47874,-39.54556 39.47875,-39.54554 9.97569,0 c 5.48663,0 9.9757,0.47167 9.9757,1.04818 0,1.45043 -96.25842,96.65448 -97.72492,96.65448 -0.67217,0 -1.18396,-4.02263 -1.18396,-9.30578 z m 1385.95455,5.98872 c 0.013,-0.49757 1.3158,-5.93498 2.8943,-12.08317 l 2.87,-11.17851 21.7299,-22.59525 c 11.9514,-12.42739 29.2831,-30.05865 38.5149,-39.18058 l 16.7851,-16.58532 9.8546,0 c 5.4201,0 9.8546,0.40951 9.8546,0.91003 0,1.18262 -100.4455,101.61745 -101.6282,101.61745 -0.4946,0 -0.8885,-0.40709 -0.8752,-0.90465 z m -240.059,-11.43823 0,-9.9305 38.9208,-38.92084 38.9209,-38.92085 9.3273,0 c 5.3795,0 9.3274,0.50771 9.3274,1.1995 0,1.44451 -94.0671,96.50316 -95.4965,96.50316 -0.55,0 -0.9999,-4.46872 -0.9999,-9.93047 z m -1290.64025,6.66393 c 0,-1.49956 65.61957,-66.69339 67.12892,-66.69339 1.65551,0 8.86204,8.34337 8.86204,10.26005 0,0.69682 -12.6464,13.87155 -28.10313,29.2772 l -28.10312,28.01027 -9.89236,0 c -5.44079,0 -9.89235,-0.38436 -9.89235,-0.85413 z m 59.86554,-4.81751 c -0.82988,-0.82989 32.77966,-35.33937 34.4178,-35.33937 1.75829,0 5.86339,13.36798 4.74273,15.44442 -0.60719,1.12507 -5.43337,6.25221 -10.72482,11.39366 l -9.62084,9.34811 -8.98403,0 c -4.94121,0 -9.36509,-0.38107 -9.83084,-0.84682 z m -64.10611,-4.81228 c -4.25488,-10.18332 -6.23935,-7.27097 29.08494,-42.68424 17.81499,-17.85984 33.11177,-32.47245 33.99285,-32.47245 2.4266,0 9.91644,6.38315 9.91648,8.45125 3e-5,1.77166 -68.50378,71.15833 -70.25295,71.15833 -0.48443,0 -1.71803,-2.0038 -2.74132,-4.45289 z m 380.58675,-6.70452 0.01,-9.95119 36.94832,-37.09082 36.94832,-37.09083 9.48065,0 c 5.21434,0 9.476,0.40709 9.47036,0.90465 -0.0131,1.16249 -90.87977,93.17939 -92.01455,93.17939 -0.46918,0 -0.84855,-4.47804 -0.84308,-9.9512 z m 171.2712,0.0208 0,-9.93049 38.92097,-38.92084 38.9208,-38.92089 10.0839,0 10.0842,0 -5.1191,5.72949 c -6.0381,6.75791 -91.6281,91.97318 -92.37776,91.97318 -0.28213,0 -0.51301,-4.46872 -0.51301,-9.93048 z m 210.83557,4.87498 -4.4722,-4.89292 30.9137,-31.73233 c 17.0025,-17.45278 33.279,-33.70935 36.1696,-36.12569 l 5.256,-4.39337 5.3911,3.40597 c 2.9653,1.87329 5.3922,3.96878 5.3934,4.65665 0,1.21214 -72.6143,74.21931 -73.6596,74.05589 -0.2858,-0.0447 -2.5323,-2.28311 -4.992,-4.9742 z m -668.5043,2.78275 c -0.36254,-0.5866 2.67248,-4.17271 6.74447,-7.96913 8.30017,-7.73842 8.76153,-7.6125 10.13842,2.76697 l 0.83156,6.2687 -8.52764,0 c -4.69021,0 -8.82427,-0.47995 -9.18681,-1.06654 z m -41.01996,-5.86255 -7.1599,-0.44192 25.84556,-25.86654 c 14.21506,-14.22662 26.42884,-25.86655 27.14173,-25.86655 1.48418,0 6.5652,8.53909 6.5652,11.03338 0,2.88426 -40.14068,42.06752 -42.83323,41.8116 -1.31971,-0.12545 -5.62142,-0.42695 -9.55936,-0.66999 z m 624.89136,-1.15921 c -0.4681,-0.46808 17.2148,-18.92303 39.2954,-41.01099 l 40.1465,-40.15995 5.4347,0.1427 c 2.9891,0.0785 7.0043,0.48559 8.9228,0.90465 3.3823,0.73884 2.2898,1.97861 -36.0092,40.86829 l -39.497,40.10634 -8.7211,0 c -4.7966,0 -9.1041,-0.38298 -9.5721,-0.85106 z m 69.2603,-0.29396 c -0.9634,-0.60946 -4.3558,-1.46626 -7.5388,-1.90404 -3.1829,-0.43776 -5.7871,-1.18444 -5.7871,-1.65927 0,-0.47485 16.5084,-16.97909 36.6852,-36.6761 22.8836,-22.33946 37.5766,-35.81275 39.0544,-35.81275 3.6529,0 11.1073,3.4696 11.1073,5.16987 0,1.37347 -69.8984,72.05251 -71.2134,72.00883 -0.3058,-0.01 -1.3442,-0.51712 -2.3076,-1.12657 z m -1240.037167,-6.58397 c 0,-0.59343 2.263614,-7.56621 5.030253,-15.49508 l 5.030252,-14.41611 19.395416,-19.80717 19.395416,-19.80718 9.9512007,0.0287 c 5.4731591,0.0158 9.9511982,0.43934 9.9511982,0.94126 0,0.50192 -15.4695929,16.37505 -34.3768689,35.27357 -18.907277,18.89855 -34.376867,33.87547 -34.376867,33.28203 z m 1487.251667,-0.0867 c 0,-0.64113 2.307,-7.64935 5.1265,-15.57384 l 5.1263,-14.40814 19.5643,-19.69973 19.5645,-19.69975 9.686,0 c 5.3274,0 9.6862,0.41066 9.6862,0.91258 0,0.50193 -15.4696,16.37505 -34.3769,35.27358 -18.9073,18.89855 -34.3769,33.83643 -34.3769,33.19529 z m -840.72533,-9.82014 0,-9.19241 21.87458,-22.47048 c 32.95186,-33.84958 28.32581,-30.31084 39.6242,-30.31084 5.31705,0 9.66736,0.4106 9.66736,0.91245 0,1.18242 -69.08646,70.25368 -70.26915,70.25368 -0.49335,0 -0.89699,-4.13659 -0.89699,-9.19242 z m 216.71499,8.38827 c -0.44228,-0.44228 -0.80415,-4.90486 -0.80415,-9.91686 l 0,-9.1127 23.25382,-23.2538 23.25382,-23.25382 10.81327,0 10.81327,0 -33.15421,33.17065 c -18.23481,18.24386 -33.20314,33.17066 -33.26295,33.17066 -0.0598,0 -0.47061,-0.36187 -0.91287,-0.80414 z m -379.90496,-5.51069 -5.7801,-3.83114 32.51039,-32.51037 c 32.26885,-32.26885 32.53583,-32.4997 35.93525,-31.07147 1.88366,0.7914 4.75328,2.45318 6.37692,3.69283 l 2.95204,2.25392 -31.76849,32.68433 c -17.47267,17.97638 -32.3709,32.66829 -33.1072,32.64868 -0.73628,-0.0195 -3.93975,-1.75964 -7.11881,-3.86678 z m 724.0756,2.91699 c 0,-1.12155 73.8708,-75.00126 76.4169,-76.42612 2.0256,-1.13357 16.7123,1.30085 16.2138,2.68755 -0.1957,0.54451 -16.7371,17.58017 -36.7583,37.85701 l -36.4024,36.86698 -9.7349,0 c -5.3544,0 -9.7351,-0.44344 -9.7351,-0.98542 z m 826.2511,-1.28591 c 0,-0.90847 1.1417,-6.6041 2.5373,-12.65693 l 2.5374,-11.00517 21.3223,-21.41015 21.3223,-21.41014 9.311,0 c 5.121,0 9.311,0.41079 9.311,0.91287 0,0.50208 -14.9269,15.83228 -33.1707,34.06709 -18.2439,18.23481 -33.1706,32.4109 -33.1706,31.50243 z M 388.28445,-186.6887 c -3.19379,-0.25022 -5.63636,-0.94429 -5.42793,-1.54238 0.62512,-1.79367 57.49174,-60.83373 63.14936,-65.56291 2.88014,-2.40751 5.84681,-4.37728 6.5926,-4.37728 2.00486,0 13.26214,4.9964 13.26214,5.88624 0,0.42038 -14.79473,15.55174 -32.87719,33.62523 -26.74043,26.72715 -33.43855,32.8203 -35.88462,32.64345 -1.65409,-0.11953 -5.62055,-0.42213 -8.81436,-0.67235 z m 1340.15315,0.16722 c -0.4873,-0.48715 -0.8857,-4.98787 -0.8857,-10.00158 l 0,-9.11588 25.6631,-25.66305 25.6629,-25.66307 9.317,0 c 5.1242,0 9.2892,0.40709 9.2553,0.90465 -0.1254,1.84012 -68.159,70.39256 -69.0126,69.53893 z m -1485.35436,-5.05116 c 3.26777,-16.33882 16.86131,-36.81497 32.74951,-49.33108 7.51285,-5.91833 25.25381,-15.4863 33.19173,-17.90078 2.85685,-0.86899 2.81107,-0.70525 -1.05769,3.78263 -2.2241,2.58002 -17.88285,18.66197 -34.79721,35.73769 -23.54353,23.7681 -30.59698,30.26483 -30.08634,27.71154 z m 736.621,-9.61569 0,-9.35838 26.24506,-26.22468 26.245,-26.2247 9.338,0 c 5.136,0 9.338,0.4106 9.338,0.91246 0,1.18242 -69.08643,70.25367 -70.26913,70.25367 -0.49333,0 -0.89693,-4.21127 -0.89693,-9.35837 z m 740.61036,-14.6145 0,-9.4984 11.648,-11.61018 11.648,-11.61021 9.4606,0 c 5.2033,0 9.4606,0.41308 9.4606,0.91795 0,1.18197 -40.1427,41.29924 -41.3255,41.29924 -0.4904,0 -0.8917,-4.27429 -0.8917,-9.4984 z m -1133.8334,-5.90127 0,-9.36868 12.98641,-12.94613 12.98641,-12.94615 9.3284,0 c 5.13062,0 9.3284,0.41275 9.3284,0.91722 0,1.18202 -42.5545,43.71238 -43.7372,43.71238 -0.49083,0 -0.89242,-4.21589 -0.89242,-9.36864 z m 389.60448,-2.86827 0,-9.82452 12.18166,-11.88718 12.18176,-11.8872 9.53,0 c 5.2414,0 9.53,0.41291 9.53,0.91759 0,1.18198 -41.34868,42.50581 -42.53136,42.50581 -0.49062,0 -0.89206,-4.42102 -0.89206,-9.8245 z m -165.25019,-6.52656 0,-9.31488 9.95783,-10.13848 9.95782,-10.13849 9.99912,0.35511 9.99911,0.3551 -18.75848,18.69618 c -10.31717,10.28291 -19.2978,18.87712 -19.95695,19.09826 -0.72505,0.24325 -1.19845,-3.27739 -1.19845,-8.9128 z m 1171.22581,6.45995 c 0,-0.44607 1.3518,-6.39357 3.0038,-13.21664 2.3284,-9.6159 3.7695,-13.17116 6.4082,-15.80997 3.2565,-3.25649 3.8343,-3.38896 13.303,-3.05035 l 9.8988,0.35398 -16.307,16.26702 c -8.9688,8.94685 -16.3068,15.90205 -16.3068,15.45596 z m -2027.52944,-2.79371 c 0.05646,-1.31601 2.101017,-7.82066 4.543596,-14.4548 l 4.441069,-12.06206 8.303546,-0.36081 c 4.566948,-0.19845 8.755293,0.0909 9.307421,0.64306 0.552141,0.55215 -5.229082,7.21916 -12.847141,14.81561 -9.632337,9.60502 -13.81979,13.08295 -13.748491,11.419 z m 1487.22184,0 c 0.04,-1.31601 2.0865,-7.82066 4.548,-14.4548 l 4.4753,-12.06206 8.2993,-0.36081 c 4.5645,-0.19845 8.7509,0.0909 9.3029,0.64306 0.5521,0.55215 -5.229,7.21916 -12.8472,14.81561 -9.7356,9.70808 -13.8293,13.10081 -13.7783,11.419 z m -857.68491,-17.26006 0,-8.65369 8.44344,0 c 4.64389,0 8.44344,0.42978 8.44344,0.95506 0,0.89517 -6.00721,6.8519 -13.56982,13.45577 l -3.31706,2.89657 0,-8.65371 z m 387.19207,-0.21026 0,-8.44343 8.44338,0 c 4.64389,0 8.44345,0.42277 8.44345,0.93949 0,1.17974 -14.8299,15.94739 -16.01463,15.94739 -0.47971,0 -0.8722,-3.79955 -0.8722,-8.44345 z m 753.87854,-0.6031 0,-7.84033 7.9154,0 7.9153,0 -7.0106,7.83966 c -3.8559,4.31182 -7.4178,7.83998 -7.9154,7.84034 -0.4976,3.7e-4 -0.9047,-3.52748 -0.9047,-7.83967 z m -921.54115,-1.80931 0,-6.03102 6.03103,0 c 3.31707,0 6.03103,0.38655 6.03103,0.859 0,1.18798 -9.9292,11.20305 -11.10699,11.20305 -0.52529,0 -0.95507,-2.71396 -0.95507,-6.03103 z"
         style="fill:#ffb128;fill-opacity:1" />
    </g>
  </g>
  <g
     inkscape:groupmode="layer"
     id="layer5"
     inkscape:label="menu_cercle"
     style="display:inline"
     transform="translate(770,0)" />
  <g
     inkscape:groupmode="layer"
     id="layer3"
     inkscape:label="menu"
     style="display:inline;opacity:1"
     transform="translate(770,0)">
    <image
       y="200"
       x="85.35894"
       id="image3802"
       xlink:href="file:///Users/genova/github/B3D/as/image/m1.png"
       height="96.702766"
       width="104.64106"
       style="opacity:0.5" />
    <image
       y="99.688904"
       x="85.35894"
       id="image3864"
       xlink:href="file:///Users/genova/github/B3D/as/image/m3.png"
       height="96.702766"
       width="104.64106" />
    <image
       y="152.34097"
       x="30.51259"
       id="image3926"
       xlink:href="file:///Users/genova/github/B3D/as/image/m2.png"
       height="93.09446"
       width="104.64106"
       style="opacity:0.5" />
    <image
       y="152.34097"
       x="139.48361"
       id="image4004"
       xlink:href="file:///Users/genova/github/B3D/as/image/m4.png"
       height="93.09446"
       width="104.64106"
       style="opacity:0.5" />
    <text
       xml:space="preserve"
       style="font-size:14.43324946999999980px;font-style:normal;font-weight:normal;line-height:125%;letter-spacing:0px;word-spacing:0px;fill:#000000;fill-opacity:1;stroke:none;font-family:Sans"
       x="110.69119"
       y="153.13647"
       id="text4014"
       sodipodi:linespacing="125%"><tspan
         sodipodi:role="line"
         id="tspan4016"
         x="110.69119"
         y="153.13647"
         style="font-size:14px;font-style:normal;font-variant:normal;font-weight:normal;font-stretch:normal;text-align:start;line-height:125%;writing-mode:lr-tb;text-anchor:start;fill:#000000;font-family:Arial Hebrew;-inkscape-font-specification:Arial Hebrew">DESIGN</tspan></text>
  </g>
  <g
     inkscape:groupmode="layer"
     id="layer7"
     inkscape:label="Texte"
     style="display:inline">
    <image
       y="197"
       x="926"
       id="image3410"
       xlink:href="file:///Users/genova/github/B3D/as/image/nav-bg.png"
       height="123"
       width="824" />
    <rect
       style="fill:url(#linearGradient4582);fill-opacity:1;stroke:none"
       id="rect4562"
       width="110"
       height="36"
       x="1020"
       y="240.5"
       ry="15" />
    <g
       id="g4584"
       transform="translate(-20,0)">
      <text
         sodipodi:linespacing="125%"
         id="text4558"
         y="267.44727"
         x="1053.1582"
         style="font-size:40px;font-style:normal;font-weight:normal;line-height:125%;letter-spacing:0px;word-spacing:0px;fill:#ffffff;fill-opacity:1;stroke:none;font-family:Sans"
         xml:space="preserve"><tspan
           style="font-size:24px;font-style:normal;font-variant:normal;font-weight:normal;font-stretch:normal;fill:#ffffff;font-family:Arial Hebrew;-inkscape-font-specification:Arial Hebrew"
           y="267.44727"
           x="1053.1582"
           id="tspan4560"
           sodipodi:role="line">Accueil</tspan></text>
    </g>
    <g
       id="g4588"
       transform="translate(122.87793,0)">
      <text
         xml:space="preserve"
         style="font-size:40px;font-style:normal;font-weight:normal;line-height:125%;letter-spacing:0px;word-spacing:0px;fill:#ffffff;fill-opacity:1;stroke:none;font-family:Sans"
         x="1033.1582"
         y="267.44727"
         id="text4590"
         sodipodi:linespacing="125%"><tspan
           sodipodi:role="line"
           id="tspan4592"
           x="1033.1582"
           y="267.44727"
           style="font-size:24px;font-style:normal;font-variant:normal;font-weight:normal;font-stretch:normal;fill:#ffffff;font-family:Arial Hebrew;-inkscape-font-specification:Arial Hebrew">Prsentation</tspan></text>
    </g>
    <text
       xml:space="preserve"
       style="font-size:40px;font-style:normal;font-weight:normal;line-height:125%;letter-spacing:0px;word-spacing:0px;fill:#ffffff;fill-opacity:1;stroke:none;font-family:Sans"
       x="1345.207"
       y="267.44727"
       id="text4596"
       sodipodi:linespacing="125%"><tspan
         sodipodi:role="line"
         id="tspan4598"
         x="1345.207"
         y="267.44727"
         style="font-size:24px;font-style:normal;font-variant:normal;font-weight:normal;font-stretch:normal;fill:#ffffff;font-family:Arial Hebrew;-inkscape-font-specification:Arial Hebrew">Galerie</tspan></text>
    <text
       sodipodi:linespacing="125%"
       id="text4600"
       y="267.44727"
       x="1616.1582"
       style="font-size:40px;font-style:normal;font-weight:normal;line-height:125%;letter-spacing:0px;word-spacing:0px;fill:#ffffff;fill-opacity:1;stroke:none;font-family:Sans"
       xml:space="preserve"><tspan
         style="font-size:24px;font-style:normal;font-variant:normal;font-weight:normal;font-stretch:normal;fill:#ffffff;font-family:Arial Hebrew;-inkscape-font-specification:Arial Hebrew"
         y="267.44727"
         x="1616.1582"
         id="tspan4602"
         sodipodi:role="line">Contacts</tspan></text>
    <text
       sodipodi:linespacing="125%"
       id="text4604"
       y="267.44727"
       x="1469.374"
       style="font-size:40px;font-style:normal;font-weight:normal;line-height:125%;letter-spacing:0px;word-spacing:0px;fill:#ffffff;fill-opacity:1;stroke:none;font-family:Sans"
       xml:space="preserve"><tspan
         style="font-size:24px;font-style:normal;font-variant:normal;font-weight:normal;font-stretch:normal;fill:#ffffff;font-family:Arial Hebrew;-inkscape-font-specification:Arial Hebrew"
         y="267.44727"
         x="1469.374"
         id="tspan4606"
         sodipodi:role="line">Boutique</tspan></text>
    <g
       id="g4656">
      <g
         id="g4653">
        <rect
           style="opacity:0.5;fill:#d83700;fill-opacity:1;stroke:none"
           id="rect4616"
           width="1"
           height="56"
           x="1143"
           y="230.5" />
      </g>
      <g
         transform="translate(-310,0)"
         id="g4645">
        <g
           transform="translate(128,0)"
           id="g4647">
          <g
             transform="translate(182,0)"
             id="g4649">
            <rect
               y="230.5"
               x="1144"
               height="56"
               width="1"
               id="rect4651"
               style="opacity:0.3;fill:#ffaf7a;fill-opacity:1;stroke:none" />
          </g>
        </g>
      </g>
    </g>
    <g
       id="g4664"
       transform="translate(184,0)">
      <g
         id="g4666">
        <rect
           y="230.5"
           x="1143"
           height="56"
           width="1"
           id="rect4668"
           style="opacity:0.5;fill:#d83700;fill-opacity:1;stroke:none" />
      </g>
      <g
         id="g4670"
         transform="translate(-310,0)">
        <g
           id="g4672"
           transform="translate(128,0)">
          <g
             id="g4674"
             transform="translate(182,0)">
            <rect
               style="opacity:0.3;fill:#ffaf7a;fill-opacity:1;stroke:none"
               id="rect4676"
               width="1"
               height="56"
               x="1144"
               y="230.5" />
          </g>
        </g>
      </g>
    </g>
    <g
       transform="translate(308,0)"
       id="g4678">
      <g
         id="g4680">
        <rect
           style="opacity:0.5;fill:#d83700;fill-opacity:1;stroke:none"
           id="rect4682"
           width="1"
           height="56"
           x="1143"
           y="230.5" />
      </g>
      <g
         transform="translate(-310,0)"
         id="g4684">
        <g
           transform="translate(128,0)"
           id="g4686">
          <g
             transform="translate(182,0)"
             id="g4688">
            <rect
               y="230.5"
               x="1144"
               height="56"
               width="1"
               id="rect4690"
               style="opacity:0.3;fill:#ffaf7a;fill-opacity:1;stroke:none" />
          </g>
        </g>
      </g>
    </g>
    <g
       id="g4692"
       transform="translate(454,0)">
      <g
         id="g4694">
        <rect
           y="230.5"
           x="1143"
           height="56"
           width="1"
           id="rect4696"
           style="opacity:0.5;fill:#d83700;fill-opacity:1;stroke:none" />
      </g>
      <g
         id="g4698"
         transform="translate(-310,0)">
        <g
           id="g4700"
           transform="translate(128,0)">
          <g
             id="g4702"
             transform="translate(182,0)">
            <rect
               style="opacity:0.3;fill:#ffaf7a;fill-opacity:1;stroke:none"
               id="rect4704"
               width="1"
               height="56"
               x="1144"
               y="230.5" />
          </g>
        </g>
      </g>
    </g>
  </g>
  <g
     inkscape:groupmode="layer"
     id="layer8"
     inkscape:label="corps">
    <rect
       style="fill:#ffffff;fill-opacity:1;stroke:#747c81;stroke-width:2;stroke-miterlimit:4;stroke-opacity:1;stroke-dasharray:none"
       id="rect4184"
       width="940"
       height="590"
       x="810"
       y="312.5"
       ry="7" />
    <rect
       style="fill:#ffffff;fill-opacity:1;stroke:none"
       id="rect4556"
       width="940"
       height="62"
       x="810"
       y="910"
       ry="7" />
    <text
       xml:space="preserve"
       style="font-size:40px;font-style:normal;font-variant:normal;font-weight:normal;font-stretch:normal;line-height:125%;letter-spacing:0px;word-spacing:0px;fill:#333333;fill-opacity:1;stroke:none;font-family:Verdana;-inkscape-font-specification:Verdana"
       x="830"
       y="944.35156"
       id="text4710"
       sodipodi:linespacing="125%"><tspan
         sodipodi:role="line"
         id="tspan4712"
         x="830"
         y="944.35156"
         style="font-size:12px;font-style:normal;font-variant:normal;font-weight:normal;font-stretch:normal;fill:#333333;fill-opacity:1;font-family:Arial Hebrew;-inkscape-font-specification:Arial Hebrew">ASHRAM  2010  |  Politique de confidentialit</tspan></text>
    <text
       sodipodi:linespacing="125%"
       id="text4714"
       y="944.35156"
       x="1626"
       style="font-size:40px;font-style:normal;font-variant:normal;font-weight:normal;font-stretch:normal;line-height:125%;letter-spacing:0px;word-spacing:0px;fill:#333333;fill-opacity:1;stroke:none;font-family:Verdana;-inkscape-font-specification:Verdana"
       xml:space="preserve"><tspan
         style="font-size:12px;font-style:normal;font-variant:normal;font-weight:normal;font-stretch:normal;fill:#333333;fill-opacity:1;font-family:Arial Hebrew;-inkscape-font-specification:Arial Hebrew"
         y="944.35156"
         x="1626"
         sodipodi:role="line"
         id="tspan4726">Plan Site   |    Blog</tspan></text>
  </g>
  <g
     inkscape:groupmode="layer"
     id="layer9"
     inkscape:label="cadre"
     style="display:inline">
    <g
       id="g4761"
       transform="translate(-4.0875e-5,0.03113257)">
      <rect
         ry="7.0503597"
         y="624"
         x="825"
         height="144.02878"
         width="290"
         id="rect4743"
         style="fill:#eeeeee;fill-opacity:1;stroke:none" />
    </g>
    <rect
       ry="7.0503597"
       y="624"
       x="1135"
       height="144.02878"
       width="290"
       id="rect4745"
       style="fill:#eeeeee;fill-opacity:1;stroke:none" />
    <rect
       style="fill:#eeeeee;fill-opacity:1;stroke:none"
       id="rect4747"
       width="290"
       height="144.02878"
       x="1445"
       y="624"
       ry="7.0503597" />
    <image
       y="515.66663"
       x="812"
       id="image4972"
       xlink:href="file:///Users/genova/github/B3D/as/image/photos/SAM_0491.JPG"
       height="413.33331"
       width="310"
       mask="url(#mask4987)" />
    <image
       y="625.98438"
       x="1135.3784"
       id="image4904"
       xlink:href="file:///Users/genova/github/B3D/as/image/photos/SAM_0021.JPG"
       height="166.4375"
       width="287.89188"
       mask="url(#mask4907)" />
    <image
       y="616.13605"
       x="1439"
       id="image5485"
       xlink:href="file:///Users/genova/github/B3D/as/image/photos/AFFICHE.jpg"
       height="191.12859"
       width="295.68918"
       mask="url(#mask5488)" />
    <text
       xml:space="preserve"
       style="font-size:40px;font-style:normal;font-variant:normal;font-weight:normal;font-stretch:normal;line-height:125%;letter-spacing:0px;word-spacing:0px;fill:#404040;fill-opacity:1;stroke:none;font-family:Verdana;-inkscape-font-specification:Verdana"
       x="830"
       y="354"
       id="text4776"
       sodipodi:linespacing="125%"><tspan
         sodipodi:role="line"
         id="tspan4778"
         x="830"
         y="354"
         style="font-size:28px;font-style:normal;font-variant:normal;font-weight:normal;font-stretch:normal;fill:#404040;fill-opacity:1;font-family:Arial Hebrew;-inkscape-font-specification:Arial Hebrew">Bienvenue  ASHRAM DESIGN!</tspan></text>
    <path
       style="fill:#e6e6e6;stroke:#000000;stroke-width:0.5;stroke-linecap:butt;stroke-linejoin:miter;stroke-miterlimit:4;stroke-opacity:0.19607843;stroke-dasharray:none"
       d="m 830.01784,552 901.96316,0"
       id="path5496"
       inkscape:connector-curvature="0"
       sodipodi:nodetypes="cc" />
    <text
       sodipodi:linespacing="125%"
       id="text5498"
       y="612"
       x="830"
       style="font-size:40px;font-style:normal;font-variant:normal;font-weight:normal;font-stretch:normal;line-height:125%;letter-spacing:0px;word-spacing:0px;fill:#404040;fill-opacity:1;stroke:none;font-family:Verdana;-inkscape-font-specification:Verdana"
       xml:space="preserve"><tspan
         style="font-size:28px;font-style:normal;font-variant:normal;font-weight:normal;font-stretch:normal;fill:#404040;fill-opacity:1;font-family:Arial Hebrew;-inkscape-font-specification:Arial Hebrew"
         y="612"
         x="830"
         id="tspan5500"
         sodipodi:role="line">A la Une</tspan></text>
    <path
       style="fill:none;stroke:#000000;stroke-width:0.44545454;stroke-linecap:butt;stroke-linejoin:miter;stroke-miterlimit:4;stroke-opacity:0.19607843;stroke-dasharray:none"
       d="m 1400.0273,345.97273 0,171.05454"
       id="path5502"
       inkscape:connector-curvature="0"
       sodipodi:nodetypes="cc" />
    <image
       y="355"
       x="1417"
       id="image5579"
       xlink:href="file:///Users/genova/github/B3D/as/image/marker.gif"
       height="22"
       width="22" />
    <text
       xml:space="preserve"
       style="font-size:40px;font-style:normal;font-variant:normal;font-weight:normal;font-stretch:normal;line-height:125%;letter-spacing:0px;word-spacing:0px;fill:#070707;fill-opacity:1;stroke:none;font-family:Verdana;-inkscape-font-specification:Verdana"
       x="830"
       y="793"
       id="text5582"
       sodipodi:linespacing="125%"><tspan
         sodipodi:role="line"
         id="tspan5584"
         x="830"
         y="793"
         style="font-size:20px;font-style:normal;font-variant:normal;font-weight:normal;font-stretch:normal;fill:#070707;fill-opacity:1;font-family:Arial Hebrew;-inkscape-font-specification:Arial Hebrew">SEA CELEBRE LA FEMME</tspan></text>
    <text
       sodipodi:linespacing="125%"
       id="text5586"
       y="819"
       x="830"
       style="font-size:40px;font-style:normal;font-variant:normal;font-weight:normal;font-stretch:normal;line-height:125%;letter-spacing:0px;word-spacing:0px;fill:#070707;fill-opacity:1;stroke:none;font-family:Verdana;-inkscape-font-specification:Verdana"
       xml:space="preserve"><tspan
         style="font-size:20px;font-style:normal;font-variant:normal;font-weight:normal;font-stretch:normal;fill:#7d7d7d;fill-opacity:1;font-family:Arial Hebrew;-inkscape-font-specification:Arial Hebrew"
         y="819"
         x="830"
         id="tspan5588"
         sodipodi:role="line">SEA DIALLO REND HOMMAGE</tspan><tspan
         style="font-size:20px;font-style:normal;font-variant:normal;font-weight:normal;font-stretch:normal;fill:#7d7d7d;fill-opacity:1;font-family:Arial Hebrew;-inkscape-font-specification:Arial Hebrew"
         y="844"
         x="830"
         sodipodi:role="line"
         id="tspan5590">A TOUTES LES FEMMES</tspan></text>
    <rect
       style="fill:url(#linearGradient5652);fill-opacity:1;stroke:#000000;stroke-width:0.5;stroke-miterlimit:4;stroke-opacity:0.19607843;stroke-dasharray:none"
       id="rect5644"
       width="102"
       height="34"
       x="830"
       y="858"
       ry="15" />
    <text
       xml:space="preserve"
       style="font-size:40px;font-style:normal;font-variant:normal;font-weight:normal;font-stretch:normal;line-height:125%;letter-spacing:0px;word-spacing:0px;fill:#ffffff;fill-opacity:1;stroke:none;font-family:Verdana;-inkscape-font-specification:Verdana"
       x="840.02539"
       y="880.21924"
       id="text5654"
       sodipodi:linespacing="125%"><tspan
         sodipodi:role="line"
         id="tspan5656"
         x="840.02539"
         y="880.21924"
         style="font-size:14px;font-style:normal;font-variant:normal;font-weight:normal;font-stretch:normal;fill:#ffffff;font-family:Arial Hebrew;-inkscape-font-specification:Arial Hebrew">Lire la suite</tspan></text>
    <text
       xml:space="preserve"
       style="font-size:29.20210838px;font-style:normal;font-variant:normal;font-weight:normal;font-stretch:normal;line-height:125%;letter-spacing:0px;word-spacing:0px;fill:#66a3df;fill-opacity:0.94117647;stroke:none;font-family:Verdana;-inkscape-font-specification:Verdana"
       x="1447.0544"
       y="374.16345"
       id="text5658"
       sodipodi:linespacing="125%"><tspan
         sodipodi:role="line"
         id="tspan5660"
         x="1447.0544"
         y="374.16345"
         style="font-size:24px;font-weight:normal;fill:#66a3df;fill-opacity:0.94117647;-inkscape-font-specification:Verdana">Dco Intrieur</tspan></text>
    <flowRoot
       xml:space="preserve"
       id="flowRoot5672"
       style="font-size:12px;font-style:normal;font-variant:normal;font-weight:normal;font-stretch:normal;line-height:125%;letter-spacing:0px;word-spacing:0px;fill:#7d7d7d;fill-opacity:1;stroke:none;font-family:Verdana;-inkscape-font-specification:Verdana"
       transform="translate(0,8)"><flowRegion
         id="flowRegion5674"><rect
           id="rect5676"
           width="540"
           height="157"
           x="830"
           y="367"
           style="font-size:12px;fill:#7d7d7d;fill-opacity:1" /></flowRegion><flowPara
         id="flowPara5678"
         style="font-size:16px;font-style:normal;font-variant:normal;font-weight:normal;font-stretch:normal;font-family:Arial;-inkscape-font-specification:Arial">Le design, autrefois appel en franais &quot;esthtique industrielle&quot; 1, est une discipline crative qui consiste  concevoir des dispositifs destins  des usagers grce  un travail sur les formes qui rappelle celui de la cration artistique et qui peut concerner aussi bien des formes spatiales (design despace), volumiques (design de produits, design industriel), textiles (design de mode, stylisme), graphiques (design graphique, graphisme) ou interactives (design interactif, design dinteraction, design numrique).</flowPara><flowPara
         id="flowPara5680" /></flowRoot>  </g>
  <g
     inkscape:groupmode="layer"
     id="layer10"
     inkscape:label="reseaux">
    <g
       id="g3263"
       transform="matrix(0.24193548,0,0,0.24193548,1530.5161,109.51613)"
       style="opacity:0.5">
      <g
         id="Layer_2">
	<path
   id="path3247"
   d="m 126,118 c 0,4.418 -3.582,8 -8,8 H 10 c -4.418,0 -8,-3.582 -8,-8 V 10 C 2,5.582 5.582,2 10,2 h 108 c 4.418,0 8,3.582 8,8 v 108 z"
   inkscape:connector-curvature="0"
   style="fill:#3b5998" />

</g>
      <g
         id="Layer_4">
	<g
   id="g3250">
		<rect
   id="rect3252"
   height="18.039"
   width="116.666"
   y="98.980003"
   x="5.6669998"
   style="fill:#6d84b4" />

	</g>

</g>
      <g
         id="Layer_3">
	<path
   id="path3255"
   d="M 93.376,117.012 H 72.203 V 65.767 H 61.625 V 48.107 H 72.203 V 37.504 c 0,-14.407 5.973,-22.974 22.943,-22.974 h 14.128 v 17.662 h -8.831 c -6.606,0 -7.043,2.468 -7.043,7.074 l -0.024,8.839 h 15.998 l -1.872,17.66 H 93.376 v 51.247 z"
   inkscape:connector-curvature="0"
   style="fill:#ffffff" />

</g>
    </g>
    <g
       transform="matrix(0.12765531,0,0,0.12766525,1481.9627,111.80565)"
       id="layer1-3"
       inkscape:label="Layer 1">
      <rect
         style="fill:#9bebee;fill-opacity:1;fill-rule:evenodd;stroke:none"
         id="rect1942"
         width="235.00784"
         height="234.98955"
         x="-619.14587"
         y="328.84921"
         rx="35.487503"
         ry="35.487503"
         transform="scale(-1,1)"
         inkscape:export-filename="C:\Documents and Settings\Molumen\Desktop\path3511111.png"
         inkscape:export-xdpi="7.7063322"
         inkscape:export-ydpi="7.7063322" />
      <path
         style="fill:url(#linearGradient2449-0);fill-opacity:1;fill-rule:evenodd;stroke:none"
         d="m 557.05665,338.89518 -110.82944,0 c -29.33688,0 -52.95465,23.80974 -52.95465,53.38507 l 0,108.12736 c 0.9496,23.08605 4.60229,8.49154 11.55502,-17.07471 8.08056,-29.71315 34.39648,-55.68287 66.44461,-75.1457 24.46133,-14.85525 51.84109,-24.34125 101.67955,-25.24367 28.26482,-0.51176 25.7695,-36.68291 -15.89509,-44.04835 z"
         id="path1950"
         sodipodi:nodetypes="ccccsssc"
         inkscape:export-filename="C:\Documents and Settings\Molumen\Desktop\path3511111.png"
         inkscape:export-xdpi="7.7063322"
         inkscape:export-ydpi="7.7063322"
         inkscape:connector-curvature="0" />
      <g
         id="g13655">
        <path
           style="fill:none;stroke:#157dc3;stroke-width:40;stroke-linecap:round;stroke-linejoin:miter;stroke-miterlimit:4;stroke-opacity:1;stroke-dasharray:none"
           d="m 462.92772,387.20114 0,85 c -0.0754,17.76189 9.6244,34.3577 32.14286,36.42857 l 43.57143,0"
           id="path13651"
           sodipodi:nodetypes="cccc"
           inkscape:connector-curvature="0" />
        <path
           style="fill:none;stroke:#157dc3;stroke-width:40;stroke-linecap:round;stroke-linejoin:miter;stroke-miterlimit:4;stroke-opacity:1;stroke-dasharray:none"
           d="m 465.07058,436.48685 75.71428,0.71429"
           id="path13653"
           inkscape:connector-curvature="0" />
      </g>
      <g
         style="stroke:#15a0dd;stroke-opacity:1"
         id="g13659">
        <path
           d="m 465.07058,436.48685 75.71428,0.71429 m -77.85714,-50 0,85 c -0.0754,17.76189 9.6244,34.3577 32.14286,36.42857 l 43.57143,0"
           style="fill:none;stroke:url(#linearGradient13680-7);stroke-width:40;stroke-linecap:round;stroke-linejoin:miter;stroke-miterlimit:4;stroke-opacity:1;stroke-dasharray:none"
           id="path13663"
           inkscape:connector-curvature="0" />
      </g>
    </g>
  </g>
</svg>
