<?xml version="1.0" encoding="UTF-8" standalone="no"?>
<!-- Created with Inkscape (http://www.inkscape.org/) -->

<svg
   xmlns:dc="http://purl.org/dc/elements/1.1/"
   xmlns:cc="http://creativecommons.org/ns#"
   xmlns:rdf="http://www.w3.org/1999/02/22-rdf-syntax-ns#"
   xmlns:svg="http://www.w3.org/2000/svg"
   xmlns="http://www.w3.org/2000/svg"
   xmlns:sodipodi="http://sodipodi.sourceforge.net/DTD/sodipodi-0.dtd"
   xmlns:inkscape="http://www.inkscape.org/namespaces/inkscape"
   id="svg3036"
   version="1.1"
   inkscape:version="0.48.2 r9819"
   width="2068"
   height="422"
   sodipodi:docname="logo.svg">
  <metadata
     id="metadata3042">
    <rdf:RDF>
      <cc:Work
         rdf:about="">
        <dc:format>image/svg+xml</dc:format>
        <dc:type
           rdf:resource="http://purl.org/dc/dcmitype/StillImage" />
        <dc:title></dc:title>
      </cc:Work>
    </rdf:RDF>
  </metadata>
  <defs
     id="defs3040" />
  <sodipodi:namedview
     pagecolor="#ffffff"
     bordercolor="#666666"
     borderopacity="1"
     objecttolerance="10"
     gridtolerance="10"
     guidetolerance="10"
     inkscape:pageopacity="0"
     inkscape:pageshadow="2"
     inkscape:window-width="2560"
     inkscape:window-height="1392"
     id="namedview3038"
     showgrid="false"
     inkscape:zoom="1.160058"
     inkscape:cx="1034"
     inkscape:cy="211"
     inkscape:window-x="0"
     inkscape:window-y="0"
     inkscape:window-maximized="0"
     inkscape:current-layer="svg3036" />
  <g
     id="g3046"
     transform="translate(-1.7240517,370.18091)"
     style="fill:#000000">
    <path
       style="fill:#000000"
       d="m 437.56126,-1.5103348 c -2.41345,-0.47403 -4.62144,-1.09522 -4.90665,-1.38043 -0.71465,-0.71465 13.51591,-15.3364002 44.79475,-46.0261202 14.575,-14.30049 27.4,-27.12849 28.5,-28.50667 5.12773,-6.424511 72.17721,-73.004035 73.5,-72.984855 1.43593,0.0208 7,6.88967 7,8.6415 0,0.46358 -31.61369,32.45418 -70.25264,71.090225 -48.61306,48.60939 -70.86788,70.21359021 -72.25,70.13777021 -1.09855,-0.0603 -3.972,-0.49740001 -6.38546,-0.97142001 z m 241.8881,-3.67651 c 0,-0.41663 11.25,-12.0007502 25,-25.7425002 l 25,-24.985 0,8.50322 0,8.50321 -17.26042,17.23929 -17.26043,17.2392802 -7.73957,0 c -4.25677,0 -7.73958,-0.34088 -7.73958,-0.7575 z M 61.065884,-12.240795 c -0.275827,-0.4463 20.756552,-22.06597 46.738616,-48.04371 l 47.24011,-47.232265 8.28267,0.29371 8.28266,0.29371 -47.8085,47.750005 -47.808498,47.75 -7.212777,0 c -3.967027,0 -7.438454,-0.36515 -7.714281,-0.81145 z m 1232.999916,0 c -0.2758,-0.4463 20.7566,-22.06597 46.7386,-48.04371 l 47.2402,-47.232265 8.3639,0.29371 8.364,0.29371 -47.8453,47.750005 -47.8454,47.75 -7.2572,0 c -3.9915,0 -7.4829,-0.36515 -7.7588,-0.81145 z m -806.99958,-0.99946 c -0.27564,-0.44601 26.93307,-28.23351 60.46381,-61.75 45.35906,-45.339795 61.18742,-60.584845 61.83393,-59.555195 0.47792,0.76115 1.43272,4.04052 2.12177,7.2875 l 1.25283,5.90359 -43.3946,43.009545 c -23.86703,23.65525 -48.6113,48.16337 -54.98727,54.4625 l -11.59267,11.45297 -7.59831,0 c -4.17908,0 -7.82384,-0.36491 -8.09949,-0.81091 z m 1241.04978,-0.85576 c -0.3667,-0.36666 -0.6667,-1.83092 -0.6667,-3.2539 0,-2.08047 9.3942,-11.97993 47.9603,-50.53972 26.3781,-26.373861 48.2251,-47.687655 48.5488,-47.363985 0.5197,0.51971 -3.8173,19.412134 -4.673,20.356224 -0.1849,0.20393 -18.5493,18.617671 -40.8099,40.919421 l -40.4738,40.54863 -4.6095,0 c -2.5353,0 -4.9096,-0.3 -5.2762,-0.66667 z m 128.3333,-0.088 c 0,-0.41505 18.225,-18.97546 40.5,-41.24537 l 40.5,-40.490741 0,9.15192 0,9.151921 -32.7154,32.09345 -32.7154,32.09345 -7.7846,0 c -4.2815,0 -7.7846,-0.33958 -7.7846,-0.75463 z m -1010.99994,-1.0002 c 0,-0.98042 76.27427,-77.245131 77.25481,-77.245131 0.40985,0 0.74519,3.5027 0.74519,7.78377 l 0,7.783771 -30.94496,31.21623 -30.94495,31.21623 -8.05505,0 c -4.43027,0 -8.05504,-0.33969 -8.05504,-0.75487 z m 187.50774,-23.25815 23.9922,-24.01302 0.2936,8.20799 0.2936,8.20799 -15.7819,15.80503 -15.7819,15.80503 -8.5039,0 -8.5039,0 23.9922,-24.01302 z m 133.4922,22.9963 c 0,-0.5592 15.6375,-16.54048 34.75,-35.51395 38.2577,-37.979431 35.9341,-36.407061 36.1503,-24.46263 l 0.1,5.50669 -27.7566,27.74331 -27.7566,27.7433 -7.7434,0 c -4.5805,0 -7.7434,-0.41529 -7.7434,-1.01672 z m -654.99994,-0.47402 c 0,-0.79441 100.76498,-102.822535 102.03319,-103.312235 1.37973,-0.53276 2.1934,5.82725 1.49132,11.65677 l -0.68,5.6462 -41.6557,41.749495 c -27.55071,27.61274 -42.67714,42.06864 -44.67226,42.69201 -4.116,1.28604 -16.51655,2.4631 -16.51655,1.56776 z m 136.66667,-0.17593 c -0.36667,-0.36666 -0.66667,-1.14288 -0.66667,-1.72492 0,-1.19352 92.04672,-93.608415 93.23548,-93.608415 0.42049,0 0.76117,3.4875 0.75709,7.75 l -0.007,7.750004 -40.00676,40.250001 -40.00676,40.25 -6.31914,0 c -3.47552,0 -6.61914,-0.3 -6.9858,-0.66667 z m 947.99997,-1 c -2.3557,-2.35562 1.6952,-6.96396 39.5233,-44.96237 22.1046,-22.204031 40.5546,-40.370965 41,-40.370965 0.4455,0 0.81,3.721134 0.81,8.269174 l 0,8.26918 -34.7831,34.730821 -34.7831,34.73083 -5.5503,0 c -3.0526,0 -5.8502,-0.3 -6.2168,-0.66667 z m -1328.66664,-1.41435 c 0,-1.29241 48.42472,-49.91898 49.71176,-49.91898 0.96816,0 4.30125,8.54751 4.29319,11.00962 -0.003,0.83029 -8.67167,10.16779 -19.26433,20.75 l -19.25938,19.24038 -7.74062,0 c -4.88052,0 -7.74062,-0.39943 -7.74062,-1.08102 z m 1232.99994,-0.0268 c 0,-1.37256 48.2525,-49.89218 49.6175,-49.89218 1.039,0 4.3959,8.42364 4.3874,11.00962 0,0.83029 -8.6716,10.16779 -19.2643,20.75 l -19.2594,19.24038 -7.7406,0 c -4.996,0 -7.7406,-0.3928 -7.7406,-1.10783 z m 249,0.35262 c 0,-0.92782 71.247,-72.244801 72.1739,-72.244801 0.365,0 -0.5878,4.78243 -2.1172,10.627631 l -2.7808,10.62764 -25.9271,25.87236 -25.9272,25.87237 -7.7108,0 c -4.2409,0 -7.7108,-0.33984 -7.7108,-0.75521 z M 46.449354,-19.394925 c 0,-0.91577 106.577776,-109.193315 108.118366,-109.842715 0.40225,-0.16956 0.0955,2.08044 -0.68163,5 -1.90832,7.16912 -1.80935,8.3304 0.81327,9.54282 2.10019,0.97091 -0.91266,4.2105 -45.25,48.655285 l -47.500006,47.6151 -7.75,-0.002 c -4.314118,-0.002 -7.75,-0.43099 -7.75,-0.96849 z m 1167.999946,0.20115 c 0,-1.45291 25.9334,-26.63547 26.6706,-25.89834 0.4067,0.40674 0.9275,3.6919 1.1573,7.30034 l 0.4177,6.56079 -6.3439,6.40082 -6.3439,6.40082 -7.7789,0 c -4.2784,0 -7.7789,-0.34399 -7.7789,-0.76443 z m 65,-0.19466 c 0,-0.90975 106.5639,-109.208805 108.0814,-109.841255 0.3964,-0.16519 0.017,2.49375 -0.8434,5.90876 -1.554,6.16899 -1.5491,6.22123 0.7579,8.08931 l 2.3219,1.88022 -47.4089,47.463485 -47.4089,47.46348 -7.75,-0.002 c -4.2779,-10e-4 -7.75,-0.43214 -7.75,-0.96155 z m 382,0.0255 c 0,-1.2233 15.9504,-18.06641 17.1089,-18.06641 0.4901,0 0.8911,3.53026 0.8911,7.84501 0,10.18028 -0.9462,11.15499 -10.8287,11.15499 -3.9442,0 -7.1713,-0.4201 -7.1713,-0.93355 z m -921.99994,-0.87936 c 0,-0.4471 1.35,-2.10629 3,-3.68709 l 3,-2.87418 0,3.68709 c 0,3.4301 -0.2091,3.68709 -3,3.68709 -1.65,0 -3,-0.36581 -3,-0.81291 z m 1055.99994,0.0863 c 0,-1.19037 12.8448,-13.76189 13.4464,-13.16031 0.2756,0.2756 -0.2794,3.4004 -1.2332,6.94401 l -1.7343,6.44293 -5.2395,0.30226 c -2.8817,0.16626 -5.2394,-0.0717 -5.2394,-0.52887 z m 112,0.14665 c 0,-0.90965 34.3353,-36.42 35.2149,-36.42 0.4318,0 0.7851,3.68895 0.7851,8.19767 l 0,8.19768 -10.3023,10.30232 -10.3024,10.30233 -7.6976,0 c -4.2337,0 -7.6977,-0.26099 -7.6977,-0.57998 z m -289.8333,-1.36905 c 0.4202,-1.19646 62.445,-62.05095 63.2443,-62.05095 0.3239,0 0.589,3.49994 0.589,7.77764 l 0,7.77765 -23.7978,23.72235 -23.7978,23.72236 -8.2855,0 c -4.7946,0 -8.1451,-0.39986 -7.9522,-0.94903 z m -1495.66664,-7.03851 c 4.16447,-4.21618 7.11871,-6.5279 7.29305,-5.7069 0.16117,0.75901 -0.51383,3.81327 -1.5,6.78724 l -1.79305,5.40722 -5.5,0.29968 -5.5,0.29968 7,-7.08692 z m 128.11593,6.17515 c -0.27615,-0.44683 14.71363,-16.02321 33.31063,-34.61417 l 33.81272,-33.801761 2.07999,6.1592 2.08,6.159201 -5.13329,5.70497 c -2.82331,3.13773 -15.31116,15.94247 -27.75076,28.45497 l -22.61747,22.75 -7.63986,0 c -4.20192,0 -7.8658,-0.36559 -8.14196,-0.81241 z m 66.38407,-0.0794 c 0,-1.01183 17.90307,-17.5894 18.35313,-16.99432 0.61354,0.81123 3.64687,9.5004 3.64687,10.44668 0,0.54654 -1.32463,2.444 -2.94363,4.21657 -2.84986,3.1202 -3.20025,3.22286 -11,3.22286 -4.431,0 -8.05637,-0.40131 -8.05637,-0.89179 z m 163.75,0.1528 c -3.1625,-0.19845 -5.75,-0.67709 -5.75,-1.06365 0,-0.38656 30.81437,-31.51474 68.47637,-69.173731 44.0899,-44.086384 68.81827,-68.124164 69.43641,-67.497264 0.52803,0.5355 1.89247,3.15731 3.03209,5.82625 l 2.07203,4.85263 -63.75845,63.914414 c -45.9744,46.086861 -64.31631,63.856931 -65.75845,63.708301 -1.1,-0.11337 -4.5875,-0.3685 -7.75,-0.56695 z m 417.25,-0.0224 c 0,-0.41875 7.425,-8.17613 16.5,-17.23863 l 16.5,-16.47727 0,8.46885 0,8.46885 -8.72915,8.76979 -8.72915,8.76978 -7.77085,0 c -4.27397,0 -7.77085,-0.34261 -7.77085,-0.76137 z m 22.60521,-0.0684 c -0.28206,-0.45638 1.94138,-3.25351 4.94098,-6.21584 l 5.45381,-5.38607 0,6.21584 0,6.21584 -4.94098,0 c -2.71754,0 -5.17176,-0.3734 -5.45381,-0.82977 z m 56.06146,0.1631 c -0.36667,-0.36666 -0.66667,-1.36738 -0.66667,-2.22381 0,-1.52347 87.72614,-90.109525 89.23474,-90.109525 0.4209,0 0.7711,3.7125 0.7784,8.25 l 0.013,8.250004 -38.3965,38.250001 -38.39649,38.25 -5.95,0 c -3.27245,0 -6.24992,-0.3 -6.61658,-0.66667 z m 86.33327,-0.21089 c 0,-0.48265 0.675,-1.43775 1.5,-2.12244 1.2532,-1.04007 1.5,-0.89568 1.5,0.87756 0,1.21995 -0.6378,2.12244 -1.5,2.12244 -0.825,0 -1.5,-0.3949 -1.5,-0.87756 z m 96.5575,-0.37244 c -1.888,-6.21551 -3.6946,-4.05426 39.7044,-47.5 22.6631,-22.687501 41.5042,-41.250005 41.8692,-41.250005 0.365,0 1.1871,3.00623 1.827,6.68052 l 1.1633,6.680514 -20.8107,20.936991 c -58.752,59.1085 -55.1165,55.70198 -59.4457,55.70198 -2.273,0 -4.0877,-0.52661 -4.3075,-1.25 z m 81.4425,0.61808 c 0,-1.07466 5.1956,-6.36808 6.2504,-6.36808 0.482,0 0.7353,1.4625 0.563,3.25 -0.2756,2.85772 -0.7057,3.28782 -3.5634,3.56336 -1.7875,0.17235 -3.25,-0.028 -3.25,-0.44528 z m 114.5,-6.35564 c 4.1645,-4.21618 7.1187,-6.5279 7.293,-5.7069 0.1612,0.75901 -0.5138,3.81327 -1.5,6.78724 l -1.793,5.40722 -5.5,0.29968 -5.5,0.29968 7,-7.08692 z m 128.1228,6.18621 c -0.3715,-0.60103 66.0403,-68.198651 67.0022,-68.198651 0.5434,0 3.375,9.673411 3.375,11.529911 0,1.50181 -8.4223,10.72024 -27.25,29.82597 l -27.25,27.65235 -7.691,-0.004 c -4.23,-0.002 -7.9138,-0.36472 -8.1862,-0.80546 z m 66.3772,-0.0585 c 0,-1.00136 17.9271,-17.57162 18.4076,-17.01442 0.1775,0.20584 1.1036,2.76389 2.058,5.68457 1.8542,5.6745 1.5197,6.75622 -3.383,10.93968 -1.6647,1.42053 -17.0826,1.77268 -17.0826,0.39017 z m 226,0.1009 c 0,-1.25822 41.8791,-42.69529 42.5116,-42.06284 0.3223,0.3223 -0.5096,4.90053 -1.8486,10.17385 -2.7066,10.65862 -2.8768,10.90867 -16.2706,23.89792 l -9.0225,8.75 -7.685,0 c -4.2267,0 -7.6849,-0.34152 -7.6849,-0.75893 z m 156,-0.02 c 0,-0.97801 12.2947,-13.22107 13.2769,-13.22107 0.3977,0 0.7231,3.15 0.7231,7 l 0,7 -7,0 c -3.85,0 -7,-0.3505 -7,-0.77889 z m -73,-8.44274 0,-8.22162 40.7336,-40.77838 c 22.4034,-22.428065 41.0784,-40.778335 41.5,-40.778335 1.0258,0 0.9563,15.1524 -0.077,16.7808 -1.5486,2.44047 -80.3664,81.219205 -81.2594,81.219205 -0.4935,0 -0.8972,-3.69973 -0.8972,-8.22163 z m -1418.24994,5.45727 c -3.1625,-0.79813 -5.73181,-1.74015 -5.70957,-2.09337 0.0222,-0.35321 12.73473,-13.53726 28.25,-29.29789 l 28.20957,-28.655641 8.4338,-0.57719 c 4.63858,-0.31746 8.55344,-0.45754 8.69968,-0.3113 0.45005,0.45005 -58.73317,60.686601 -60.4868,61.563331 -0.95889,0.4794 -4.04834,0.21714 -7.39668,-0.6279 z m 601.24994,0.99945 c 0,-0.97953 24.2838,-25.23499 25.2644,-25.23499 0.4046,0 0.7356,3.50287 0.7356,7.78416 l 0,7.78416 -5.2814,5.21584 -5.2815,5.21584 -7.7185,0 c -4.2453,0 -7.7186,-0.34425 -7.7186,-0.76501 z M 39.126299,-25.179345 c -0.242598,-0.4125 0.97164,-4.35 2.698307,-8.75 l 3.139396,-8 62.224768,-61.934585 c 34.22363,-34.06401 62.44475,-61.71459 62.71361,-61.44573 0.26886,0.26886 -1.02545,5.31242 -2.87624,11.20791 -2.78812,8.88122 -4.10847,11.5295 -7.7008,15.44574 -2.38464,2.59966 -29.15841,29.36416 -59.497284,59.476665 -43.920841,43.59313 -55.681124,54.75 -57.711125,54.75 -1.402249,0 -2.748033,-0.3375 -2.990632,-0.75 z m 57.323057,-0.13136 c 0,-0.48476 21.220434,-22.08476 47.156514,-48 l 47.15651,-47.118645 7.84349,0 c 4.31392,0 7.84349,0.34051 7.84349,0.7567 0,0.41618 -12.59744,13.34811 -27.99432,28.737624 l -27.99431,27.980921 -5.74461,0.51238 -5.74461,0.51238 -1.63886,6.08739 c -0.90138,3.34806 -2.10649,6.94806 -2.67804,8 -0.57155,1.05193 -5.95929,6.75011 -11.97277,12.66261 l -10.93359,10.75 -7.64945,0 c -4.207194,0 -7.649444,-0.39661 -7.649444,-0.88136 z m 201.000004,0.30045 c 0,-1.18679 33.46697,-35.4301 34.34184,-35.13848 0.50022,0.16674 1.72343,2.93385 2.71826,6.14912 l 1.80877,5.84596 -10.08297,10.61215 c -5.54564,5.83669 -10.77714,11.17466 -11.62557,11.86216 -1.53428,1.24327 -17.16033,1.85253 -17.16033,0.66909 z m 121.0461,-1.33665 c -2.44964,-0.9932 -4.58792,-2.2079 -4.75173,-2.69934 -0.16381,-0.49143 11.82127,-13.0064 26.63353,-27.81104 l 26.93137,-26.917511 7.19988,1.286681 7.19987,1.28669 -28.37293,28.38604 c -15.60511,15.61232 -28.82589,28.3609 -29.37951,28.33017 -0.55362,-0.0307 -3.01083,-0.86849 -5.46048,-1.86169 z m 548.9539,-5.83514 0,-7.7527 69.24994,-69.198215 69.25,-69.19821 8.75,-0.68661 c 5.4411,-0.42696 8.75,-0.32092 8.75,0.28042 0,0.53187 -14.0625,14.82865 -31.25,31.77063 -17.1875,16.94198 -51.95,51.447514 -77.25,76.678965 -25.29999,25.23146 -46.33744,45.87156 -46.74994,45.8669 -0.4125,-0.005 -0.75,-3.49719 -0.75,-7.76118 z m 304.67684,7.0027 c -0.2426,-0.4125 0.9717,-4.35 2.6984,-8.75 l 3.1393,-8 62.2248,-61.934585 c 34.2236,-34.06401 62.4448,-61.71459 62.7136,-61.44573 0.2689,0.26886 -1.0254,5.31242 -2.8762,11.20791 -2.7915,8.89204 -4.1052,11.52472 -7.7073,15.44574 -2.3883,2.59966 -29.1599,29.36416 -59.4927,59.476665 -43.9675,43.64833 -55.6683,54.75 -57.7046,54.75 -1.4048,0 -2.7527,-0.3375 -2.9953,-0.75 z m 57.525,-0.35583 c 0.2028,-0.60821 21.4915,-22.20821 47.3082,-48 l 46.9396,-46.894175 7.7752,0 c 4.2763,0 7.7751,0.34051 7.7751,0.7567 0,0.41618 -12.5974,13.34811 -27.9943,28.737624 l -27.9943,27.980921 -5.7446,0.51238 -5.7447,0.51238 -1.6388,6.08739 c -0.9014,3.34806 -2.1065,6.94806 -2.6781,8 -0.5715,1.05193 -5.9592,6.75011 -11.9727,12.66261 l -10.9336,10.75 -7.7328,0 c -5.2041,0 -7.6122,-0.36161 -7.3642,-1.10583 z m 200.7981,0.52492 c 0,-1.18679 33.467,-35.4301 34.3418,-35.13848 0.5003,0.16674 1.7235,2.93385 2.7183,6.14912 l 1.8088,5.84596 -10.083,10.61215 c -5.5456,5.83669 -10.7771,11.17466 -11.6256,11.86216 -1.5343,1.24327 -17.1603,1.85253 -17.1603,0.66909 z m -795.49994,-14.41909 c 7.68526,-7.7 14.31673,-14 14.7366,-14 0.41987,0 0.7634,3.5005 0.7634,7.77889 l 0,7.77889 -6.27691,6.22111 -6.2769,6.22111 -8.4597,0 -8.4597,0 13.97321,-14 z m 144.07042,13.11393 c -0.58348,-0.94408 53.98778,-55.11393 55.52234,-55.11393 0.49898,0 0.90724,3.4753 0.90724,7.72289 l 0,7.72289 -20.27711,20.27711 -20.27711,20.27711 -7.66387,0 c -4.21513,0 -7.9103,-0.39873 -8.21149,-0.88607 z m 767.42952,-0.87331 c 0,-0.98004 39.2787,-40.24062 40.2592,-40.24062 0.4074,0 0.7408,3.49399 0.7408,7.76443 l 0,7.76443 -12.7639,12.73557 -12.7639,12.73557 -7.7361,0 c -4.2549,0 -7.7361,-0.34172 -7.7361,-0.75938 z m -966.99501,-0.99062 c 0.003,-0.4125 16.42772,-16.87358 36.5,-36.58018 l 36.49507,-35.830175 0,8.336754 0,8.33676 -28.25647,28.243421 -28.25646,28.24342 -8.24354,0 c -4.53394,0 -8.24131,-0.3375 -8.2386,-0.75 z m 354.49501,-34.25 c 19.2441,-19.25 35.3292,-35.000001 35.7446,-35.000001 0.4155,0 0.7554,3.49057 0.7554,7.75682 l 0,7.756821 -27.2567,27.24318 -27.2567,27.24318 -8.4879,0 -8.48799,0 34.98929,-35 z m 864.0313,28.8703 c 8.3325,-8.55726 41.0022,-41.23748 47.8207,-47.83614 l 5.648,-5.465841 0,8.668271 0,8.66826 -21.25,21.04446 -21.25,21.04447 -8.4687,0.003 -8.4687,0.003 5.9687,-6.1297 z m -1318.56288,-28.6203 c 33.75619,-34.184941 40.97974,-41.242415 42.21793,-41.247305 0.89936,-0.004 -2.75204,13.117104 -5.29639,19.031604 -2.91828,6.783721 -43.39261,46.984121 -50.25568,49.915561 -6.32878,2.70322 -16.55106,6.05014 -18.47854,6.05014 -0.83271,0 13.483,-15.1875 31.81268,-33.75 z m 72.07112,25 0.0395,-7.75 83.28762,-83.750005 83.28762,-83.75 7.13772,0 c 8.57594,0 9.20806,-0.71606 9.20806,-10.43097 l 0,-6.56246 41.08202,-40.75328 41.08202,-40.75328 5.91798,-0.29772 5.91798,-0.29772 0,2.99 c 0,2.62708 -10.28674,13.31884 -84.75,88.08694 l -84.75,85.09696 -6.21482,-0.0392 c -7.36799,-0.0465 -8.28518,0.96628 -8.28518,9.14906 l 0,5.31982 -45.75403,45.745935 c -25.16472,25.16025 -46.08972,45.74592 -46.5,45.74592 -0.41028,0 -0.72821,-3.4875 -0.70649,-7.75 z m 552.16186,6.6459 c 0.6524,-1.95742 47.1857,-47.77469 48.0062,-47.26759 0.4358,0.26935 0.7924,3.74296 0.7924,7.71913 l 0,7.22941 -16.8166,16.71157 -16.8166,16.71158 -7.7667,0 c -5.2216,0 -7.6462,-0.36182 -7.3987,-1.1041 z m -358.20134,-3.64989 c 0,-3.61885 1.69193,-5.44564 47,-50.746011 l 47,-46.992024 0,8.50042 0,8.50042 -42.25436,42.245595 -42.25436,42.24559 -4.74564,0 -4.74564,0 0,-3.75399 z m 754.99994,-5.85168 0,-7.60567 40.1192,-40.644331 c 22.0655,-22.354384 40.5155,-40.794334 41,-40.977664 0.4844,-0.18334 0.8808,3.40374 0.8808,7.97128 l 0,8.30462 -40.2334,40.278715 c -22.1283,22.1533 -40.5783,40.27872 -41,40.27872 -0.4216,0 -0.7666,-3.42255 -0.7666,-7.60567 z m -1347.31099,5.85567 c -0.236,-0.4125 -1.01252,-3.07302 -1.72559,-5.91227 l -1.29649,-5.16228 4.09312,-4.83772 c 8.74058,-10.33064 62.25236,-62.723555 63.11221,-61.792615 0.48508,0.52518 1.66685,3.37281 2.62616,6.32805 l 1.74419,5.37316 -33.36568,33.376845 c -18.35112,18.35726 -33.67914,33.37683 -34.06226,33.37683 -0.38311,0 -0.88967,-0.3375 -1.12566,-0.75 z m 1232.99989,0 c -0.236,-0.4125 -1.0125,-3.07302 -1.7255,-5.91227 l -1.2965,-5.16228 4.1008,-4.83772 c 8.9941,-10.61046 62.2149,-62.753005 63.0876,-61.809505 0.4944,0.53447 1.6837,3.3897 2.6431,6.34494 l 1.7442,5.37316 -33.3657,33.376845 c -18.3511,18.35726 -33.6792,33.37683 -34.0623,33.37683 -0.3831,0 -0.8897,-0.3375 -1.1257,-0.75 z m 251.089,-0.81625 c -1.7488,-2.8783 -3.6423,-11.81168 -2.8172,-13.2908 1.3863,-2.48508 107.887,-108.628585 108.4397,-108.075935 0.2641,0.2641 -0.6932,5.15926 -2.1272,10.87813 l -2.6073,10.39794 -50.1604,50.512204 c -27.5882,27.781721 -50.4156,50.092021 -50.7276,49.578461 z m -900.77784,-8.18774 0,-7.75399 47,-46.992021 47,-46.992024 0,8.50004 0,8.50004 -46.25399,46.245975 c -25.43969,25.43528 -46.58969,46.24597 -47,46.24597 -0.41031,0 -0.74601,-3.4893 -0.74601,-7.75399 z m -425.1852,2.71915 c -2.02686,-1.07055 -3.99756,-2.45186 -4.37934,-3.06958 -0.64767,-1.04796 52.09867,-54.895581 53.77287,-54.895581 0.39722,0 2.86019,1.35586 5.47327,3.01303 l 4.75105,3.01303 -26.98696,26.986971 c -14.84284,14.84283 -27.42769,26.96708 -27.96633,26.94277 -0.53865,-0.0243 -2.6377,-0.92009 -4.66456,-1.99064 z m 1441.18514,-6.71973 0,-7.75458 40.7545,-40.745421 c 22.415,-22.409994 41.09,-40.745434 41.5,-40.745434 0.41,0 0.7455,3.48956 0.7455,7.75457 l 0,7.75458 -40.7545,40.745425 c -22.415,22.40999 -41.09,40.74543 -41.5,40.74543 -0.41,0 -0.7455,-3.48956 -0.7455,-7.75457 z m -689.3697,5.71524 c -0.2578,-0.80337 -0.7041,-4.38567 -0.9918,-7.96067 l -0.5231,-6.5 39.666,-39.740551 c 43.4776,-43.559234 40.9317,-41.685874 43.7816,-32.216234 l 1.4676,4.8763 -41.4658,41.500915 c -26.9675,26.99021 -41.6297,40.99018 -41.9345,40.04024 z m -768.44097,-5.16891 c -2.3041,-1.77087 -4.18927,-3.67034 -4.18927,-4.22106 0,-0.55071 13.21508,-14.23824 29.36685,-30.41672 l 29.36685,-29.415425 2.62612,5.73622 2.62613,5.736214 -1.94935,2.64451 c -1.81443,2.46146 -43.78956,44.273901 -50.59733,50.401211 l -3.06072,2.7548 -4.18928,-3.21975 z m -153.59527,-2.4699 c -0.8767,-2.57298 -1.594,-5.38803 -1.594,-6.25568 0,-0.86765 14.83379,-16.40623 32.96399,-34.530181 l 32.96398,-32.952634 1.46812,3.51369 c 3.82769,9.16095 6.3123,5.68208 -30.00472,42.011615 -18.08401,18.09023 -33.17776,32.89133 -33.54169,32.89133 -0.36392,0 -1.37898,-2.10516 -2.25568,-4.67814 z m 1233.01584,0.0467 c -0.8854,-2.59866 -1.6099,-5.43473 -1.6099,-6.30238 0,-0.86765 14.8338,-16.40623 32.964,-34.530181 l 32.964,-32.952634 1.5716,3.76147 c 3.7574,8.99267 5.9463,5.94714 -29.9599,41.685365 -17.9424,17.85839 -33.0044,32.60331 -33.4712,32.7665 -0.4668,0.16318 -1.5731,-1.82948 -2.4586,-4.42814 z m -1428.609846,1.9083 c 0,-0.6694 1.99571,-6.71237 4.434911,-13.42883 l 4.434912,-12.21174 60.771893,-60.778015 c 33.42454,-33.42791 60.94555,-60.60435 61.1578,-60.3921 0.40754,0.40754 -4.17617,17.25016 -5.87006,21.56931 -1.16423,2.96857 -124.929456,127.042815 -124.929456,125.241375 z m 1233.024446,0.003 c -0.014,-0.67106 1.9712,-6.71539 4.4104,-13.43185 l 4.4349,-12.21174 60.7719,-60.778015 c 33.4245,-33.42791 60.9455,-60.60444 61.1576,-60.3923 0.2122,0.21214 -0.3309,2.89408 -1.2068,5.95987 -0.8759,3.06578 -2.3082,8.07921 -3.1829,11.14095 -1.5543,5.44048 -3.006,6.98922 -63.9755,68.25 -34.3118,34.475765 -62.3961,62.134155 -62.4096,61.463085 z m -689.32413,-1.65572 c 0.43983,-0.75671 2.37469,-2.64001 4.29969,-4.18511 3.46227,-2.77898 3.45739,-2.76414 -0.45295,1.37584 -4.1089,4.35022 -5.20964,5.15409 -3.84674,2.80927 z m 1008.29963,-11.34577 0,-7.72162 40.7336,-40.778385 c 22.4034,-22.4281 41.0784,-40.77837 41.5,-40.77837 0.4215,0 0.7664,3.48956 0.7664,7.75457 l 0,7.75458 -40.7545,40.745424 c -22.415,22.409991 -41.09,40.745431 -41.5,40.745431 -0.41,0 -0.7455,-3.47473 -0.7455,-7.72163 z m -1403.99994,5.03824 c 0,-1.21599 93.41149,-94.316615 94.63154,-94.316615 1.15838,0 4.36846,7.94724 4.36846,10.81506 0,0.80233 -11.16161,12.75967 -24.80357,26.57186 -48.71974,49.327685 -46.82166,49.353595 3.80357,0.0519 21.80342,-21.23338 31.12956,-29.95816 31.81316,-29.76183 0.33898,0.0974 1.42714,2.56241 2.41815,5.4779 l 1.80183,5.3009 -33.26657,33.343384 -33.26657,33.343381 -10.4286,-0.35316 -10.42861,-0.35316 -5.70505,5.28188 -5.70505,5.28187 -7.61635,0 c -4.18899,2e-5 -7.61634,-0.30751 -7.61634,-0.68337 z m 1232.99994,-0.0706 c 0,-1.24272 93.4118,-94.246015 94.6599,-94.246015 1.1301,0 4.3401,7.97557 4.3401,10.78328 0,0.78485 -11.614,13.19219 -25.8088,27.57186 -30.2961,30.690525 -38.4262,39.319185 -35.6912,37.879635 1.1,-0.57897 3.8078,-3.00615 6.0173,-5.39373 6.6798,-7.217971 65.2381,-63.034415 66.1052,-63.009875 0.4438,0.0126 1.6178,2.40825 2.6088,5.32374 l 1.8018,5.3009 -33.2665,33.314274 -33.2666,33.314261 -10,-0.21127 c -11.129,-0.23512 -12.2209,0.13271 -17.9529,6.04777 l -3.953,4.07916 -7.797,0 c -4.2884,0 -7.7971,-0.3393 -7.7971,-0.75399 z m -769.99994,-9.31304 0,-8.40037 71.75,-71.798115 c 39.4625,-39.48896 72.65941,-72.03171 73.77092,-72.31721 1.1115,-0.28551 5.1615,-0.38369 9,-0.21819 l 6.97908,0.30091 -80,79.64927 c -44,43.807104 -80.3375,79.994605 -80.75,80.416675 -0.4125,0.42207 -0.75,-3.01277 -0.75,-7.63297 z m 1079.72294,6.36982 c -0.2532,-0.44154 -0.7708,-2.52225 -1.1503,-4.6238 -0.3795,-2.10156 -0.9522,-4.50425 -1.2726,-5.33932 -0.4042,-1.05324 17.9007,-20.010971 59.7614,-61.892915 33.1892,-33.20604 60.5316,-60.18696 60.761,-59.95759 0.2294,0.22936 -0.6252,5.05063 -1.8991,10.71392 l -2.3162,10.29691 -55.8952,55.5 c -30.7423,30.525005 -56.2627,55.636255 -56.7119,55.802795 -0.4493,0.16653 -1.024,-0.0585 -1.2771,-0.5 z m -577.723,-8.31302 0,-8.50048 35.0573,-34.994655 35.0573,-34.99464 3.4278,4 c 1.8853,2.2 3.4345,4.45219 3.4427,5.00487 0.01,0.55268 -17.3101,18.32549 -38.4851,39.495134 l -38.5,38.490261 0,-8.50049 z m -1004.36916,5.22184 c -0.26799,-0.43362 12.35993,-13.34811 28.06205,-28.698861 26.30357,-25.714984 28.87409,-27.955314 32.67824,-28.480594 4.05367,-0.55974 4.12371,-0.63712 3.84265,-4.24505 -0.27753,-3.56249 0.41087,-4.38339 22.5,-26.83072 12.53245,-12.73569 22.96568,-23.67343 23.18496,-24.30609 0.21927,-0.63267 -9.65762,8.72553 -21.94865,20.79599 l -22.34732,21.94629 -1.41895,-3.44629 c -0.78042,-1.89546 -1.63975,-5.05531 -1.90963,-7.02189 -0.48424,-3.52867 -0.0941,-3.97811 29.73303,-34.25 16.62305,-16.87092 30.75358,-30.6744 31.40119,-30.6744 0.64762,0 2.03115,2.51145 3.07452,5.58101 1.46635,4.31392 1.64148,5.99023 0.77137,7.38349 -0.88723,1.42068 -0.61476,3.04516 1.28631,7.669 1.32659,3.22657 2.42266,6.77176 2.43571,7.87818 0.0158,1.34215 -19.20372,21.22854 -57.74644,59.75 l -57.77017,57.738325 -7.67081,0 c -4.21894,0 -7.89007,-0.35478 -8.15806,-0.78839 z m 827.34907,-7.46161 -0.02,-8.25 58.27009,-57.703025 58.2701,-57.70302 7.75,-0.047 c 4.2625,-0.0258 7.75,0.29181 7.75,0.70588 -10e-5,0.9806 -130.27229,131.247165 -131.25289,131.247165 -0.411,0 -0.7562,-3.7125 -0.7673,-8.25 z m 405.65089,7.46161 c -0.268,-0.43362 12.3764,-13.37112 28.0987,-28.750001 26.4786,-25.900294 28.8876,-27.998474 32.6782,-28.461614 4.0263,-0.49194 4.0877,-0.55958 3.8059,-4.19463 -0.2781,-3.58844 0.3758,-4.36791 22.75,-27.1182 12.67,-12.88295 23.0364,-23.77445 23.0364,-24.20333 0,-0.42888 -9.6923,8.76853 -21.5385,20.43869 -11.8462,11.67015 -22.0527,21.04707 -22.6811,20.8376 -1.4167,-0.47224 -3.6022,-6.33993 -3.7043,-9.94562 -0.063,-2.21877 5.1578,-7.99739 30.0393,-33.25 16.5635,-16.81048 30.6673,-30.56451 31.3417,-30.56451 0.6744,0 2.0394,2.68574 3.0333,5.96832 1.4593,4.81972 1.5665,6.25823 0.5569,7.47471 -1.0178,1.2263 -0.8503,2.33254 0.9008,5.94984 1.1831,2.4439 2.3824,5.94279 2.6651,7.77529 0.503,3.2598 -0.7364,4.58049 -57.3197,61.08184 l -57.8339,57.750005 -7.6708,0 c -4.2189,0 -7.89,-0.35478 -8.158,-0.78839 z m -1016.85516,-1.96161 c -0.84392,-0.9625 -2.28399,-3.22945 -3.20014,-5.03766 l -1.66575,-3.28765 18.79516,-18.972161 18.79515,-18.972154 8.25,0.01 c 4.5375,0.005 8.25,0.3509 8.25,0.76779 0,0.88011 -46.22512,47.241835 -47.10283,47.241835 -0.32296,0 -1.27767,-0.7875 -2.12159,-1.75 z m 20.25752,-3.35844 -3.30164,-4.10844 25.37692,-25.391561 25.37691,-25.391564 8.501,0 8.501,0 -29.48729,29.500004 c -16.21801,16.225001 -29.97733,29.500001 -30.57628,29.500001 -0.59894,0 -2.57473,-1.8488 -4.39062,-4.10844 z m -211.0331,2.2025 c 0,-0.93694 109.48903,-109.358695 110.97866,-109.896865 0.46097,-0.16654 1.8249,2.30846 3.03094,5.5 l 2.19281,5.8028 -50.3512,49.71902 -50.35121,49.719015 -7.75,0.031 c -4.2625,0.017 -7.75,-0.37669 -7.75,-0.87496 z m 1232.99994,0 c 0,-0.93694 109.489,-109.358695 110.9787,-109.896865 0.4609,-0.16654 1.8249,2.30846 3.0309,5.5 l 2.1928,5.8028 -50.3512,49.71902 -50.3512,49.719015 -7.75,0.031 c -4.2625,0.017 -7.75,-0.37669 -7.75,-0.87496 z m -568.99994,-8.21362 0,-8.44932 46.31626,-46.215565 c 25.47395,-25.41856 46.62395,-46.21556 47,-46.21556 0.37606,0 0.68374,3.67418 0.68374,8.16484 l 0,8.16483 -29.75,29.64666 c -16.3625,16.30566 -37.5125,37.230684 -47,46.500045 l -17.25,16.85339 0,-8.44932 z m 878.71534,6.40925 c -0.2484,-0.43433 -1.0076,-3.15947 -1.6871,-6.05587 l -1.2355,-5.26617 17.3536,-17.774001 c 24.6281,-25.224684 115.8536,-115.580834 115.8536,-114.749524 0,0.38139 -1.1503,5.27498 -2.5562,10.87465 l -2.5563,10.18122 -17.6937,17.81771 c -38.3643,38.63305 -107.0515,105.718405 -107.4784,104.971985 z m 138.2846,-11.10331 0,-7.813631 41.0308,-40.936374 c 22.567,-22.51501 41.242,-41.12388 41.5,-41.35305 0.2581,-0.22916 0.4692,3.35807 0.4692,7.97163 l 0,8.38829 -40.7336,40.77838 c -22.4034,22.428104 -41.0784,40.778375 -41.5,40.778375 -0.4215,0 -0.7664,-3.51613 -0.7664,-7.81362 z m -1211.99994,-1.26041 0,-8.448211 60.7692,-60.738884 60.76919,-60.73888 8.23081,0 c 4.52694,0 8.2308,0.33878 8.2308,0.75284 0,0.71689 -127.95574,128.639505 -134.75,134.715115 l -3.25,2.90623 0,-8.44821 z m 501.63024,2.82403 c -0.3317,-1.2375 -0.6091,-4.44052 -0.6166,-7.11781 l -0.014,-4.867821 27.6336,-28.132184 c 15.1984,-15.47271 28.4148,-28.51232 29.3698,-28.97692 1.9906,-0.96845 9.9966,3.52688 9.9966,5.61304 0,1.22708 -63.923,65.731695 -65.1391,65.731695 -0.3452,0 -0.899,-1.0125 -1.2306,-2.25 z m -783.19007,-7.23894 c -3.72017,-8.903631 -3.7168,-8.912031 8.3308,-20.761065 l 10.93014,-10.75 8.14945,0 c 4.48219,0 8.14944,0.34246 8.14944,0.76103 0,0.41857 -7.6345,8.38562 -16.96555,17.704574 l -16.96556,16.943531 -1.62872,-3.89807 z m 612.26643,2.86223 c -0.3886,-0.38864 -0.7053,-3.894121 -0.7038,-7.789961 l 0,-7.08333 46.58044,-47.250004 46.5805,-47.25 8.4167,0 c 4.6292,0 8.4167,0.33905 8.4167,0.75344 0,1.41384 -108.58424,109.328965 -109.29334,108.619855 z m 624.29334,-8.127861 0,-7.75458 40.7545,-40.745424 c 22.415,-22.40999 41.09,-40.74543 41.5,-40.74543 0.41,0 0.7455,3.47473 0.7455,7.72163 l 0,7.72162 -40.7336,40.77838 c -22.4034,22.428104 -41.0784,40.778375 -41.5,40.778375 -0.4215,0 -0.7664,-3.489561 -0.7664,-7.754571 z m -1541.999946,2.08461 c 0,-0.6401 1.817533,-6.26372 4.038963,-12.49693 l 4.038963,-11.333114 90.18501,-90.22604 c 49.60175,-49.62431 90.4789,-89.89931 90.83811,-89.49999 0.35922,0.39932 1.43792,3.14371 2.39713,6.09864 l 1.74401,5.3726 -29.30816,29.3208 c -16.11949,16.12644 -29.63936,29.1161 -30.04415,28.86592 -0.4048,-0.25017 -1.02454,-1.76861 -1.37721,-3.3743 -0.82149,-3.74019 -2.8584,-5.5634 -4.26771,-3.81996 -0.56123,0.69428 -2.26876,5.61153 -3.79451,10.92722 l -2.7741,9.66489 -60.83817,60.83203 c -33.460994,33.45763 -60.838176,60.308334 -60.838176,59.668234 z m 1232.999946,0 c 0,-0.6401 1.8175,-6.26372 4.039,-12.49693 l 4.0389,-11.333114 90.185,-90.22604 c 49.6018,-49.62431 90.4789,-89.89931 90.8381,-89.49999 0.3593,0.39932 1.438,3.14371 2.3972,6.09864 l 1.744,5.3726 -29.3082,29.3208 c -16.1195,16.12644 -29.6393,29.1161 -30.0441,28.86592 -0.4048,-0.25017 -1.0246,-1.76861 -1.3772,-3.3743 -0.8215,-3.74019 -2.8584,-5.5634 -4.2678,-3.81996 -0.5612,0.69428 -2.2687,5.61153 -3.7945,10.92722 l -2.7741,9.66489 -60.8381,60.83203 c -33.461,33.45763 -60.8382,60.308334 -60.8382,59.668234 z m -446.99994,-12.58403 0,-8.253994 47.02972,-46.99601 47.02971,-46.99601 -0.27971,8.5949 -0.27972,8.59491 -45.95503,46.65509 c -25.27526,25.66031 -46.31276,46.655104 -46.75,46.655104 -0.43723,0 -0.79497,-3.7143 -0.79497,-8.25399 z m 877.14404,3.50399 c -0.5132,-2.0625 -1.1911,-4.868394 -1.5065,-6.235324 -0.5045,-2.18658 2.3343,-5.40198 23.6174,-26.75 13.3049,-13.34557 24.6882,-24.26468 25.2962,-24.26468 1.0547,0 3.4488,8.24523 3.4488,11.87791 0,1.84975 -46.9859,49.122094 -48.8244,49.122094 -0.6042,0 -1.5184,-1.6875 -2.0315,-3.75 z m 137.8559,-6.504574 0,-8.25458 40.7545,-40.74542 c 22.415,-22.40999 41.09,-40.74543 41.5,-40.74543 0.41,0 0.7455,3.49692 0.7455,7.77093 l 0,7.77093 -41.0743,41.22907 c -22.5908,22.67599 -41.2658,41.229074 -41.5,41.229074 -0.2341,0 -0.4257,-3.71456 -0.4257,-8.254574 z m -711.7689,-2.51251 -2.2689,-5.73292 23.0756,-22.75 c 16.5838,-16.34984 23.7209,-22.75 25.3696,-22.75 2.6752,0 8.6585,1.87748 10.0641,3.15795 1.0109,0.92094 -51.0787,53.856954 -52.9644,53.824974 -0.5539,-0.009 -2.0281,-2.596904 -3.276,-5.750004 z m -786.17212,1.04004 c -1.61065,-5.79986 -1.30948,-10.73623 0.76982,-12.61797 1.3876,-1.25576 3.79988,-1.65499 10,-1.65499 4.49419,0 8.16466,0.3375 8.15659,0.75 -0.008,0.4125 -4.03407,4.47283 -8.94666,9.02296 l -8.93198,8.272974 -1.04777,-3.772974 z m 1235.94102,-4.28216 0,-8.50006 40.2546,-40.24537 c 22.14,-22.13495 40.59,-40.24537 41,-40.24537 0.41,0 0.7454,3.48956 0.7454,7.75457 l 0,7.75458 -41,40.99085 -41,40.990854 0,-8.500054 z m -765.99994,-1.71599 0,-7.72518 46.73563,-46.77482 c 25.7046,-25.72614 47.0796,-46.77481 47.5,-46.77481 0.4204,0 0.76437,3.47633 0.76437,7.72519 l 0,7.72518 -46.73563,46.77482 c -25.7046,25.72614 -47.0796,46.77481 -47.5,46.77481 -0.4204,0 -0.76437,-3.47633 -0.76437,-7.72519 z m 880.00634,4.24198 c -0.6018,-1.58276 -1.3309,-4.70904 -1.6202,-6.94727 l -0.5261,-4.06952 24.5321,-24.45452 c 13.4927,-13.44998 24.8054,-24.18117 25.1395,-23.84709 0.3341,0.33409 1.2853,3.20332 2.1139,6.37607 l 1.5064,5.76863 -25.0258,25.02573 -25.0257,25.02573 -1.0941,-2.87776 z m -1054.00634,-7.69604 0,-8.34779 49.77335,-49.73648 49.77335,-49.73648 8.29452,0 8.29451,0 -7.14314,7.87255 c -3.92873,4.3299 -30.05927,30.46783 -58.06787,58.08428 l -50.92472,50.21172 0,-8.3478 z m 322.99995,-2.54485 0,-7.72411 44.73499,-44.77589 c 24.6043,-24.62675 45.0793,-44.7759 45.5,-44.7759 0.4208,0 0.765,3.48938 0.765,7.75417 l 0,7.75416 -44.7541,44.74584 c -24.6148,24.61021 -45.08979,44.74583 -45.49999,44.74583 -0.4103,0 -0.7459,-3.47585 -0.7459,-7.7241 z m -453.29438,6.09634 c -0.38806,-0.38807 -0.70557,-1.51531 -0.70557,-2.50498 0,-0.98967 -0.76687,-3.40755 -1.70415,-5.37305 l -1.70415,-3.57364 30.448,-30.46029 c 17.01,-17.01686 31.22955,-30.46028 32.21884,-30.46028 0.97396,0 3.35365,1.4625 5.28821,3.25 l 3.51738,3.25 -33.32649,33.2889 c -18.32958,18.3089 -33.64401,32.9714 -34.03207,32.58334 z m 1328.29437,-11.0942 0,-7.72196 41.25,-41.2995 41.25,-41.29949 0.2937,8.22323 0.2937,8.22322 -40.7891,40.79823 c -22.434,22.43903 -41.1287,40.79823 -41.5437,40.79823 -0.415,0 -0.7546,-3.47488 -0.7546,-7.72196 z m -740.3146,5.19397 c -3.198,-0.69731 -5.9924,-1.4457 -6.2098,-1.6631 -0.2174,-0.21739 27.4686,-28.2564 61.5244,-62.30891 34.0558,-34.05251 62.2217,-61.61164 62.5908,-61.24252 0.3691,0.36911 0.8583,3.72468 1.087,7.45682 l 0.416,6.7857 -55.9122,56.25 c -30.7516,30.9375 -56.3102,56.19146 -56.7969,56.11992 -0.4866,-0.0716 -3.5013,-0.70061 -6.6993,-1.39791 z m 25.6257,-2.80263 c -2.3039,-1.74316 -4.2164,-3.62096 -4.25,-4.17288 -0.081,-1.33551 106.7019,-108.0668 107.4105,-107.35823 0.9339,0.93385 -1.5329,16.23964 -2.9592,18.36173 -1.6522,2.45807 -94.8591,96.53186 -95.5309,96.41938 -0.2648,-0.0443 -2.3665,-1.50683 -4.6704,-3.25 z m 563.2894,0.28218 c -1.1847,-3.49906 -2.5898,-9.60098 -2.5949,-11.26859 -0.01,-1.96974 48.7681,-50.94089 49.9861,-50.18808 0.3974,0.24561 1.3071,3.2009 2.0215,6.56731 l 1.2989,6.12074 -25.1101,25.11009 c -16.5784,16.57846 -25.2771,24.6169 -25.6015,23.65853 z m -1193.10044,-3.52838 c -2.2,-1.31356 -4.45,-2.57194 -5,-2.79638 -1.36094,-0.55538 59.59924,-61.63104 61.49385,-61.61035 1.9572,0.0214 9.25003,4.17669 9.69117,5.52184 0.38332,1.16883 -59.88048,61.51437 -61.28432,61.36745 -0.49539,-0.0519 -2.7007,-1.169 -4.9007,-2.48256 z m 1083.49994,-5.67781 0,-8.25463 40.2546,-40.24537 c 22.14,-22.13495 40.59,-40.24537 41,-40.24537 0.41,0 0.7454,3.5999 0.7454,7.99977 l 0,7.99978 -40.4814,40.50022 c -22.2647,22.27513 -40.7147,40.50023 -41,40.50023 -0.2852,0 -0.5186,-3.71458 -0.5186,-8.25463 z m -801.99994,5.50142 c 0,-0.98054 116.27258,-117.24679 117.25318,-117.24679 0.41075,0 0.74682,3.48914 0.74682,7.75364 l 0,7.75364 -51.25361,51.24636 -51.2536,51.24636 -7.7464,0 c -4.26051,0 -7.74639,-0.33894 -7.74639,-0.75321 z m 180,-7.62142 0,-8.86638 44.68644,-44.8795 c 24.5776,-24.68372 45.0526,-44.87949 45.5,-44.87949 0.4474,0 0.8135,3.71435 0.8135,8.25412 l 0,8.25412 -45.5,45.49176 -45.49994,45.49176 0,-8.86639 z m -321,-0.90668 0,-8.28131 46.06364,-46.46869 c 25.335,-25.55778 46.22403,-46.01869 46.42006,-45.46869 0.19603,0.55 0.579,4.375 0.85104,8.5 l 0.49462,7.5 -46.15016,46.25 c -25.38259,25.4375 -46.49419,46.25 -46.91468,46.25 -0.42049,0 -0.76452,-3.72659 -0.76452,-8.28131 z m 419.99994,5.52554 c 0,-1.52093 64.6004,-65.10025 67.7365,-66.66589 5.0867,-2.53938 10.3864,-7.67866 12.149,-11.78116 1.7084,-3.97616 73.424,-76.79718 75.6314,-76.79718 0.6409,0 2.4234,2.31156 3.961,5.1368 l 2.7958,5.1368 -72.9599,72.8632 -72.9599,72.8632 -8.1769,0 c -4.4974,0 -8.177,-0.3401 -8.177,-0.75577 z m -235.25048,-11.49423 -0.47624,-7.25 47.10944,-47.25 c 25.9102,-25.9875 47.44872,-47.25 47.86339,-47.25 0.41467,0 0.75395,3.4893 0.75395,7.75399 l 0,7.75399 -46.75395,46.74601 c -25.71467,25.71031 -47.03889,46.74601 -47.38715,46.74601 -0.34826,0 -0.84751,-3.2625 -1.10944,-7.25 z m 262.86488,6.43504 c -0.2771,-0.44823 31.2513,-32.51073 70.0629,-71.25 l 70.5666,-70.43504 1.8013,4 c 4.0715,9.04149 9.6198,2.42081 -61.8045,73.75 l -64.8364,64.75 -7.6431,0 c -4.2038,0 -7.8698,-0.36673 -8.1468,-0.81496 z m 752.0917,-0.81228 c -0.3884,-0.38835 -0.7061,-4.02493 -0.7061,-8.08129 l 0,-7.3752 41.249,-40.95814 c 22.6869,-22.52697 41.5869,-40.95813 42,-40.95813 0.413,0 0.751,3.48953 0.751,7.75452 l 0,7.75452 -41.2939,41.28491 c -22.7117,22.7067 -41.6117,40.96717 -42,40.57881 z M 83.449356,-130.9634 c 0,-0.41001 1.85298,-5.97008 4.11772,-12.35571 l 4.11773,-11.61024 80.630544,-80.75058 c 44.34679,-44.41281 81.02965,-80.61753 81.51745,-80.45493 1.44957,0.48319 4.72283,9.79534 4.1156,11.70855 -0.59252,1.86686 -174.499044,174.74078 -174.499044,173.46291 z m 1232.999944,-0.002 c 0,-0.40884 1.853,-5.96796 4.1177,-12.35359 l 4.1177,-11.61024 80.6306,-80.75058 c 44.3468,-44.41281 81.0296,-80.61753 81.5174,-80.45493 1.4475,0.48247 4.7233,9.79398 4.1173,11.70327 -0.5908,1.86128 -174.5007,174.74006 -174.5007,173.46595 z m -553.83327,-1.42678 c 0.53812,-1.55438 159.91259,-162.03716 160.9181,-162.03716 0.50338,0 0.89335,3.4875 0.8666,7.75 l -0.0486,7.74999 -73.20136,73.76948 -73.20137,73.76948 -7.83333,-0.0195 c -4.57635,-0.0114 -7.69474,-0.41981 -7.5,-0.98231 z m -259.91667,-2.69945 c -2.3375,-0.82741 -4.25,-1.81395 -4.25,-2.1923 0,-1.68061 62.9529,-63.37607 64.17336,-62.89154 7.98968,3.17189 9.82664,4.12729 9.82664,5.11085 0,0.63116 -13.61522,14.7573 -30.25605,31.39142 -32.74156,32.72835 -31.11154,31.54872 -39.49395,28.58157 z m -18.19645,-0.93331 c -2.99554,-0.80518 -5.67343,-1.69096 -5.95087,-1.96839 -1.00373,-1.00374 61.95952,-64.43602 63.95956,-64.43602 2.96082,0 10.93776,3.18359 10.93776,4.36525 0,1.11847 -62.06455,63.70704 -63.03671,63.56894 -0.25481,-0.0362 -2.91419,-0.7246 -5.90974,-1.52978 z m -284.47113,-5.76888 c -0.87033,-2.99384 -1.58242,-6.05185 -1.58242,-6.79559 0,-1.32842 59.86987,-61.83994 61.1842,-61.83994 0.58823,0 4.8158,10.19343 4.8158,11.61175 0,1.00192 -11.43175,12.54851 -37.16758,37.54096 l -25.66757,24.92617 -1.58243,-5.44335 z m 1232.99992,0 c -0.8703,-2.99384 -1.5824,-6.05185 -1.5824,-6.79559 0,-1.32842 59.8699,-61.83994 61.1842,-61.83994 0.5882,0 4.8158,10.19343 4.8158,11.61175 0,1.00192 -11.4317,12.54851 -37.1676,37.54096 l -25.6676,24.92617 -1.5824,-5.44335 z m -784.58234,-3.86045 0,-8.22493 46.23548,-46.27507 c 25.42951,-25.4513 46.57951,-46.27508 47,-46.27508 0.42049,0 0.76452,4.00268 0.76452,8.89484 l 0,8.89484 -46.1998,45.60516 c -25.40989,25.08284 -46.55989,45.60516 -47,45.60516 -0.44011,0 -0.8002,-3.70122 -0.8002,-8.22492 z m -204.75,4.51618 c -2.8875,-0.85107 -5.25,-2.02219 -5.25,-2.60247 0,-0.58029 14.04641,-15.14766 31.21424,-32.37193 23.78293,-23.86113 31.79031,-31.31686 33.63398,-31.31686 2.63729,0 10.20617,1.96341 11.38707,2.95387 0.85264,0.71514 -63.32578,65.08634 -64.7709,64.96546 -0.53041,-0.0444 -3.32689,-0.777 -6.21439,-1.62807 z m 1262.68134,-0.97174 c -0.5605,-1.47427 -1.2558,-4.51177 -1.5452,-6.75 l -0.526,-4.06952 25.021,-24.94365 c 24.1327,-24.05803 25.0553,-24.85365 25.9849,-22.40863 0.5301,1.39427 1.2392,4.51891 1.5757,6.94365 l 0.612,4.40863 -24.4437,24.75 c -13.444,13.6125 -24.7172,24.75 -25.0516,24.75 -0.3344,0 -1.0666,-1.20622 -1.6271,-2.68048 z m -909.93134,-2.07222 c 0,-0.98058 138.27206,-139.2473 139.25268,-139.2473 0.41103,0 0.74732,3.47907 0.74732,7.73126 l 0,7.73125 -62.23915,62.26875 -62.23914,62.26874 -7.76086,0 c -4.26847,0 -7.76085,-0.33871 -7.76085,-0.7527 z m 985.02524,-2.2473 c -0.022,-0.825 0.8991,-5.55 2.0458,-10.5 l 2.0849,-9 75.672,-76.28969 75.672,-76.28968 6.75,0.0397 c 5.7534,0.0338 6.75,0.29872 6.75,1.79421 0,2.36166 -82.5264,84.82077 -83.4288,83.36073 -1.2666,-2.04952 -2.4845,-1.14887 -3.5628,2.63474 -0.8549,3.00012 -9.1548,11.94866 -41.5063,44.75 -22.2408,22.55 -40.4553,40.325 -40.4768,39.5 z m -1307.81243,-2.71909 c -2.90796,-0.85676 -5.15796,-1.92625 -5,-2.37665 0.32296,-0.92088 36.37202,-37.38193 53.40602,-54.01636 l 11.11882,-10.85801 5.38118,1.59033 c 2.95964,0.87468 5.77019,1.82636 6.24567,2.11484 1.00787,0.61149 -63.36187,65.30433 -64.85873,65.18427 -0.55317,-0.0444 -3.38501,-0.78165 -6.29296,-1.63842 z m 1129.78713,-6.03371 0,-7.7528 66.8691,-66.86351 c 36.778,-36.77493 67.1018,-66.47366 67.3862,-65.99719 0.2844,0.47647 1.0972,3.48621 1.8062,6.68831 l 1.289,5.822 -67.9225,67.92799 c -37.3574,37.3604 -68.2612,67.928 -68.6752,67.928 -0.4141,0 -0.7528,-3.48876 -0.7528,-7.7528 z m -622.29239,6.1271 c -0.3892,-0.3892 -0.7076,-4.05756 -0.7076,-8.15191 l 0,-7.44428 77.24999,-77.40694 77.25,-77.40693 7.8233,0.0179 c 5.7577,0.0132 7.738,0.34793 7.5,1.26789 -0.1778,0.6875 -15.0822,15.875 -33.1209,33.75 l -32.7975,32.49999 -6.2025,0.5 -6.2024,0.5 -0.5,6.75039 -0.5,6.7504 -44.5424,44.54057 c -24.4983,24.49732 -44.86079,44.22214 -45.24999,43.83294 z m -549.14614,-2.26758 c -2.71623,-0.95605 -5.0794,-2.16068 -5.25149,-2.67696 -0.17209,-0.51628 13.79939,-15.04564 31.04773,-32.28746 l 31.36063,-31.34878 5.56006,1.24429 c 3.05804,0.68436 6.15893,1.62351 6.89086,2.08701 0.9642,0.61057 -7.49312,9.66227 -30.70128,32.85895 -17.61765,17.60893 -32.46765,31.98135 -33,31.93873 -0.53236,-0.0426 -3.19029,-0.85973 -5.90651,-1.81578 z m 1156.43853,-11.34053 0,-8.23381 64.5189,-64.51619 c 46.5493,-46.54736 64.7528,-64.14553 65.3589,-63.18538 0.4621,0.73193 1.4003,3.83395 2.085,6.89337 l 1.2448,5.56257 -65.851,65.85662 c -36.218,36.22115 -66.1897,65.85663 -66.6038,65.85663 -0.414,0 -0.7528,-3.70521 -0.7528,-8.23381 z m 111.1441,3.48381 c -0.5132,-2.0625 -1.1912,-4.86903 -1.5068,-6.23673 -0.5054,-2.19014 2.4248,-5.4939 24.5694,-27.70089 13.8288,-13.86779 25.4538,-25.02222 25.8334,-24.78762 0.3795,0.23459 1.2377,3.20979 1.9069,6.61155 l 1.2169,6.18502 -24.8245,24.83933 c -13.6534,13.66164 -25.1479,24.83934 -25.5434,24.83934 -0.3954,0 -1.1388,-1.6875 -1.6519,-3.75 z m -1612.144044,1.85857 c 0,-0.76264 1.89472,-6.61156 4.21048,-12.9976 l 4.21049,-11.61097 50.424244,-51 c 48.87542,-49.43348 70.37863,-70.88898 80.92954,-80.74999 4.65039,-4.34631 5.50424,-4.75 10.0468,-4.75 5.05835,0 6.17845,0.87639 6.17845,4.83419 0,0.91884 -35.1,36.76844 -78,79.6658 -42.9,42.89736 -78.000004,77.37121 -78.000004,76.60857 z m 1232.999944,0.20375 c 0,-0.65059 1.8737,-6.46276 4.1638,-12.91594 l 4.1638,-11.73306 61.098,-61.7827 c 33.6039,-33.98049 64.3701,-64.72973 68.3693,-68.33165 6.85,-6.16945 7.553,-6.54896 12.1312,-6.54896 4.9475,0 6.0739,0.89648 6.0739,4.83419 0,0.91884 -35.1,36.76844 -78,79.6658 -42.9,42.89736 -78,77.4629 -78,76.81232 z m -901.24994,-3.87805 c -2.6125,-1.35993 -4.75,-2.80425 -4.75,-3.20958 0,-0.40534 13.6125,-14.33678 30.25,-30.95876 l 30.25,-30.22177 5.80367,1.80447 c 3.19201,0.99246 5.80921,2.13649 5.81598,2.54229 0.021,1.2561 -60.27555,62.61193 -61.48238,62.56252 -0.6255,-0.0256 -3.27477,-1.15924 -5.88727,-2.51917 z m -217.26988,-6.49994 -1.83654,-6.06567 30.40014,-30.4124 c 16.72008,-16.72682 30.68741,-30.08477 31.03852,-29.68433 0.35111,0.40044 1.47065,3.1059 2.48787,6.01214 l 1.84948,5.28407 -30.45365,30.46593 c -16.7495,16.75626 -30.72266,30.46593 -31.05147,30.46593 -0.3288,0 -1.42426,-2.72955 -2.43435,-6.06567 z m 196.69169,2.10724 -5.00779,-3.95843 -2.48974,1.95843 c -1.36936,1.07714 -3.11799,1.95843 -3.88584,1.95843 -1.79038,0 -8.12878,-6.50045 -7.65065,-7.84625 0.19922,-0.56072 32.27577,-33.05337 71.28124,-72.20589 l 70.91903,-71.18639 4.58097,0.54556 c 2.51953,0.30006 5.91254,1.05336 7.54002,1.674 l 2.95905,1.12844 -29.99319,29.94526 -29.9932,29.94527 -4.53435,0 c -15.08622,0 -25.20952,10.05081 -23.45382,23.28589 l 0.67179,5.06424 -10.2898,10.32493 c -5.65939,5.67872 -9.83845,10.32494 -9.28681,10.32494 0.55164,0 5.0436,-4.08256 9.98213,-9.07235 4.93853,-4.98979 10.63172,-10.39993 12.65152,-12.02254 l 3.67237,-2.9502 3.71718,2.52255 c 2.04444,1.38739 4.10438,2.52254 4.57763,2.52254 0.47325,0 0.86045,0.56531 0.86045,1.25625 0,1.57583 -59.09253,60.74375 -60.66635,60.74375 -0.63473,0 -3.40756,-1.78129 -6.16184,-3.95843 z m 805.82813,0.45768 c 10.5236,-11.0988 33.3456,-33.487 33.7369,-33.09567 1.1885,1.18849 -6.9648,13.8514 -13.0589,20.28183 -7.0362,7.42453 -13.2584,12.00453 -20.1903,14.86156 l -3.9877,1.64357 3.5,-3.69129 z m 230.4801,-2.56492 -1.8365,-6.06567 30.4001,-30.4124 c 16.7201,-16.72682 30.6874,-30.08477 31.0385,-29.68433 0.3512,0.40044 1.4707,3.1059 2.4879,6.01214 l 1.8495,5.28407 -30.4537,30.46593 c -16.7495,16.75626 -30.7226,30.46593 -31.0514,30.46593 -0.3288,0 -1.4243,-2.72955 -2.4344,-6.06567 z m -462.48004,-3.6667 0,-7.73237 66.23974,-66.26763 66.2398,-66.26762 7.7602,0 c 4.9157,0 7.7602,0.398 7.7602,1.08583 0,1.52228 -145.23763,146.91416 -146.75829,146.91416 -0.88181,0 -1.24165,-2.24088 -1.24165,-7.73237 z m 892.96974,-1.01763 -0.03,-7.75 41.1792,-40.75 c 22.6486,-22.4125 41.3372,-40.75 41.5302,-40.75 0.193,0 0.3598,3.7125 0.3708,8.25 l 0.02,8.25 -40.7699,40.20602 c -22.4235,22.11331 -41.1074,40.22581 -41.5199,40.25 -0.4125,0.0242 -0.7636,-3.44352 -0.7802,-7.70602 z m -1208.96974,-3.4625 0,-8.70443 45.98013,-46.04154 c 25.28907,-25.32284 46.21407,-46.04153 46.5,-46.04153 0.28593,0 0.51987,3.71431 0.51987,8.25403 l 0,8.25403 -46.5,46.49194 -46.5,46.49194 0,-8.70444 z m 1125.02844,6.70988 c 0.016,-0.54856 1.0926,-5.45239 2.3931,-10.8974 l 2.3647,-9.90002 61.3738,-61.34998 61.3738,-61.34997 7.7331,0 c 4.2531,0 7.733,0.33868 7.733,0.75262 0,0.41394 -32.175,32.92526 -71.5,72.24737 -39.325,39.32212 -71.4872,71.04594 -71.4715,70.49738 z m -80.8568,-14.57367 c -0.6444,-2.79196 -1.1717,-5.83283 -1.1717,-6.7575 0,-1.96233 49.6047,-51.89484 50.5826,-50.91691 0.3622,0.36218 1.2687,3.26674 2.0145,6.4546 l 1.3559,5.7961 -25.2191,25.25 c -13.8706,13.8875 -25.4827,25.25 -25.8048,25.25 -0.3221,0 -1.1129,-2.28433 -1.7574,-5.07629 z M 91.449356,-183.7629 c 0,-0.27513 1.81778,-5.60013 4.03952,-11.83334 l 4.03952,-11.33311 51.206844,-51.25 51.20684,-51.24999 8.95329,0 8.9533,0 -63.33692,62.74999 c -34.83531,34.5125 -63.725154,62.9 -64.199664,63.08333 -0.4745,0.18334 -0.86273,0.10824 -0.86273,-0.16688 z m 288.617974,-3.87493 c -1.43988,-2.45698 -2.61797,-5.10733 -2.61797,-5.88966 0,-0.78234 29.5875,-30.95864 65.75,-67.05844 l 65.75,-65.636 6,0.51727 c 3.3,0.2845 6.5518,0.81223 7.22622,1.17274 0.76959,0.41138 -24.97428,26.85398 -69.13203,71.00839 l -70.35824,70.35293 -2.61798,-4.46723 z m 944.38197,3.87493 c 0,-0.27513 1.8178,-5.60013 4.0395,-11.83334 l 4.0395,-11.33311 51.2069,-51.25 51.2068,-51.24999 8.9445,0 8.9446,0 -63.3275,62.74999 c -34.8301,34.5125 -63.716,62.9 -64.1909,63.08333 -0.4749,0.18334 -0.8634,0.10824 -0.8634,-0.16688 z m -1120.25498,-1.29967 c -0.28458,-0.47673 -1.09718,-3.48537 -1.80578,-6.68586 l -1.28836,-5.81909 29.41982,-29.4325 c 16.1809,-16.18788 29.83113,-29.29541 30.33384,-29.12784 0.50271,0.16757 1.81675,2.68048 2.92009,5.58424 l 2.00608,5.27956 -30.53414,30.53413 c -16.79377,16.79378 -30.76697,30.14409 -31.05155,29.66736 z m 1232.99998,0 c -0.2846,-0.47673 -1.0972,-3.48537 -1.8058,-6.68586 l -1.2884,-5.81909 29.4198,-29.4325 c 16.1809,-16.18788 29.8312,-29.29541 30.3339,-29.12784 0.5027,0.16757 1.8167,2.68048 2.9201,5.58424 l 2.006,5.27956 -30.5341,30.53413 c -16.7938,16.79378 -30.767,30.14409 -31.0515,29.66736 z m 433.005,-4.93654 c -0.4125,-0.41996 -0.75,-4.16331 -0.75,-8.31853 l 0,-7.55496 40.7336,-40.77838 c 22.4034,-22.4281 41.0784,-40.77836 41.5,-40.77836 0.4215,0 0.7566,3.4875 0.7445,7.74999 l -0.022,7.75 -40.7282,41.34691 c -22.4004,22.7408 -41.0656,41.0033 -41.4781,40.58333 z m -1213.03713,-1.05076 c -0.39204,-0.39205 -0.71281,-3.90211 -0.71281,-7.80014 l 0,-7.08732 47,-46.99202 47,-46.99201 0,8.4737 0,8.47369 -46.28719,46.31846 c -25.45795,25.47515 -46.60795,45.99769 -47,45.60564 z m 1035.38163,-6.62948 c -0.6721,-2.3375 -1.4672,-5.09584 -1.7668,-6.12964 -0.4202,-1.4497 5.3471,-7.68665 25.2135,-27.26696 14.167,-13.96303 25.9701,-25.17544 26.2291,-24.91646 1.3096,1.30966 3.0424,12.0445 2.1986,13.6211 -1.0599,1.98059 -49.055,48.94196 -50.0192,48.94196 -0.3482,0 -1.183,-1.9125 -1.8552,-4.25 z m 92.9055,2.07221 c 0,-0.91913 0.9628,-5.86764 2.1395,-10.99668 l 2.1395,-9.32553 46.0488,-46.25 46.0489,-46.24999 8.3116,0 c 4.5714,0 8.3117,0.33899 8.3117,0.75332 0,0.41432 -25.425,26.17533 -56.5,57.24667 -31.075,31.07135 -56.5,55.74134 -56.5,54.82221 z m -1416.55468,-5.35185 -1.87958,-5.52964 58.46395,-58.47036 58.46396,-58.47035 7.7532,0 c 4.26427,0 7.75321,0.33883 7.75321,0.75295 0,1.19941 -126.38787,127.24704 -127.59051,127.24704 -0.59655,0 -1.93046,-2.48834 -2.96423,-5.52964 z m 1240.55468,-4.68862 0,-8.28862 54.2971,-54.29028 54.2972,-54.29027 8.4425,0.29372 8.4426,0.29372 -60.9497,61.32721 c -33.5224,33.72998 -61.7553,61.75831 -62.7397,62.28519 -1.6531,0.88467 -1.79,0.32388 -1.79,-7.33067 z m -624.03219,-1.03174 -0.032,-8.25 55.04489,-54.75 55.0448,-54.74999 7.9874,0 c 4.393,0 7.9873,0.33885 7.9873,0.753 0,0.98056 -124.27239,125.24699 -125.25299,125.24699 -0.4108,0 -0.7615,-3.7125 -0.7792,-8.25 z m -790.39679,1.84609 c -0.86403,-2.97215 -1.57096,-5.78751 -1.57096,-6.25635 0,-0.46885 13.25888,-14.10562 29.46418,-30.30394 l 29.46419,-29.45149 1.57145,3.76101 c 4.00231,9.57889 5.94214,6.69847 -26.09859,38.7535 -15.88856,15.89565 -29.42178,28.90118 -30.07381,28.90118 -0.65202,0 -1.89243,-2.43176 -2.75646,-5.40391 z m 1232.96768,0.22241 c -0.8463,-2.84983 -1.5387,-5.66519 -1.5387,-6.25636 0,-0.59117 13.2589,-14.32802 29.4642,-30.52634 l 29.4642,-29.45149 1.5714,3.76101 c 3.786,9.06104 5.631,6.36451 -26.3361,38.4902 -15.9613,16.04046 -29.4853,29.16448 -30.0534,29.16448 -0.568,0 -1.7253,-2.33168 -2.5716,-5.1815 z m 432.4647,-5.82307 0,-8.50458 40.7545,-40.74542 c 22.4116,-22.40998 41.0866,-40.74542 41.4966,-40.74542 0.41,0 0.7455,3.47628 0.7455,7.72507 l 0,7.72507 -41.4966,41.52492 -41.4966,41.52493 0,-8.50457 z m -890.00334,-2.50338 0,-9.00067 43.25424,-43.24569 43.2542,-43.24568 8.2458,0 c 4.5351,0 8.2457,0.33914 8.2457,0.75364 0,0.4145 -23.175,23.92536 -51.5,52.24635 l -51.49994,51.49272 0,-9.00067 z m 178.71464,-0.7044 -0.5595,-7.28765 31.349,-31.42466 31.349,-31.42464 3.5058,2.67398 c 6.9163,5.27528 8.1626,3.55817 -29.4017,40.50694 -18.8261,18.51761 -34.5564,33.79782 -34.9563,33.95603 -0.3998,0.1582 -0.9786,-2.9918 -1.2863,-7 z m 536.9581,5.46235 c -0.2449,-0.4125 -1.0253,-3.37002 -1.7343,-6.57227 l -1.2891,-5.82227 25.6348,-25.63485 c 14.0992,-14.09917 25.8621,-25.40765 26.1398,-25.12997 0.2777,0.27769 1.1349,3.20544 1.9048,6.50611 l 1.4,6.00123 -25.3487,25.70101 c -13.9419,14.13555 -25.5543,25.70101 -25.8054,25.70101 -0.2512,0 -0.657,-0.3375 -0.9019,-0.75 z m -1033.67274,-8.34866 0,-8.432 43.85679,-43.81491 c 39.79758,-39.75956 44.12458,-43.78434 46.75,-43.48466 2.71698,0.31012 2.91009,0.6348 3.17039,5.33024 l 0.27717,5 -46.27717,46.21643 c -25.45245,25.41904 -46.61468,46.53154 -47.02718,46.91666 -0.4125,0.38513 -0.75,-3.09417 -0.75,-7.73176 z m 947.99994,-2.42327 0,-9.00943 42.7771,-42.73432 42.7771,-42.73431 8.3413,0 8.3413,0 -21.0528,21.75 c -11.579,11.96249 -34.5823,35.24718 -51.1184,51.74374 l -30.0656,29.99375 0,-9.00943 z m -1225.46401,-4.72807 c -0.2762,-1.2375 -0.62227,-4.32623 -0.76905,-6.86385 l -0.26688,-4.61384 46.89181,-47.67686 c 25.7905,-26.22227 47.66965,-48.09315 48.62033,-48.60194 2.4029,-1.28599 17.98786,-2.49085 17.98786,-1.39062 0,1.06283 -110.16636,111.39711 -111.22757,111.39711 -0.40388,0 -0.9603,-1.0125 -1.2365,-2.25 z m -19.9448,-5.5 c 1.29819,-12.26524 -0.12591,-10.42679 35.90391,-46.35028 30.22114,-30.13193 33.94373,-33.51554 38.0483,-34.58357 6.62196,-1.72306 15.45689,-2.68421 15.45524,-1.68136 -0.002,0.94761 -88.46825,88.36521 -89.42568,88.36521 -0.3247,0 -0.3165,-2.5875 0.0182,-5.75 z m -244.42252,3.74851 c 0.18227,-0.82581 2.13139,-6.56556 4.33139,-12.75499 l 4,-11.2535 33.54914,-33.5387 33.54914,-33.53869 8.21014,0.29369 8.21014,0.29369 -46.09067,45.99999 c -25.34986,25.3 -45.94154,45.32433 -45.75928,44.49851 z m 1233.03603,10e-4 c 0.2561,-0.825 2.2273,-6.56475 4.3804,-12.75499 l 3.9149,-11.25499 33.5491,-33.5387 33.5492,-33.53869 8.2101,0.29369 8.2102,0.29369 -46.1398,45.99999 c -25.3768,25.3 -45.9302,45.325 -45.6741,44.5 z m -696.20464,-8.71492 0,-7.71492 32.72969,-32.78508 32.7297,-32.78507 8.2703,0 c 4.54867,0 8.27031,0.39104 8.27031,0.86899 0,1.20247 -79.80265,80.131 -81.01844,80.131 -0.55726,0 -0.98156,-3.33494 -0.98156,-7.71492 z m 1149.01994,4.96492 c 0.011,-0.4125 1.0908,-4.92037 2.3995,-10.0175 l 2.3794,-9.2675 18.015,-18.7325 c 9.9083,-10.30287 24.2771,-24.91999 31.9307,-32.48249 l 13.9156,-13.75 8.1699,0 c 4.4935,0 8.1699,0.33951 8.1699,0.75446 0,0.98045 -83.2739,84.24553 -84.2544,84.24553 -0.4101,0 -0.7366,-0.3375 -0.7256,-0.75 z m -199.02,-9.48282 0,-8.23283 32.2672,-32.26717 32.2672,-32.26717 7.7328,0 c 4.4598,0 7.7328,0.42092 7.7328,0.99445 0,1.19756 -77.9859,80.00554 -79.171,80.00554 -0.4559,0 -0.829,-3.70477 -0.829,-8.23282 z m -1069.99994,5.52471 c 0,-1.2432 54.40164,-55.29188 55.65296,-55.29188 1.37249,0 7.34704,6.91704 7.34704,8.50605 0,0.5777 -10.48445,11.50016 -23.29879,24.27215 l -23.29878,23.22179 -8.20122,0 c -4.51066,0 -8.20121,-0.31865 -8.20121,-0.70811 z m 49.63129,-3.99394 c -0.68802,-0.68801 27.17584,-29.29795 28.53393,-29.29795 1.4577,0 4.86102,11.08267 3.93194,12.80413 -0.50339,0.93273 -4.50451,5.18337 -8.89137,9.44587 l -7.97612,7.75 -7.44817,0 c -4.09649,0 -7.76409,-0.31592 -8.15021,-0.70205 z m -53.14692,-3.9896 c -3.52748,-8.44244 -5.1727,-6.02796 24.11276,-35.38719 14.76944,-14.80663 27.45117,-26.92115 28.18163,-26.92115 2.01176,0 8.22118,5.29193 8.22121,7.00647 3e-5,1.46879 -56.79277,58.99352 -58.24291,58.99352 -0.40162,0 -1.42433,-1.66124 -2.27269,-3.69165 z m 315.52389,-5.55835 0.008,-8.25 30.63186,-30.74999 30.63185,-30.75 7.85989,0 c 4.32293,0 7.85605,0.3375 7.85137,0.75 -0.0109,0.96376 -75.3435,77.24999 -76.28428,77.24999 -0.38897,0 -0.70349,-3.7125 -0.69895,-8.25 z m 141.99169,0.0172 0,-8.23283 32.26719,-32.26716 32.2672,-32.2672 8.3601,0 8.3602,0 -4.244,4.75 c -5.0058,5.60262 -75.96389,76.24999 -76.58539,76.24999 -0.2339,0 -0.4253,-3.70477 -0.4253,-8.23282 z m 174.79239,4.04158 -3.7077,-4.05645 25.6289,-26.30756 c 14.0959,-14.46915 27.5898,-27.94659 29.9863,-29.94985 l 4.3574,-3.64231 4.4695,2.82371 c 2.4583,1.55304 4.4704,3.2903 4.4714,3.86058 0,1.00491 -60.2007,61.53121 -61.0672,61.39572 -0.237,-0.0371 -2.0994,-1.8928 -4.1386,-4.12384 z m -554.22078,2.30703 c -0.30056,-0.48632 2.21561,-3.45937 5.59148,-6.60677 6.88122,-6.41551 7.26371,-6.31112 8.40521,2.29394 l 0.68941,5.19704 -7.06981,0 c -3.8884,0 -7.31573,-0.3979 -7.61629,-0.88421 z m -34.00743,-4.86032 -5.93588,-0.36637 21.42715,-21.44455 c 11.78494,-11.79452 21.91072,-21.44456 22.50174,-21.44456 1.23045,0 5.44286,7.0793 5.44286,9.14718 0,2.39118 -33.27847,34.8759 -35.51072,34.66373 -1.0941,-0.104 -4.66042,-0.35395 -7.92515,-0.55545 z m 518.06361,-0.96104 c -0.3881,-0.38806 14.2719,-15.68806 32.5777,-33.99999 l 33.2833,-33.29445 4.5056,0.11831 c 2.4781,0.0651 5.8069,0.40258 7.3974,0.75 2.8041,0.61253 1.8984,1.64036 -29.8532,33.88168 l -32.7449,33.25 -7.2302,0 c -3.9766,0 -7.5477,-0.31751 -7.9357,-0.70557 z m 57.42,-0.24371 c -0.7987,-0.50526 -3.6112,-1.2156 -6.25,-1.57853 -2.6388,-0.36292 -4.7978,-0.98196 -4.7978,-1.37562 0,-0.39367 13.6862,-14.07644 30.4137,-30.40616 18.9716,-18.52044 31.1527,-29.69042 32.3779,-29.69042 3.0284,0 9.2084,2.87646 9.2084,4.28606 0,1.13867 -57.9489,59.73484 -59.0391,59.69862 -0.2535,-0.008 -1.1144,-0.42871 -1.9131,-0.93397 z m -1028.04774,-5.45841 c 0,-0.49198 1.87664,-6.27274 4.17031,-12.84613 l 4.17031,-11.95162 16.07969,-16.42105 16.07969,-16.42106 8.25,0.0238 c 4.5375,0.0131 8.25,0.36423 8.25,0.78035 0,0.41612 -12.825,13.57566 -28.5,29.24341 -15.675,15.66776 -28.5,28.08431 -28.5,27.59233 z m 1232.99994,-0.0719 c 0,-0.53153 1.9125,-6.34167 4.25,-12.91143 l 4.25,-11.94501 16.2197,-16.33198 16.2198,-16.332 8.0302,0 c 4.4167,0 8.0303,0.34046 8.0303,0.75658 0,0.41612 -12.825,13.57566 -28.5,29.24341 -15.675,15.66776 -28.5,28.05195 -28.5,27.52042 z m -696.99994,-8.14135 0,-7.62093 18.13503,-18.62906 c 27.31861,-28.06285 23.4834,-25.12908 32.85028,-25.12908 4.40808,0 8.01469,0.34041 8.01469,0.75647 0,0.98028 -57.27585,58.24352 -58.25636,58.24352 -0.409,0 -0.74364,-3.42942 -0.74364,-7.62093 z m 179.66667,6.95426 c -0.36667,-0.36667 -0.66667,-4.06636 -0.66667,-8.22153 l 0,-7.55485 19.27848,-19.27847 19.27848,-19.27848 8.9647,0 8.9647,0 -27.48636,27.49999 c -15.1175,15.125 -27.52693,27.5 -27.57651,27.5 -0.0496,0 -0.39016,-0.3 -0.75682,-0.66667 z m -314.95864,-4.56861 -4.79197,-3.17619 26.9526,-26.95259 c 26.75236,-26.75236 26.9737,-26.94374 29.79197,-25.75968 1.56165,0.65611 3.94069,2.0338 5.28676,3.06153 l 2.44738,1.8686 -26.33753,27.09681 c -14.48565,14.90324 -26.83697,27.08351 -27.44739,27.06726 -0.61042,-0.0162 -3.26624,-1.45883 -5.90182,-3.20574 z m 600.29191,2.41831 c 0,-0.92981 61.2423,-62.17948 63.3531,-63.36076 1.6793,-0.93978 13.8553,1.07847 13.442,2.2281 -0.1623,0.45143 -13.8758,14.57478 -30.4743,31.38521 l -30.1793,30.56441 -8.0707,0 c -4.439,0 -8.0708,-0.36763 -8.0708,-0.81696 z m 685,-1.06607 c 0,-0.75317 0.9466,-5.4751 2.1036,-10.49318 l 2.1036,-9.12379 17.6772,-17.74999 17.6772,-17.75 7.7192,0 c 4.2456,0 7.7192,0.34057 7.7192,0.75682 0,0.41625 -12.375,13.12568 -27.5,28.24317 -15.125,15.1175 -27.5,26.87013 -27.5,26.11697 z M 492.13516,-258.167 c -2.6478,-0.20744 -4.6728,-0.78286 -4.5,-1.27871 0.51825,-1.48703 47.66329,-50.43395 52.35371,-54.35466 2.38777,-1.99593 4.84728,-3.62896 5.46557,-3.62896 1.66212,0 10.99492,4.14225 10.99492,4.87996 0,0.34852 -12.26551,12.89311 -27.2567,27.87686 -22.16904,22.15804 -27.72209,27.20953 -29.75,27.06292 -1.37131,-0.0991 -4.65969,-0.34997 -7.3075,-0.55741 z m 1111.04844,0.13863 c -0.4039,-0.40387 -0.7343,-4.13517 -0.7343,-8.29177 l 0,-7.55748 21.2759,-21.27585 21.2758,-21.27586 7.7242,0 c 4.2482,0 7.7011,0.3375 7.673,0.75 -0.104,1.52555 -56.5069,58.35866 -57.2146,57.65096 z m -1231.42691,-4.18764 c 2.70913,-13.54563 13.9788,-30.5213 27.15085,-40.89773 6.22849,-4.90656 20.93657,-12.83885 27.51746,-14.84057 2.36847,-0.72043 2.33051,-0.58468 -0.87687,3.13598 -1.84388,2.13895 -14.8257,15.47163 -28.84848,29.62818 -19.51867,19.70485 -25.36631,25.09093 -24.94296,22.97414 z m 610.69262,-7.97185 0,-7.75853 21.75829,-21.74146 21.7584,-21.74148 7.7416,0 c 4.258,0 7.7417,0.34041 7.7417,0.75647 0,0.98028 -57.27589,58.24352 -58.25639,58.24352 -0.409,0 -0.7436,-3.49134 -0.7436,-7.75852 z m 613.99999,-12.11609 0,-7.87461 9.6567,-9.62538 9.6567,-9.62539 7.8433,0 c 4.3138,0 7.8433,0.34246 7.8433,0.76103 0,0.9799 -33.2802,34.23896 -34.2607,34.23896 -0.4066,0 -0.7393,-3.54358 -0.7393,-7.87461 z m -939.99994,-4.89243 0,-7.76706 10.76633,-10.73294 10.76633,-10.73295 7.73367,0 c 4.25352,0 7.73367,0.34219 7.73367,0.76042 0,0.97995 -35.27963,36.23957 -36.26014,36.23957 -0.40692,0 -0.73986,-3.49517 -0.73986,-7.76704 z m 323,-2.37792 0,-8.14498 10.09915,-9.85502 10.0992,-9.85503 7.90079,0 c 4.3454,0 7.9008,0.34232 7.9008,0.76072 0,0.97992 -34.27989,35.23927 -35.26039,35.23927 -0.40675,0 -0.73955,-3.66523 -0.73955,-8.14496 z m -137,-5.41082 0,-7.72246 8.2555,-8.40527 8.25549,-8.40527 8.28973,0.2944 8.28972,0.29439 -15.55164,15.5 c -8.55341,8.525 -15.99876,15.65 -16.54522,15.83333 -0.60111,0.20167 -0.99358,-2.71711 -0.99358,-7.38912 z m 970.99994,5.3556 c 0,-0.36982 1.1207,-5.30057 2.4903,-10.95721 1.9304,-7.97202 3.1251,-10.91949 5.3127,-13.10718 2.6998,-2.69978 3.1788,-2.80961 11.0288,-2.52889 l 8.2065,0.29347 -13.5192,13.48611 c -7.4355,7.41735 -13.5191,13.18352 -13.5191,12.8137 z m -1680.91494,-2.31612 c 0.0468,-1.09103 1.74184,-6.48369 3.76685,-11.98369 l 3.68185,-10 6.88402,-0.29913 c 3.78621,-0.16452 7.25854,0.0754 7.71628,0.53313 0.45775,0.45775 -4.33515,5.98501 -10.65087,12.28282 -7.98565,7.963 -11.45724,10.84637 -11.39813,9.46687 z m 1232.97514,0 c 0.033,-1.09103 1.7298,-6.48369 3.7705,-11.98369 l 3.7103,-10 6.8804,-0.29913 c 3.7842,-0.16452 7.2549,0.0754 7.7126,0.53313 0.4577,0.45775 -4.3351,5.98501 -10.6509,12.28282 -8.0713,8.04844 -11.4652,10.86117 -11.4229,9.46687 z m -711.06014,-14.30938 0,-7.17431 7,0 c 3.85,0 7,0.35631 7,0.79179 0,0.74214 -4.98025,5.68054 -11.25,11.15546 l -2.75,2.40138 0,-7.17432 z m 321,-0.17431 0,-7 6.99995,0 c 3.85,0 7,0.3505 7,0.77889 0,0.97805 -12.29467,13.22111 -13.27686,13.22111 -0.3977,0 -0.72309,-3.15 -0.72309,-7 z m 624.99994,-0.5 0,-6.5 6.5622,0 6.5621,0 -5.8121,6.49944 c -3.1967,3.5747 -6.1497,6.4997 -6.5622,6.5 -0.4125,3.1e-4 -0.75,-2.92444 -0.75,-6.49944 z m -763.99994,-1.5 0,-5 5,0 c 2.75,0 5,0.32047 5,0.71215 0,0.98489 -8.23176,9.28785 -9.20821,9.28785 -0.43548,0 -0.79179,-2.25 -0.79179,-5 z"
       id="path3048"
       inkscape:connector-curvature="0" />
  </g>
</svg>
